<?xml version="1.0" standalone="no"?>
<!DOCTYPE svg PUBLIC "-//W3C//DTD SVG 1.1//EN" "http://www.w3.org/Graphics/SVG/1.1/DTD/svg11.dtd" >
<svg xmlns="http://www.w3.org/2000/svg">
<metadata></metadata>
<defs>
<font id="pf_din_text_comp_probold" horiz-adv-x="1818" >
<font-face units-per-em="1000" ascent="750" descent="-250" />
<missing-glyph horiz-adv-x="215" />
<glyph unicode="fj" horiz-adv-x="490" d="M196 494h251v-530q0 -86 -49 -123t-137 -37h-11v128h17q26 0 34.5 16.5t8.5 52.5v387h-114v-388h-137v388h-44v106h44v66q0 47 15.5 80t41 53.5t59 30t70.5 9.5q21 0 43.5 -2.5t46 -9t45.5 -17.5t41 -28l-72 -102q-18 18 -43.5 24t-48.5 6q-21 0 -33 -6.5t-18 -15.5 t-8 -19.5t-2 -18.5v-50z" />
<glyph unicode="ffj" horiz-adv-x="741" d="M447 495h251v-531q0 -86 -49 -123t-137 -37h-11v128h17q26 0 34.5 16.5t8.5 52.5v387h-114v-388h-137v388h-114v-388h-137v388h-44v107h44v37q0 47 15.5 80t41 53.5t59 30t70.5 9.5q24 0 52.5 -5.5t56.5 -17.5q26 27 63 39t79 12q21 0 44 -2.5t46 -9t44.5 -17.5t39.5 -27 l-70 -102q-23 17 -46 23t-46 6q-21 0 -33 -6.5t-18 -15.5t-8 -19.5t-2 -18.5v-49zM257 576q-21 0 -33 -6.5t-18 -15.5t-8 -19.5t-2 -18.5v-21h114v71q-14 7 -29 8.5t-24 1.5z" />
<glyph unicode="ff" horiz-adv-x="518" d="M515 736v-124h-33q-14 0 -24.5 -10.5t-10.5 -26.5v-81h71v-106h-71v-388h-137v388h-114v-388h-137v388h-44v106h44v38q0 47 15.5 80t41 53.5t59 30t70.5 9.5q20 0 44.5 -4t48.5 -12q19 24 47.5 35.5t60.5 11.5h69zM196 494h114v75q-17 5 -28.5 6t-24.5 1q-21 0 -33 -6.5 t-18 -15.5t-8 -19.5t-2 -18.5v-22z" />
<glyph unicode="fi" horiz-adv-x="490" d="M310 0v388h-114v-388h-137v388h-44v106h44v66q0 47 15.5 80t41 53.5t59 30t70.5 9.5q21 0 44.5 -2.5t47.5 -9t45.5 -17.5t38.5 -28l-72 -102q-18 18 -43.5 24t-48.5 6q-21 0 -33 -6.5t-18 -15.5t-8 -19.5t-2 -18.5v-50h251v-494h-137z" />
<glyph unicode="fl" horiz-adv-x="508" d="M468 -5q-80 0 -119 34t-39 117l1 451q-17 5 -29 6t-25 1q-21 0 -33 -6.5t-18 -15.5t-8 -19.5t-2 -18.5v-50h79v-106h-79v-388h-137v388h-44v106h44v66q0 47 13.5 80t38 53.5t58 30t73.5 9.5q8 0 28.5 -0.5t48 -3.5t61 -8.5t67.5 -15.5v-541q0 -26 9 -35t24 -9h12v-125 h-24z" />
<glyph unicode="ffi" horiz-adv-x="741" d="M561 0v388h-114v-388h-137v388h-114v-388h-137v388h-44v107h44v37q0 47 15.5 80t41 53.5t59 30t70.5 9.5q24 0 52.5 -5.5t56.5 -17.5q26 27 63 39t79 12q21 0 44 -2.5t46 -9t44.5 -17.5t39.5 -27l-70 -102q-23 17 -46 23t-46 6q-21 0 -33 -6.5t-18 -15.5t-8 -19.5 t-2 -18.5v-49h251v-495h-137zM257 576q-21 0 -33 -6.5t-18 -15.5t-8 -19.5t-2 -18.5v-21h114v71q-14 7 -29 8.5t-24 1.5z" />
<glyph unicode="ffl" horiz-adv-x="762" d="M240 705q24 0 55 -5.5t59 -17.5q26 27 64 39t78 12q8 0 29 -0.5t49.5 -3.5t61.5 -8.5t65 -15.5v-541q0 -26 9 -35t24 -9h12v-125h-24q-80 0 -119 34t-39 117l1 451q-17 5 -29 6t-25 1q-22 0 -34.5 -6.5t-19 -15.5t-8.5 -19.5t-2 -18.5v-49h79v-107h-79v-388h-137v388 h-114v-388h-137v388h-44v107h44v37q0 47 14.5 80t39 53.5t57.5 30t70 9.5zM257 576q-21 0 -33 -6.5t-18 -15.5t-8 -19.5t-2 -18.5v-21h114v68q-12 7 -26 10t-27 3z" />
<glyph unicode="ft" horiz-adv-x="528" d="M440 0q-36 0 -60.5 11t-40 29t-22 40.5t-6.5 45.5v262h-115v-388h-137v388h-44v106h44v90q0 38 11 65t30 44t43.5 25t51.5 8h69v-124h-33q-14 0 -24.5 -10.5t-10.5 -26.5v-71h115v131h129v-130h56v-107h-56v-218q0 -9 1 -17t5 -14.5t13 -10.5t25 -4h12v-124h-56z" />
<glyph unicode=" "  horiz-adv-x="215" />
<glyph unicode="&#x09;" horiz-adv-x="215" />
<glyph unicode="&#xa0;" horiz-adv-x="215" />
<glyph unicode="!" horiz-adv-x="275" d="M194 203h-113l-10 493h133zM74 0v139h128v-139h-128z" />
<glyph unicode="&#x22;" horiz-adv-x="310" d="M179 477v219h93v-219h-93zM39 477v219h92v-219h-92z" />
<glyph unicode="#" horiz-adv-x="430" d="M4 302h68l20 102h-52v95h67l34 196h98l-35 -196h70l35 196h98l-36 -196h54v-95h-70l-17 -102h53v-95h-71l-36 -207h-97l36 207h-71l-35 -207h-98l37 207h-52v95zM170 302h70l19 102h-71z" />
<glyph unicode="$" horiz-adv-x="430" d="M400 205q0 -46 -7.5 -83.5t-26.5 -65t-50 -43.5t-78 -18v-78h-36v78q-44 2 -75 17t-50.5 39t-28.5 55.5t-9 66.5l136 26q2 -29 7.5 -48t19.5 -25v169q-51 21 -82.5 43.5t-48 48t-22 54.5t-5.5 63q0 40 9 74.5t28 60.5t49 42t72 20v68h36v-67q48 -2 79.5 -19.5t49.5 -42.5 t25.5 -55t7.5 -58l-134 -29q0 24 -5 44.5t-23 26.5v-142q51 -24 82.5 -46t49.5 -47t24 -56t6 -73zM266 204q0 28 -6 44.5t-22 27.5v-151q19 7 23.5 30t4.5 49zM179 505q0 -18 3.5 -31.5t19.5 -25.5v120q-14 -8 -18.5 -27t-4.5 -36z" />
<glyph unicode="%" horiz-adv-x="657" d="M536 318q0 5 -4 11.5t-13 6.5t-12.5 -6.5t-3.5 -11.5v-216q0 -5 4 -10.5t13 -5.5q8 0 12 5.5t4 10.5v216zM631 97q0 -46 -31 -72.5t-79 -26.5t-78.5 26.5t-30.5 72.5v228q0 46 31 72t78 26q49 0 79.5 -26t30.5 -72v-228zM150 598q0 5 -4 11.5t-13 6.5t-12.5 -6.5 t-3.5 -11.5v-216q0 -5 4 -10.5t13 -5.5q8 0 12 5.5t4 10.5v216zM245 377q0 -46 -31 -72.5t-79 -26.5t-78.5 26.5t-30.5 72.5v228q0 46 31 72t78 26q49 0 79.5 -26t30.5 -72v-228zM208 -17h-81l314 731h81z" />
<glyph unicode="&#x26;" horiz-adv-x="499" d="M203 536q0 -20 11.5 -47.5t28.5 -58.5l93 -172q3 13 6 31.5t2 40.5h115q1 -51 -12 -101t-33 -88l79 -141h-145l-20 35q-29 -24 -61 -32.5t-65 -8.5q-74 0 -116.5 51.5t-42.5 137.5q0 59 23.5 105t65.5 86l-11 19q-17 30 -29 65t-12 79q0 35 11 65t30.5 52t47 34.5 t61.5 12.5q58 0 103 -25t71 -85l-107 -56q-9 25 -25 36.5t-30 11.5q-23 0 -31 -15t-8 -32zM194 265q-25 -37 -25 -78q0 -29 13 -51t37 -22q14 0 28 5t24 14z" />
<glyph unicode="'" horiz-adv-x="200" d="M57 477v219h92v-219h-92z" />
<glyph unicode="(" horiz-adv-x="296" d="M56 308q0 61 11 118t30 109t44 99.5t54 89.5l85 -41q-24 -42 -43 -89t-32.5 -95t-20.5 -95.5t-7 -91.5q0 -98 27.5 -198t72.5 -180l-72 -48q-66 93 -107.5 197t-41.5 225z" />
<glyph unicode=")" horiz-adv-x="296" d="M280 308q0 -121 -41.5 -225t-107.5 -197l-72 48q45 80 72.5 180t27.5 198q0 44 -7 91.5t-20.5 95.5t-32.5 95t-43 89l85 41q28 -42 53.5 -89.5t44.5 -99.5t30 -109t11 -118z" />
<glyph unicode="*" horiz-adv-x="394" d="M330 404l-71 -50l-63 105l-65 -106l-71 51l78 98l-113 31l28 82l109 -45l-11 125h89l-11 -124l108 44l30 -82l-117 -31z" />
<glyph unicode="+" horiz-adv-x="430" d="M268 243v-151h-109v151h-140v111h140v151h109v-151h140v-111h-140z" />
<glyph unicode="," horiz-adv-x="234" d="M123 -153h-76l33 149h-29v154h136v-151z" />
<glyph unicode="-" horiz-adv-x="383" d="M49 216v120h296v-120h-296z" />
<glyph unicode="." horiz-adv-x="229" d="M47 0v150h135v-150h-135z" />
<glyph unicode="/" horiz-adv-x="289" d="M101 -42h-101l187 767h101z" />
<glyph unicode="0" horiz-adv-x="430" d="M380 154q0 -37 -12 -66.5t-34 -50.5t-51.5 -32t-63.5 -11q-35 0 -65 11t-52 32t-34 50.5t-12 66.5v387q0 37 12.5 67t34.5 51t51.5 32t64.5 11q72 0 116.5 -43t44.5 -118v-387zM247 546q0 13 -8.5 20.5t-19.5 7.5t-20.5 -7.5t-9.5 -20.5v-397q0 -12 9.5 -19.5t20.5 -7.5 t19.5 7.5t8.5 19.5v397z" />
<glyph unicode="1" horiz-adv-x="430" d="M194 0v537l-91 -71v149l104 81h120v-696h-133z" />
<glyph unicode="2" horiz-adv-x="430" d="M54 0v120l171 317q13 24 16.5 45.5t3.5 46.5q0 14 -6.5 29t-23.5 15q-6 0 -13 -3t-12.5 -12t-9.5 -25t-4 -41l-132 16q0 50 13.5 86.5t37 60.5t54.5 35.5t66 11.5q89 0 128.5 -47t39.5 -126q0 -47 -10 -81t-33 -78l-126 -239h160v-131h-320z" />
<glyph unicode="3" horiz-adv-x="430" d="M325 358q32 -15 44 -46t12 -60v-69q0 -87 -45 -138t-133 -51q-177 0 -168 195l135 16q-3 -27 0 -43t9 -25t13 -11.5t13 -2.5q11 0 24 8.5t13 35.5v83q0 29 -16 41t-36 12h-30v114h38q20 0 34.5 11t14.5 37v66q0 14 -7 27.5t-25 13.5q-7 0 -14 -3t-12.5 -11.5t-9 -24.5 t-3.5 -42l-132 16q0 46 13.5 82.5t37.5 61.5t56 38t69 13q46 0 77 -14.5t49.5 -37.5t26.5 -52t8 -57v-41q0 -19 -1.5 -39t-7.5 -38.5t-17 -34t-30 -25.5v-5z" />
<glyph unicode="4" horiz-adv-x="430" d="M357 98v-98h-131v98h-203v111l149 487h132l-141 -470h63v124h131v-124h39v-128h-39z" />
<glyph unicode="5" horiz-adv-x="430" d="M384 183q0 -91 -42.5 -140t-130.5 -49q-79 0 -122 48.5t-38 146.5l129 16q-3 -27 -0.5 -43t8 -24.5t12.5 -11t13 -2.5q11 0 21.5 8t10.5 35v149q0 28 -28 28q-8 0 -21 -6.5t-22 -29.5h-111v388h311v-127h-185v-126l3 -1q11 12 31 18t34 6q68 0 97.5 -38t29.5 -98v-147z " />
<glyph unicode="6" horiz-adv-x="430" d="M245 404q15 8 37 8q16 0 34 -5t33.5 -20t25.5 -41.5t10 -69.5v-98q0 -35 -7 -68.5t-26 -59t-51.5 -41t-83.5 -15.5q-41 0 -70.5 12t-49.5 33t-29.5 49t-9.5 61v62q0 37 3 72t16 70l127 343h147l-111 -288zM250 281q0 14 -9.5 21t-20.5 7t-19.5 -7t-8.5 -21v-131 q0 -13 8.5 -20t19.5 -7t20.5 7t9.5 20v131z" />
<glyph unicode="7" horiz-adv-x="430" d="M210 0h-135l165 569h-63v-67h-122v194h327v-116z" />
<glyph unicode="8" horiz-adv-x="430" d="M328 362q19 -9 29 -24t15 -33t6 -38t1 -40v-57q0 -86 -42 -131t-119 -45q-44 0 -75 14t-51 38t-29 55.5t-9 66.5v35q0 19 1 42t6 45t16 41t32 31l-1 6q-19 10 -29.5 25.5t-16 34t-6.5 38.5t-1 39v30q0 32 10 62t30 53.5t50 37.5t71 14q42 0 73 -13t50.5 -35.5t29 -52.5 t9.5 -64v-32q0 -20 -1 -40.5t-6.5 -39.5t-16 -34t-29.5 -24zM245 547q0 11 -8 19t-20 8q-10 0 -20 -8t-10 -19v-106q0 -11 9.5 -19t20.5 -8q12 0 20 8t8 19v106zM245 288q0 11 -8 19t-20 8t-21 -8t-9 -19v-140q0 -11 9.5 -18.5t20.5 -7.5q12 0 20 7.5t8 18.5v140z" />
<glyph unicode="9" horiz-adv-x="430" d="M193 292q-15 -8 -37 -8q-16 0 -34 3.5t-33.5 17t-25.5 41t-10 75.5v97q0 35 7 68.5t26 59t51.5 41t83.5 15.5q40 0 70 -12t50 -33t29.5 -49t9.5 -61v-62q0 -37 -3 -72t-16 -70l-127 -343h-147l111 288zM188 415q0 -14 9.5 -21t20.5 -7t19.5 7t8.5 21v131q0 13 -8.5 20 t-19.5 7t-20.5 -7t-9.5 -20v-131z" />
<glyph unicode=":" horiz-adv-x="229" d="M47 259v150h135v-150h-135zM47 0v150h135v-150h-135z" />
<glyph unicode=";" horiz-adv-x="234" d="M123 -153h-76l33 149h-29v154h136v-151zM51 259v150h135v-150h-135z" />
<glyph unicode="&#x3c;" horiz-adv-x="430" d="M407 66l-388 190v91l391 191v-132l-247 -105l244 -103v-132z" />
<glyph unicode="=" horiz-adv-x="430" d="M19 335v111h389v-111h-389zM19 156v111h389v-111h-389z" />
<glyph unicode="&#x3e;" horiz-adv-x="430" d="M23 198l244 103l-247 105v132l391 -191v-91l-388 -190v132z" />
<glyph unicode="?" horiz-adv-x="416" d="M390 516q0 -26 -2 -45.5t-5.5 -35t-9.5 -28t-13 -25.5l-51 -90q-8 -13 -11.5 -27t-3.5 -37v-37h-133v77q0 23 7.5 44t18.5 40q22 36 34.5 59.5t18.5 40.5t7 31t1 33q0 18 -9.5 37t-33.5 19q-16 0 -31 -17.5t-15 -61.5l-131 15q4 94 51 144t134 50q93 0 135 -48t42 -138z M163 0v139h128v-139h-128z" />
<glyph unicode="@" horiz-adv-x="811" d="M455 184q-19 -26 -46.5 -37t-53.5 -11q-30 0 -50 10t-32 27.5t-17 40t-5 47.5t7.5 48.5t24 41t41.5 28t61 10.5h39v29q0 15 -6 22.5t-24 7.5q-8 0 -18 -7.5t-16 -30.5l-98 33q16 53 52 81t91 28q67 0 99.5 -28.5t32.5 -99.5v-161q0 -20 11.5 -29.5t22.5 -9.5q13 0 28 6 t27.5 23.5t21 48t8.5 80.5q0 55 -14.5 101t-44 79t-74 51.5t-103.5 18.5q-70 0 -120 -24.5t-82.5 -65.5t-48 -94.5t-15.5 -111.5q0 -148 69 -226t189 -78q44 0 82.5 10t86.5 36l39 -83q-49 -23 -100 -37.5t-103 -14.5q-79 0 -144.5 23t-113 71t-73.5 122t-26 177 q0 82 24 152.5t69.5 122.5t112 81.5t151.5 29.5q88 0 151.5 -27t104.5 -73.5t60.5 -108.5t19.5 -131q0 -68 -17 -115.5t-45 -77.5t-63.5 -43.5t-71.5 -13.5q-7 0 -20 2.5t-27.5 8.5t-28 15.5t-21.5 24.5zM424 314h-24q-14 0 -25.5 -10t-11.5 -36q0 -17 8.5 -25t22.5 -8 t22 11t8 28v40z" />
<glyph unicode="A" horiz-adv-x="449" d="M276 136h-102l-21 -136h-144l132 696h166l133 -696h-143zM207 375l-14 -111h63l-13 111l-15 141h-6z" />
<glyph unicode="B" horiz-adv-x="446" d="M264 498q0 41 -15 54.5t-48 13.5h-14v-138h17q60 0 60 70zM270 226q0 42 -14.5 59t-43.5 17h-25v-171h24q19 0 30.5 7.5t18 20.5t8.5 30t2 37zM318 364q24 -8 39.5 -23t25 -34.5t13.5 -42.5t4 -47q0 -112 -49 -164.5t-146 -52.5h-154v696h157q93 0 139.5 -49t46.5 -145 q0 -21 -4.5 -41.5t-13.5 -38.5t-23.5 -32t-34.5 -21v-5z" />
<glyph unicode="C" horiz-adv-x="427" d="M226 702q91 0 134.5 -44.5t43.5 -115.5v-9.5t-1 -9.5l-131 -23q-1 31 -13.5 51.5t-33.5 20.5q-14 0 -22.5 -5.5t-13.5 -13.5t-7 -17.5t-2 -16.5v-355q0 -14 7 -27t33 -13q20 0 32.5 18t13.5 54l135 -18q-1 -83 -46 -133.5t-130 -50.5q-94 0 -137 44t-43 132v349 q0 83 44.5 133t136.5 50z" />
<glyph unicode="D" horiz-adv-x="446" d="M259 505q0 29 -9.5 44.5t-41.5 15.5h-21v-434h21q32 0 41.5 15t9.5 45v314zM235 696q62 0 98 -21.5t50 -72.5q9 -32 10.5 -99.5t1.5 -153.5t-1.5 -150t-12.5 -96q-19 -59 -60.5 -81t-94.5 -22h-174v696h183z" />
<glyph unicode="E" horiz-adv-x="394" d="M51 0v696h319v-130h-183v-147h160v-131h-160v-157h183v-131h-319z" />
<glyph unicode="F" horiz-adv-x="394" d="M187 566v-147h160v-131h-160v-288h-136v696h319v-130h-183z" />
<glyph unicode="G" horiz-adv-x="440" d="M233 702q47 0 81.5 -13.5t57 -37.5t32 -57t6.5 -71l-131 -23q-1 31 -13.5 51.5t-33.5 20.5q-14 0 -22.5 -5.5t-13.5 -13.5t-7 -17.5t-2 -16.5v-355q0 -14 7 -27t33 -13q20 0 33 10.5t13 27.5v107h-47v119h182v-219q0 -86 -46 -130.5t-130 -44.5q-94 0 -137 44t-43 132 v349q0 83 46.5 133t134.5 50z" />
<glyph unicode="H" horiz-adv-x="459" d="M274 0v288h-87v-288h-136v696h136v-276h87v276h135v-696h-135z" />
<glyph unicode="I" horiz-adv-x="242" d="M53 0v696h136v-696h-136z" />
<glyph unicode="J" horiz-adv-x="381" d="M330 696v-527q0 -82 -46.5 -128.5t-130.5 -46.5q-47 0 -88 23t-70 69l101 78q13 -19 29 -29t27 -10q23 0 33 16t10 30v525h135z" />
<glyph unicode="K" horiz-adv-x="446" d="M194 481l95 215h145l-145 -288l160 -408h-141l-97 267l-24 -63v-204h-136v696h136v-215h7z" />
<glyph unicode="L" horiz-adv-x="378" d="M51 0v696h136v-565h183v-131h-319z" />
<glyph unicode="M" horiz-adv-x="582" d="M246 136l-29 89l-32 103h-5v-328h-135v696h127l69 -186l47 -138h6l48 141l68 183h127v-696h-136v325h-4l-33 -108l-27 -81h-91z" />
<glyph unicode="N" horiz-adv-x="481" d="M301 367v329h133v-696h-116l-82 203l-48 132h-5v-335h-135v696h119l82 -202l47 -127h5z" />
<glyph unicode="O" horiz-adv-x="445" d="M262 532q0 23 -11.5 33t-28.5 10t-29 -10t-12 -33v-368q0 -24 12 -33.5t29 -9.5t28.5 9.5t11.5 33.5v368zM400 170q0 -90 -45 -133t-133 -43q-177 0 -177 176v357q0 90 47 132.5t130 42.5q91 0 134.5 -42.5t43.5 -132.5v-357z" />
<glyph unicode="P" horiz-adv-x="428" d="M216 696q44 0 79.5 -10.5t61 -35t39.5 -66t14 -103.5q0 -107 -45 -166.5t-146 -59.5h-32v-255h-136v696h165zM187 566v-180h23q13 0 25.5 3.5t22.5 14t16 29.5t6 49q0 46 -18.5 65t-49.5 19h-25z" />
<glyph unicode="Q" horiz-adv-x="446" d="M403 170q0 -41 -11 -74l62 -46l-63 -78l-63 44q-40 -22 -103 -22q-177 0 -177 176v357q0 90 47 132.5t130 42.5q91 0 134.5 -42.5t43.5 -132.5v-357zM265 529q0 23 -11.5 33t-28.5 10t-29 -10t-12 -33v-362q0 -24 12 -33.5t29 -9.5t28.5 9.5t11.5 33.5v362z" />
<glyph unicode="R" horiz-adv-x="446" d="M216 696q43 0 79 -10.5t62 -35t40.5 -64t14.5 -96.5q0 -71 -19 -116t-58 -72l100 -302h-139l-82 271h-27v-271h-136v696h165zM187 566v-164h21q15 0 28 3.5t23.5 13.5t16.5 26.5t6 43.5q0 40 -19.5 58.5t-50.5 18.5h-25z" />
<glyph unicode="S" horiz-adv-x="427" d="M397 205q0 -48 -8.5 -87t-29 -66.5t-55.5 -42.5t-88 -15q-48 0 -82.5 14t-56 38.5t-31.5 57t-10 69.5l136 26q2 -38 11.5 -57t35.5 -19q15 0 23.5 7t13 18t6 26t1.5 30q0 21 -3 35t-10.5 24t-20.5 17.5t-32 15.5q-51 21 -82 43.5t-47.5 48t-21.5 54t-5 62.5q0 43 10 79.5 t31.5 62.5t56 41t83.5 15q52 0 86 -16.5t53.5 -42t27.5 -56.5t8 -60l-134 -29q0 15 -1.5 28t-6.5 23.5t-13.5 16.5t-23.5 6q-14 0 -22 -6.5t-12.5 -16t-6 -21.5t-1.5 -23q0 -14 2 -25t10 -21t23.5 -19.5t43.5 -20.5q48 -19 76 -40t42.5 -46t19 -56.5t4.5 -71.5z" />
<glyph unicode="T" horiz-adv-x="360" d="M247 566v-566h-136v566h-107v130h350v-130h-107z" />
<glyph unicode="U" horiz-adv-x="445" d="M401 695v-525q0 -90 -45 -133t-133 -43q-177 0 -177 176v525h136v-528q0 -24 12 -33.5t29 -9.5t28.5 9.5t11.5 33.5v528h138z" />
<glyph unicode="V" horiz-adv-x="447" d="M294 696h148l-133 -696h-172l-132 696h149l42 -278l25 -197h6l25 195z" />
<glyph unicode="W" horiz-adv-x="641" d="M320 331l-62 -331h-150l-101 696h155l37 -388h5l64 388h112l64 -395h6l31 395h155l-101 -696h-150l-59 331h-6z" />
<glyph unicode="X" horiz-adv-x="450" d="M222 204l-61 -204h-158l144 363l-134 333h159l51 -172h6l48 172h160l-138 -333l148 -363h-160l-61 204h-4z" />
<glyph unicode="Y" horiz-adv-x="414" d="M212 442l25 117l30 137h144l-135 -413v-283h-137v283l-136 413h145l34 -139l25 -115h5z" />
<glyph unicode="Z" horiz-adv-x="360" d="M24 0v124l168 442h-162v130h309v-120l-169 -445h169v-131h-315z" />
<glyph unicode="[" horiz-adv-x="259" d="M61 -102v799h182v-97h-60v-605h60v-97h-182z" />
<glyph unicode="\" horiz-adv-x="289" d="M0 725h101l187 -767h-101z" />
<glyph unicode="]" horiz-adv-x="259" d="M16 -103v97h60v606h-60v97h181v-800h-181z" />
<glyph unicode="^" horiz-adv-x="430" d="M210 531l-40 -122l-36 -101h-132l167 388h91l171 -391h-132l-38 101l-43 125h-8z" />
<glyph unicode="_" horiz-adv-x="500" d="M0 -160v90h500v-90h-500z" />
<glyph unicode="`" horiz-adv-x="385" d="M265 531l-136 175l108 54l100 -186z" />
<glyph unicode="a" horiz-adv-x="408" d="M231 35q-11 -18 -34.5 -29.5t-44.5 -11.5q-36 0 -60 11.5t-38.5 32t-20 49t-5.5 62.5q0 30 9 57.5t28 48.5t49.5 33.5t72.5 12.5h49v42q0 31 -35 31q-10 0 -21.5 -7.5t-16.5 -33.5l-121 39q15 61 57.5 95t111.5 34q83 0 122.5 -37t39.5 -121v-343h-137v34zM236 208h-28 q-17 0 -31 -11t-14 -40q0 -19 11.5 -27.5t26.5 -8.5t25 12t10 31v44z" />
<glyph unicode="b" horiz-adv-x="401" d="M201 372q-19 0 -26 -20q-4 -10 -3.5 -40.5t-0.5 -72.5v-11q0 -26 0.5 -49t2.5 -31q5 -22 27 -22q11 0 18 7t7 15q2 6 3 32t1 61q0 33 -1 64t-3 44q-2 10 -8 16.5t-17 6.5zM254 503q31 0 50 -7t30.5 -19t17.5 -28t11 -33q3 -12 5 -32t3 -43t1.5 -47.5t0.5 -45.5 q0 -38 -1.5 -70.5t-3.5 -49.5q-8 -73 -36.5 -103.5t-81.5 -30.5q-9 0 -19.5 2t-21 6.5t-20.5 13t-16 22.5l-4 -2v-36h-134v726h137v-261h5q6 9 16 16t21.5 12t22 7.5t17.5 2.5z" />
<glyph unicode="c" horiz-adv-x="381" d="M201 -6q-38 0 -65 8.5t-46 23t-30 33.5t-16 39q-3 12 -5 30t-3 38t-1.5 40.5t-0.5 38.5q0 22 1 46.5t3 47t5.5 42t8.5 32.5q15 40 52.5 65t97.5 25q75 0 115.5 -41.5t40.5 -119.5l-133 -15q0 26 -7.5 37.5t-18.5 11.5q-10 0 -15 -5.5t-8 -14.5q-3 -8 -4 -39.5t-2 -73.5 v-15q0 -26 1 -49t4 -35q5 -22 24 -22q11 0 18.5 10t7.5 35l135 -17q0 -73 -42.5 -114.5t-116.5 -41.5z" />
<glyph unicode="d" horiz-adv-x="411" d="M205 372q-11 0 -17 -6.5t-8 -16.5q-2 -13 -3 -44t-1 -64q0 -35 1 -61t3 -32q0 -8 7 -15t18 -7q22 0 27 22q2 8 2.5 31t0.5 49v11q-1 42 -0.5 72.5t-3.5 40.5q-7 20 -26 20zM156 503q13 0 34.5 -6.5t38.5 -23.5h5v253h137v-726h-134v36l-4 2q-6 -14 -16 -22.5t-21 -13 t-22 -6.5t-20 -2q-53 0 -82 30t-35 104q-2 14 -2.5 48t-0.5 72q0 21 1 44.5t3 46t4.5 42t5.5 31.5q3 13 8.5 29t17.5 30t31.5 23t50.5 9z" />
<glyph unicode="e" horiz-adv-x="394" d="M170 220q0 -24 -0.5 -44.5t2.5 -31.5q5 -22 25 -22q11 0 20 9t11 31l135 -20q-4 -68 -46 -108t-116 -40q-38 0 -65 8.5t-46 23t-30 33.5t-16 39q-3 12 -5 30t-3 38t-1.5 40.5t-0.5 38.5q0 22 1 46.5t3 47t5.5 42t8.5 32.5q15 40 52 65t97 25q75 0 118 -40.5t43 -118.5 v-124h-192zM176 356q-2 -5 -3 -19t-2 -34h54v42q0 10 -5.5 20t-19.5 10q-18 0 -24 -19z" />
<glyph unicode="f" horiz-adv-x="265" d="M194 388v-388h-137v388h-44v106h44v90q0 38 11 65t30 44t43.5 25t51.5 8h69v-124h-33q-14 0 -24.5 -10.5t-10.5 -26.5v-71h71v-106h-71z" />
<glyph unicode="g" horiz-adv-x="413" d="M153 0q-31 0 -50 7t-30.5 19t-17.5 28t-11 33q-3 12 -5 30.5t-3 40.5t-1.5 45t-0.5 44q0 38 1.5 70.5t3.5 49.5q8 73 36.5 103.5t81.5 30.5q9 0 19.5 -2t21 -6.5t20.5 -13.5t16 -22l4 2v36h135v-515q0 -93 -43.5 -135t-122.5 -42q-75 0 -117 36.5t-46 110.5l132 19 q2 -21 11.5 -30t20.5 -9q14 0 21 9t7 24v75h-5q-6 -9 -16.5 -16t-21.5 -12t-22 -7.5t-18 -2.5zM206 131q19 0 26 20q4 10 4.5 36t0.5 69v11q0 26 -1 49t-3 31q-5 22 -27 22q-11 0 -18 -7t-7 -15q-2 -6 -3 -32t-1 -61q0 -33 1 -60t3 -40q2 -10 8 -16.5t17 -6.5z" />
<glyph unicode="h" horiz-adv-x="413" d="M184 455q6 8 16.5 16.5t22.5 15t25 10.5t25 4q34 0 53.5 -11t30 -29t13.5 -41.5t3 -49.5v-370h-137v335q0 20 -8 28t-19 8q-12 0 -21 -10t-9 -29v-332h-137v726h137v-270z" />
<glyph unicode="i" horiz-adv-x="237" d="M50 566v130h137v-130h-137zM50 0v494h137v-494h-137z" />
<glyph unicode="j" horiz-adv-x="226" d="M46 566v130h137v-130h-137zM183 -35q0 -86 -49 -123t-137 -37h-11v128h17q26 0 34.5 16.5t8.5 52.5v493h137v-530z" />
<glyph unicode="k" horiz-adv-x="426" d="M183 377l71 117h163l-133 -193l136 -301h-163l-70 172l-11 -17v-155h-136v725h136v-347z" />
<glyph unicode="l" horiz-adv-x="234" d="M194 -5q-80 0 -119 34t-39 117v580h137v-562q0 -26 9 -35t24 -9h12v-125h-24z" />
<glyph unicode="m" horiz-adv-x="607" d="M463 501q34 0 54.5 -10t31.5 -27t14.5 -39.5t3.5 -48.5v-376h-137v335q0 20 -8 28t-19 8t-19.5 -8.5t-10.5 -25.5v-337h-137v335q0 20 -8 28t-19 8q-12 0 -21 -10t-9 -29v-332h-137v495h137v-41l5 -1q13 16 36.5 32t46.5 16q43 0 64 -16t31 -42q20 27 49 42.5t52 15.5z " />
<glyph unicode="n" horiz-adv-x="413" d="M184 455q13 17 37 31.5t47 14.5q34 0 54.5 -10t31.5 -27t15 -40t4 -49v-375h-137v335q0 20 -8 28t-19 8q-12 0 -21 -10t-9 -29v-332h-137v495h137v-39z" />
<glyph unicode="o" horiz-adv-x="401" d="M202 503q63 0 99.5 -25t50.5 -62q5 -14 7.5 -34t4 -42.5t2 -46.5t0.5 -45v-15q0 -27 -0.5 -53.5t-3.5 -51.5q-5 -43 -22.5 -69.5t-41 -41t-51 -19.5t-53.5 -5q-35 0 -60.5 9t-43.5 23.5t-29.5 33.5t-16.5 39q-3 12 -5 30t-3 38t-1.5 40.5t-0.5 38.5q0 22 1 46.5t3 47 t5 42t8 32.5q15 40 53 65t98 25zM202 376q-19 0 -26 -20q-4 -10 -4.5 -40.5t-1.5 -72.5v-15q0 -26 0.5 -49t4.5 -35q5 -22 27 -22q11 0 18 7t7 15q2 6 3.5 36t1.5 65q0 33 -1.5 64t-3.5 44q-2 10 -8 16.5t-17 6.5z" />
<glyph unicode="p" horiz-adv-x="401" d="M201 123q11 0 17 6.5t8 16.5q2 13 3 44t1 64q0 35 -1 61t-3 32q0 8 -7 15t-18 7q-22 0 -27 -22q-2 -8 -2.5 -31t-0.5 -49v-11q1 -42 0.5 -72.5t3.5 -40.5q7 -20 26 -20zM251 -8q-13 0 -35 5.5t-39 22.5h-5v-210h-137v685h134v-36l4 -2q6 13 16 22t21 13.5t22 6.5t20 2 q53 0 82 -30t35 -104q2 -14 2.5 -48t0.5 -72q0 -21 -1 -45t-2.5 -46.5t-3.5 -41.5t-5 -31q-3 -14 -9 -29.5t-18 -29.5t-31.5 -23t-50.5 -9z" />
<glyph unicode="q" horiz-adv-x="414" d="M208 122q19 0 26 20q4 10 3.5 40.5t0.5 72.5v11q0 26 -0.5 49t-2.5 31q-5 22 -27 22q-11 0 -18 -7t-7 -15q-2 -6 -3 -32t-1 -61q0 -33 1 -64t3 -44q2 -10 8 -16.5t17 -6.5zM155 -9q-31 0 -50 7t-30.5 19t-17.5 28t-11 33q-3 12 -5 32t-3 43t-1.5 47.5t-0.5 45.5 q0 38 1.5 70.5t3.5 49.5q8 73 36.5 103.5t81.5 30.5q9 0 19.5 -2t21 -6.5t20.5 -13.5t16 -22l4 2v36h134v-685h-137v220h-5q-6 -9 -16 -16t-21.5 -12t-22 -7.5t-17.5 -2.5z" />
<glyph unicode="r" horiz-adv-x="316" d="M50 496h138v-55h2q19 38 46.5 49t60.5 11h11v-135q-8 1 -15.5 1.5t-14.5 0.5q-43 0 -66.5 -20.5t-23.5 -72.5v-275h-138v496z" />
<glyph unicode="s" horiz-adv-x="387" d="M158 162q-1 -20 9.5 -32t26.5 -12q13 0 22.5 9.5t9.5 21.5q0 26 -8.5 35t-23.5 14q-29 10 -57.5 19.5t-52 25t-38 41.5t-14.5 69q0 31 10.5 58.5t31.5 47.5t51.5 32t70.5 12q81 0 121 -41t41 -110l-130 -17q0 14 -7.5 28.5t-24.5 14.5q-16 0 -22.5 -10t-6.5 -18 q0 -15 5 -23t22 -13q36 -11 66 -22t52.5 -29t35 -45t12.5 -69q0 -30 -8.5 -58t-28.5 -49.5t-52.5 -34.5t-80.5 -13q-74 0 -117 37t-46 112z" />
<glyph unicode="t" horiz-adv-x="277" d="M189 0q-36 0 -60.5 11t-40 29t-22 40.5t-6.5 45.5v262h-45v107h45v130h129v-130h56v-107h-56v-218q0 -9 1 -17t5 -14.5t13 -10.5t25 -4h12v-124h-56z" />
<glyph unicode="u" horiz-adv-x="413" d="M232 40q-6 -8 -16 -16.5t-21.5 -15t-24 -10.5t-24.5 -4q-34 0 -54 10t-31 27t-14.5 40t-3.5 49v375h137v-335q0 -20 8 -28t19 -8q12 0 21 10t9 29v332h137v-495h-137v39z" />
<glyph unicode="v" horiz-adv-x="397" d="M205 176l11 121l26 197h150l-115 -494h-157l-115 494h153l26 -191l14 -127h7z" />
<glyph unicode="w" horiz-adv-x="582" d="M287 225l-16 -119l-16 -106h-151l-94 494h144l17 -175l13 -128h5l15 128l21 175h129l24 -177l19 -126h5l12 129l15 174h141l-94 -494h-151l-16 106l-17 119h-5z" />
<glyph unicode="x" horiz-adv-x="405" d="M199 140l-45 -140h-150l118 252l-112 243h153l40 -129h3l41 129h147l-114 -243l120 -252h-150l-46 140h-5z" />
<glyph unicode="y" horiz-adv-x="382" d="M188 199l17 116l31 179h140l-143 -564q-15 -59 -51 -90.5t-98 -31.5h-46v121h25q16 0 31.5 11t23.5 45l6 26l-121 483h146l20 -178l14 -117h5z" />
<glyph unicode="z" horiz-adv-x="350" d="M28 0v121l138 252h-127v122h283v-112l-142 -256h142v-127h-294z" />
<glyph unicode="{" horiz-adv-x="259" d="M131 298q27 -11 43.5 -41.5t16.5 -75.5v-148q0 -15 4 -23t9 -11.5t11 -4.5t10 -1h23v-96h-69q-46 0 -77.5 32.5t-31.5 89.5v154q0 46 -16.5 66.5t-42.5 22.5v81q27 2 43 21.5t16 64.5v145q0 57 31.5 89.5t77.5 32.5h69v-96h-24q-8 0 -20.5 -8t-12.5 -36v-135 q0 -41 -16 -71.5t-45 -44.5z" />
<glyph unicode="|" horiz-adv-x="259" d="M76 -162v892h107v-892h-107z" />
<glyph unicode="}" horiz-adv-x="259" d="M130 305q-29 14 -45 44.5t-16 71.5v135q0 28 -12.5 36t-20.5 8h-24v96h69q46 0 77.5 -32.5t31.5 -89.5v-145q0 -45 16 -64.5t43 -21.5v-81q-26 -2 -42.5 -22.5t-16.5 -66.5v-154q0 -57 -31.5 -89.5t-77.5 -32.5h-69v96h23q4 0 10 1t11 4.5t9 11.5t4 23v148 q0 45 16.5 75.5t43.5 41.5z" />
<glyph unicode="~" horiz-adv-x="430" d="M144 393q20 0 38.5 -8.5t35 -18t31.5 -17.5t27 -8q33 0 71 53l74 -44q-27 -63 -59 -90t-68 -27q-21 0 -40 8t-36.5 17.5t-33 17.5t-29.5 8q-18 0 -36 -10.5t-41 -42.5l-72 43q26 58 58 88.5t80 30.5z" />
<glyph unicode="&#xa1;" horiz-adv-x="275" d="M82 292h113l10 -493h-133zM202 495v-139h-128v139h128z" />
<glyph unicode="&#xa2;" horiz-adv-x="430" d="M242 501q63 -7 96.5 -48t33.5 -111l-133 -15q0 26 -7.5 37.5t-18.5 11.5q-10 0 -15 -5.5t-8 -14.5q-3 -8 -4 -39.5t-2 -73.5v-15q0 -26 1 -49t4 -35q5 -22 24 -22q11 0 18.5 10t7.5 35l135 -17q0 -66 -35 -106.5t-97 -47.5v-98h-51v97q-31 3 -54 12t-39 23t-25.5 31.5 t-14.5 36.5q-3 12 -5 30t-3 38t-1.5 40.5t-0.5 38.5q0 22 1 46.5t3 47t5.5 42t8.5 32.5q14 35 44.5 59.5t80.5 29.5v92h51v-93z" />
<glyph unicode="&#xa3;" horiz-adv-x="430" d="M221 568q-17 0 -29.5 -12t-12.5 -30t4.5 -35t10.5 -36t12.5 -39t10.5 -44h99v-103h-97q-3 -48 -11 -80.5t-23 -63.5h199v-125h-353v112q24 34 38 70t17 87h-56v103h50q-9 36 -21.5 74t-12.5 86q0 39 13.5 70.5t36.5 54t55 34.5t69 12q42 0 76 -12.5t58 -35.5t36 -55 t11 -70l-131 -29q-1 31 -13.5 49t-33.5 18h-2z" />
<glyph unicode="&#xa4;" horiz-adv-x="513" d="M101 132l-77 77l63 63q-17 36 -17 74q0 40 18 76l-61 62l79 78l61 -61q36 18 78 18q40 0 73 -16l63 63l77 -77l-62 -62q18 -35 18 -75q0 -39 -19 -79l62 -62l-79 -79l-62 62q-38 -19 -76 -19q-39 0 -77 19zM241 428q-34 0 -57.5 -23t-23.5 -58q0 -32 22.5 -55t54.5 -23 q36 0 59.5 25t23.5 60q0 32 -24 53t-55 21z" />
<glyph unicode="&#xa5;" horiz-adv-x="430" d="M222 443l23 126l30 127h144l-110 -342h63v-68h-84l-4 -13v-28h88v-67h-88v-178h-137v178h-83v67h83v28l-4 13h-79v68h57l-110 342h145l33 -129l25 -124h8z" />
<glyph unicode="&#xa6;" horiz-adv-x="259" d="M76 326v396h107v-396h-107zM183 232v-402h-107v402h107z" />
<glyph unicode="&#xa7;" horiz-adv-x="423" d="M403 298q0 -34 -12.5 -56t-39.5 -41q20 -26 27 -54t7 -54q0 -34 -13 -63t-37.5 -50t-58.5 -33t-76 -12q-44 0 -91.5 21.5t-84.5 58.5l76 85q34 -31 58.5 -42t41.5 -11q28 0 41.5 12t13.5 30q0 20 -21.5 44t-63.5 47q-32 18 -56.5 34.5t-42 35.5t-26.5 42t-9 54 q0 32 15.5 58.5t42.5 42.5q-21 23 -29.5 47.5t-8.5 50.5q0 34 12.5 63t35 50t53 32.5t67.5 11.5q48 0 86.5 -16t84.5 -54l-72 -90q-34 31 -57.5 37.5t-41.5 6.5q-19 0 -30 -10.5t-11 -25.5q0 -19 20 -35.5t50 -34.5q29 -17 56 -35.5t48 -40t33.5 -47.5t12.5 -59zM279 296 q0 20 -24 39.5t-77 45.5q-8 -5 -15.5 -14t-7.5 -18q0 -12 10 -23.5t25.5 -23t34 -21.5t35.5 -19q8 5 13.5 15t5.5 19z" />
<glyph unicode="&#xa8;" horiz-adv-x="346" d="M201 547v130h119v-130h-119zM27 547v130h118v-130h-118z" />
<glyph unicode="&#xa9;" horiz-adv-x="703" d="M345 550q25 0 46 -8.5t36.5 -23.5t24.5 -34.5t10 -41.5l-80 -20q-2 20 -11 32.5t-24 12.5q-21 0 -27.5 -9.5t-6.5 -23.5v-199q0 -12 9 -21t23 -9q31 0 34 44l82 -16q-5 -51 -33.5 -81t-82.5 -30q-49 0 -81.5 28.5t-32.5 86.5v198q0 54 32 84.5t82 30.5zM346 -8 q-75 0 -132 26.5t-95.5 73.5t-58 110.5t-19.5 138.5q0 76 19.5 140t58 111t95.5 73.5t132 26.5q73 0 130 -26.5t96 -73.5t59 -111t20 -140q0 -75 -20 -138.5t-59 -110.5t-96 -73.5t-130 -26.5zM346 615q-56 0 -97.5 -21.5t-69 -59t-41 -87t-13.5 -106.5q0 -56 14.5 -105 t42.5 -86t69.5 -58.5t94.5 -21.5q55 0 96.5 21.5t69.5 58.5t41.5 86t13.5 105q0 57 -14.5 106.5t-42 87t-69 59t-95.5 21.5z" />
<glyph unicode="&#xaa;" horiz-adv-x="281" d="M24 524q28 88 122 88q59 0 86.5 -25.5t27.5 -81.5v-225h-103v20q-11 -11 -23.5 -17.5t-28.5 -6.5q-53 0 -71 29t-18 75q0 21 6.5 39.5t20 32.5t35 22.5t51.5 8.5h28v20q0 16 -18 16q-5 0 -11.5 -4t-9.5 -18zM158 415h-17q-10 0 -19.5 -6.5t-9.5 -23.5q0 -12 8.5 -16.5 t16.5 -4.5q21 0 21 25v26z" />
<glyph unicode="&#xab;" horiz-adv-x="539" d="M162 46l-116 201l116 200h129l-115 -200l115 -201h-129zM366 46l-116 201l116 200h129l-115 -200l115 -201h-129z" />
<glyph unicode="&#xac;" horiz-adv-x="430" d="M407 92h-109v151h-279v111h388v-262z" />
<glyph unicode="&#xad;" horiz-adv-x="383" d="M49 216v120h296v-120h-296z" />
<glyph unicode="&#xae;" horiz-adv-x="486" d="M275 336l-35 104h-9v-104h-60v276h78q78 0 78 -86q0 -23 -6.5 -42.5t-25.5 -32.5q10 -28 21.5 -57.5t22.5 -57.5h-64zM270 526q0 16 -5.5 24.5t-22.5 8.5h-11v-66h14q15 0 20 8.5t5 24.5zM246 235q-51 0 -89.5 17.5t-64.5 49t-39 74.5t-13 93q0 51 13 94t39 74.5t64.5 49 t89.5 17.5q49 0 86.5 -17.5t63.5 -49t39.5 -74.5t13.5 -94q0 -50 -13.5 -93t-39.5 -74.5t-63.5 -49t-86.5 -17.5zM246 649q-37 0 -64.5 -14t-45.5 -38t-26.5 -56.5t-8.5 -69.5q0 -78 37 -127t108 -49q37 0 63.5 13.5t43.5 37.5t25.5 56t8.5 69t-9 69.5t-27 56.5t-44.5 38 t-60.5 14z" />
<glyph unicode="&#xaf;" horiz-adv-x="383" d="M85 566v110h252v-110h-252z" />
<glyph unicode="&#xb0;" horiz-adv-x="353" d="M224 571q0 20 -13 33.5t-34 13.5q-20 0 -33 -13.5t-13 -33.5t13 -34t33 -14q21 0 34 14t13 34zM308 571q0 -27 -10 -51t-28 -42t-42 -28t-51 -10t-50.5 10t-41.5 28t-28 42t-10 51t10 51t28 41.5t41.5 28t50.5 10.5t51 -10.5t42 -28t28 -41.5t10 -51z" />
<glyph unicode="&#xb1;" horiz-adv-x="430" d="M268 275v-141h-109v141h-140v109h140v141h109v-141h140v-109h-140zM408 105v-105h-389v105h389z" />
<glyph unicode="&#xb2;" horiz-adv-x="280" d="M27 370v78l112 188q14 22 14 51q0 7 -3.5 13.5t-13.5 6.5q-11 0 -17.5 -10.5t-6.5 -38.5l-94 12q3 62 37.5 92.5t81.5 30.5q59 0 86.5 -28.5t27.5 -77.5q0 -23 -7.5 -45t-22.5 -49l-76 -135h98v-88h-216z" />
<glyph unicode="&#xb3;" horiz-adv-x="280" d="M144 793q32 0 53.5 -9.5t34 -26t18 -39t5.5 -48.5q0 -21 -7.5 -46t-30.5 -37q25 -8 31.5 -31t6.5 -59q0 -29 -5.5 -52.5t-19 -41t-35.5 -27t-54 -9.5q-48 0 -80 29.5t-32 85.5l93 10q0 -25 7.5 -31t12.5 -6q6 0 11.5 4t5.5 15v51q0 14 -7.5 19t-18.5 5h-26v75h29 q23 0 23 22v42q0 5 -3.5 11.5t-14.5 6.5q-8 0 -14.5 -9t-6.5 -37l-92 13q2 57 34.5 88.5t81.5 31.5z" />
<glyph unicode="&#xb4;" horiz-adv-x="385" d="M129 574l100 186l108 -54l-136 -175z" />
<glyph unicode="&#xb6;" horiz-adv-x="462" d="M140 308q-37 7 -62 24t-40.5 42.5t-22.5 57.5t-7 68q0 35 10.5 70t33 62.5t59 45t89.5 17.5h229v-109h-45v-644h-101v644h-39v-644h-104v366z" />
<glyph unicode="&#xb7;" horiz-adv-x="229" d="M47 199v150h135v-150h-135z" />
<glyph unicode="&#xb8;" horiz-adv-x="431" d="M238 34l-25 -70q27 -4 44 -14t27 -22.5t14 -26.5t4 -25t-4.5 -25.5t-16 -28t-30 -23t-46.5 -9.5q-4 0 -14 0.5t-24 2.5t-31 7t-34 13l21 53q23 -10 36.5 -12.5t24.5 -2.5q14 0 23 9.5t9 20.5q0 16 -10.5 22t-27.5 6l-34 23l33 102h61z" />
<glyph unicode="&#xb9;" horiz-adv-x="224" d="M82 370v308l-57 -42v101l69 49h85v-416h-97z" />
<glyph unicode="&#xba;" horiz-adv-x="277" d="M139 613q45 0 71.5 -16.5t36.5 -42.5q3 -8 4.5 -21t2.5 -28t1.5 -31.5t0.5 -29.5v-46t-2 -32q-4 -26 -15.5 -43t-28 -28t-35 -15.5t-36.5 -4.5q-53 0 -80 22.5t-33 49.5q-5 16 -5.5 44t-0.5 51q0 30 2 62.5t9 48.5q12 26 38.5 43t69.5 17zM138 520q-8 0 -12 -11 q-2 -5 -3 -16t-1 -32v-30q0 -16 1 -31t3 -20q4 -11 13 -11q5 0 8 4.5t4 8.5q2 6 2 17v33v30q0 17 -0.5 28t-2.5 19q-4 11 -12 11z" />
<glyph unicode="&#xbb;" horiz-adv-x="539" d="M251 46l115 201l-115 200h129l116 -200l-116 -201h-129zM47 46l115 201l-115 200h129l116 -200l-116 -201h-129z" />
<glyph unicode="&#xbc;" horiz-adv-x="657" d="M102 280v308l-57 -42v101l69 49h85v-416h-97zM201 -17h-81l314 731h81zM587 57v-57h-87v57h-132v71l89 288h88l-83 -279h38v85h87v-85h24v-80h-24z" />
<glyph unicode="&#xbd;" horiz-adv-x="657" d="M90 280v308l-57 -42v101l69 49h85v-416h-97zM192 -17h-81l314 731h81zM400 0v78l112 188q14 22 14 51q0 7 -3.5 13.5t-13.5 6.5q-11 0 -17.5 -10.5t-6.5 -38.5l-94 12q3 62 37.5 92.5t81.5 30.5q59 0 86.5 -28.5t27.5 -77.5q0 -23 -7.5 -45t-22.5 -49l-76 -135h98v-88 h-216z" />
<glyph unicode="&#xbe;" horiz-adv-x="657" d="M140 703q32 0 53.5 -9.5t34 -26t18 -39t5.5 -48.5q0 -21 -7.5 -46t-30.5 -37q25 -8 31.5 -31t6.5 -59q0 -29 -5.5 -52.5t-19 -41t-35.5 -27t-54 -9.5q-48 0 -80 29.5t-32 85.5l93 10q0 -25 7.5 -31t12.5 -6q6 0 11.5 4t5.5 15v51q0 14 -7.5 19t-18.5 5h-26v75h29 q23 0 23 22v42q0 5 -3.5 11.5t-14.5 6.5q-8 0 -14.5 -9t-6.5 -37l-92 13q2 57 34.5 88.5t81.5 31.5zM223 -17h-81l314 731h81zM609 57v-57h-87v57h-132v71l89 288h88l-83 -279h38v85h87v-85h24v-80h-24z" />
<glyph unicode="&#xbf;" horiz-adv-x="416" d="M47 -21q0 26 2 45.5t5.5 35t9 28t13.5 25.5l51 90q8 13 11.5 27t3.5 37v37h133v-77q0 -23 -7.5 -44t-18.5 -40q-22 -36 -34.5 -59.5t-18.5 -40.5t-7 -31t-1 -33q0 -18 9.5 -37t33.5 -19q16 0 31 17.5t15 61.5l131 -15q-4 -94 -51 -144t-134 -50q-93 0 -135 48t-42 138z M274 495v-139h-128v139h128z" />
<glyph unicode="&#xc0;" horiz-adv-x="449" d="M276 136h-102l-21 -136h-144l132 696h166l133 -696h-143zM207 375l-14 -111h63l-13 111l-15 141h-6zM224 718l-195 105l77 93l167 -130z" />
<glyph unicode="&#xc1;" horiz-adv-x="449" d="M276 136h-102l-21 -136h-144l132 696h166l133 -696h-143zM207 375l-14 -111h63l-13 111l-15 141h-6zM171 786l167 130l77 -93l-195 -105z" />
<glyph unicode="&#xc2;" horiz-adv-x="449" d="M276 136h-102l-21 -136h-144l132 696h166l133 -696h-143zM207 375l-14 -111h63l-13 111l-15 141h-6zM224 801l-119 -80l-52 47l134 145h79l129 -144l-52 -48z" />
<glyph unicode="&#xc3;" horiz-adv-x="449" d="M276 136h-102l-21 -136h-144l132 696h166l133 -696h-143zM207 375l-14 -111h63l-13 111l-15 141h-6zM172 869q16 0 30.5 -5.5t27.5 -11.5t24.5 -11.5t20.5 -5.5q14 0 25.5 6.5t31.5 31.5l65 -36q-24 -56 -50.5 -77.5t-55.5 -21.5q-18 0 -33.5 5.5t-29 12t-26 12 t-24.5 5.5t-25.5 -8t-32.5 -31l-65 40q23 54 55.5 74.5t61.5 20.5z" />
<glyph unicode="&#xc4;" horiz-adv-x="449" d="M276 136h-102l-21 -136h-144l132 696h166l133 -696h-143zM207 375l-14 -111h63l-13 111l-15 141h-6zM252 729v130h119v-130h-119zM78 729v130h118v-130h-118z" />
<glyph unicode="&#xc5;" horiz-adv-x="449" d="M276 136h-102l-21 -136h-144l132 696h43q-26 12 -42 36.5t-16 55.5q0 21 8 39.5t21.5 32.5t32 22t39.5 8q22 0 40.5 -8t32 -22t21 -32.5t7.5 -39.5q0 -31 -16 -55.5t-42 -36.5h37l133 -696h-143zM207 375l-14 -111h63l-13 111l-15 141h-6zM227 818q-12 0 -21.5 -9 t-9.5 -22q0 -14 9.5 -22t21.5 -8q13 0 22 8t9 22q0 13 -9 22t-22 9z" />
<glyph unicode="&#xc6;" horiz-adv-x="642" d="M301 0v151h-110l-39 -151h-144l197 696h415v-130h-183v-146h160v-133h-160v-151h183v-136h-319zM224 281h77v283h-5z" />
<glyph unicode="&#xc7;" horiz-adv-x="427" d="M226 702q91 0 134.5 -44.5t43.5 -115.5v-9.5t-1 -9.5l-131 -23q-1 31 -13.5 51.5t-33.5 20.5q-14 0 -22.5 -5.5t-13.5 -13.5t-7 -17.5t-2 -16.5v-355q0 -14 7 -27t33 -13q20 0 32.5 18t13.5 54l135 -18q-1 -78 -41 -127.5t-115 -55.5l-11 -31q27 -4 44 -14t27 -22.5 t14 -26.5t4 -25t-4.5 -25.5t-16 -28t-30 -23t-46.5 -9.5q-4 0 -14 0.5t-24 2.5t-31 7t-34 13l21 53q23 -10 36.5 -12.5t24.5 -2.5q14 0 23 9.5t9 20.5q0 16 -10.5 22t-27.5 6l-34 23l21 65q-73 8 -107 51.5t-34 121.5v349q0 83 44.5 133t136.5 50z" />
<glyph unicode="&#xc8;" horiz-adv-x="394" d="M51 0v696h319v-130h-183v-147h160v-131h-160v-157h183v-131h-319zM241 718l-195 105l77 93l167 -130z" />
<glyph unicode="&#xc9;" horiz-adv-x="394" d="M51 0v696h319v-130h-183v-147h160v-131h-160v-157h183v-131h-319zM120 786l167 130l77 -93l-195 -105z" />
<glyph unicode="&#xca;" horiz-adv-x="394" d="M51 0v696h319v-130h-183v-147h160v-131h-160v-157h183v-131h-319zM210 801l-119 -80l-52 47l134 145h79l129 -144l-52 -48z" />
<glyph unicode="&#xcb;" horiz-adv-x="394" d="M51 0v696h319v-130h-183v-147h160v-131h-160v-157h183v-131h-319zM237 729v130h119v-130h-119zM63 729v130h118v-130h-118z" />
<glyph unicode="&#xcc;" horiz-adv-x="242" d="M53 0v696h136v-696h-136zM122 718l-195 105l77 93l167 -130z" />
<glyph unicode="&#xcd;" horiz-adv-x="242" d="M53 0v696h136v-696h-136zM62 786l167 130l77 -93l-195 -105z" />
<glyph unicode="&#xce;" horiz-adv-x="242" d="M53 0v696h136v-696h-136zM122 801l-119 -80l-52 47l134 145h79l129 -144l-52 -48z" />
<glyph unicode="&#xcf;" horiz-adv-x="242" d="M53 0v696h136v-696h-136zM149 729v130h119v-130h-119zM-25 729v130h118v-130h-118z" />
<glyph unicode="&#xd0;" horiz-adv-x="446" d="M235 696q62 0 98 -21.5t50 -72.5q9 -32 10.5 -99.5t1.5 -153.5t-1.5 -150t-12.5 -96q-19 -59 -60.5 -81t-94.5 -22h-174v299h-48v90h48v307h183zM259 505q0 29 -9.5 44.5t-41.5 15.5h-21v-176h40v-90h-40v-168h21q32 0 41.5 15t9.5 45v314z" />
<glyph unicode="&#xd1;" horiz-adv-x="481" d="M301 367v329h133v-696h-116l-82 203l-48 132h-5v-335h-135v696h119l82 -202l47 -127h5zM189 862q16 0 30.5 -5.5t27.5 -11.5t24.5 -11.5t20.5 -5.5q14 0 25.5 6.5t31.5 31.5l65 -36q-24 -56 -50.5 -77.5t-55.5 -21.5q-18 0 -33.5 5.5t-29 12t-26 12t-24.5 5.5t-25.5 -8 t-32.5 -31l-65 40q23 54 55.5 74.5t61.5 20.5z" />
<glyph unicode="&#xd2;" horiz-adv-x="445" d="M262 532q0 23 -11.5 33t-28.5 10t-29 -10t-12 -33v-368q0 -24 12 -33.5t29 -9.5t28.5 9.5t11.5 33.5v368zM400 170q0 -90 -45 -133t-133 -43q-177 0 -177 176v357q0 90 47 132.5t130 42.5q91 0 134.5 -42.5t43.5 -132.5v-357zM253 718l-195 105l77 93l167 -130z" />
<glyph unicode="&#xd3;" horiz-adv-x="445" d="M262 532q0 23 -11.5 33t-28.5 10t-29 -10t-12 -33v-368q0 -24 12 -33.5t29 -9.5t28.5 9.5t11.5 33.5v368zM400 170q0 -90 -45 -133t-133 -43q-177 0 -177 176v357q0 90 47 132.5t130 42.5q91 0 134.5 -42.5t43.5 -132.5v-357zM139 786l167 130l77 -93l-195 -105z" />
<glyph unicode="&#xd4;" horiz-adv-x="445" d="M262 532q0 23 -11.5 33t-28.5 10t-29 -10t-12 -33v-368q0 -24 12 -33.5t29 -9.5t28.5 9.5t11.5 33.5v368zM400 170q0 -90 -45 -133t-133 -43q-177 0 -177 176v357q0 90 47 132.5t130 42.5q91 0 134.5 -42.5t43.5 -132.5v-357zM222 801l-119 -80l-52 47l134 145h79 l129 -144l-52 -48z" />
<glyph unicode="&#xd5;" horiz-adv-x="445" d="M262 532q0 23 -11.5 33t-28.5 10t-29 -10t-12 -33v-368q0 -24 12 -33.5t29 -9.5t28.5 9.5t11.5 33.5v368zM400 170q0 -90 -45 -133t-133 -43q-177 0 -177 176v357q0 90 47 132.5t130 42.5q91 0 134.5 -42.5t43.5 -132.5v-357zM172 879q16 0 30.5 -5.5t27.5 -11.5 t24.5 -11.5t20.5 -5.5q14 0 25.5 6.5t31.5 31.5l65 -36q-24 -56 -50.5 -77.5t-55.5 -21.5q-18 0 -33.5 5.5t-29 12t-26 12t-24.5 5.5t-25.5 -8t-32.5 -31l-65 40q23 54 55.5 74.5t61.5 20.5z" />
<glyph unicode="&#xd6;" horiz-adv-x="445" d="M262 532q0 23 -11.5 33t-28.5 10t-29 -10t-12 -33v-368q0 -24 12 -33.5t29 -9.5t28.5 9.5t11.5 33.5v368zM400 170q0 -90 -45 -133t-133 -43q-177 0 -177 176v357q0 90 47 132.5t130 42.5q91 0 134.5 -42.5t43.5 -132.5v-357zM249 729v130h119v-130h-119zM75 729v130h118 v-130h-118z" />
<glyph unicode="&#xd7;" horiz-adv-x="430" d="M294 298l121 -128l-79 -77l-123 128l-126 -120l-75 78l126 120l-123 128l79 77l123 -128l126 121l75 -79z" />
<glyph unicode="&#xd8;" horiz-adv-x="445" d="M43 12l25 53q-23 39 -23 105v357q0 90 47 132.5t130 42.5q82 0 127 -36l16 34l35 -18l-24 -50q24 -41 24 -105v-357q0 -90 -45 -133t-133 -43q-84 0 -129 39l-18 -38zM262 390l-81 -172v-54q0 -24 12 -33.5t29 -9.5t28.5 9.5t11.5 33.5v226zM181 307l81 173v52 q0 23 -11.5 33t-28.5 10t-29 -10t-12 -33v-225z" />
<glyph unicode="&#xd9;" horiz-adv-x="445" d="M401 695v-525q0 -90 -45 -133t-133 -43q-177 0 -177 176v525h136v-528q0 -24 12 -33.5t29 -9.5t28.5 9.5t11.5 33.5v528h138zM253 718l-195 105l77 93l167 -130z" />
<glyph unicode="&#xda;" horiz-adv-x="445" d="M401 695v-525q0 -90 -45 -133t-133 -43q-177 0 -177 176v525h136v-528q0 -24 12 -33.5t29 -9.5t28.5 9.5t11.5 33.5v528h138zM128 786l167 130l77 -93l-195 -105z" />
<glyph unicode="&#xdb;" horiz-adv-x="445" d="M401 695v-525q0 -90 -45 -133t-133 -43q-177 0 -177 176v525h136v-528q0 -24 12 -33.5t29 -9.5t28.5 9.5t11.5 33.5v528h138zM221 801l-119 -80l-52 47l134 145h79l129 -144l-52 -48z" />
<glyph unicode="&#xdc;" horiz-adv-x="445" d="M401 695v-525q0 -90 -45 -133t-133 -43q-177 0 -177 176v525h136v-528q0 -24 12 -33.5t29 -9.5t28.5 9.5t11.5 33.5v528h138zM249 729v130h119v-130h-119zM75 729v130h118v-130h-118z" />
<glyph unicode="&#xdd;" horiz-adv-x="414" d="M212 442l25 117l30 137h144l-135 -413v-283h-137v283l-136 413h145l34 -139l25 -115h5zM144 786l167 130l77 -93l-195 -105z" />
<glyph unicode="&#xde;" horiz-adv-x="428" d="M216 575q44 0 79.5 -10.5t61 -35t39.5 -66t14 -103.5q0 -107 -45 -166.5t-146 -59.5h-32v-134h-136v696h135v-121h30zM187 445v-180h23q13 0 25.5 3.5t22.5 14t16 29.5t6 49q0 46 -18.5 65t-49.5 19h-25z" />
<glyph unicode="&#xdf;" horiz-adv-x="429" d="M331 428q32 -19 45.5 -48t13.5 -66v-152q0 -30 -4 -60t-17 -53.5t-37.5 -38.5t-64.5 -15q-22 0 -50 6v113q13 0 24 8.5t11 28.5v185q0 9 -9 22.5t-31 13.5v107q18 0 23.5 9.5t5.5 42.5v32q0 13 -5.5 23.5t-22.5 10.5q-14 0 -21.5 -8.5t-7.5 -20.5v-568h-137v567 q0 73 40.5 116t125.5 43q82 0 123.5 -42t41.5 -117v-37q0 -27 -10.5 -55t-36.5 -42v-5z" />
<glyph unicode="&#xe0;" horiz-adv-x="408" d="M231 35q-11 -18 -34.5 -29.5t-44.5 -11.5q-36 0 -60 11.5t-38.5 32t-20 49t-5.5 62.5q0 30 9 57.5t28 48.5t49.5 33.5t72.5 12.5h49v42q0 31 -35 31q-10 0 -21.5 -7.5t-16.5 -33.5l-121 39q15 61 57.5 95t111.5 34q83 0 122.5 -37t39.5 -121v-343h-137v34zM236 208h-28 q-17 0 -31 -11t-14 -40q0 -19 11.5 -27.5t26.5 -8.5t25 12t10 31v44zM208 531l-136 175l108 54l100 -186z" />
<glyph unicode="&#xe1;" horiz-adv-x="408" d="M231 35q-11 -18 -34.5 -29.5t-44.5 -11.5q-36 0 -60 11.5t-38.5 32t-20 49t-5.5 62.5q0 30 9 57.5t28 48.5t49.5 33.5t72.5 12.5h49v42q0 31 -35 31q-10 0 -21.5 -7.5t-16.5 -33.5l-121 39q15 61 57.5 95t111.5 34q83 0 122.5 -37t39.5 -121v-343h-137v34zM236 208h-28 q-17 0 -31 -11t-14 -40q0 -19 11.5 -27.5t26.5 -8.5t25 12t10 31v44zM169 574l100 186l108 -54l-136 -175z" />
<glyph unicode="&#xe2;" horiz-adv-x="408" d="M231 35q-11 -18 -34.5 -29.5t-44.5 -11.5q-36 0 -60 11.5t-38.5 32t-20 49t-5.5 62.5q0 30 9 57.5t28 48.5t49.5 33.5t72.5 12.5h49v42q0 31 -35 31q-10 0 -21.5 -7.5t-16.5 -33.5l-121 39q15 61 57.5 95t111.5 34q83 0 122.5 -37t39.5 -121v-343h-137v34zM236 208h-28 q-17 0 -31 -11t-14 -40q0 -19 11.5 -27.5t26.5 -8.5t25 12t10 31v44zM219 609l-119 -94l-52 47l134 159h79l129 -158l-52 -48z" />
<glyph unicode="&#xe3;" horiz-adv-x="408" d="M231 35q-11 -18 -34.5 -29.5t-44.5 -11.5q-36 0 -60 11.5t-38.5 32t-20 49t-5.5 62.5q0 30 9 57.5t28 48.5t49.5 33.5t72.5 12.5h49v42q0 31 -35 31q-10 0 -21.5 -7.5t-16.5 -33.5l-121 39q15 61 57.5 95t111.5 34q83 0 122.5 -37t39.5 -121v-343h-137v34zM236 208h-28 q-17 0 -31 -11t-14 -40q0 -19 11.5 -27.5t26.5 -8.5t25 12t10 31v44zM161 676q16 0 30.5 -5.5t27.5 -11.5t24.5 -11.5t20.5 -5.5q14 0 25.5 6.5t31.5 31.5l65 -36q-24 -56 -50.5 -77.5t-55.5 -21.5q-18 0 -33.5 5.5t-29 12t-26 12t-24.5 5.5t-25.5 -8t-32.5 -31l-65 40 q23 54 55.5 74.5t61.5 20.5z" />
<glyph unicode="&#xe4;" horiz-adv-x="408" d="M231 35q-11 -18 -34.5 -29.5t-44.5 -11.5q-36 0 -60 11.5t-38.5 32t-20 49t-5.5 62.5q0 30 9 57.5t28 48.5t49.5 33.5t72.5 12.5h49v42q0 31 -35 31q-10 0 -21.5 -7.5t-16.5 -33.5l-121 39q15 61 57.5 95t111.5 34q83 0 122.5 -37t39.5 -121v-343h-137v34zM236 208h-28 q-17 0 -31 -11t-14 -40q0 -19 11.5 -27.5t26.5 -8.5t25 12t10 31v44zM242 547v130h119v-130h-119zM68 547v130h118v-130h-118z" />
<glyph unicode="&#xe5;" horiz-adv-x="408" d="M231 35q-11 -18 -34.5 -29.5t-44.5 -11.5q-36 0 -60 11.5t-38.5 32t-20 49t-5.5 62.5q0 30 9 57.5t28 48.5t49.5 33.5t72.5 12.5h49v42q0 31 -35 31q-10 0 -21.5 -7.5t-16.5 -33.5l-121 39q15 61 57.5 95t111.5 34q83 0 122.5 -37t39.5 -121v-343h-137v34zM236 208h-28 q-17 0 -31 -11t-14 -40q0 -19 11.5 -27.5t26.5 -8.5t25 12t10 31v44zM224 519q-21 0 -39.5 8t-32 21.5t-21.5 32t-8 39.5t8 39.5t21.5 32.5t32 22t39.5 8q22 0 40.5 -8t32 -22t21 -32.5t7.5 -39.5t-7.5 -39.5t-21 -32t-32 -21.5t-40.5 -8zM224 650q-12 0 -21.5 -9t-9.5 -22 q0 -14 9.5 -22t21.5 -8q13 0 22 8t9 22q0 13 -9 22t-22 9z" />
<glyph unicode="&#xe6;" horiz-adv-x="587" d="M230 208h-25q-17 0 -29.5 -11t-12.5 -40q0 -19 10 -27.5t25 -8.5t23.5 12t8.5 31v44zM367 303h57v46q0 10 -9 18t-20 8q-12 0 -20 -8t-8 -17v-47zM396 -6q-42 0 -77.5 14.5t-52.5 45.5q-32 -39 -62 -49.5t-52 -10.5q-36 0 -60 11.5t-38.5 32t-20 49t-5.5 62.5 q0 30 9 57.5t28 48.5t49.5 33.5t72.5 12.5h43v42q0 14 -6.5 22.5t-25.5 8.5q-10 0 -21.5 -6t-16.5 -32l-119 37q32 128 170 128q29 0 53 -7t41 -21q17 15 41 22.5t50 7.5q75 0 120 -40.5t45 -118.5v-127h-194v-68q0 -11 8 -18.5t20 -7.5q11 0 20.5 8.5t11.5 30.5l135 -22 q-4 -68 -48 -107t-118 -39z" />
<glyph unicode="&#xe7;" horiz-adv-x="381" d="M360 150q0 -68 -37 -109t-102 -46l-11 -31q27 -4 44 -14t27 -22.5t14 -26.5t4 -25t-4.5 -25.5t-16 -28t-30 -23t-46.5 -9.5q-4 0 -14 0.5t-24 2.5t-31 7t-34 13l21 53q23 -10 36.5 -12.5t24.5 -2.5q14 0 23 9.5t9 20.5q0 16 -10.5 22t-27.5 6l-34 23l21 65q-55 8 -82 37 t-36 64q-3 12 -5 30t-3 38t-1.5 40.5t-0.5 38.5q0 22 1 46.5t3 47t5.5 42t8.5 32.5q15 40 52.5 65t97.5 25q75 0 115.5 -41.5t40.5 -119.5l-133 -15q0 26 -7.5 37.5t-18.5 11.5q-10 0 -15 -5.5t-8 -14.5q-3 -8 -4 -39.5t-2 -73.5v-15q0 -26 1 -49t4 -35q5 -22 24 -22 q11 0 18.5 10t7.5 35l135 -17v0z" />
<glyph unicode="&#xe8;" horiz-adv-x="394" d="M170 220q0 -24 -0.5 -44.5t2.5 -31.5q5 -22 25 -22q11 0 20 9t11 31l135 -20q-4 -68 -46 -108t-116 -40q-38 0 -65 8.5t-46 23t-30 33.5t-16 39q-3 12 -5 30t-3 38t-1.5 40.5t-0.5 38.5q0 22 1 46.5t3 47t5.5 42t8.5 32.5q15 40 52 65t97 25q75 0 118 -40.5t43 -118.5 v-124h-192zM176 356q-2 -5 -3 -19t-2 -34h54v42q0 10 -5.5 20t-19.5 10q-18 0 -24 -19zM199 531l-136 175l108 54l100 -186z" />
<glyph unicode="&#xe9;" horiz-adv-x="394" d="M170 220q0 -24 -0.5 -44.5t2.5 -31.5q5 -22 25 -22q11 0 20 9t11 31l135 -20q-4 -68 -46 -108t-116 -40q-38 0 -65 8.5t-46 23t-30 33.5t-16 39q-3 12 -5 30t-3 38t-1.5 40.5t-0.5 38.5q0 22 1 46.5t3 47t5.5 42t8.5 32.5q15 40 52 65t97 25q75 0 118 -40.5t43 -118.5 v-124h-192zM176 356q-2 -5 -3 -19t-2 -34h54v42q0 10 -5.5 20t-19.5 10q-18 0 -24 -19zM138 574l100 186l108 -54l-136 -175z" />
<glyph unicode="&#xea;" horiz-adv-x="394" d="M170 220q0 -24 -0.5 -44.5t2.5 -31.5q5 -22 25 -22q11 0 20 9t11 31l135 -20q-4 -68 -46 -108t-116 -40q-38 0 -65 8.5t-46 23t-30 33.5t-16 39q-3 12 -5 30t-3 38t-1.5 40.5t-0.5 38.5q0 22 1 46.5t3 47t5.5 42t8.5 32.5q15 40 52 65t97 25q75 0 118 -40.5t43 -118.5 v-124h-192zM176 356q-2 -5 -3 -19t-2 -34h54v42q0 10 -5.5 20t-19.5 10q-18 0 -24 -19zM199 609l-119 -94l-52 47l134 159h79l129 -158l-52 -48z" />
<glyph unicode="&#xeb;" horiz-adv-x="394" d="M170 220q0 -24 -0.5 -44.5t2.5 -31.5q5 -22 25 -22q11 0 20 9t11 31l135 -20q-4 -68 -46 -108t-116 -40q-38 0 -65 8.5t-46 23t-30 33.5t-16 39q-3 12 -5 30t-3 38t-1.5 40.5t-0.5 38.5q0 22 1 46.5t3 47t5.5 42t8.5 32.5q15 40 52 65t97 25q75 0 118 -40.5t43 -118.5 v-124h-192zM176 356q-2 -5 -3 -19t-2 -34h54v42q0 10 -5.5 20t-19.5 10q-18 0 -24 -19zM225 547v130h119v-130h-119zM51 547v130h118v-130h-118z" />
<glyph unicode="&#xec;" horiz-adv-x="249" d="M62 0v494h137v-494h-137zM120 531l-136 175l108 54l100 -186z" />
<glyph unicode="&#xed;" horiz-adv-x="262" d="M50 0v494h137v-494h-137zM84 574l100 186l108 -54l-136 -175z" />
<glyph unicode="&#xee;" horiz-adv-x="302" d="M82 0v494h137v-494h-137zM151 609l-119 -94l-52 47l134 159h79l129 -158l-52 -48z" />
<glyph unicode="&#xef;" horiz-adv-x="273" d="M66 0v494h137v-494h-137zM164 547v130h119v-130h-119zM-10 547v130h118v-130h-118z" />
<glyph unicode="&#xf0;" horiz-adv-x="400" d="M210 595q-17 14 -46 23.5t-64 13.5l16 98q39 -2 68 -7.5t51 -13.5t37.5 -19.5t29.5 -26.5l60 44l34 -43l-62 -46q16 -32 24.5 -85t8.5 -148v-124v-30t-1 -34.5l-2 -35t-2 -30.5q-5 -42 -21.5 -69t-39.5 -42.5t-51.5 -21t-58.5 -5.5q-66 0 -101 28.5t-48 76.5 q-3 11 -4.5 28t-2 37.5t-1 41.5t-0.5 40q0 48 4 83t13 61q14 38 46.5 62.5t85.5 24.5q12 0 35.5 -5.5t40.5 -22.5q0 29 -3 55t-13 48l-51 -37l-34 43zM202 347q-19 0 -26 -20q-4 -10 -4.5 -29t-1.5 -65q0 -30 0.5 -53.5t4.5 -35.5q5 -22 27 -22q11 0 17 6.5t8 15.5 q2 6 3.5 34t1.5 63q0 33 -1.5 51.5t-3.5 31.5q-2 10 -8 16.5t-17 6.5z" />
<glyph unicode="&#xf1;" horiz-adv-x="413" d="M184 455q13 17 37 31.5t47 14.5q34 0 54.5 -10t31.5 -27t15 -40t4 -49v-375h-137v335q0 20 -8 28t-19 8q-12 0 -21 -10t-9 -29v-332h-137v495h137v-39zM157 689q16 0 30.5 -5.5t27.5 -11.5t24.5 -11.5t20.5 -5.5q14 0 25.5 6.5t31.5 31.5l65 -36q-24 -56 -50.5 -77.5 t-55.5 -21.5q-18 0 -33.5 5.5t-29 12t-26 12t-24.5 5.5t-25.5 -8t-32.5 -31l-65 40q23 54 55.5 74.5t61.5 20.5z" />
<glyph unicode="&#xf2;" horiz-adv-x="401" d="M202 503q63 0 99.5 -25t50.5 -62q5 -14 7.5 -34t4 -42.5t2 -46.5t0.5 -45v-15q0 -27 -0.5 -53.5t-3.5 -51.5q-5 -43 -22.5 -69.5t-41 -41t-51 -19.5t-53.5 -5q-35 0 -60.5 9t-43.5 23.5t-29.5 33.5t-16.5 39q-3 12 -5 30t-3 38t-1.5 40.5t-0.5 38.5q0 22 1 46.5t3 47 t5 42t8 32.5q15 40 53 65t98 25zM202 376q-19 0 -26 -20q-4 -10 -4.5 -40.5t-1.5 -72.5v-15q0 -26 0.5 -49t4.5 -35q5 -22 27 -22q11 0 18 7t7 15q2 6 3.5 36t1.5 65q0 33 -1.5 64t-3.5 44q-2 10 -8 16.5t-17 6.5zM204 531l-136 175l108 54l100 -186z" />
<glyph unicode="&#xf3;" horiz-adv-x="401" d="M202 503q63 0 99.5 -25t50.5 -62q5 -14 7.5 -34t4 -42.5t2 -46.5t0.5 -45v-15q0 -27 -0.5 -53.5t-3.5 -51.5q-5 -43 -22.5 -69.5t-41 -41t-51 -19.5t-53.5 -5q-35 0 -60.5 9t-43.5 23.5t-29.5 33.5t-16.5 39q-3 12 -5 30t-3 38t-1.5 40.5t-0.5 38.5q0 22 1 46.5t3 47 t5 42t8 32.5q15 40 53 65t98 25zM202 376q-19 0 -26 -20q-4 -10 -4.5 -40.5t-1.5 -72.5v-15q0 -26 0.5 -49t4.5 -35q5 -22 27 -22q11 0 18 7t7 15q2 6 3.5 36t1.5 65q0 33 -1.5 64t-3.5 44q-2 10 -8 16.5t-17 6.5zM129 574l100 186l108 -54l-136 -175z" />
<glyph unicode="&#xf4;" horiz-adv-x="401" d="M202 503q63 0 99.5 -25t50.5 -62q5 -14 7.5 -34t4 -42.5t2 -46.5t0.5 -45v-15q0 -27 -0.5 -53.5t-3.5 -51.5q-5 -43 -22.5 -69.5t-41 -41t-51 -19.5t-53.5 -5q-35 0 -60.5 9t-43.5 23.5t-29.5 33.5t-16.5 39q-3 12 -5 30t-3 38t-1.5 40.5t-0.5 38.5q0 22 1 46.5t3 47 t5 42t8 32.5q15 40 53 65t98 25zM202 376q-19 0 -26 -20q-4 -10 -4.5 -40.5t-1.5 -72.5v-15q0 -26 0.5 -49t4.5 -35q5 -22 27 -22q11 0 18 7t7 15q2 6 3.5 36t1.5 65q0 33 -1.5 64t-3.5 44q-2 10 -8 16.5t-17 6.5zM199 609l-119 -94l-52 47l134 159h79l129 -158l-52 -48z " />
<glyph unicode="&#xf5;" horiz-adv-x="401" d="M202 503q63 0 99.5 -25t50.5 -62q5 -14 7.5 -34t4 -42.5t2 -46.5t0.5 -45v-15q0 -27 -0.5 -53.5t-3.5 -51.5q-5 -43 -22.5 -69.5t-41 -41t-51 -19.5t-53.5 -5q-35 0 -60.5 9t-43.5 23.5t-29.5 33.5t-16.5 39q-3 12 -5 30t-3 38t-1.5 40.5t-0.5 38.5q0 22 1 46.5t3 47 t5 42t8 32.5q15 40 53 65t98 25zM202 376q-19 0 -26 -20q-4 -10 -4.5 -40.5t-1.5 -72.5v-15q0 -26 0.5 -49t4.5 -35q5 -22 27 -22q11 0 18 7t7 15q2 6 3.5 36t1.5 65q0 33 -1.5 64t-3.5 44q-2 10 -8 16.5t-17 6.5zM150 689q16 0 30.5 -5.5t27.5 -11.5t24.5 -11.5t20.5 -5.5 q14 0 25.5 6.5t31.5 31.5l65 -36q-24 -56 -50.5 -77.5t-55.5 -21.5q-18 0 -33.5 5.5t-29 12t-26 12t-24.5 5.5t-25.5 -8t-32.5 -31l-65 40q23 54 55.5 74.5t61.5 20.5z" />
<glyph unicode="&#xf6;" horiz-adv-x="401" d="M202 503q63 0 99.5 -25t50.5 -62q5 -14 7.5 -34t4 -42.5t2 -46.5t0.5 -45v-15q0 -27 -0.5 -53.5t-3.5 -51.5q-5 -43 -22.5 -69.5t-41 -41t-51 -19.5t-53.5 -5q-35 0 -60.5 9t-43.5 23.5t-29.5 33.5t-16.5 39q-3 12 -5 30t-3 38t-1.5 40.5t-0.5 38.5q0 22 1 46.5t3 47 t5 42t8 32.5q15 40 53 65t98 25zM202 376q-19 0 -26 -20q-4 -10 -4.5 -40.5t-1.5 -72.5v-15q0 -26 0.5 -49t4.5 -35q5 -22 27 -22q11 0 18 7t7 15q2 6 3.5 36t1.5 65q0 33 -1.5 64t-3.5 44q-2 10 -8 16.5t-17 6.5zM228 547v130h119v-130h-119zM54 547v130h118v-130h-118z " />
<glyph unicode="&#xf7;" horiz-adv-x="430" d="M290 464q0 -30 -21.5 -52.5t-52.5 -22.5t-52.5 22.5t-21.5 52.5q0 31 21.5 53t52.5 22t52.5 -22t21.5 -53zM290 121q0 -31 -21.5 -53.5t-52.5 -22.5t-52.5 22.5t-21.5 53.5q0 30 21.5 52.5t52.5 22.5t52.5 -22.5t21.5 -52.5zM408 344v-107h-389v107h389z" />
<glyph unicode="&#xf8;" horiz-adv-x="401" d="M202 503q24 0 43.5 -4t36.5 -11l29 64l27 -14l-29 -65q16 -11 26.5 -25.5t16.5 -31.5q5 -14 7.5 -34t4 -42.5t2 -46.5t0.5 -45v-15q0 -27 -0.5 -53.5t-3.5 -51.5q-5 -43 -22.5 -69.5t-41 -41t-51 -19.5t-53.5 -5q-28 0 -50 5.5t-39 15.5l-20 -45l-26 14l22 50 q-14 14 -23 30.5t-14 34.5q-3 12 -5 30t-3 38t-1.5 40.5t-0.5 38.5q0 22 1 46.5t3 47t5 42t8 32.5q15 40 53 65t98 25zM232 245v27t-1 25l-60 -134q2 -13 4 -19q5 -22 27 -22q11 0 18 7t7 15q2 6 3.5 36t1.5 65zM202 376q-19 0 -26 -20q-4 -10 -4.5 -40.5t-1.5 -72.5v-9 l55 125q-7 17 -23 17z" />
<glyph unicode="&#xf9;" horiz-adv-x="413" d="M232 40q-6 -8 -16 -16.5t-21.5 -15t-24 -10.5t-24.5 -4q-34 0 -54 10t-31 27t-14.5 40t-3.5 49v375h137v-335q0 -20 8 -28t19 -8q12 0 21 10t9 29v332h137v-495h-137v39zM213 531l-136 175l108 54l100 -186z" />
<glyph unicode="&#xfa;" horiz-adv-x="413" d="M232 40q-6 -8 -16 -16.5t-21.5 -15t-24 -10.5t-24.5 -4q-34 0 -54 10t-31 27t-14.5 40t-3.5 49v375h137v-335q0 -20 8 -28t19 -8q12 0 21 10t9 29v332h137v-495h-137v39zM163 574l100 186l108 -54l-136 -175z" />
<glyph unicode="&#xfb;" horiz-adv-x="413" d="M232 40q-6 -8 -16 -16.5t-21.5 -15t-24 -10.5t-24.5 -4q-34 0 -54 10t-31 27t-14.5 40t-3.5 49v375h137v-335q0 -20 8 -28t19 -8q12 0 21 10t9 29v332h137v-495h-137v39zM207 609l-119 -94l-52 47l134 159h79l129 -158l-52 -48z" />
<glyph unicode="&#xfc;" horiz-adv-x="413" d="M232 40q-6 -8 -16 -16.5t-21.5 -15t-24 -10.5t-24.5 -4q-34 0 -54 10t-31 27t-14.5 40t-3.5 49v375h137v-335q0 -20 8 -28t19 -8q12 0 21 10t9 29v332h137v-495h-137v39zM234 547v130h119v-130h-119zM60 547v130h118v-130h-118z" />
<glyph unicode="&#xfd;" horiz-adv-x="382" d="M188 199l17 116l31 179h140l-143 -564q-15 -59 -51 -90.5t-98 -31.5h-46v121h25q16 0 31.5 11t23.5 45l6 26l-121 483h146l20 -178l14 -117h5zM134 574l100 186l108 -54l-136 -175z" />
<glyph unicode="&#xfe;" horiz-adv-x="401" d="M201 123q11 0 17 6.5t8 16.5q2 13 3 44t1 64q0 35 -1 61t-3 32q0 8 -7 15t-18 7q-22 0 -27 -22q-2 -8 -2.5 -31t-0.5 -49v-11q1 -42 0.5 -72.5t3.5 -40.5q7 -20 26 -20zM251 -8q-13 0 -35 5.5t-39 22.5h-5v-210h-137v885h134v-236l4 -2q6 13 16 22t21 13.5t22 6.5t20 2 q53 0 82 -30t35 -104q2 -14 2.5 -48t0.5 -72q0 -21 -1 -45t-2.5 -46.5t-3.5 -41.5t-5 -31q-3 -14 -9 -29.5t-18 -29.5t-31.5 -23t-50.5 -9z" />
<glyph unicode="&#xff;" horiz-adv-x="382" d="M188 199l17 116l31 179h140l-143 -564q-15 -59 -51 -90.5t-98 -31.5h-46v121h25q16 0 31.5 11t23.5 45l6 26l-121 483h146l20 -178l14 -117h5zM213 547v130h119v-130h-119zM39 547v130h118v-130h-118z" />
<glyph unicode="&#x100;" horiz-adv-x="449" d="M276 136h-102l-21 -136h-144l132 696h166l133 -696h-143zM207 375l-14 -111h63l-13 111l-15 141h-6zM98 745v110h252v-110h-252z" />
<glyph unicode="&#x101;" horiz-adv-x="408" d="M231 35q-11 -18 -34.5 -29.5t-44.5 -11.5q-36 0 -60 11.5t-38.5 32t-20 49t-5.5 62.5q0 30 9 57.5t28 48.5t49.5 33.5t72.5 12.5h49v42q0 31 -35 31q-10 0 -21.5 -7.5t-16.5 -33.5l-121 39q15 61 57.5 95t111.5 34q83 0 122.5 -37t39.5 -121v-343h-137v34zM236 208h-28 q-17 0 -31 -11t-14 -40q0 -19 11.5 -27.5t26.5 -8.5t25 12t10 31v44zM84 566v110h252v-110h-252z" />
<glyph unicode="&#x102;" horiz-adv-x="449" d="M276 136h-102l-21 -136h-144l132 696h166l133 -696h-143zM207 375l-14 -111h63l-13 111l-15 141h-6zM169 893q1 -11 6 -23.5t13.5 -23t19.5 -17.5t23 -7q14 0 24.5 7t18 17.5t11 23t4.5 23.5h95q-2 -24 -11.5 -51t-28 -50t-46.5 -38t-67 -15q-42 0 -70.5 15t-47 38 t-27.5 50t-10 51h93z" />
<glyph unicode="&#x103;" horiz-adv-x="408" d="M231 35q-11 -18 -34.5 -29.5t-44.5 -11.5q-36 0 -60 11.5t-38.5 32t-20 49t-5.5 62.5q0 30 9 57.5t28 48.5t49.5 33.5t72.5 12.5h49v42q0 31 -35 31q-10 0 -21.5 -7.5t-16.5 -33.5l-121 39q15 61 57.5 95t111.5 34q83 0 122.5 -37t39.5 -121v-343h-137v34zM236 208h-28 q-17 0 -31 -11t-14 -40q0 -19 11.5 -27.5t26.5 -8.5t25 12t10 31v44zM150 685q1 -11 6 -23.5t13.5 -23t19.5 -17.5t23 -7q14 0 24.5 7t18 17.5t11 23t4.5 23.5h95q-2 -24 -11.5 -51t-28 -50t-46.5 -38t-67 -15q-42 0 -70.5 15t-47 38t-27.5 50t-10 51h93z" />
<glyph unicode="&#x104;" horiz-adv-x="449" d="M255 -114q0 22 11 52.5t31 62.5l-21 135h-102l-21 -136h-144l132 696h166l133 -696h-73q-21 -35 -26 -62.5t-5 -39.5q0 -20 13 -31t31 -11q10 0 23 3t30 12l22 -58q-23 -15 -49 -21t-49 -6q-43 0 -72.5 26t-29.5 74zM207 375l-14 -111h63l-13 111l-15 141h-6z" />
<glyph unicode="&#x105;" horiz-adv-x="408" d="M194 -114q0 22 11 52.5t31 62.5v33l-5 1q-11 -18 -34.5 -29.5t-44.5 -11.5q-36 0 -60 11.5t-38.5 32t-20 49t-5.5 62.5q0 30 9 57.5t28 48.5t49.5 33.5t72.5 12.5h49v42q0 31 -35 31q-10 0 -21.5 -7.5t-16.5 -33.5l-121 39q15 61 57.5 95t111.5 34q83 0 122.5 -37 t39.5 -121v-343h-67q-21 -35 -26 -62.5t-5 -39.5q0 -20 13 -31t31 -11q10 0 23 3t30 12l22 -58q-23 -15 -49 -21t-49 -6q-43 0 -72.5 26t-29.5 74zM236 208h-28q-17 0 -31 -11t-14 -40q0 -19 11.5 -27.5t26.5 -8.5t25 12t10 31v44z" />
<glyph unicode="&#x106;" horiz-adv-x="427" d="M226 702q91 0 134.5 -44.5t43.5 -115.5v-9.5t-1 -9.5l-131 -23q-1 31 -13.5 51.5t-33.5 20.5q-14 0 -22.5 -5.5t-13.5 -13.5t-7 -17.5t-2 -16.5v-355q0 -14 7 -27t33 -13q20 0 32.5 18t13.5 54l135 -18q-1 -83 -46 -133.5t-130 -50.5q-94 0 -137 44t-43 132v349 q0 83 44.5 133t136.5 50zM120 786l167 130l77 -93l-195 -105z" />
<glyph unicode="&#x107;" horiz-adv-x="381" d="M201 -6q-38 0 -65 8.5t-46 23t-30 33.5t-16 39q-3 12 -5 30t-3 38t-1.5 40.5t-0.5 38.5q0 22 1 46.5t3 47t5.5 42t8.5 32.5q15 40 52.5 65t97.5 25q75 0 115.5 -41.5t40.5 -119.5l-133 -15q0 26 -7.5 37.5t-18.5 11.5q-10 0 -15 -5.5t-8 -14.5q-3 -8 -4 -39.5t-2 -73.5 v-15q0 -26 1 -49t4 -35q5 -22 24 -22q11 0 18.5 10t7.5 35l135 -17q0 -73 -42.5 -114.5t-116.5 -41.5zM129 574l100 186l108 -54l-136 -175z" />
<glyph unicode="&#x108;" horiz-adv-x="427" d="M226 702q91 0 134.5 -44.5t43.5 -115.5v-9.5t-1 -9.5l-131 -23q-1 31 -13.5 51.5t-33.5 20.5q-14 0 -22.5 -5.5t-13.5 -13.5t-7 -17.5t-2 -16.5v-355q0 -14 7 -27t33 -13q20 0 32.5 18t13.5 54l135 -18q-1 -83 -46 -133.5t-130 -50.5q-94 0 -137 44t-43 132v349 q0 83 44.5 133t136.5 50zM222 801l-119 -80l-52 47l134 145h79l129 -144l-52 -48z" />
<glyph unicode="&#x109;" horiz-adv-x="381" d="M201 -6q-38 0 -65 8.5t-46 23t-30 33.5t-16 39q-3 12 -5 30t-3 38t-1.5 40.5t-0.5 38.5q0 22 1 46.5t3 47t5.5 42t8.5 32.5q15 40 52.5 65t97.5 25q75 0 115.5 -41.5t40.5 -119.5l-133 -15q0 26 -7.5 37.5t-18.5 11.5q-10 0 -15 -5.5t-8 -14.5q-3 -8 -4 -39.5t-2 -73.5 v-15q0 -26 1 -49t4 -35q5 -22 24 -22q11 0 18.5 10t7.5 35l135 -17q0 -73 -42.5 -114.5t-116.5 -41.5zM200 609l-119 -94l-52 47l134 159h79l129 -158l-52 -48z" />
<glyph unicode="&#x10a;" horiz-adv-x="427" d="M226 702q91 0 134.5 -44.5t43.5 -115.5v-9.5t-1 -9.5l-131 -23q-1 31 -13.5 51.5t-33.5 20.5q-14 0 -22.5 -5.5t-13.5 -13.5t-7 -17.5t-2 -16.5v-355q0 -14 7 -27t33 -13q20 0 32.5 18t13.5 54l135 -18q-1 -83 -46 -133.5t-130 -50.5q-94 0 -137 44t-43 132v349 q0 83 44.5 133t136.5 50zM161 735v130h118v-130h-118z" />
<glyph unicode="&#x10b;" horiz-adv-x="381" d="M201 -6q-38 0 -65 8.5t-46 23t-30 33.5t-16 39q-3 12 -5 30t-3 38t-1.5 40.5t-0.5 38.5q0 22 1 46.5t3 47t5.5 42t8.5 32.5q15 40 52.5 65t97.5 25q75 0 115.5 -41.5t40.5 -119.5l-133 -15q0 26 -7.5 37.5t-18.5 11.5q-10 0 -15 -5.5t-8 -14.5q-3 -8 -4 -39.5t-2 -73.5 v-15q0 -26 1 -49t4 -35q5 -22 24 -22q11 0 18.5 10t7.5 35l135 -17q0 -73 -42.5 -114.5t-116.5 -41.5zM143 547v130h118v-130h-118z" />
<glyph unicode="&#x10c;" horiz-adv-x="427" d="M226 702q91 0 134.5 -44.5t43.5 -115.5v-9.5t-1 -9.5l-131 -23q-1 31 -13.5 51.5t-33.5 20.5q-14 0 -22.5 -5.5t-13.5 -13.5t-7 -17.5t-2 -16.5v-355q0 -14 7 -27t33 -13q20 0 32.5 18t13.5 54l135 -18q-1 -83 -46 -133.5t-130 -50.5q-94 0 -137 44t-43 132v349 q0 83 44.5 133t136.5 50zM341 913l52 -48l-129 -140h-79l-134 141l52 47l119 -80z" />
<glyph unicode="&#x10d;" horiz-adv-x="381" d="M201 -6q-38 0 -65 8.5t-46 23t-30 33.5t-16 39q-3 12 -5 30t-3 38t-1.5 40.5t-0.5 38.5q0 22 1 46.5t3 47t5.5 42t8.5 32.5q15 40 52.5 65t97.5 25q75 0 115.5 -41.5t40.5 -119.5l-133 -15q0 26 -7.5 37.5t-18.5 11.5q-10 0 -15 -5.5t-8 -14.5q-3 -8 -4 -39.5t-2 -73.5 v-15q0 -26 1 -49t4 -35q5 -22 24 -22q11 0 18.5 10t7.5 35l135 -17q0 -73 -42.5 -114.5t-116.5 -41.5zM319 721l52 -48l-129 -158h-79l-134 159l52 47l119 -94z" />
<glyph unicode="&#x10e;" horiz-adv-x="446" d="M259 505q0 29 -9.5 44.5t-41.5 15.5h-21v-434h21q32 0 41.5 15t9.5 45v314zM235 696q62 0 98 -21.5t50 -72.5q9 -32 10.5 -99.5t1.5 -153.5t-1.5 -150t-12.5 -96q-19 -59 -60.5 -81t-94.5 -22h-174v696h183zM327 913l52 -48l-129 -140h-79l-134 141l52 47l119 -80z" />
<glyph unicode="&#x10f;" horiz-adv-x="523" d="M471 508h-66l28 107h-24v111h117v-109zM197 372q-11 0 -17 -6.5t-8 -16.5q-2 -13 -3 -44t-1 -64q0 -35 1 -61t3 -32q0 -8 7 -15t18 -7q22 0 27 22q2 8 2.5 31t0.5 49v11q-1 42 -0.5 72.5t-3.5 40.5q-7 20 -26 20zM148 503q13 0 34.5 -6.5t38.5 -23.5h5v253h137v-726h-134 v36l-4 2q-6 -14 -16 -22.5t-21 -13t-22 -6.5t-20 -2q-53 0 -82 30t-35 104q-2 14 -2.5 48t-0.5 72q0 21 1 44.5t3 46t4.5 42t5.5 31.5q3 13 8.5 29t17.5 30t31.5 23t50.5 9z" />
<glyph unicode="&#x110;" horiz-adv-x="446" d="M235 696q62 0 98 -21.5t50 -72.5q9 -32 10.5 -99.5t1.5 -153.5t-1.5 -150t-12.5 -96q-19 -59 -60.5 -81t-94.5 -22h-174v300h-48v90h48v306h183zM259 505q0 29 -9.5 44.5t-41.5 15.5h-21v-175h40v-90h-40v-169h21q32 0 41.5 15t9.5 45v314z" />
<glyph unicode="&#x111;" horiz-adv-x="401" d="M148 503q13 0 34.5 -6.5t38.5 -23.5h5v88h-54v86h54v79h137v-79h39v-86h-39v-561h-134v36l-4 2q-6 -14 -16 -22.5t-21 -13t-22 -6.5t-20 -2q-53 0 -82 30t-35 104q-2 14 -2.5 48t-0.5 72q0 21 1 44.5t3 46t4.5 42t5.5 31.5q3 13 8.5 29t17.5 30t31.5 23t50.5 9zM197 372 q-11 0 -17 -6.5t-8 -16.5q-2 -13 -3 -44t-1 -64q0 -35 1 -61t3 -32q0 -8 7 -15t18 -7q22 0 27 22q2 8 2.5 31t0.5 49v11q-1 42 -0.5 72.5t-3.5 40.5q-7 20 -26 20z" />
<glyph unicode="&#x112;" horiz-adv-x="394" d="M51 0v696h319v-130h-183v-147h160v-131h-160v-157h183v-131h-319zM84 745v110h252v-110h-252z" />
<glyph unicode="&#x113;" horiz-adv-x="394" d="M170 220q0 -24 -0.5 -44.5t2.5 -31.5q5 -22 25 -22q11 0 20 9t11 31l135 -20q-4 -68 -46 -108t-116 -40q-38 0 -65 8.5t-46 23t-30 33.5t-16 39q-3 12 -5 30t-3 38t-1.5 40.5t-0.5 38.5q0 22 1 46.5t3 47t5.5 42t8.5 32.5q15 40 52 65t97 25q75 0 118 -40.5t43 -118.5 v-124h-192zM176 356q-2 -5 -3 -19t-2 -34h54v42q0 10 -5.5 20t-19.5 10q-18 0 -24 -19zM76 566v110h252v-110h-252z" />
<glyph unicode="&#x114;" horiz-adv-x="394" d="M51 0v696h319v-130h-183v-147h160v-131h-160v-157h183v-131h-319zM153 888q1 -11 6 -23.5t13.5 -23t19.5 -17.5t23 -7q14 0 24.5 7t18 17.5t11 23t4.5 23.5h95q-2 -24 -11.5 -51t-28 -50t-46.5 -38t-67 -15q-42 0 -70.5 15t-47 38t-27.5 50t-10 51h93z" />
<glyph unicode="&#x115;" horiz-adv-x="394" d="M170 220q0 -24 -0.5 -44.5t2.5 -31.5q5 -22 25 -22q11 0 20 9t11 31l135 -20q-4 -68 -46 -108t-116 -40q-38 0 -65 8.5t-46 23t-30 33.5t-16 39q-3 12 -5 30t-3 38t-1.5 40.5t-0.5 38.5q0 22 1 46.5t3 47t5.5 42t8.5 32.5q15 40 52 65t97 25q75 0 118 -40.5t43 -118.5 v-124h-192zM176 356q-2 -5 -3 -19t-2 -34h54v42q0 10 -5.5 20t-19.5 10q-18 0 -24 -19zM143 685q1 -11 6 -23.5t13.5 -23t19.5 -17.5t23 -7q14 0 24.5 7t18 17.5t11 23t4.5 23.5h95q-2 -24 -11.5 -51t-28 -50t-46.5 -38t-67 -15q-42 0 -70.5 15t-47 38t-27.5 50t-10 51h93z " />
<glyph unicode="&#x116;" horiz-adv-x="394" d="M51 0v696h319v-130h-183v-147h160v-131h-160v-157h183v-131h-319zM154 727v130h118v-130h-118z" />
<glyph unicode="&#x117;" horiz-adv-x="394" d="M170 220q0 -24 -0.5 -44.5t2.5 -31.5q5 -22 25 -22q11 0 20 9t11 31l135 -20q-4 -68 -46 -108t-116 -40q-38 0 -65 8.5t-46 23t-30 33.5t-16 39q-3 12 -5 30t-3 38t-1.5 40.5t-0.5 38.5q0 22 1 46.5t3 47t5.5 42t8.5 32.5q15 40 52 65t97 25q75 0 118 -40.5t43 -118.5 v-124h-192zM176 356q-2 -5 -3 -19t-2 -34h54v42q0 10 -5.5 20t-19.5 10q-18 0 -24 -19zM144 547v130h118v-130h-118z" />
<glyph unicode="&#x118;" horiz-adv-x="394" d="M370 0q-23 -37 -29 -66t-6 -41q0 -20 13 -31t31 -11q10 0 23 3t30 12l22 -58q-23 -15 -49 -21t-49 -6q-43 0 -72.5 26t-29.5 74q0 23 11.5 54.5t32.5 64.5h-247v696h319v-130h-183v-147h160v-131h-160v-157h183v-131v0z" />
<glyph unicode="&#x119;" horiz-adv-x="394" d="M200 -87q0 34 23 82q-5 0 -11 -0.5t-11 -0.5q-38 0 -65 8.5t-46 23t-30 33.5t-16 39q-3 12 -5 30t-3 38t-1.5 40.5t-0.5 38.5q0 22 1 46.5t3 47t5.5 42t8.5 32.5q15 40 52 65t97 25q75 0 118 -40.5t43 -118.5v-124h-192q0 -24 -0.5 -44.5t2.5 -31.5q5 -22 25 -22 q11 0 20 9t11 31l135 -20q-5 -70 -48 -109l1 -1q-23 -37 -29 -66t-6 -41q0 -20 13 -31t31 -11q10 0 23 3t30 12l22 -58q-23 -15 -49 -21t-49 -6q-43 0 -72.5 26t-29.5 74zM176 356q-2 -5 -3 -19t-2 -34h54v42q0 10 -5.5 20t-19.5 10q-18 0 -24 -19z" />
<glyph unicode="&#x11a;" horiz-adv-x="394" d="M51 0v696h319v-130h-183v-147h160v-131h-160v-157h183v-131h-319zM334 913l52 -48l-129 -140h-79l-134 141l52 47l119 -80z" />
<glyph unicode="&#x11b;" horiz-adv-x="394" d="M170 220q0 -24 -0.5 -44.5t2.5 -31.5q5 -22 25 -22q11 0 20 9t11 31l135 -20q-4 -68 -46 -108t-116 -40q-38 0 -65 8.5t-46 23t-30 33.5t-16 39q-3 12 -5 30t-3 38t-1.5 40.5t-0.5 38.5q0 22 1 46.5t3 47t5.5 42t8.5 32.5q15 40 52 65t97 25q75 0 118 -40.5t43 -118.5 v-124h-192zM176 356q-2 -5 -3 -19t-2 -34h54v42q0 10 -5.5 20t-19.5 10q-18 0 -24 -19zM320 721l52 -48l-129 -158h-79l-134 159l52 47l119 -94z" />
<glyph unicode="&#x11c;" horiz-adv-x="440" d="M233 702q47 0 81.5 -13.5t57 -37.5t32 -57t6.5 -71l-131 -23q-1 31 -13.5 51.5t-33.5 20.5q-14 0 -22.5 -5.5t-13.5 -13.5t-7 -17.5t-2 -16.5v-355q0 -14 7 -27t33 -13q20 0 33 10.5t13 27.5v107h-47v119h182v-219q0 -86 -46 -130.5t-130 -44.5q-94 0 -137 44t-43 132 v349q0 83 46.5 133t134.5 50zM227 801l-119 -80l-52 47l134 145h79l129 -144l-52 -48z" />
<glyph unicode="&#x11d;" horiz-adv-x="401" d="M144 0q-31 0 -50 7t-30.5 19t-17.5 28t-11 33q-3 12 -5 30.5t-3 40.5t-1.5 45t-0.5 44q0 38 1.5 70.5t3.5 49.5q8 73 36.5 103.5t81.5 30.5q9 0 19.5 -2t21 -6.5t20.5 -13.5t16 -22l4 2v36h135v-515q0 -93 -43.5 -135t-122.5 -42q-75 0 -117 36.5t-46 110.5l132 19 q2 -21 11.5 -30t20.5 -9q14 0 21 9t7 24v75h-5q-6 -9 -16.5 -16t-21.5 -12t-22 -7.5t-18 -2.5zM197 131q19 0 26 20q4 10 4.5 36t0.5 69v11q0 26 -1 49t-3 31q-5 22 -27 22q-11 0 -18 -7t-7 -15q-2 -6 -3 -32t-1 -61q0 -33 1 -60t3 -40q2 -10 8 -16.5t17 -6.5zM203 609 l-119 -94l-52 47l134 159h79l129 -158l-52 -48z" />
<glyph unicode="&#x11e;" horiz-adv-x="440" d="M233 702q47 0 81.5 -13.5t57 -37.5t32 -57t6.5 -71l-131 -23q-1 31 -13.5 51.5t-33.5 20.5q-14 0 -22.5 -5.5t-13.5 -13.5t-7 -17.5t-2 -16.5v-355q0 -14 7 -27t33 -13q20 0 33 10.5t13 27.5v107h-47v119h182v-219q0 -86 -46 -130.5t-130 -44.5q-94 0 -137 44t-43 132 v349q0 83 46.5 133t134.5 50zM174 893q1 -11 6 -23.5t13.5 -23t19.5 -17.5t23 -7q14 0 24.5 7t18 17.5t11 23t4.5 23.5h95q-2 -24 -11.5 -51t-28 -50t-46.5 -38t-67 -15q-42 0 -70.5 15t-47 38t-27.5 50t-10 51h93z" />
<glyph unicode="&#x11f;" horiz-adv-x="401" d="M144 0q-31 0 -50 7t-30.5 19t-17.5 28t-11 33q-3 12 -5 30.5t-3 40.5t-1.5 45t-0.5 44q0 38 1.5 70.5t3.5 49.5q8 73 36.5 103.5t81.5 30.5q9 0 19.5 -2t21 -6.5t20.5 -13.5t16 -22l4 2v36h135v-515q0 -93 -43.5 -135t-122.5 -42q-75 0 -117 36.5t-46 110.5l132 19 q2 -21 11.5 -30t20.5 -9q14 0 21 9t7 24v75h-5q-6 -9 -16.5 -16t-21.5 -12t-22 -7.5t-18 -2.5zM197 131q19 0 26 20q4 10 4.5 36t0.5 69v11q0 26 -1 49t-3 31q-5 22 -27 22q-11 0 -18 -7t-7 -15q-2 -6 -3 -32t-1 -61q0 -33 1 -60t3 -40q2 -10 8 -16.5t17 -6.5zM150 685 q1 -11 6 -23.5t13.5 -23t19.5 -17.5t23 -7q14 0 24.5 7t18 17.5t11 23t4.5 23.5h95q-2 -24 -11.5 -51t-28 -50t-46.5 -38t-67 -15q-42 0 -70.5 15t-47 38t-27.5 50t-10 51h93z" />
<glyph unicode="&#x120;" horiz-adv-x="440" d="M233 702q47 0 81.5 -13.5t57 -37.5t32 -57t6.5 -71l-131 -23q-1 31 -13.5 51.5t-33.5 20.5q-14 0 -22.5 -5.5t-13.5 -13.5t-7 -17.5t-2 -16.5v-355q0 -14 7 -27t33 -13q20 0 33 10.5t13 27.5v107h-47v119h182v-219q0 -86 -46 -130.5t-130 -44.5q-94 0 -137 44t-43 132 v349q0 83 46.5 133t134.5 50zM167 727v130h118v-130h-118z" />
<glyph unicode="&#x121;" horiz-adv-x="401" d="M144 0q-31 0 -50 7t-30.5 19t-17.5 28t-11 33q-3 12 -5 30.5t-3 40.5t-1.5 45t-0.5 44q0 38 1.5 70.5t3.5 49.5q8 73 36.5 103.5t81.5 30.5q9 0 19.5 -2t21 -6.5t20.5 -13.5t16 -22l4 2v36h135v-515q0 -93 -43.5 -135t-122.5 -42q-75 0 -117 36.5t-46 110.5l132 19 q2 -21 11.5 -30t20.5 -9q14 0 21 9t7 24v75h-5q-6 -9 -16.5 -16t-21.5 -12t-22 -7.5t-18 -2.5zM197 131q19 0 26 20q4 10 4.5 36t0.5 69v11q0 26 -1 49t-3 31q-5 22 -27 22q-11 0 -18 -7t-7 -15q-2 -6 -3 -32t-1 -61q0 -33 1 -60t3 -40q2 -10 8 -16.5t17 -6.5zM151 547v130 h118v-130h-118z" />
<glyph unicode="&#x122;" horiz-adv-x="440" d="M233 702q47 0 81.5 -13.5t57 -37.5t32 -57t6.5 -71l-131 -23q-1 31 -13.5 51.5t-33.5 20.5q-14 0 -22.5 -5.5t-13.5 -13.5t-7 -17.5t-2 -16.5v-355q0 -14 7 -27t33 -13q20 0 33 10.5t13 27.5v107h-47v119h182v-219q0 -86 -46 -130.5t-130 -44.5q-94 0 -137 44t-43 132 v349q0 83 46.5 133t134.5 50zM232 -276h-66l28 107h-24v111h117v-109z" />
<glyph unicode="&#x123;" horiz-adv-x="401" d="M212 768h66l-28 -107h24v-111h-117v109zM144 0q-31 0 -50 7t-30.5 19t-17.5 28t-11 33q-3 12 -5 30.5t-3 40.5t-1.5 45t-0.5 44q0 38 1.5 70.5t3.5 49.5q8 73 36.5 103.5t81.5 30.5q9 0 19.5 -2t21 -6.5t20.5 -13.5t16 -22l4 2v36h135v-515q0 -93 -43.5 -135t-122.5 -42 q-75 0 -117 36.5t-46 110.5l132 19q2 -21 11.5 -30t20.5 -9q14 0 21 9t7 24v75h-5q-6 -9 -16.5 -16t-21.5 -12t-22 -7.5t-18 -2.5zM197 131q19 0 26 20q4 10 4.5 36t0.5 69v11q0 26 -1 49t-3 31q-5 22 -27 22q-11 0 -18 -7t-7 -15q-2 -6 -3 -32t-1 -61q0 -33 1 -60t3 -40 q2 -10 8 -16.5t17 -6.5z" />
<glyph unicode="&#x124;" horiz-adv-x="459" d="M274 0v288h-87v-288h-136v696h136v-276h87v276h135v-696h-135zM227 801l-119 -80l-52 47l134 145h79l129 -144l-52 -48z" />
<glyph unicode="&#x125;" horiz-adv-x="413" d="M184 455q6 8 16.5 16.5t22.5 15t25 10.5t25 4q34 0 53.5 -11t30 -29t13.5 -41.5t3 -49.5v-370h-137v335q0 20 -8 28t-19 8q-12 0 -21 -10t-9 -29v-332h-137v726h137v-270zM107 801l-119 -80l-52 47l134 145h79l129 -144l-52 -48z" />
<glyph unicode="&#x126;" horiz-adv-x="459" d="M274 0v288h-87v-288h-136v514h-40v81h40v101h136v-101h87v101h135v-101h40v-81h-40v-514h-135zM274 420v94h-87v-94h87z" />
<glyph unicode="&#x127;" horiz-adv-x="413" d="M184 441q6 8 16.5 16.5t22.5 15t25 10.5t25 4q34 0 53.5 -11t30 -29t13.5 -41.5t3 -49.5v-356h-137v321q0 20 -8 28t-19 8q-12 0 -21 -10t-9 -29v-318h-137v558h-42v77h42v91h137v-91h117v-77h-117v-116z" />
<glyph unicode="&#x128;" horiz-adv-x="302" d="M78 0v696h136v-696h-136zM97 859q16 0 30.5 -5.5t27.5 -11.5t24.5 -11.5t20.5 -5.5q14 0 25.5 6.5t31.5 31.5l65 -36q-24 -56 -50.5 -77.5t-55.5 -21.5q-18 0 -33.5 5.5t-29 12t-26 12t-24.5 5.5t-25.5 -8t-32.5 -31l-65 40q23 54 55.5 74.5t61.5 20.5z" />
<glyph unicode="&#x129;" horiz-adv-x="305" d="M99 689q16 0 30.5 -5.5t27.5 -11.5t24.5 -11.5t20.5 -5.5q14 0 25.5 6.5t31.5 31.5l65 -36q-24 -56 -50.5 -77.5t-55.5 -21.5q-18 0 -33.5 5.5t-29 12t-26 12t-24.5 5.5t-25.5 -8t-32.5 -31l-65 40q23 54 55.5 74.5t61.5 20.5zM86 0v494h137v-494h-137z" />
<glyph unicode="&#x12a;" horiz-adv-x="242" d="M53 0v696h136v-696h-136zM-5 745v110h252v-110h-252z" />
<glyph unicode="&#x12b;" horiz-adv-x="237" d="M-7 566v110h252v-110h-252zM50 0v494h137v-494h-137z" />
<glyph unicode="&#x12c;" horiz-adv-x="268" d="M60 0v696h136v-696h-136zM73 893q1 -11 6 -23.5t13.5 -23t19.5 -17.5t23 -7q14 0 24.5 7t18 17.5t11 23t4.5 23.5h95q-2 -24 -11.5 -51t-28 -50t-46.5 -38t-67 -15q-42 0 -70.5 15t-47 38t-27.5 50t-10 51h93z" />
<glyph unicode="&#x12d;" horiz-adv-x="287" d="M85 691q1 -11 6 -23.5t13.5 -23t19.5 -17.5t23 -7q14 0 24.5 7t18 17.5t11 23t4.5 23.5h95q-2 -24 -11.5 -51t-28 -50t-46.5 -38t-67 -15q-42 0 -70.5 15t-47 38t-27.5 50t-10 51h93zM77 0v494h137v-494h-137z" />
<glyph unicode="&#x12e;" horiz-adv-x="242" d="M44 -112q0 22 10 51t30 61h-31v696h136v-696h-34q-20 -35 -25 -62t-5 -38q0 -20 13 -31t31 -11q10 0 23 3t30 12l22 -58q-23 -15 -49 -21t-49 -6q-43 0 -72.5 26t-29.5 74z" />
<glyph unicode="&#x12f;" horiz-adv-x="237" d="M42 -112q0 22 10 51t30 61h-32v494h137v-494h-34q-20 -35 -25 -62t-5 -38q0 -20 13 -31t31 -11q10 0 23 3t30 12l22 -58q-23 -15 -49 -21t-49 -6q-43 0 -72.5 26t-29.5 74zM50 566v130h137v-130h-137z" />
<glyph unicode="&#x130;" horiz-adv-x="242" d="M53 0v696h136v-696h-136zM62 727v130h118v-130h-118z" />
<glyph unicode="&#x131;" horiz-adv-x="237" d="M50 0v494h137v-494h-137z" />
<glyph unicode="&#x132;" horiz-adv-x="631" d="M56 0v696h136v-696h-136zM580 696v-527q0 -82 -46.5 -128.5t-130.5 -46.5q-47 0 -88 23t-70 69l101 78q13 -19 29 -29t27 -10q23 0 33 16t10 30v525h135z" />
<glyph unicode="&#x133;" horiz-adv-x="437" d="M47 566v130h137v-130h-137zM47 0v494h137v-494h-137zM257 566v130h137v-130h-137zM394 -35q0 -86 -49 -123t-137 -37h-11v128h17q26 0 34.5 16.5t8.5 52.5v493h137v-530z" />
<glyph unicode="&#x134;" horiz-adv-x="388" d="M309 697v-527q0 -82 -46.5 -128.5t-130.5 -46.5q-47 0 -88 23t-70 69l101 78q13 -19 29 -29t27 -10q23 0 33 16t10 30v525h135zM237 803l-119 -80l-52 47l134 145h79l129 -144l-52 -48z" />
<glyph unicode="&#x135;" horiz-adv-x="302" d="M217 -35q0 -86 -49 -123t-137 -37h-11v128h17q26 0 34.5 16.5t8.5 52.5v493h137v-530zM151 609l-119 -94l-52 47l134 159h79l129 -158l-52 -48z" />
<glyph unicode="&#x136;" horiz-adv-x="446" d="M194 481l95 215h145l-145 -288l160 -408h-141l-97 267l-24 -63v-204h-136v696h136v-215h7zM246 -256h-66l28 107h-24v111h117v-109z" />
<glyph unicode="&#x137;" horiz-adv-x="432" d="M189 377l71 117h163l-133 -193l136 -301h-163l-70 172l-11 -17v-155h-136v725h136v-347zM229 -276h-66l28 107h-24v111h117v-109z" />
<glyph unicode="&#x138;" horiz-adv-x="432" d="M189 377l71 117h163l-133 -193l136 -301h-163l-70 172l-11 -17v-155h-136v494h136v-116z" />
<glyph unicode="&#x139;" horiz-adv-x="378" d="M51 0v696h136v-565h183v-131h-319zM56 786l167 130l77 -93l-195 -105z" />
<glyph unicode="&#x13a;" horiz-adv-x="234" d="M194 -5q-80 0 -119 34t-39 117v580h137v-562q0 -26 9 -35t24 -9h12v-125h-24zM38 806l167 130l77 -93l-195 -105z" />
<glyph unicode="&#x13b;" horiz-adv-x="378" d="M51 0v696h136v-565h183v-131h-319zM205 -276h-66l28 107h-24v111h117v-109z" />
<glyph unicode="&#x13c;" horiz-adv-x="234" d="M194 -5q-80 0 -119 34t-39 117v580h137v-562q0 -26 9 -35t24 -9h12v-125h-24zM122 -276h-66l28 107h-24v111h117v-109z" />
<glyph unicode="&#x13d;" horiz-adv-x="378" d="M51 0v696h136v-565h183v-131h-319zM299 478h-66l28 107h-24v111h117v-109z" />
<glyph unicode="&#x13e;" horiz-adv-x="323" d="M268 505h-66l28 107h-24v111h117v-109zM194 -5q-80 0 -119 34t-39 117v580h137v-562q0 -26 9 -35t24 -9h12v-125h-24z" />
<glyph unicode="&#x13f;" horiz-adv-x="378" d="M51 0v696h136v-565h183v-131h-319zM253 301v130h118v-130h-118z" />
<glyph unicode="&#x140;" horiz-adv-x="322" d="M203 329v130h118v-130h-118zM194 -5q-80 0 -119 34t-39 117v580h137v-562q0 -26 9 -35t24 -9h12v-125h-24z" />
<glyph unicode="&#x141;" horiz-adv-x="405" d="M78 0v256l-36 -26l-42 59l78 56v351h136v-253l61 44l42 -59l-103 -74v-223h183v-131h-319z" />
<glyph unicode="&#x142;" horiz-adv-x="295" d="M231 -5q-80 0 -119 34t-39 117v136l-31 -22l-42 59l73 52v355h137v-258l41 30l42 -59l-83 -59v-216q0 -26 9 -35t24 -9h12v-125h-24z" />
<glyph unicode="&#x143;" horiz-adv-x="481" d="M301 367v329h133v-696h-116l-82 203l-48 132h-5v-335h-135v696h119l82 -202l47 -127h5zM152 786l167 130l77 -93l-195 -105z" />
<glyph unicode="&#x144;" horiz-adv-x="413" d="M184 455q13 17 37 31.5t47 14.5q34 0 54.5 -10t31.5 -27t15 -40t4 -49v-375h-137v335q0 20 -8 28t-19 8q-12 0 -21 -10t-9 -29v-332h-137v495h137v-39zM139 574l100 186l108 -54l-136 -175z" />
<glyph unicode="&#x145;" horiz-adv-x="481" d="M301 367v329h133v-696h-116l-82 203l-48 132h-5v-335h-135v696h119l82 -202l47 -127h5zM246 -256h-66l28 107h-24v111h117v-109z" />
<glyph unicode="&#x146;" horiz-adv-x="413" d="M184 455q13 17 37 31.5t47 14.5q34 0 54.5 -10t31.5 -27t15 -40t4 -49v-375h-137v335q0 20 -8 28t-19 8q-12 0 -21 -10t-9 -29v-332h-137v495h137v-39zM201 -276h-66l28 107h-24v111h117v-109z" />
<glyph unicode="&#x147;" horiz-adv-x="481" d="M301 367v329h133v-696h-116l-82 203l-48 132h-5v-335h-135v696h119l82 -202l47 -127h5zM370 913l52 -48l-129 -140h-79l-134 141l52 47l119 -80z" />
<glyph unicode="&#x148;" horiz-adv-x="413" d="M184 455q13 17 37 31.5t47 14.5q34 0 54.5 -10t31.5 -27t15 -40t4 -49v-375h-137v335q0 20 -8 28t-19 8q-12 0 -21 -10t-9 -29v-332h-137v495h137v-39zM323 721l52 -48l-129 -158h-79l-134 159l52 47l119 -94z" />
<glyph unicode="&#x149;" horiz-adv-x="494" d="M265 455q13 17 37 31.5t47 14.5q34 0 54.5 -10t31.5 -27t15 -40t4 -49v-375h-137v335q0 20 -8 28t-19 8q-12 0 -21 -10t-9 -29v-332h-137v495h137v-39zM70 451h-66l28 107h-24v111h117v-109z" />
<glyph unicode="&#x14a;" horiz-adv-x="481" d="M301 367v329h133v-769q0 -30 -8.5 -49.5t-23.5 -31.5t-35 -17t-42 -5q-21 0 -43 3.5t-42 9.5l10 94q26 0 36.5 7t10.5 28v89l-57 150l-52 135h-5v-340h-135v696h119l82 -202l47 -127h5z" />
<glyph unicode="&#x14b;" horiz-adv-x="413" d="M184 455q13 17 37 31.5t47 14.5q34 0 54.5 -10t31.5 -27t15 -40t4 -49v-448q0 -30 -8.5 -49.5t-23.5 -31.5t-35 -17t-42 -5q-21 0 -43 3.5t-42 9.5l10 94q26 0 36.5 7t10.5 28v369q0 20 -8 28t-19 8q-12 0 -21 -10t-9 -29v-332h-137v495h137v-39z" />
<glyph unicode="&#x14c;" horiz-adv-x="445" d="M262 532q0 23 -11.5 33t-28.5 10t-29 -10t-12 -33v-368q0 -24 12 -33.5t29 -9.5t28.5 9.5t11.5 33.5v368zM400 170q0 -90 -45 -133t-133 -43q-177 0 -177 176v357q0 90 47 132.5t130 42.5q91 0 134.5 -42.5t43.5 -132.5v-357zM93 745v110h252v-110h-252z" />
<glyph unicode="&#x14d;" horiz-adv-x="401" d="M202 503q63 0 99.5 -25t50.5 -62q5 -14 7.5 -34t4 -42.5t2 -46.5t0.5 -45v-15q0 -27 -0.5 -53.5t-3.5 -51.5q-5 -43 -22.5 -69.5t-41 -41t-51 -19.5t-53.5 -5q-35 0 -60.5 9t-43.5 23.5t-29.5 33.5t-16.5 39q-3 12 -5 30t-3 38t-1.5 40.5t-0.5 38.5q0 22 1 46.5t3 47 t5 42t8 32.5q15 40 53 65t98 25zM202 376q-19 0 -26 -20q-4 -10 -4.5 -40.5t-1.5 -72.5v-15q0 -26 0.5 -49t4.5 -35q5 -22 27 -22q11 0 18 7t7 15q2 6 3.5 36t1.5 65q0 33 -1.5 64t-3.5 44q-2 10 -8 16.5t-17 6.5zM71 566v110h252v-110h-252z" />
<glyph unicode="&#x14e;" horiz-adv-x="445" d="M262 532q0 23 -11.5 33t-28.5 10t-29 -10t-12 -33v-368q0 -24 12 -33.5t29 -9.5t28.5 9.5t11.5 33.5v368zM400 170q0 -90 -45 -133t-133 -43q-177 0 -177 176v357q0 90 47 132.5t130 42.5q91 0 134.5 -42.5t43.5 -132.5v-357zM165 893q1 -11 6 -23.5t13.5 -23t19.5 -17.5 t23 -7q14 0 24.5 7t18 17.5t11 23t4.5 23.5h95q-2 -24 -11.5 -51t-28 -50t-46.5 -38t-67 -15q-42 0 -70.5 15t-47 38t-27.5 50t-10 51h93z" />
<glyph unicode="&#x14f;" horiz-adv-x="401" d="M202 503q63 0 99.5 -25t50.5 -62q5 -14 7.5 -34t4 -42.5t2 -46.5t0.5 -45v-15q0 -27 -0.5 -53.5t-3.5 -51.5q-5 -43 -22.5 -69.5t-41 -41t-51 -19.5t-53.5 -5q-35 0 -60.5 9t-43.5 23.5t-29.5 33.5t-16.5 39q-3 12 -5 30t-3 38t-1.5 40.5t-0.5 38.5q0 22 1 46.5t3 47 t5 42t8 32.5q15 40 53 65t98 25zM202 376q-19 0 -26 -20q-4 -10 -4.5 -40.5t-1.5 -72.5v-15q0 -26 0.5 -49t4.5 -35q5 -22 27 -22q11 0 18 7t7 15q2 6 3.5 36t1.5 65q0 33 -1.5 64t-3.5 44q-2 10 -8 16.5t-17 6.5zM142 685q1 -11 6 -23.5t13.5 -23t19.5 -17.5t23 -7 q14 0 24.5 7t18 17.5t11 23t4.5 23.5h95q-2 -24 -11.5 -51t-28 -50t-46.5 -38t-67 -15q-42 0 -70.5 15t-47 38t-27.5 50t-10 51h93z" />
<glyph unicode="&#x150;" horiz-adv-x="445" d="M262 532q0 23 -11.5 33t-28.5 10t-29 -10t-12 -33v-368q0 -24 12 -33.5t29 -9.5t28.5 9.5t11.5 33.5v368zM400 170q0 -90 -45 -133t-133 -43q-177 0 -177 176v357q0 90 47 132.5t130 42.5q91 0 134.5 -42.5t43.5 -132.5v-357zM50 777l157 142l76 -76l-180 -130zM237 782 l163 135l73 -79l-185 -122z" />
<glyph unicode="&#x151;" horiz-adv-x="401" d="M202 503q63 0 99.5 -25t50.5 -62q5 -14 7.5 -34t4 -42.5t2 -46.5t0.5 -45v-15q0 -27 -0.5 -53.5t-3.5 -51.5q-5 -43 -22.5 -69.5t-41 -41t-51 -19.5t-53.5 -5q-35 0 -60.5 9t-43.5 23.5t-29.5 33.5t-16.5 39q-3 12 -5 30t-3 38t-1.5 40.5t-0.5 38.5q0 22 1 46.5t3 47 t5 42t8 32.5q15 40 53 65t98 25zM202 376q-19 0 -26 -20q-4 -10 -4.5 -40.5t-1.5 -72.5v-15q0 -26 0.5 -49t4.5 -35q5 -22 27 -22q11 0 18 7t7 15q2 6 3.5 36t1.5 65q0 33 -1.5 64t-3.5 44q-2 10 -8 16.5t-17 6.5zM50 574l100 186l108 -54l-136 -175zM210 574l100 186 l108 -54l-136 -175z" />
<glyph unicode="&#x152;" horiz-adv-x="605" d="M388 136h193v-136h-304q-26 -6 -55 -6q-78 0 -127.5 43.5t-49.5 132.5v357q0 45 13.5 77.5t37 54.5t56 32.5t70.5 10.5q31 0 58 -6h301v-130h-193v-146h170v-133h-170v-151zM262 524q0 23 -11.5 33t-28.5 10t-29 -10t-12 -33v-352q0 -24 12 -33.5t29 -9.5t28.5 9.5 t11.5 33.5v352z" />
<glyph unicode="&#x153;" horiz-adv-x="596" d="M372 220q0 -20 0.5 -42.5t3.5 -33.5q2 -10 9.5 -16t16.5 -6q11 0 18.5 9t9.5 31l135 -20q-4 -68 -46 -108t-116 -40q-33 0 -57.5 7.5t-44.5 27.5q-23 -21 -52 -28.5t-55 -7.5q-35 0 -60.5 9t-43.5 23.5t-29.5 33.5t-16.5 39q-3 12 -5 30t-3 38t-1.5 40.5t-0.5 38.5 q0 22 1 46.5t3 47t5 42t8 32.5q15 40 53 65t98 25q32 0 60 -9.5t42 -27.5q17 18 42.5 27.5t56.5 9.5q75 0 118 -40.5t43 -118.5v-124h-192zM202 376q-19 0 -26 -20q-4 -10 -4.5 -40.5t-1.5 -72.5v-15q0 -26 0.5 -49t4.5 -35q5 -22 27 -22q11 0 18 7t7 15q2 6 3 36t1 65 q0 33 -1 64t-3 44q-2 10 -8 16.5t-17 6.5zM402 375q-10 0 -15 -5t-9 -14q-2 -5 -3 -19t-2 -34h54v42q0 10 -5.5 20t-19.5 10z" />
<glyph unicode="&#x154;" horiz-adv-x="446" d="M216 696q43 0 79 -10.5t62 -35t40.5 -64t14.5 -96.5q0 -71 -19 -116t-58 -72l100 -302h-139l-82 271h-27v-271h-136v696h165zM187 566v-164h21q15 0 28 3.5t23.5 13.5t16.5 26.5t6 43.5q0 40 -19.5 58.5t-50.5 18.5h-25zM130 786l167 130l77 -93l-195 -105z" />
<glyph unicode="&#x155;" horiz-adv-x="316" d="M50 496h138v-55h2q19 38 46.5 49t60.5 11h11v-135q-8 1 -15.5 1.5t-14.5 0.5q-43 0 -66.5 -20.5t-23.5 -72.5v-275h-138v496zM105 574l100 186l108 -54l-136 -175z" />
<glyph unicode="&#x156;" horiz-adv-x="446" d="M216 696q43 0 79 -10.5t62 -35t40.5 -64t14.5 -96.5q0 -71 -19 -116t-58 -72l100 -302h-139l-82 271h-27v-271h-136v696h165zM187 566v-164h21q15 0 28 3.5t23.5 13.5t16.5 26.5t6 43.5q0 40 -19.5 58.5t-50.5 18.5h-25zM246 -256h-66l28 107h-24v111h117v-109z" />
<glyph unicode="&#x157;" horiz-adv-x="316" d="M50 496h138v-55h2q19 38 46.5 49t60.5 11h11v-135q-8 1 -15.5 1.5t-14.5 0.5q-43 0 -66.5 -20.5t-23.5 -72.5v-275h-138v496zM125 -273h-66l28 107h-24v111h117v-109z" />
<glyph unicode="&#x158;" horiz-adv-x="446" d="M216 696q43 0 79 -10.5t62 -35t40.5 -64t14.5 -96.5q0 -71 -19 -116t-58 -72l100 -302h-139l-82 271h-27v-271h-136v696h165zM187 566v-164h21q15 0 28 3.5t23.5 13.5t16.5 26.5t6 43.5q0 40 -19.5 58.5t-50.5 18.5h-25zM306 913l52 -48l-129 -140h-79l-134 141l52 47 l119 -80z" />
<glyph unicode="&#x159;" horiz-adv-x="316" d="M50 496h138v-55h2q19 38 46.5 49t60.5 11h11v-135q-8 1 -15.5 1.5t-14.5 0.5q-43 0 -66.5 -20.5t-23.5 -72.5v-275h-138v496zM285 721l52 -48l-129 -158h-79l-134 159l52 47l119 -94z" />
<glyph unicode="&#x15a;" horiz-adv-x="427" d="M397 205q0 -48 -8.5 -87t-29 -66.5t-55.5 -42.5t-88 -15q-48 0 -82.5 14t-56 38.5t-31.5 57t-10 69.5l136 26q2 -38 11.5 -57t35.5 -19q15 0 23.5 7t13 18t6 26t1.5 30q0 21 -3 35t-10.5 24t-20.5 17.5t-32 15.5q-51 21 -82 43.5t-47.5 48t-21.5 54t-5 62.5q0 43 10 79.5 t31.5 62.5t56 41t83.5 15q52 0 86 -16.5t53.5 -42t27.5 -56.5t8 -60l-134 -29q0 15 -1.5 28t-6.5 23.5t-13.5 16.5t-23.5 6q-14 0 -22 -6.5t-12.5 -16t-6 -21.5t-1.5 -23q0 -14 2 -25t10 -21t23.5 -19.5t43.5 -20.5q48 -19 76 -40t42.5 -46t19 -56.5t4.5 -71.5zM124 786 l167 130l77 -93l-195 -105z" />
<glyph unicode="&#x15b;" horiz-adv-x="387" d="M158 162q-1 -20 9.5 -32t26.5 -12q13 0 22.5 9.5t9.5 21.5q0 26 -8.5 35t-23.5 14q-29 10 -57.5 19.5t-52 25t-38 41.5t-14.5 69q0 31 10.5 58.5t31.5 47.5t51.5 32t70.5 12q81 0 121 -41t41 -110l-130 -17q0 14 -7.5 28.5t-24.5 14.5q-16 0 -22.5 -10t-6.5 -18 q0 -15 5 -23t22 -13q36 -11 66 -22t52.5 -29t35 -45t12.5 -69q0 -30 -8.5 -58t-28.5 -49.5t-52.5 -34.5t-80.5 -13q-74 0 -117 37t-46 112zM125 574l100 186l108 -54l-136 -175z" />
<glyph unicode="&#x15c;" horiz-adv-x="427" d="M397 205q0 -48 -8.5 -87t-29 -66.5t-55.5 -42.5t-88 -15q-48 0 -82.5 14t-56 38.5t-31.5 57t-10 69.5l136 26q2 -38 11.5 -57t35.5 -19q15 0 23.5 7t13 18t6 26t1.5 30q0 21 -3 35t-10.5 24t-20.5 17.5t-32 15.5q-51 21 -82 43.5t-47.5 48t-21.5 54t-5 62.5q0 43 10 79.5 t31.5 62.5t56 41t83.5 15q52 0 86 -16.5t53.5 -42t27.5 -56.5t8 -60l-134 -29q0 15 -1.5 28t-6.5 23.5t-13.5 16.5t-23.5 6q-14 0 -22 -6.5t-12.5 -16t-6 -21.5t-1.5 -23q0 -14 2 -25t10 -21t23.5 -19.5t43.5 -20.5q48 -19 76 -40t42.5 -46t19 -56.5t4.5 -71.5zM224 801 l-119 -80l-52 47l134 145h79l129 -144l-52 -48z" />
<glyph unicode="&#x15d;" horiz-adv-x="387" d="M158 162q-1 -20 9.5 -32t26.5 -12q13 0 22.5 9.5t9.5 21.5q0 26 -8.5 35t-23.5 14q-29 10 -57.5 19.5t-52 25t-38 41.5t-14.5 69q0 31 10.5 58.5t31.5 47.5t51.5 32t70.5 12q81 0 121 -41t41 -110l-130 -17q0 14 -7.5 28.5t-24.5 14.5q-16 0 -22.5 -10t-6.5 -18 q0 -15 5 -23t22 -13q36 -11 66 -22t52.5 -29t35 -45t12.5 -69q0 -30 -8.5 -58t-28.5 -49.5t-52.5 -34.5t-80.5 -13q-74 0 -117 37t-46 112zM196 609l-119 -94l-52 47l134 159h79l129 -158l-52 -48z" />
<glyph unicode="&#x15e;" horiz-adv-x="427" d="M397 205q0 -46 -7.5 -83.5t-26 -64.5t-49.5 -43t-77 -19l-11 -31q27 -4 44 -14t27 -22.5t14 -26.5t4 -25t-4.5 -25.5t-16 -28t-30 -23t-46.5 -9.5q-4 0 -14 0.5t-24 2.5t-31 7t-34 13l21 53q23 -10 36.5 -12.5t24.5 -2.5q14 0 23 9.5t9 20.5q0 16 -10.5 22t-27.5 6 l-34 23l21 65q-38 5 -65 21t-44 39.5t-25 53t-8 62.5l136 26q2 -38 11.5 -57t35.5 -19q15 0 23.5 7t13 18t6 26t1.5 30q0 21 -3 35t-10.5 24t-20.5 17.5t-32 15.5q-51 21 -82 43.5t-47.5 48t-21.5 54t-5 62.5q0 43 10 79.5t31.5 62.5t56 41t83.5 15q52 0 86 -16.5t53.5 -42 t27.5 -56.5t8 -60l-134 -29q0 15 -1.5 28t-6.5 23.5t-13.5 16.5t-23.5 6q-14 0 -22 -6.5t-12.5 -16t-6 -21.5t-1.5 -23q0 -14 2 -25t10 -21t23.5 -19.5t43.5 -20.5q48 -19 76 -40t42.5 -46t19 -56.5t4.5 -71.5z" />
<glyph unicode="&#x15f;" horiz-adv-x="387" d="M158 162q-1 -20 9.5 -32t26.5 -12q13 0 22.5 9.5t9.5 21.5q0 26 -8.5 35t-23.5 14q-29 10 -57.5 19.5t-52 25t-38 41.5t-14.5 69q0 31 10.5 58.5t31.5 47.5t51.5 32t70.5 12q81 0 121 -41t41 -110l-130 -17q0 14 -7.5 28.5t-24.5 14.5q-16 0 -22.5 -10t-6.5 -18 q0 -15 5 -23t22 -13q36 -11 66 -22t52.5 -29t35 -45t12.5 -69q0 -28 -7 -53.5t-23 -46t-42 -35t-64 -18.5l-11 -32q27 -4 44 -14t27 -22.5t14 -26.5t4 -25t-4.5 -25.5t-16 -28t-30 -23t-46.5 -9.5q-4 0 -14 0.5t-24 2.5t-31 7t-34 13l21 53q23 -10 36.5 -12.5t24.5 -2.5 q14 0 23 9.5t9 20.5q0 16 -10.5 22t-27.5 6l-34 23l20 64q-63 5 -99 42t-38 105z" />
<glyph unicode="&#x160;" horiz-adv-x="427" d="M397 205q0 -48 -8.5 -87t-29 -66.5t-55.5 -42.5t-88 -15q-48 0 -82.5 14t-56 38.5t-31.5 57t-10 69.5l136 26q2 -38 11.5 -57t35.5 -19q15 0 23.5 7t13 18t6 26t1.5 30q0 21 -3 35t-10.5 24t-20.5 17.5t-32 15.5q-51 21 -82 43.5t-47.5 48t-21.5 54t-5 62.5q0 43 10 79.5 t31.5 62.5t56 41t83.5 15q52 0 86 -16.5t53.5 -42t27.5 -56.5t8 -60l-134 -29q0 15 -1.5 28t-6.5 23.5t-13.5 16.5t-23.5 6q-14 0 -22 -6.5t-12.5 -16t-6 -21.5t-1.5 -23q0 -14 2 -25t10 -21t23.5 -19.5t43.5 -20.5q48 -19 76 -40t42.5 -46t19 -56.5t4.5 -71.5zM340 913 l52 -48l-129 -140h-79l-134 141l52 47l119 -80z" />
<glyph unicode="&#x161;" horiz-adv-x="387" d="M158 162q-1 -20 9.5 -32t26.5 -12q13 0 22.5 9.5t9.5 21.5q0 26 -8.5 35t-23.5 14q-29 10 -57.5 19.5t-52 25t-38 41.5t-14.5 69q0 31 10.5 58.5t31.5 47.5t51.5 32t70.5 12q81 0 121 -41t41 -110l-130 -17q0 14 -7.5 28.5t-24.5 14.5q-16 0 -22.5 -10t-6.5 -18 q0 -15 5 -23t22 -13q36 -11 66 -22t52.5 -29t35 -45t12.5 -69q0 -30 -8.5 -58t-28.5 -49.5t-52.5 -34.5t-80.5 -13q-74 0 -117 37t-46 112zM319 721l52 -48l-129 -158h-79l-134 159l52 47l119 -94z" />
<glyph unicode="&#x162;" horiz-adv-x="360" d="M247 566v-566h-136v566h-107v130h350v-130h-107zM182 -276h-66l28 107h-24v111h117v-109z" />
<glyph unicode="&#x163;" horiz-adv-x="277" d="M189 0q-36 0 -60.5 11t-40 29t-22 40.5t-6.5 45.5v262h-45v107h45v130h129v-130h56v-107h-56v-218q0 -9 1 -17t5 -14.5t13 -10.5t25 -4h12v-124h-56zM148 -276h-66l28 107h-24v111h117v-109z" />
<glyph unicode="&#x164;" horiz-adv-x="360" d="M247 566v-566h-136v566h-107v130h350v-130h-107zM304 913l52 -48l-129 -140h-79l-134 141l52 47l119 -80z" />
<glyph unicode="&#x165;" horiz-adv-x="360" d="M305 553h-66l28 107h-24v111h117v-109zM189 0q-36 0 -60.5 11t-40 29t-22 40.5t-6.5 45.5v262h-45v107h45v130h129v-130h56v-107h-56v-218q0 -9 1 -17t5 -14.5t13 -10.5t25 -4h12v-124h-56z" />
<glyph unicode="&#x166;" horiz-adv-x="360" d="M247 566v-152h85v-98h-85v-316h-136v316h-83v98h83v152h-107v130h350v-130h-107z" />
<glyph unicode="&#x167;" horiz-adv-x="277" d="M189 0q-36 0 -60.5 11t-40 29t-22 40.5t-6.5 45.5v110h-45v93h45v59h-45v107h45v130h129v-130h56v-107h-56v-59h56v-93h-56v-66q0 -9 1 -17t5 -14.5t13 -10.5t25 -4h12v-124h-56z" />
<glyph unicode="&#x168;" horiz-adv-x="445" d="M401 695v-525q0 -90 -45 -133t-133 -43q-177 0 -177 176v525h136v-528q0 -24 12 -33.5t29 -9.5t28.5 9.5t11.5 33.5v528h138zM173 869q16 0 30.5 -5.5t27.5 -11.5t24.5 -11.5t20.5 -5.5q14 0 25.5 6.5t31.5 31.5l65 -36q-24 -56 -50.5 -77.5t-55.5 -21.5q-18 0 -33.5 5.5 t-29 12t-26 12t-24.5 5.5t-25.5 -8t-32.5 -31l-65 40q23 54 55.5 74.5t61.5 20.5z" />
<glyph unicode="&#x169;" horiz-adv-x="413" d="M232 40q-6 -8 -16 -16.5t-21.5 -15t-24 -10.5t-24.5 -4q-34 0 -54 10t-31 27t-14.5 40t-3.5 49v375h137v-335q0 -20 8 -28t19 -8q12 0 21 10t9 29v332h137v-495h-137v39zM157 689q16 0 30.5 -5.5t27.5 -11.5t24.5 -11.5t20.5 -5.5q14 0 25.5 6.5t31.5 31.5l65 -36 q-24 -56 -50.5 -77.5t-55.5 -21.5q-18 0 -33.5 5.5t-29 12t-26 12t-24.5 5.5t-25.5 -8t-32.5 -31l-65 40q23 54 55.5 74.5t61.5 20.5z" />
<glyph unicode="&#x16a;" horiz-adv-x="445" d="M401 695v-525q0 -90 -45 -133t-133 -43q-177 0 -177 176v525h136v-528q0 -24 12 -33.5t29 -9.5t28.5 9.5t11.5 33.5v528h138zM94 745v110h252v-110h-252z" />
<glyph unicode="&#x16b;" horiz-adv-x="413" d="M232 40q-6 -8 -16 -16.5t-21.5 -15t-24 -10.5t-24.5 -4q-34 0 -54 10t-31 27t-14.5 40t-3.5 49v375h137v-335q0 -20 8 -28t19 -8q12 0 21 10t9 29v332h137v-495h-137v39zM83 566v110h252v-110h-252z" />
<glyph unicode="&#x16c;" horiz-adv-x="445" d="M401 695v-525q0 -90 -45 -133t-133 -43q-177 0 -177 176v525h136v-528q0 -24 12 -33.5t29 -9.5t28.5 9.5t11.5 33.5v528h138zM166 893q1 -11 6 -23.5t13.5 -23t19.5 -17.5t23 -7q14 0 24.5 7t18 17.5t11 23t4.5 23.5h95q-2 -24 -11.5 -51t-28 -50t-46.5 -38t-67 -15 q-42 0 -70.5 15t-47 38t-27.5 50t-10 51h93z" />
<glyph unicode="&#x16d;" horiz-adv-x="413" d="M232 40q-6 -8 -16 -16.5t-21.5 -15t-24 -10.5t-24.5 -4q-34 0 -54 10t-31 27t-14.5 40t-3.5 49v375h137v-335q0 -20 8 -28t19 -8q12 0 21 10t9 29v332h137v-495h-137v39zM147 685q1 -11 6 -23.5t13.5 -23t19.5 -17.5t23 -7q14 0 24.5 7t18 17.5t11 23t4.5 23.5h95 q-2 -24 -11.5 -51t-28 -50t-46.5 -38t-67 -15q-42 0 -70.5 15t-47 38t-27.5 50t-10 51h93z" />
<glyph unicode="&#x16e;" horiz-adv-x="445" d="M401 695v-525q0 -90 -45 -133t-133 -43q-177 0 -177 176v525h136v-528q0 -24 12 -33.5t29 -9.5t28.5 9.5t11.5 33.5v528h138zM221 724q-21 0 -39.5 8t-32 21.5t-21.5 32t-8 39.5t8 39.5t21.5 32.5t32 22t39.5 8q22 0 40.5 -8t32 -22t21 -32.5t7.5 -39.5t-7.5 -39.5 t-21 -32t-32 -21.5t-40.5 -8zM221 855q-12 0 -21.5 -9t-9.5 -22q0 -14 9.5 -22t21.5 -8q13 0 22 8t9 22q0 13 -9 22t-22 9z" />
<glyph unicode="&#x16f;" horiz-adv-x="413" d="M232 40q-6 -8 -16 -16.5t-21.5 -15t-24 -10.5t-24.5 -4q-34 0 -54 10t-31 27t-14.5 40t-3.5 49v375h137v-335q0 -20 8 -28t19 -8q12 0 21 10t9 29v332h137v-495h-137v39zM209 519q-21 0 -39.5 8t-32 21.5t-21.5 32t-8 39.5t8 39.5t21.5 32.5t32 22t39.5 8q22 0 40.5 -8 t32 -22t21 -32.5t7.5 -39.5t-7.5 -39.5t-21 -32t-32 -21.5t-40.5 -8zM209 650q-12 0 -21.5 -9t-9.5 -22q0 -14 9.5 -22t21.5 -8q13 0 22 8t9 22q0 13 -9 22t-22 9z" />
<glyph unicode="&#x170;" horiz-adv-x="445" d="M401 695v-525q0 -90 -45 -133t-133 -43q-177 0 -177 176v525h136v-528q0 -24 12 -33.5t29 -9.5t28.5 9.5t11.5 33.5v528h138zM60 777l157 142l76 -76l-180 -130zM247 782l163 135l73 -79l-185 -122z" />
<glyph unicode="&#x171;" horiz-adv-x="413" d="M232 40q-6 -8 -16 -16.5t-21.5 -15t-24 -10.5t-24.5 -4q-34 0 -54 10t-31 27t-14.5 40t-3.5 49v375h137v-335q0 -20 8 -28t19 -8q12 0 21 10t9 29v332h137v-495h-137v39zM54 574l100 186l108 -54l-136 -175zM214 574l100 186l108 -54l-136 -175z" />
<glyph unicode="&#x172;" horiz-adv-x="445" d="M401 695v-525q0 -81 -36.5 -123.5t-107.5 -50.5q-19 -33 -23.5 -59t-4.5 -37q0 -20 13 -31t31 -11q10 0 23 3t30 12l22 -58q-23 -15 -49 -21t-49 -6q-43 0 -72.5 26t-29.5 74q0 21 9.5 49.5t27.5 58.5q-139 17 -139 174v525h136v-528q0 -24 12 -33.5t29 -9.5t28.5 9.5 t11.5 33.5v528h138z" />
<glyph unicode="&#x173;" horiz-adv-x="413" d="M197 -112q0 22 10 51t30 61v39l-5 1q-6 -8 -16 -16.5t-21.5 -15t-24 -10.5t-24.5 -4q-34 0 -54 10t-31 27t-14.5 40t-3.5 49v375h137v-335q0 -20 8 -28t19 -8q12 0 21 10t9 29v332h137v-495h-66q-20 -35 -25 -62t-5 -38q0 -20 13 -31t31 -11q10 0 23 3t30 12l22 -58 q-23 -15 -49 -21t-49 -6q-43 0 -72.5 26t-29.5 74z" />
<glyph unicode="&#x174;" horiz-adv-x="641" d="M320 331l-62 -331h-150l-101 696h155l37 -388h5l64 388h112l64 -395h6l31 395h155l-101 -696h-150l-59 331h-6zM317 801l-119 -80l-52 47l134 145h79l129 -144l-52 -48z" />
<glyph unicode="&#x175;" horiz-adv-x="582" d="M287 225l-16 -119l-16 -106h-151l-94 494h144l17 -175l13 -128h5l15 128l21 175h129l24 -177l19 -126h5l12 129l15 174h141l-94 -494h-151l-16 106l-17 119h-5zM284 609l-119 -94l-52 47l134 159h79l129 -158l-52 -48z" />
<glyph unicode="&#x176;" horiz-adv-x="414" d="M212 442l25 117l30 137h144l-135 -413v-283h-137v283l-136 413h145l34 -139l25 -115h5zM216 801l-119 -80l-52 47l134 145h79l129 -144l-52 -48z" />
<glyph unicode="&#x177;" horiz-adv-x="382" d="M188 199l17 116l31 179h140l-143 -564q-15 -59 -51 -90.5t-98 -31.5h-46v121h25q16 0 31.5 11t23.5 45l6 26l-121 483h146l20 -178l14 -117h5zM186 609l-119 -94l-52 47l134 159h79l129 -158l-52 -48z" />
<glyph unicode="&#x178;" horiz-adv-x="414" d="M212 442l25 117l30 137h144l-135 -413v-283h-137v283l-136 413h145l34 -139l25 -115h5zM238 729v130h119v-130h-119zM64 729v130h118v-130h-118z" />
<glyph unicode="&#x179;" horiz-adv-x="360" d="M24 0v124l168 442h-162v130h309v-120l-169 -445h169v-131h-315zM90 786l167 130l77 -93l-195 -105z" />
<glyph unicode="&#x17a;" horiz-adv-x="350" d="M28 0v121l138 252h-127v122h283v-112l-142 -256h142v-127h-294zM129 574l100 186l108 -54l-136 -175z" />
<glyph unicode="&#x17b;" horiz-adv-x="360" d="M24 0v124l168 442h-162v130h309v-120l-169 -445h169v-131h-315zM132 727v130h118v-130h-118z" />
<glyph unicode="&#x17c;" horiz-adv-x="350" d="M28 0v121l138 252h-127v122h283v-112l-142 -256h142v-127h-294zM131 547v130h118v-130h-118z" />
<glyph unicode="&#x17d;" horiz-adv-x="360" d="M24 0v124l168 442h-162v130h309v-120l-169 -445h169v-131h-315zM305 913l52 -48l-129 -140h-79l-134 141l52 47l119 -80z" />
<glyph unicode="&#x17e;" horiz-adv-x="350" d="M28 0v121l138 252h-127v122h283v-112l-142 -256h142v-127h-294zM306 721l52 -48l-129 -158h-79l-134 159l52 47l119 -94z" />
<glyph unicode="&#x192;" horiz-adv-x="430" d="M76 441h76l8 63q4 36 14 71.5t29.5 63t49.5 45t74 17.5q23 0 46.5 -2t46.5 -14l-26 -113q-19 8 -32.5 9t-21.5 1q-21 0 -32.5 -21.5t-14.5 -46.5l-9 -73h71v-115h-85q-5 -52 -10 -101.5t-11 -100.5q-12 -99 -46 -152.5t-108 -53.5q-18 0 -43.5 4t-54.5 17l33 107 q14 -8 23 -9t14 -1q20 0 30 17t15 59l23 214h-59v115z" />
<glyph unicode="&#x1a0;" horiz-adv-x="481" d="M400 170q0 -90 -45 -133t-133 -43q-177 0 -177 176v357q0 90 47 132.5t130 42.5q104 0 146 -58q11 9 16.5 28t5.5 53v71h98v-86q0 -60 -23.5 -99.5t-65.5 -56.5q0 -7 0.5 -13.5t0.5 -13.5v-357zM262 532q0 23 -11.5 33t-28.5 10t-29 -10t-12 -33v-368q0 -24 12 -33.5 t29 -9.5t28.5 9.5t11.5 33.5v368z" />
<glyph unicode="&#x1a1;" horiz-adv-x="449" d="M202 503q44 0 74.5 -12.5t49.5 -33.5q13 9 19 28.5t6 54.5v67h98v-82q0 -60 -23 -99.5t-65 -56.5q3 -28 4 -60.5t1 -60.5v-15q0 -27 -0.5 -53.5t-3.5 -51.5q-5 -43 -22.5 -69.5t-41 -41t-51 -19.5t-53.5 -5q-35 0 -60.5 9t-43.5 23.5t-29.5 33.5t-16.5 39q-3 12 -5 30 t-3 38t-1.5 40.5t-0.5 38.5q0 22 1 46.5t3 47t5 42t8 32.5q15 40 53 65t98 25zM202 376q-19 0 -26 -20q-4 -10 -4.5 -40.5t-1.5 -72.5v-15q0 -26 0.5 -49t4.5 -35q5 -22 27 -22q11 0 18 7t7 15q2 6 3.5 36t1.5 65q0 33 -1.5 64t-3.5 44q-2 10 -8 16.5t-17 6.5z" />
<glyph unicode="&#x1af;" horiz-adv-x="526" d="M401 695v-60q22 5 32 24.5t10 65.5v71h98v-86q0 -77 -38 -120t-102 -47v-373q0 -90 -45 -133t-133 -43q-177 0 -177 176v525h136v-528q0 -24 12 -33.5t29 -9.5t28.5 9.5t11.5 33.5v528h138z" />
<glyph unicode="&#x1b0;" horiz-adv-x="499" d="M232 40q-6 -8 -16 -16.5t-21.5 -15t-24 -10.5t-24.5 -4q-34 0 -54 10t-31 27t-14.5 40t-3.5 49v375h137v-335q0 -20 8 -28t19 -8q12 0 21 10t9 29v332h137v-44q20 5 29.5 24.5t9.5 64.5v67h98v-82q0 -76 -37 -119t-100 -48v-358h-137v39z" />
<glyph unicode="&#x1fc;" horiz-adv-x="642" d="M301 0v151h-110l-39 -151h-144l197 696h415v-130h-183v-146h160v-133h-160v-151h183v-136h-319zM224 281h77v283h-5zM322 786l167 130l77 -93l-195 -105z" />
<glyph unicode="&#x1fd;" horiz-adv-x="587" d="M230 208h-25q-17 0 -29.5 -11t-12.5 -40q0 -19 10 -27.5t25 -8.5t23.5 12t8.5 31v44zM367 303h57v46q0 10 -9 18t-20 8q-12 0 -20 -8t-8 -17v-47zM396 -6q-42 0 -77.5 14.5t-52.5 45.5q-32 -39 -62 -49.5t-52 -10.5q-36 0 -60 11.5t-38.5 32t-20 49t-5.5 62.5 q0 30 9 57.5t28 48.5t49.5 33.5t72.5 12.5h43v42q0 14 -6.5 22.5t-25.5 8.5q-10 0 -21.5 -6t-16.5 -32l-119 37q32 128 170 128q29 0 53 -7t41 -21q17 15 41 22.5t50 7.5q75 0 120 -40.5t45 -118.5v-127h-194v-68q0 -11 8 -18.5t20 -7.5q11 0 20.5 8.5t11.5 30.5l135 -22 q-4 -68 -48 -107t-118 -39zM254 574l100 186l108 -54l-136 -175z" />
<glyph unicode="&#x1fe;" horiz-adv-x="445" d="M43 12l25 53q-23 39 -23 105v357q0 90 47 132.5t130 42.5q82 0 127 -36l16 34l35 -18l-24 -50q24 -41 24 -105v-357q0 -90 -45 -133t-133 -43q-84 0 -129 39l-18 -38zM143 786l167 130l77 -93l-195 -105zM262 390l-81 -172v-54q0 -24 12 -33.5t29 -9.5t28.5 9.5 t11.5 33.5v226zM181 307l81 173v52q0 23 -11.5 33t-28.5 10t-29 -10t-12 -33v-225z" />
<glyph unicode="&#x1ff;" horiz-adv-x="401" d="M202 503q24 0 43.5 -4t36.5 -11l29 64l27 -14l-29 -65q16 -11 26.5 -25.5t16.5 -31.5q5 -14 7.5 -34t4 -42.5t2 -46.5t0.5 -45v-15q0 -27 -0.5 -53.5t-3.5 -51.5q-5 -43 -22.5 -69.5t-41 -41t-51 -19.5t-53.5 -5q-28 0 -50 5.5t-39 15.5l-20 -45l-26 14l22 50 q-14 14 -23 30.5t-14 34.5q-3 12 -5 30t-3 38t-1.5 40.5t-0.5 38.5q0 22 1 46.5t3 47t5 42t8 32.5q15 40 53 65t98 25zM136 574l100 186l108 -54l-136 -175zM232 245v27t-1 25l-60 -134q2 -13 4 -19q5 -22 27 -22q11 0 18 7t7 15q2 6 3.5 36t1.5 65zM202 376q-19 0 -26 -20 q-4 -10 -4.5 -40.5t-1.5 -72.5v-9l55 125q-7 17 -23 17z" />
<glyph unicode="&#x218;" horiz-adv-x="427" d="M397 205q0 -48 -8.5 -87t-29 -66.5t-55.5 -42.5t-88 -15q-48 0 -82.5 14t-56 38.5t-31.5 57t-10 69.5l136 26q2 -38 11.5 -57t35.5 -19q15 0 23.5 7t13 18t6 26t1.5 30q0 21 -3 35t-10.5 24t-20.5 17.5t-32 15.5q-51 21 -82 43.5t-47.5 48t-21.5 54t-5 62.5q0 43 10 79.5 t31.5 62.5t56 41t83.5 15q52 0 86 -16.5t53.5 -42t27.5 -56.5t8 -60l-134 -29q0 15 -1.5 28t-6.5 23.5t-13.5 16.5t-23.5 6q-14 0 -22 -6.5t-12.5 -16t-6 -21.5t-1.5 -23q0 -14 2 -25t10 -21t23.5 -19.5t43.5 -20.5q48 -19 76 -40t42.5 -46t19 -56.5t4.5 -71.5zM228 -276 h-66l28 107h-24v111h117v-109z" />
<glyph unicode="&#x219;" horiz-adv-x="387" d="M158 162q-1 -20 9.5 -32t26.5 -12q13 0 22.5 9.5t9.5 21.5q0 26 -8.5 35t-23.5 14q-29 10 -57.5 19.5t-52 25t-38 41.5t-14.5 69q0 31 10.5 58.5t31.5 47.5t51.5 32t70.5 12q81 0 121 -41t41 -110l-130 -17q0 14 -7.5 28.5t-24.5 14.5q-16 0 -22.5 -10t-6.5 -18 q0 -15 5 -23t22 -13q36 -11 66 -22t52.5 -29t35 -45t12.5 -69q0 -30 -8.5 -58t-28.5 -49.5t-52.5 -34.5t-80.5 -13q-74 0 -117 37t-46 112zM201 -276h-66l28 107h-24v111h117v-109z" />
<glyph unicode="&#x259;" horiz-adv-x="394" d="M228 278q0 24 -1 44.5t-4 31.5q-5 22 -25 22q-11 0 -18.5 -9t-9.5 -31l-135 20q4 68 46 108t116 40q37 0 64.5 -8.5t46 -23t30 -33.5t16.5 -39q3 -12 5 -30t3 -38t1.5 -40.5t0.5 -38.5q0 -23 -1 -47t-3 -46.5t-5.5 -42t-8.5 -32.5q-15 -40 -52 -65t-97 -25 q-75 0 -118 40.5t-43 118.5v124h192zM222 142q2 5 3 19t2 34h-54v-42q0 -10 5.5 -20t19.5 -10q18 0 24 19z" />
<glyph unicode="&#x2b9;" horiz-adv-x="247" d="M286 706l-148 -304l-97 28l109 322z" />
<glyph unicode="&#x2c6;" horiz-adv-x="385" d="M211 609l-119 -94l-52 47l134 159h79l129 -158l-52 -48z" />
<glyph unicode="&#x2c7;" horiz-adv-x="385" d="M330 721l52 -48l-129 -158h-79l-134 159l52 47l119 -94z" />
<glyph unicode="&#x2d8;" horiz-adv-x="484" d="M170 685q1 -11 6 -23.5t13.5 -23t19.5 -17.5t23 -7q14 0 24.5 7t18 17.5t11 23t4.5 23.5h95q-2 -24 -11.5 -51t-28 -50t-46.5 -38t-67 -15q-42 0 -70.5 15t-47 38t-27.5 50t-10 51h93z" />
<glyph unicode="&#x2d9;" horiz-adv-x="408" d="M164 547v130h118v-130h-118z" />
<glyph unicode="&#x2da;" horiz-adv-x="408" d="M221 519q-21 0 -39.5 8t-32 21.5t-21.5 32t-8 39.5t8 39.5t21.5 32.5t32 22t39.5 8q22 0 40.5 -8t32 -22t21 -32.5t7.5 -39.5t-7.5 -39.5t-21 -32t-32 -21.5t-40.5 -8zM221 650q-12 0 -21.5 -9t-9.5 -22q0 -14 9.5 -22t21.5 -8q13 0 22 8t9 22q0 13 -9 22t-22 9z" />
<glyph unicode="&#x2db;" horiz-adv-x="395" d="M234 -114q0 23 12 55.5t35 67.5h66l3 -4q-23 -37 -29 -66t-6 -41q0 -20 13 -31t31 -11q10 0 23 3t30 12l22 -58q-23 -15 -49 -21t-49 -6q-43 0 -72.5 26t-29.5 74z" />
<glyph unicode="&#x2dc;" horiz-adv-x="362" d="M128 689q16 0 30.5 -5.5t27.5 -11.5t24.5 -11.5t20.5 -5.5q14 0 25.5 6.5t31.5 31.5l65 -36q-24 -56 -50.5 -77.5t-55.5 -21.5q-18 0 -33.5 5.5t-29 12t-26 12t-24.5 5.5t-25.5 -8t-32.5 -31l-65 40q23 54 55.5 74.5t61.5 20.5z" />
<glyph unicode="&#x2dd;" horiz-adv-x="408" d="M62 574l100 186l108 -54l-136 -175zM222 574l100 186l108 -54l-136 -175z" />
<glyph unicode="&#x384;" horiz-adv-x="385" d="M129 574l100 186l108 -54l-136 -175z" />
<glyph unicode="&#x385;" horiz-adv-x="469" d="M328 555v122h119v-122h-119zM19 555v122h118v-122h-118zM149 559l75 199l114 -39l-112 -191z" />
<glyph unicode="&#x386;" horiz-adv-x="449" d="M276 136h-102l-21 -136h-144l132 696h166l133 -696h-143zM207 375l-14 -111h63l-13 111l-15 141h-6zM-118 554l100 186l108 -54l-136 -175z" />
<glyph unicode="&#x387;" horiz-adv-x="229" d="M47 259v150h135v-150h-135z" />
<glyph unicode="&#x388;" horiz-adv-x="394" d="M51 0v696h319v-130h-183v-147h160v-131h-160v-157h183v-131h-319zM-179 574l100 186l108 -54l-136 -175z" />
<glyph unicode="&#x389;" horiz-adv-x="459" d="M274 0v288h-87v-288h-136v696h136v-276h87v276h135v-696h-135zM-176 554l100 186l108 -54l-136 -175z" />
<glyph unicode="&#x38a;" horiz-adv-x="242" d="M53 0v696h136v-696h-136zM-183 554l100 186l108 -54l-136 -175z" />
<glyph unicode="&#x38c;" horiz-adv-x="445" d="M262 532q0 23 -11.5 33t-28.5 10t-29 -10t-12 -33v-368q0 -24 12 -33.5t29 -9.5t28.5 9.5t11.5 33.5v368zM400 170q0 -90 -45 -133t-133 -43q-177 0 -177 176v357q0 90 47 132.5t130 42.5q91 0 134.5 -42.5t43.5 -132.5v-357zM-158 554l100 186l108 -54l-136 -175z" />
<glyph unicode="&#x38e;" horiz-adv-x="414" d="M212 442l25 117l30 137h144l-135 -413v-283h-137v283l-136 413h145l34 -139l25 -115h5zM-213 554l100 186l108 -54l-136 -175z" />
<glyph unicode="&#x38f;" horiz-adv-x="446" d="M363 128h47v-128h-168v136q20 10 20 40v349q0 47 -40 47q-41 0 -41 -47v-349q0 -17 5.5 -26t16.5 -13v-137h-166v128h44l1 3q-37 28 -37 98v299q0 45 13.5 77.5t37 54.5t56 32.5t70.5 10.5q85 0 131.5 -42.5t46.5 -132.5v-299q0 -38 -10.5 -61t-27.5 -37zM-143 554 l100 186l108 -54l-136 -175z" />
<glyph unicode="&#x390;" horiz-adv-x="231" d="M213 -3q-3 0 -10 -0.5t-14.5 -0.5h-14h-9.5q-63 0 -91 31.5t-28 94.5v372h129v-345q0 -29 9 -36.5t31 -8.5zM217 555v122h119v-122h-119zM-92 555v122h118v-122h-118zM38 559l75 199l114 -39l-112 -191z" />
<glyph unicode="&#x391;" horiz-adv-x="449" d="M276 136h-102l-21 -136h-144l132 696h166l133 -696h-143zM207 375l-14 -111h63l-13 111l-15 141h-6z" />
<glyph unicode="&#x392;" horiz-adv-x="446" d="M264 498q0 41 -15 54.5t-48 13.5h-14v-138h17q60 0 60 70zM270 226q0 42 -14.5 59t-43.5 17h-25v-171h24q19 0 30.5 7.5t18 20.5t8.5 30t2 37zM318 364q24 -8 39.5 -23t25 -34.5t13.5 -42.5t4 -47q0 -112 -49 -164.5t-146 -52.5h-154v696h157q93 0 139.5 -49t46.5 -145 q0 -21 -4.5 -41.5t-13.5 -38.5t-23.5 -32t-34.5 -21v-5z" />
<glyph unicode="&#x393;" horiz-adv-x="394" d="M187 566v-566h-136v696h319v-130h-183z" />
<glyph unicode="&#x394;" horiz-adv-x="449" d="M9 0l132 696h166l133 -696h-431zM207 375l-32 -245h101l-33 245l-15 141h-6z" />
<glyph unicode="&#x395;" horiz-adv-x="394" d="M51 0v696h319v-130h-183v-147h160v-131h-160v-157h183v-131h-319z" />
<glyph unicode="&#x396;" horiz-adv-x="360" d="M24 0v124l168 442h-162v130h309v-120l-169 -445h169v-131h-315z" />
<glyph unicode="&#x397;" horiz-adv-x="459" d="M274 0v288h-87v-288h-136v696h136v-276h87v276h135v-696h-135z" />
<glyph unicode="&#x398;" horiz-adv-x="445" d="M407 173q0 -90 -48.5 -134.5t-136.5 -44.5t-136 44.5t-48 134.5v351q0 89 50.5 133.5t133.5 44.5q91 0 138 -44t47 -134v-351zM222 124q17 0 32 11t15 35v120h-95v-120q0 -24 15.5 -35t32.5 -11zM269 526q0 23 -15 34.5t-32 11.5t-32.5 -11.5t-15.5 -34.5v-104h95v104z " />
<glyph unicode="&#x399;" horiz-adv-x="242" d="M53 0v696h136v-696h-136z" />
<glyph unicode="&#x39a;" horiz-adv-x="446" d="M194 481l95 215h145l-145 -288l160 -408h-141l-97 267l-24 -63v-204h-136v696h136v-215h7z" />
<glyph unicode="&#x39b;" horiz-adv-x="449" d="M243 375l-15 141h-6l-15 -141l-54 -375h-144l132 696h166l133 -696h-143z" />
<glyph unicode="&#x39c;" horiz-adv-x="582" d="M246 136l-29 89l-32 103h-5v-328h-135v696h127l69 -186l47 -138h6l48 141l68 183h127v-696h-136v325h-4l-33 -108l-27 -81h-91z" />
<glyph unicode="&#x39d;" horiz-adv-x="481" d="M301 367v329h133v-696h-116l-82 203l-48 132h-5v-335h-135v696h119l82 -202l47 -127h5z" />
<glyph unicode="&#x39e;" horiz-adv-x="394" d="M31 567v129h337v-129h-337zM60 289v128h278v-128h-278zM31 0v131h337v-131h-337z" />
<glyph unicode="&#x39f;" horiz-adv-x="445" d="M262 532q0 23 -11.5 33t-28.5 10t-29 -10t-12 -33v-368q0 -24 12 -33.5t29 -9.5t28.5 9.5t11.5 33.5v368zM400 170q0 -90 -45 -133t-133 -43q-177 0 -177 176v357q0 90 47 132.5t130 42.5q91 0 134.5 -42.5t43.5 -132.5v-357z" />
<glyph unicode="&#x3a0;" horiz-adv-x="446" d="M259 0v563h-72v-563h-136v696h343v-696h-135z" />
<glyph unicode="&#x3a1;" horiz-adv-x="428" d="M216 696q44 0 79.5 -10.5t61 -35t39.5 -66t14 -103.5q0 -107 -45 -166.5t-146 -59.5h-32v-255h-136v696h165zM187 566v-180h23q13 0 25.5 3.5t22.5 14t16 29.5t6 49q0 46 -18.5 65t-49.5 19h-25z" />
<glyph unicode="&#x3a3;" horiz-adv-x="350" d="M172 131h167v-131h-318v124l79 235l-81 217v120h309v-130h-157l78 -207z" />
<glyph unicode="&#x3a4;" horiz-adv-x="360" d="M247 566v-566h-136v566h-107v130h350v-130h-107z" />
<glyph unicode="&#x3a5;" horiz-adv-x="414" d="M212 442l25 117l30 137h144l-135 -413v-283h-137v283l-136 413h145l34 -139l25 -115h5z" />
<glyph unicode="&#x3a6;" horiz-adv-x="613" d="M239 542q-30 -1 -46 -20t-16 -49v-226q0 -30 16 -48.5t46 -19.5v363zM436 473q0 33 -17.5 50.5t-44.5 18.5v-363q27 1 44.5 21.5t17.5 46.5v226zM568 253q0 -45 -14.5 -79.5t-40 -59t-61.5 -38.5t-78 -18v-58h-135v58q-43 3 -78.5 17t-61 39t-40 59.5t-14.5 79.5v219 q0 45 14.5 79.5t40 58.5t61.5 37.5t78 16.5v32h135v-32q89 -5 141.5 -55t52.5 -140v-216z" />
<glyph unicode="&#x3a7;" horiz-adv-x="450" d="M222 204l-61 -204h-158l144 363l-134 333h159l51 -172h6l48 172h160l-138 -333l148 -363h-160l-61 204h-4z" />
<glyph unicode="&#x3a8;" horiz-adv-x="613" d="M568 695v-332q0 -45 -17 -81.5t-44.5 -62.5t-62 -41t-70.5 -16v-162h-135v162q-40 1 -75.5 15t-61.5 39t-41.5 60.5t-15.5 80.5v338h132v-341q0 -30 16 -48t46 -19v408h135v-408q29 2 45.5 20t16.5 47v341h132z" />
<glyph unicode="&#x3a9;" horiz-adv-x="446" d="M363 128h47v-128h-168v136q20 10 20 40v349q0 47 -40 47q-41 0 -41 -47v-349q0 -17 5.5 -26t16.5 -13v-137h-166v128h44l1 3q-37 28 -37 98v299q0 45 13.5 77.5t37 54.5t56 32.5t70.5 10.5q85 0 131.5 -42.5t46.5 -132.5v-299q0 -38 -10.5 -61t-27.5 -37z" />
<glyph unicode="&#x3aa;" horiz-adv-x="242" d="M53 0v696h136v-696h-136zM147 729v130h119v-130h-119zM-27 729v130h118v-130h-118z" />
<glyph unicode="&#x3ab;" horiz-adv-x="414" d="M212 442l25 117l30 137h144l-135 -413v-283h-137v283l-136 413h145l34 -139l25 -115h5zM234 729v130h119v-130h-119zM60 729v130h118v-130h-118z" />
<glyph unicode="&#x3ac;" horiz-adv-x="401" d="M203 122q19 0 26 20q4 10 3.5 40.5t0.5 72.5v11q0 26 -0.5 49t-2.5 31q-5 22 -27 22q-11 0 -18 -7t-7 -15q-2 -6 -3 -32t-1 -61q0 -33 1 -64t3 -44q2 -10 8 -16.5t17 -6.5zM150 -9q-31 0 -50 7t-30.5 19t-17.5 28t-11 33q-3 12 -5 32t-3 43t-1.5 47.5t-0.5 45.5 q0 38 1.5 70.5t3.5 49.5q8 73 36.5 103.5t81.5 30.5q9 0 19.5 -2t21 -6.5t20.5 -13.5t16 -22l4 2v36h134v-494h-137v29h-5q-6 -9 -16 -16t-21.5 -12t-22 -7.5t-17.5 -2.5zM130 574l100 186l108 -54l-136 -175z" />
<glyph unicode="&#x3ad;" horiz-adv-x="392" d="M204 503q37 0 68.5 -10.5t54 -30.5t35.5 -49.5t13 -68.5l-137 -17q0 26 -10 37t-24 11q-11 0 -19 -7.5t-8 -18.5v-22q0 -12 8.5 -21.5t27.5 -9.5h43v-100h-43q-22 0 -29 -11t-7 -23v-12q0 -11 8.5 -19t21.5 -8q11 0 21 9.5t10 34.5l137 -21q-2 -70 -44 -110.5t-116 -40.5 q-38 0 -70.5 8t-56.5 26t-37.5 46.5t-13.5 70.5q0 35 10 63t47 44v1q-32 15 -42.5 40t-10.5 61q0 64 43 106t120 42zM129 574l100 186l108 -54l-136 -175z" />
<glyph unicode="&#x3ae;" horiz-adv-x="413" d="M184 455q13 17 37 31.5t47 14.5q34 0 54.5 -10t31.5 -27t15 -40t4 -49v-375h-137v335q0 20 -8 28t-19 8q-12 0 -21 -10t-9 -29v-332h-137v495h137v-39zM122 574l100 186l108 -54l-136 -175z" />
<glyph unicode="&#x3af;" horiz-adv-x="231" d="M213 -3q-3 0 -10 -0.5t-14.5 -0.5h-14h-9.5q-63 0 -91 31.5t-28 94.5v372h129v-345q0 -29 9 -36.5t31 -8.5zM43 574l100 186l108 -54l-136 -175z" />
<glyph unicode="&#x3b0;" horiz-adv-x="401" d="M172 493v-265q0 -26 0.5 -49t4.5 -35q5 -22 25 -22q11 0 18 7t7 15q2 6 2 36v65v248h137v-260q0 -27 -0.5 -53.5t-3.5 -51.5q-5 -43 -22.5 -69.5t-41 -41t-51 -19.5t-53.5 -5q-35 0 -60.5 9t-43.5 23.5t-29.5 33.5t-16.5 39q-3 12 -5 30t-3 38t-1 40.5v38.5v248h137z M295 555v122h119v-122h-119zM-14 555v122h118v-122h-118zM116 559l75 199l114 -39l-112 -191z" />
<glyph unicode="&#x3b1;" horiz-adv-x="401" d="M203 122q19 0 26 20q4 10 3.5 40.5t0.5 72.5v11q0 26 -0.5 49t-2.5 31q-5 22 -27 22q-11 0 -18 -7t-7 -15q-2 -6 -3 -32t-1 -61q0 -33 1 -64t3 -44q2 -10 8 -16.5t17 -6.5zM150 -9q-31 0 -50 7t-30.5 19t-17.5 28t-11 33q-3 12 -5 32t-3 43t-1.5 47.5t-0.5 45.5 q0 38 1.5 70.5t3.5 49.5q8 73 36.5 103.5t81.5 30.5q9 0 19.5 -2t21 -6.5t20.5 -13.5t16 -22l4 2v36h134v-494h-137v29h-5q-6 -9 -16 -16t-21.5 -12t-22 -7.5t-17.5 -2.5z" />
<glyph unicode="&#x3b2;" horiz-adv-x="422" d="M321 421q21 -7 33.5 -22.5t18.5 -38.5t8 -54t2 -68q0 -59 -4 -104.5t-16.5 -76.5t-36.5 -47t-63 -16q-18 0 -38 7t-39 29h-7v-180h-137v713q0 78 42 120.5t126 42.5q82 0 123 -48.5t41 -132.5q0 -44 -9.5 -75t-43.5 -47v-2zM197 467q24 0 32 14t8 54q0 37 -9 49.5 t-21 12.5q-28 0 -28 -28v-414q0 -16 8.5 -24t20.5 -8q10 0 17.5 3.5t12.5 16t7 36.5t2 66q0 38 -2 62t-7.5 37.5t-15 18.5t-24.5 5h-1v99z" />
<glyph unicode="&#x3b3;" horiz-adv-x="406" d="M64 335q-5 19 -13.5 33.5t-29.5 14.5q-2 0 -3.5 -0.5t-3.5 -0.5l-12 108q23 9 43 12t36 3q31 0 50.5 -14t30.5 -34.5t16.5 -45t8.5 -45.5l24 -153h7q8 70 18.5 142.5t21.5 138.5h147q-32 -127 -66 -259.5t-64 -266.5v-170h-131v164z" />
<glyph unicode="&#x3b4;" horiz-adv-x="409" d="M243 721q9 0 21.5 -0.5t27 -1t28.5 -2t26 -3.5q-2 -29 -4 -53t-4 -53q-26 3 -43.5 3.5t-28.5 0.5q-46 0 -62.5 -13t-16.5 -36q0 -13 21 -33.5t52 -40.5q35 -23 57 -44t34 -45t16 -53t4 -68v-57q0 -26 -1.5 -48t-4.5 -45q-4 -42 -20.5 -68.5t-40 -41.5t-51 -20.5 t-54.5 -5.5q-36 0 -62.5 9t-44.5 25t-28.5 36t-15.5 43q-6 26 -7.5 62t-1.5 65q0 33 3 69t11 61q8 26 25 47.5t43 35.5q-32 27 -45 55.5t-13 66.5q0 69 44.5 111t135.5 42zM206 363q-11 -5 -18 -15t-9 -19q-2 -8 -2.5 -15t-1.5 -17t-1 -25v-39q0 -39 0.5 -59t5.5 -34 q6 -18 24 -18q21 0 24 17q9 19 9 94v53q0 14 -1.5 25t-3.5 21q-4 12 -9.5 19t-16.5 12z" />
<glyph unicode="&#x3b5;" horiz-adv-x="392" d="M204 503q37 0 68.5 -10.5t54 -30.5t35.5 -49.5t13 -68.5l-137 -17q0 26 -10 37t-24 11q-11 0 -19 -7.5t-8 -18.5v-22q0 -12 8.5 -21.5t27.5 -9.5h43v-100h-43q-22 0 -29 -11t-7 -23v-12q0 -11 8.5 -19t21.5 -8q11 0 21 9.5t10 34.5l137 -21q-2 -70 -44 -110.5t-116 -40.5 q-38 0 -70.5 8t-56.5 26t-37.5 46.5t-13.5 70.5q0 35 10 63t47 44v1q-32 15 -42.5 40t-10.5 61q0 64 43 106t120 42z" />
<glyph unicode="&#x3b6;" horiz-adv-x="383" d="M178 374h-129v121h320v-100q-104 -65 -151 -126t-47 -103q0 -23 22 -38t69 -35q44 -18 68 -38.5t24 -54.5q0 -10 -3 -25t-12.5 -36t-27.5 -48t-48 -60l-89 56q13 19 21 32.5t12 22t5 13t1 6.5q0 13 -8 19t-29 14q-27 10 -53 22t-47 30t-33.5 44t-12.5 65q0 56 36.5 109 t112.5 107z" />
<glyph unicode="&#x3b7;" horiz-adv-x="413" d="M184 455q13 17 37 31.5t47 14.5q34 0 54.5 -10t31.5 -27t15 -40t4 -49v-375h-137v335q0 20 -8 28t-19 8q-12 0 -21 -10t-9 -29v-332h-137v495h137v-39z" />
<glyph unicode="&#x3b8;" horiz-adv-x="401" d="M202 723q63 0 99.5 -25t50.5 -62q4 -13 7 -34.5t4.5 -54t2 -77t0.5 -103.5v-104.5t-0.5 -66.5t-1.5 -41t-2 -27q-5 -43 -22.5 -69.5t-41 -41t-51 -19.5t-53.5 -5q-35 0 -60.5 9t-43.5 23.5t-29.5 33.5t-16.5 39q-3 12 -5 31.5t-3 48.5t-1.5 69t-0.5 94q0 69 1 118.5t3 84 t5 55.5t8 34q15 40 53 65t98 25zM231 317h-61v-89q0 -26 0.5 -49t4.5 -35q5 -22 27 -22q11 0 18 7t7 15q2 6 3 36t1 65v72zM170 422h61v43q0 33 -1 64t-3 44q-2 10 -8 16.5t-17 6.5q-19 0 -26 -20q-4 -10 -4.5 -40.5t-1.5 -72.5v-41z" />
<glyph unicode="&#x3b9;" horiz-adv-x="231" d="M213 -3q-3 0 -10 -0.5t-14.5 -0.5h-14h-9.5q-63 0 -91 31.5t-28 94.5v372h129v-345q0 -29 9 -36.5t31 -8.5z" />
<glyph unicode="&#x3ba;" horiz-adv-x="432" d="M189 377l71 117h163l-133 -193l136 -301h-163l-70 172l-11 -17v-155h-136v494h136v-116z" />
<glyph unicode="&#x3bb;" horiz-adv-x="392" d="M185 254l-44 -254h-141l133 475l-16 84q-2 10 -5 19.5t-10.5 16.5t-19.5 11t-32 4v115q37 8 65 8q57 0 84.5 -31.5t40.5 -88.5l108 -477q5 -20 14 -25.5t26 -8.5v-102q-13 -2 -29.5 -3.5t-30.5 -1.5q-18 0 -34.5 4t-29.5 14.5t-23.5 28.5t-16.5 47l-35 165h-4z" />
<glyph unicode="&#x3bc;" horiz-adv-x="413" d="M232 40q-9 -12 -22 -21t-30 -14v-196h-137v686h137v-335q0 -20 8 -28t19 -8q12 0 21 10t9 29v332h137v-495h-137v39z" />
<glyph unicode="&#x3bd;" horiz-adv-x="397" d="M205 176l11 121l26 197h150l-115 -494h-157l-115 494h153l26 -191l14 -127h7z" />
<glyph unicode="&#x3be;" horiz-adv-x="364" d="M211 726q79 0 122 -40.5t43 -123.5l-135 -15v9q0 21 -6.5 31.5t-23.5 10.5q-19 0 -25 -19.5t-6 -51.5q0 -20 1.5 -35.5t8.5 -26.5t20 -17t37 -6h75v-115h-66q-25 0 -39.5 -10t-22 -26t-9.5 -34.5t-2 -36.5q0 -26 5.5 -42.5t14.5 -28t22 -20t28 -17.5q28 -17 52.5 -30 t41.5 -28q26 -23 24 -51.5t-19 -64.5q-11 -22 -27.5 -49.5t-39.5 -61.5l-100 56q13 24 22.5 41t11 30t-6 22t-27.5 17q-41 15 -69 33.5t-45 44.5t-24 62t-7 86q0 52 13 95.5t53 65.5q-21 8 -34 25t-20 37.5t-9.5 42.5t-2.5 41q0 45 8.5 82t29 63t53 40.5t80.5 14.5z" />
<glyph unicode="&#x3bf;" horiz-adv-x="401" d="M202 503q63 0 99.5 -25t50.5 -62q5 -14 7.5 -34t4 -42.5t2 -46.5t0.5 -45v-15q0 -27 -0.5 -53.5t-3.5 -51.5q-5 -43 -22.5 -69.5t-41 -41t-51 -19.5t-53.5 -5q-35 0 -60.5 9t-43.5 23.5t-29.5 33.5t-16.5 39q-3 12 -5 30t-3 38t-1.5 40.5t-0.5 38.5q0 22 1 46.5t3 47 t5 42t8 32.5q15 40 53 65t98 25zM202 376q-19 0 -26 -20q-4 -10 -4.5 -40.5t-1.5 -72.5v-15q0 -26 0.5 -49t4.5 -35q5 -22 27 -22q11 0 18 7t7 15q2 6 3.5 36t1.5 65q0 33 -1.5 64t-3.5 44q-2 10 -8 16.5t-17 6.5z" />
<glyph unicode="&#x3c0;" horiz-adv-x="422" d="M239 0v374h-57v-374h-136v495h331v-495h-138z" />
<glyph unicode="&#x3c1;" horiz-adv-x="401" d="M34 245q0 22 1 46.5t3 47t5 42t8 32.5q15 40 53 65t98 25q63 0 99.5 -25t50.5 -62q5 -13 7.5 -33t4 -43t2 -47t0.5 -45v-20q0 -70 -5.5 -115.5t-19 -72t-36.5 -37t-58 -10.5q-14 0 -35 8t-35 25h-5v-217h-137zM202 376q-19 0 -26 -20q-4 -10 -4.5 -40.5t-1.5 -72.5v-15 q0 -26 0.5 -49t4.5 -35q5 -22 27 -22q11 0 18 7t7 15q2 6 3 36t1 65q0 33 -1 64t-3 44q-2 10 -8 16.5t-17 6.5z" />
<glyph unicode="&#x3c2;" horiz-adv-x="384" d="M200 503q75 0 115.5 -41.5t40.5 -119.5l-133 -15q0 26 -8.5 37.5t-19.5 11.5t-17 -11t-8.5 -28t-3 -37t-0.5 -38q0 -26 2 -46.5t10 -38t22.5 -32.5t40.5 -29q31 -17 49.5 -31t28.5 -27t13.5 -26.5t3.5 -28.5q0 -17 -19.5 -58.5t-66.5 -109.5l-101 56q17 30 27 52t10 29 q0 19 -22 31q-45 24 -71 44.5t-39.5 43t-17.5 50t-4 64.5q0 75 4 128.5t14 79.5q15 40 52.5 65t97.5 25z" />
<glyph unicode="&#x3c3;" horiz-adv-x="411" d="M340 381q12 -8 18 -23.5t9 -34t3.5 -38.5t0.5 -37v-15q0 -27 -1 -53.5t-4 -51.5q-5 -43 -22.5 -69.5t-41 -41t-51 -19.5t-53.5 -5q-35 0 -60.5 9t-43.5 23.5t-29.5 33.5t-16.5 39q-3 12 -5 30t-3 38t-1.5 40.5t-0.5 38.5q0 45 3.5 89.5t13.5 70.5q15 40 53 64.5t98 24.5 h196v-111h-58zM206 368q-19 0 -26 -20q-4 -10 -4.5 -36.5t-1.5 -68.5v-15q0 -26 0.5 -49t4.5 -35q5 -22 27 -22q11 0 18 7t7 15q2 6 3 36t1 65q0 33 -1 60t-3 40q-2 10 -8 16.5t-17 6.5z" />
<glyph unicode="&#x3c4;" horiz-adv-x="285" d="M202 0q-36 0 -60.5 11t-40 29t-22 40.5t-6.5 45.5v257h-62v112h269v-112h-78v-213q0 -9 1 -17t5 -14.5t13 -10.5t25 -4h12v-124h-56z" />
<glyph unicode="&#x3c5;" horiz-adv-x="401" d="M172 493v-265q0 -26 0.5 -49t4.5 -35q5 -22 25 -22q11 0 18 7t7 15q2 6 2 36v65v248h137v-260q0 -27 -0.5 -53.5t-3.5 -51.5q-5 -43 -22.5 -69.5t-41 -41t-51 -19.5t-53.5 -5q-35 0 -60.5 9t-43.5 23.5t-29.5 33.5t-16.5 39q-3 12 -5 30t-3 38t-1 40.5v38.5v248h137z" />
<glyph unicode="&#x3c6;" horiz-adv-x="567" d="M349 -191h-130v185q-35 0 -64 9t-51 23t-36.5 33t-19.5 39q-3 12 -5 30t-3 38t-1.5 40.5t-0.5 38.5q0 22 1 46.5t3 47t5 42t8 32.5q24 64 104 79l35 -118q-11 -4 -16 -18q-4 -10 -3.5 -40.5t-0.5 -72.5v-15q0 -26 0.5 -49t4.5 -35q2 -10 15.5 -16.5t24.5 -6.5v378h138 q31 0 57.5 -8t46.5 -21.5t33.5 -31t20.5 -35.5q11 -32 13.5 -72.5t2.5 -82.5v-15q0 -27 -0.5 -49.5t-3.5 -44.5q-5 -43 -24.5 -70.5t-45.5 -44t-55 -23t-53 -7.5v-185zM346 121q20 2 31.5 13t13.5 22q1 6 2.5 30t1.5 59q0 33 -1.5 59t-3.5 39q-2 10 -13 19t-31 10v-251z" />
<glyph unicode="&#x3c7;" horiz-adv-x="405" d="M199 140l-45 -140h-150l118 252l-112 243h153l40 -129h3l41 129h147l-114 -243l120 -252h-150l-46 140h-5z" />
<glyph unicode="&#x3c8;" horiz-adv-x="567" d="M532 495v-315q0 -51 -16.5 -86t-42.5 -57t-58.5 -32t-64.5 -11v-185h-132v185q-87 4 -134 51t-47 127v323h136v-320q0 -21 9.5 -37t35.5 -17v374h129v-374q17 1 33.5 14t16.5 40v320h135z" />
<glyph unicode="&#x3c9;" horiz-adv-x="588" d="M402 -6q-12 0 -27.5 3t-30 10t-27.5 18t-21 27h-5q-20 -32 -47 -45.5t-56 -13.5q-35 0 -60 9t-42.5 23.5t-28 33.5t-15.5 39q-3 12 -5 30t-3 38t-1 40.5v38.5q0 22 1 47t3 48t5 43t8 33q15 40 53.5 63.5t98.5 23.5v-127q-19 0 -26 -20q-4 -10 -5 -40.5t-2 -72.5 q0 -38 0.5 -62.5t4.5 -36.5q5 -21 26 -21q9 0 19 6t10 21v183h129v-183q0 -15 10.5 -21t19.5 -6q11 0 18.5 6.5t7.5 14.5q2 6 3 36t1 65q0 33 -1 64t-3 44q-2 10 -8 16.5t-17 6.5v127q63 0 99.5 -22.5t50.5 -59.5q11 -32 13 -79.5t2 -101.5q0 -27 -1 -57t-4 -55 q-5 -40 -19.5 -66t-34.5 -41t-44.5 -21t-48.5 -6z" />
<glyph unicode="&#x3ca;" horiz-adv-x="231" d="M213 -3q-3 0 -10 -0.5t-14.5 -0.5h-14h-9.5q-63 0 -91 31.5t-28 94.5v372h129v-345q0 -29 9 -36.5t31 -8.5zM138 547v130h119v-130h-119zM-36 547v130h118v-130h-118z" />
<glyph unicode="&#x3cb;" horiz-adv-x="401" d="M172 493v-265q0 -26 0.5 -49t4.5 -35q5 -22 25 -22q11 0 18 7t7 15q2 6 2 36v65v248h137v-260q0 -27 -0.5 -53.5t-3.5 -51.5q-5 -43 -22.5 -69.5t-41 -41t-51 -19.5t-53.5 -5q-35 0 -60.5 9t-43.5 23.5t-29.5 33.5t-16.5 39q-3 12 -5 30t-3 38t-1 40.5v38.5v248h137z M226 547v130h119v-130h-119zM52 547v130h118v-130h-118z" />
<glyph unicode="&#x3cc;" horiz-adv-x="401" d="M202 503q63 0 99.5 -25t50.5 -62q5 -14 7.5 -34t4 -42.5t2 -46.5t0.5 -45v-15q0 -27 -0.5 -53.5t-3.5 -51.5q-5 -43 -22.5 -69.5t-41 -41t-51 -19.5t-53.5 -5q-35 0 -60.5 9t-43.5 23.5t-29.5 33.5t-16.5 39q-3 12 -5 30t-3 38t-1.5 40.5t-0.5 38.5q0 22 1 46.5t3 47 t5 42t8 32.5q15 40 53 65t98 25zM202 376q-19 0 -26 -20q-4 -10 -4.5 -40.5t-1.5 -72.5v-15q0 -26 0.5 -49t4.5 -35q5 -22 27 -22q11 0 18 7t7 15q2 6 3.5 36t1.5 65q0 33 -1.5 64t-3.5 44q-2 10 -8 16.5t-17 6.5zM143 574l100 186l108 -54l-136 -175z" />
<glyph unicode="&#x3cd;" horiz-adv-x="401" d="M172 493v-265q0 -26 0.5 -49t4.5 -35q5 -22 25 -22q11 0 18 7t7 15q2 6 2 36v65v248h137v-260q0 -27 -0.5 -53.5t-3.5 -51.5q-5 -43 -22.5 -69.5t-41 -41t-51 -19.5t-53.5 -5q-35 0 -60.5 9t-43.5 23.5t-29.5 33.5t-16.5 39q-3 12 -5 30t-3 38t-1 40.5v38.5v248h137z M129 574l100 186l108 -54l-136 -175z" />
<glyph unicode="&#x3ce;" horiz-adv-x="588" d="M402 -6q-12 0 -27.5 3t-30 10t-27.5 18t-21 27h-5q-20 -32 -47 -45.5t-56 -13.5q-35 0 -60 9t-42.5 23.5t-28 33.5t-15.5 39q-3 12 -5 30t-3 38t-1 40.5v38.5q0 22 1 47t3 48t5 43t8 33q15 40 53.5 63.5t98.5 23.5v-127q-19 0 -26 -20q-4 -10 -5 -40.5t-2 -72.5 q0 -38 0.5 -62.5t4.5 -36.5q5 -21 26 -21q9 0 19 6t10 21v183h129v-183q0 -15 10.5 -21t19.5 -6q11 0 18.5 6.5t7.5 14.5q2 6 3 36t1 65q0 33 -1 64t-3 44q-2 10 -8 16.5t-17 6.5v127q63 0 99.5 -22.5t50.5 -59.5q11 -32 13 -79.5t2 -101.5q0 -27 -1 -57t-4 -55 q-5 -40 -19.5 -66t-34.5 -41t-44.5 -21t-48.5 -6zM230 574l100 186l108 -54l-136 -175z" />
<glyph unicode="&#x401;" horiz-adv-x="394" d="M51 0v696h319v-130h-183v-147h160v-131h-160v-157h183v-131h-319zM236 729v130h119v-130h-119zM62 729v130h118v-130h-118z" />
<glyph unicode="&#x402;" horiz-adv-x="496" d="M283 344q-21 0 -43 -19v-325h-136v566h-96v130h369v-130h-137v-132h3q21 15 45 24t56 9q30 0 51 -10.5t35 -28.5t20.5 -42t6.5 -51v-195q0 -43 -6.5 -75.5t-23.5 -55t-45.5 -34t-72.5 -11.5h-28v108q17 0 28 9.5t11 33.5v187q0 23 -10 32.5t-27 9.5z" />
<glyph unicode="&#x403;" horiz-adv-x="394" d="M187 566v-566h-136v696h319v-130h-183zM104 786l167 130l77 -93l-195 -105z" />
<glyph unicode="&#x404;" horiz-adv-x="427" d="M226 702q47 0 81.5 -13.5t57 -37.5t32 -57t6.5 -71l-131 -23q-1 31 -13.5 51.5t-33.5 20.5q-14 0 -22.5 -5.5t-13.5 -13.5t-7 -17.5t-2 -16.5v-101h117v-132h-117v-122q0 -14 7 -27t33 -13q20 0 32.5 18t13.5 54l135 -18q-1 -83 -46 -133.5t-130 -50.5q-94 0 -137 44 t-43 132v349q0 83 46.5 133t134.5 50z" />
<glyph unicode="&#x405;" horiz-adv-x="427" d="M397 205q0 -48 -8.5 -87t-29 -66.5t-55.5 -42.5t-88 -15q-48 0 -82.5 14t-56 38.5t-31.5 57t-10 69.5l136 26q2 -38 11.5 -57t35.5 -19q15 0 23.5 7t13 18t6 26t1.5 30q0 21 -3 35t-10.5 24t-20.5 17.5t-32 15.5q-51 21 -82 43.5t-47.5 48t-21.5 54t-5 62.5q0 43 10 79.5 t31.5 62.5t56 41t83.5 15q52 0 86 -16.5t53.5 -42t27.5 -56.5t8 -60l-134 -29q0 15 -1.5 28t-6.5 23.5t-13.5 16.5t-23.5 6q-14 0 -22 -6.5t-12.5 -16t-6 -21.5t-1.5 -23q0 -14 2 -25t10 -21t23.5 -19.5t43.5 -20.5q48 -19 76 -40t42.5 -46t19 -56.5t4.5 -71.5z" />
<glyph unicode="&#x406;" horiz-adv-x="242" d="M53 0v696h136v-696h-136z" />
<glyph unicode="&#x407;" horiz-adv-x="242" d="M53 0v696h136v-696h-136zM147 726v130h119v-130h-119zM-27 726v130h118v-130h-118z" />
<glyph unicode="&#x408;" horiz-adv-x="360" d="M309 696v-527q0 -82 -46.5 -128.5t-130.5 -46.5q-47 0 -88 23t-70 69l101 78q13 -19 29 -29t27 -10q23 0 33 16t10 30v525h135z" />
<glyph unicode="&#x409;" horiz-adv-x="649" d="M433 130q31 0 49.5 22t18.5 70q0 30 -6 47.5t-16 26.5t-22.5 11.5t-25.5 2.5h-23v-180h25zM272 566h-66v-263q0 -72 -6 -124.5t-23.5 -89.5t-49.5 -62t-84 -43l-46 100q33 18 51 37.5t26.5 44t10 57.5t1.5 78v395h322v-255h35q102 0 146 -55.5t44 -162.5 q0 -59 -14.5 -101.5t-40.5 -69.5t-61.5 -39.5t-76.5 -12.5h-168v566z" />
<glyph unicode="&#x40a;" horiz-adv-x="649" d="M272 0v303h-85v-303h-136v696h136v-261h85v261h136v-261h35q102 0 146 -54t44 -161q0 -59 -14.5 -101t-40.5 -68.5t-61.5 -38.5t-76.5 -12h-168zM433 130q31 0 49.5 20.5t18.5 68.5q0 30 -6 47t-16 25.5t-22.5 10t-25.5 1.5h-23v-173h25z" />
<glyph unicode="&#x40b;" horiz-adv-x="494" d="M320 0v302q0 23 -10 32.5t-27 9.5q-21 0 -43 -19v-325h-136v566h-96v130h366v-130h-134v-132h3q21 15 45 24t56 9q30 0 51 -10.5t35 -28.5t20.5 -42t6.5 -51v-335h-137z" />
<glyph unicode="&#x40c;" horiz-adv-x="455" d="M308 358q36 -14 58 -41t32 -77l47 -240h-136l-37 199q-4 20 -8 37t-11.5 29t-18.5 19t-29 7h-18v-291h-136v697h136v-286h14q24 0 41.5 23.5t25.5 66.5l37 193h129l-42 -212q-9 -49 -32.5 -78.5t-51.5 -41.5v-4zM152 786l167 130l77 -93l-195 -105z" />
<glyph unicode="&#x40e;" horiz-adv-x="414" d="M213 363l74 333h126l-139 -541q-14 -56 -31.5 -88.5t-39.5 -49t-46.5 -22t-51.5 -6.5h-41v111h15q28 0 40.5 11.5t23.5 34.5q2 5 4.5 12.5t4.5 15.5l-144 521h133l67 -332h5zM153 866q1 -11 6 -23.5t13.5 -23t19.5 -17.5t23 -7q14 0 24.5 7t18 17.5t11 23t4.5 23.5h95 q-2 -24 -11.5 -51t-28 -50t-46.5 -38t-67 -15q-42 0 -70.5 15t-47 38t-27.5 50t-10 51h93z" />
<glyph unicode="&#x40f;" horiz-adv-x="444" d="M394 696v-696h-121v-121h-105v121h-117v696h136v-561h72v561h135z" />
<glyph unicode="&#x410;" horiz-adv-x="449" d="M276 136h-102l-21 -136h-144l132 696h166l133 -696h-143zM207 375l-14 -111h63l-13 111l-15 141h-6z" />
<glyph unicode="&#x411;" horiz-adv-x="428" d="M51 0v696h319v-130h-183v-125h35q102 0 146 -55.5t44 -162.5q0 -59 -14.5 -101.5t-40.5 -69.5t-61.5 -39.5t-76.5 -12.5h-168zM212 130q31 0 49.5 22t18.5 70q0 30 -6 47.5t-16 26.5t-22.5 11.5t-25.5 2.5h-23v-180h25z" />
<glyph unicode="&#x412;" horiz-adv-x="446" d="M264 498q0 41 -15 54.5t-48 13.5h-14v-138h17q60 0 60 70zM270 226q0 42 -14.5 59t-43.5 17h-25v-171h24q19 0 30.5 7.5t18 20.5t8.5 30t2 37zM318 364q24 -8 39.5 -23t25 -34.5t13.5 -42.5t4 -47q0 -112 -49 -164.5t-146 -52.5h-154v696h157q93 0 139.5 -49t46.5 -145 q0 -21 -4.5 -41.5t-13.5 -38.5t-23.5 -32t-34.5 -21v-5z" />
<glyph unicode="&#x413;" horiz-adv-x="394" d="M187 566v-566h-136v696h319v-130h-183z" />
<glyph unicode="&#x414;" horiz-adv-x="520" d="M122 0v-132h-112v251l43 8q32 36 40 77.5t10 83.5l15 408h324v-569h53v-259h-112v132h-261zM226 274q-2 -45 -9 -84.5t-21 -62.5h113v439h-74z" />
<glyph unicode="&#x415;" horiz-adv-x="394" d="M51 0v696h319v-130h-183v-147h160v-131h-160v-157h183v-131h-319z" />
<glyph unicode="&#x416;" horiz-adv-x="692" d="M534 359q37 -14 59 -41.5t32 -77.5l47 -240h-136l-37 199q-4 20 -8 37t-11.5 29t-18.5 19t-29 7h-18v-291h-136v291h-18q-35 0 -47.5 -26t-19.5 -66l-37 -199h-136l47 240q10 50 32 77t58 41v4q-28 12 -51.5 41.5t-32.5 78.5l-42 212h129l37 -193q8 -43 25.5 -66.5 t41.5 -23.5h14v286h136v-286h14q24 0 41.5 23.5t25.5 66.5l37 193h129l-42 -212q-9 -49 -32.5 -78.5t-51.5 -41.5z" />
<glyph unicode="&#x417;" horiz-adv-x="427" d="M178 196q1 -36 13 -51.5t32 -15.5q25 0 33 25.5t8 58.5q0 28 -4 45.5t-10.5 27.5t-15 13.5t-17.5 3.5h-38v114h40q20 0 32 21.5t12 66.5q0 7 -2 18t-7 20.5t-13.5 16.5t-21.5 7q-22 0 -34 -18t-13 -49l-131 29q8 79 55 126t129 47q47 0 80 -14.5t54 -40t30.5 -61 t9.5 -76.5q0 -14 -2 -35.5t-8 -43.5t-17.5 -41t-30.5 -29v-2q32 -15 47.5 -55t15.5 -96q0 -57 -13 -98t-37 -66.5t-57.5 -37.5t-74.5 -12q-85 0 -130 48.5t-49 126.5z" />
<glyph unicode="&#x418;" horiz-adv-x="470" d="M286 364l-107 -364h-133v696h134v-369h3l106 369h135v-696h-135v364h-3z" />
<glyph unicode="&#x419;" horiz-adv-x="470" d="M181 868q1 -11 6 -23.5t13.5 -23t19.5 -17.5t23 -7q14 0 24.5 7t18 17.5t11 23t4.5 23.5h95q-2 -24 -11.5 -51t-28 -50t-46.5 -38t-67 -15q-42 0 -70.5 15t-47 38t-27.5 50t-10 51h93zM286 364l-107 -364h-133v696h134v-369h3l106 369h135v-696h-135v364h-3z" />
<glyph unicode="&#x41a;" horiz-adv-x="455" d="M308 358q36 -14 58 -41t32 -77l47 -240h-136l-37 199q-4 20 -8 37t-11.5 29t-18.5 19t-29 7h-18v-291h-136v697h136v-286h14q24 0 41.5 23.5t25.5 66.5l37 193h129l-42 -212q-9 -49 -32.5 -78.5t-51.5 -41.5v-4z" />
<glyph unicode="&#x41b;" horiz-adv-x="475" d="M420 696v-696h-134v566h-72v-264q0 -72 -6 -124.5t-23.5 -89.5t-49.5 -62t-84 -43l-46 103q33 18 51 37.5t26.5 44t10 57.5t1.5 78v393h326z" />
<glyph unicode="&#x41c;" horiz-adv-x="582" d="M246 136l-29 89l-32 103h-5v-328h-135v696h127l69 -186l47 -138h6l48 141l68 183h127v-696h-136v325h-4l-33 -108l-27 -81h-91z" />
<glyph unicode="&#x41d;" horiz-adv-x="459" d="M274 0v288h-87v-288h-136v696h136v-276h87v276h135v-696h-135z" />
<glyph unicode="&#x41e;" horiz-adv-x="445" d="M262 532q0 23 -11.5 33t-28.5 10t-29 -10t-12 -33v-368q0 -24 12 -33.5t29 -9.5t28.5 9.5t11.5 33.5v368zM400 170q0 -90 -45 -133t-133 -43q-177 0 -177 176v357q0 90 47 132.5t130 42.5q91 0 134.5 -42.5t43.5 -132.5v-357z" />
<glyph unicode="&#x41f;" horiz-adv-x="446" d="M259 0v563h-72v-563h-136v696h343v-696h-135z" />
<glyph unicode="&#x420;" horiz-adv-x="428" d="M216 696q44 0 79.5 -10.5t61 -35t39.5 -66t14 -103.5q0 -107 -45 -166.5t-146 -59.5h-32v-255h-136v696h165zM187 566v-180h23q13 0 25.5 3.5t22.5 14t16 29.5t6 49q0 46 -18.5 65t-49.5 19h-25z" />
<glyph unicode="&#x421;" horiz-adv-x="427" d="M226 702q91 0 134.5 -44.5t43.5 -115.5v-9.5t-1 -9.5l-131 -23q-1 31 -13.5 51.5t-33.5 20.5q-14 0 -22.5 -5.5t-13.5 -13.5t-7 -17.5t-2 -16.5v-355q0 -14 7 -27t33 -13q20 0 32.5 18t13.5 54l135 -18q-1 -83 -46 -133.5t-130 -50.5q-94 0 -137 44t-43 132v349 q0 83 44.5 133t136.5 50z" />
<glyph unicode="&#x422;" horiz-adv-x="360" d="M247 566v-566h-136v566h-107v130h350v-130h-107z" />
<glyph unicode="&#x423;" horiz-adv-x="414" d="M213 363l74 333h126l-139 -541q-14 -56 -31.5 -88.5t-39.5 -49t-46.5 -22t-51.5 -6.5h-41v111h15q28 0 40.5 11.5t23.5 34.5q2 5 4.5 12.5t4.5 15.5l-144 521h133l67 -332h5z" />
<glyph unicode="&#x424;" horiz-adv-x="613" d="M239 542q-30 -1 -46 -20t-16 -49v-226q0 -30 16 -48.5t46 -19.5v363zM436 473q0 33 -17.5 50.5t-44.5 18.5v-363q27 1 44.5 21.5t17.5 46.5v226zM568 253q0 -45 -14.5 -79.5t-40 -59t-61.5 -38.5t-78 -18v-58h-135v58q-43 3 -78.5 17t-61 39t-40 59.5t-14.5 79.5v219 q0 45 14.5 79.5t40 58.5t61.5 37.5t78 16.5v32h135v-32q89 -5 141.5 -55t52.5 -140v-216z" />
<glyph unicode="&#x425;" horiz-adv-x="450" d="M222 204l-61 -204h-158l144 363l-134 333h159l51 -172h6l48 172h160l-138 -333l148 -363h-160l-61 204h-4z" />
<glyph unicode="&#x426;" horiz-adv-x="467" d="M407 696v-570h55v-258h-111v132h-301v696h136v-570h86v570h135z" />
<glyph unicode="&#x427;" horiz-adv-x="445" d="M176 696v-253q0 -35 12.5 -44.5t30.5 -9.5q10 0 20 3.5t20 8.5v295h136v-696h-136v270q-38 -9 -69 -9q-75 0 -112.5 36.5t-37.5 120.5v278h136z" />
<glyph unicode="&#x428;" horiz-adv-x="651" d="M601 696v-696h-550v696h136v-571h71v571h136v-571h72v571h135z" />
<glyph unicode="&#x429;" horiz-adv-x="669" d="M600 126h55v-258h-111v132h-494v696h136v-570h71v570h136v-570h72v570h135v-570z" />
<glyph unicode="&#x42a;" horiz-adv-x="531" d="M10 566v130h280v-255h35q102 0 146 -55.5t44 -162.5q0 -59 -14.5 -101.5t-40.5 -69.5t-61.5 -39.5t-76.5 -12.5h-168v566h-144zM315 130q31 0 49.5 22t18.5 70q0 30 -6 47.5t-16 26.5t-22.5 11.5t-25.5 2.5h-23v-180h25z" />
<glyph unicode="&#x42b;" horiz-adv-x="653" d="M51 0v696h136v-255h35q102 0 146 -55.5t44 -162.5q0 -59 -14.5 -101.5t-40.5 -69.5t-61.5 -39.5t-76.5 -12.5h-168zM212 130q31 0 49.5 22t18.5 70q0 30 -6 47.5t-16 26.5t-22.5 11.5t-25.5 2.5h-23v-180h25zM465 0v696h136v-696h-136z" />
<glyph unicode="&#x42c;" horiz-adv-x="428" d="M51 0v696h136v-255h35q102 0 146 -55.5t44 -162.5q0 -59 -14.5 -101.5t-40.5 -69.5t-61.5 -39.5t-76.5 -12.5h-168zM212 130q31 0 49.5 22t18.5 70q0 30 -6 47.5t-16 26.5t-22.5 11.5t-25.5 2.5h-23v-180h25z" />
<glyph unicode="&#x42d;" horiz-adv-x="411" d="M379 183q0 -44 -9 -79t-30 -59.5t-54.5 -37.5t-81.5 -13q-85 0 -131.5 50.5t-47.5 133.5l133 18q1 -36 13.5 -54t32.5 -18q13 0 21 5t12 12.5t5.5 16.5t1.5 16v112h-117v132h117v104q0 7 -1.5 16t-5.5 16.5t-12 12.5t-21 5q-20 0 -32.5 -18t-13.5 -54l-133 18 q1 83 47.5 133.5t131.5 50.5q48 0 81.5 -13t54.5 -37.5t30 -59.5t9 -79v-330z" />
<glyph unicode="&#x42e;" horiz-adv-x="616" d="M571 170q0 -90 -43 -133t-125 -43q-167 0 -167 176v118h-49v-288h-136v696h136v-276h49v105q0 90 44.5 132.5t122.5 42.5q86 0 127 -42.5t41 -132.5v-355zM441 527q0 23 -11 33t-27 10t-27.5 -10t-11.5 -33v-360q0 -24 11.5 -33.5t27.5 -9.5t27 9.5t11 33.5v360z" />
<glyph unicode="&#x42f;" horiz-adv-x="454" d="M24 0l37 224q5 32 21 58t40 39q-44 24 -62 64t-18 99q0 52 15 91.5t42 66.5t63.5 40.5t79.5 13.5h165v-696h-136v284h-16q-29 -1 -44 -26.5t-21 -65.5l-30 -192h-136zM246 566q-38 0 -56 -21.5t-18 -61.5q0 -24 7 -38t18 -21.5t25 -9.5t28 -2h21v154h-25z" />
<glyph unicode="&#x430;" horiz-adv-x="408" d="M231 35q-11 -18 -34.5 -29.5t-44.5 -11.5q-36 0 -60 11.5t-38.5 32t-20 49t-5.5 62.5q0 30 9 57.5t28 48.5t49.5 33.5t72.5 12.5h49v42q0 31 -35 31q-10 0 -21.5 -7.5t-16.5 -33.5l-121 39q15 61 57.5 95t111.5 34q83 0 122.5 -37t39.5 -121v-343h-137v34zM236 208h-28 q-17 0 -31 -11t-14 -40q0 -19 11.5 -27.5t26.5 -8.5t25 12t10 31v44z" />
<glyph unicode="&#x431;" horiz-adv-x="397" d="M219 468q54 0 85.5 -26t44.5 -61q9 -25 11.5 -61t2.5 -78v-17q0 -28 -0.5 -48t-3.5 -46q-5 -43 -21 -70t-40 -42t-52.5 -20.5t-58.5 -5.5q-33 0 -57.5 9t-42 23.5t-28.5 33t-16 38.5q-6 26 -7.5 65t-1.5 75v71q0 81 5.5 140t19 100.5t36 68t57.5 41.5q24 10 39 16.5 t29.5 12.5t32.5 13.5t47 20.5l46 -97q-38 -23 -70 -35t-56 -26q-27 -15 -42.5 -39t-18.5 -75q14 11 31.5 15t28.5 4zM201 341q-19 0 -26 -20q-2 -4 -2.5 -9t-1.5 -13.5t-1.5 -21.5t-0.5 -34v-15q0 -26 0.5 -49t4.5 -35q5 -22 27 -22q11 0 18 7t7 15q2 6 3 36t1 65 q0 33 -1 46.5t-3 26.5q-2 10 -8 16.5t-17 6.5z" />
<glyph unicode="&#x432;" horiz-adv-x="407" d="M234 341q0 18 -9 27t-38 9h-9v-72h12q23 0 33.5 10.5t10.5 25.5zM240 168q0 17 -10.5 29t-32.5 12h-19v-89h18q28 0 36 15.5t8 32.5zM314 259q33 -15 45.5 -43.5t12.5 -58.5q0 -81 -45 -119t-136 -38h-151v495h153q174 0 174 -141q0 -26 -12.5 -52t-40.5 -41v-2z" />
<glyph unicode="&#x433;" horiz-adv-x="355" d="M177 373v-373h-137v495h300v-122h-163z" />
<glyph unicode="&#x434;" horiz-adv-x="475" d="M406 123h49v-247h-109v124h-223v-124h-108v242l44 6q22 25 29.5 54t9.5 75l10 242h298v-372zM222 373l-4 -101q-1 -34 -3.5 -57.5t-5.5 -40t-7 -28.5t-9 -23h78v250h-49z" />
<glyph unicode="&#x435;" horiz-adv-x="394" d="M170 220q0 -24 -0.5 -44.5t2.5 -31.5q5 -22 25 -22q11 0 20 9t11 31l135 -20q-4 -68 -46 -108t-116 -40q-38 0 -65 8.5t-46 23t-30 33.5t-16 39q-3 12 -5 30t-3 38t-1.5 40.5t-0.5 38.5q0 22 1 46.5t3 47t5.5 42t8.5 32.5q15 40 52 65t97 25q75 0 118 -40.5t43 -118.5 v-124h-192zM176 356q-2 -5 -3 -19t-2 -34h54v42q0 10 -5.5 20t-19.5 10q-18 0 -24 -19z" />
<glyph unicode="&#x436;" horiz-adv-x="614" d="M119 260q-24 9 -41.5 32.5t-24.5 58.5l-29 144h127l22 -117q4 -25 10 -39t13 -21.5t15 -9.5t17 -2h11v188h136v-188h11q9 0 17 2t15 9.5t12.5 21.5t10.5 39l22 117h127l-29 -144q-7 -35 -25 -58.5t-42 -32.5v-5q28 -11 45.5 -36.5t25.5 -59.5l34 -159h-134l-19 117 q-4 25 -8.5 40t-10.5 23t-15 10.5t-22 2.5h-15v-193h-136v193h-15q-13 0 -22 -2.5t-15 -10.5t-10.5 -23t-8.5 -40l-19 -117h-134l34 159q8 35 24.5 60.5t45.5 36.5v4z" />
<glyph unicode="&#x437;" horiz-adv-x="384" d="M300 255q28 -14 40.5 -36.5t12.5 -67.5q0 -71 -41 -113.5t-126 -42.5q-79 0 -117.5 37t-42.5 97l134 21q0 -38 30 -38q13 0 20 12.5t7 28.5q0 31 -10 43.5t-33 12.5h-29v93h32q40 0 40 49q0 17 -9 25.5t-22 8.5q-15 0 -23.5 -14t-9.5 -26l-124 22q7 60 48.5 96t117.5 36 q79 0 119 -37t40 -109q0 -13 -2 -26.5t-8 -26.5t-16.5 -24.5t-27.5 -18.5v-2z" />
<glyph unicode="&#x438;" horiz-adv-x="433" d="M174 233l85 262h137v-495h-137v233h-2l-85 -233h-135v495h135v-262h2z" />
<glyph unicode="&#x439;" horiz-adv-x="433" d="M161 685q1 -11 6 -23.5t13.5 -23t19.5 -17.5t23 -7q14 0 24.5 7t18 17.5t11 23t4.5 23.5h95q-2 -24 -11.5 -51t-28 -50t-46.5 -38t-67 -15q-42 0 -70.5 15t-47 38t-27.5 50t-10 51h93zM174 233l85 262h137v-495h-137v233h-2l-85 -233h-135v495h135v-262h2z" />
<glyph unicode="&#x43a;" horiz-adv-x="412" d="M296 256q32 -9 48 -35.5t24 -61.5l34 -159h-134l-19 117q-4 25 -8.5 40t-10.5 23t-15 10.5t-22 2.5h-15v-193h-136v494h136v-188h11q9 0 17 2t15 9.5t12.5 21.5t10.5 39l22 117h127l-29 -144q-8 -35 -25.5 -58.5t-42.5 -32.5v-4z" />
<glyph unicode="&#x43b;" horiz-adv-x="430" d="M203 373v-171q0 -57 -13 -96t-35.5 -63.5t-53 -38t-65.5 -19.5l-35 107q21 8 35.5 17t24 21t14 29.5t4.5 43.5v292h306v-495h-135v373h-47z" />
<glyph unicode="&#x43c;" horiz-adv-x="524" d="M347 196l-13 -37l-25 -65h-92l-27 65l-14 37h-3v-196h-136v495h126l63 -146l34 -83h3l36 85l63 144h126v-495h-138v196h-3z" />
<glyph unicode="&#x43d;" horiz-adv-x="413" d="M237 0v199h-59v-199h-138v495h138v-191h59v191h137v-495h-137z" />
<glyph unicode="&#x43e;" horiz-adv-x="401" d="M202 503q63 0 99.5 -25t50.5 -62q5 -14 7.5 -34t4 -42.5t2 -46.5t0.5 -45v-15q0 -27 -0.5 -53.5t-3.5 -51.5q-5 -43 -22.5 -69.5t-41 -41t-51 -19.5t-53.5 -5q-35 0 -60.5 9t-43.5 23.5t-29.5 33.5t-16.5 39q-3 12 -5 30t-3 38t-1.5 40.5t-0.5 38.5q0 22 1 46.5t3 47 t5 42t8 32.5q15 40 53 65t98 25zM202 376q-19 0 -26 -20q-4 -10 -4.5 -40.5t-1.5 -72.5v-15q0 -26 0.5 -49t4.5 -35q5 -22 27 -22q11 0 18 7t7 15q2 6 3.5 36t1.5 65q0 33 -1.5 64t-3.5 44q-2 10 -8 16.5t-17 6.5z" />
<glyph unicode="&#x43f;" horiz-adv-x="422" d="M239 0v374h-57v-374h-136v495h331v-495h-138z" />
<glyph unicode="&#x440;" horiz-adv-x="401" d="M201 123q11 0 17 6.5t8 16.5q2 13 3 44t1 64q0 35 -1 61t-3 32q0 8 -7 15t-18 7q-22 0 -27 -22q-2 -8 -2.5 -31t-0.5 -49v-11q1 -42 0.5 -72.5t3.5 -40.5q7 -20 26 -20zM251 -8q-13 0 -35 5.5t-39 22.5h-5v-210h-137v685h134v-36l4 -2q6 13 16 22t21 13.5t22 6.5t20 2 q53 0 82 -30t35 -104q2 -14 2.5 -48t0.5 -72q0 -21 -1 -45t-2.5 -46.5t-3.5 -41.5t-5 -31q-3 -14 -9 -29.5t-18 -29.5t-31.5 -23t-50.5 -9z" />
<glyph unicode="&#x441;" horiz-adv-x="381" d="M201 -6q-38 0 -65 8.5t-46 23t-30 33.5t-16 39q-3 12 -5 30t-3 38t-1.5 40.5t-0.5 38.5q0 22 1 46.5t3 47t5.5 42t8.5 32.5q15 40 52.5 65t97.5 25q75 0 115.5 -41.5t40.5 -119.5l-133 -15q0 26 -7.5 37.5t-18.5 11.5q-10 0 -15 -5.5t-8 -14.5q-3 -8 -4 -39.5t-2 -73.5 v-15q0 -26 1 -49t4 -35q5 -22 24 -22q11 0 18.5 10t7.5 35l135 -17q0 -73 -42.5 -114.5t-116.5 -41.5z" />
<glyph unicode="&#x442;" horiz-adv-x="324" d="M230 373v-373h-138v373h-94v122h327v-122h-95z" />
<glyph unicode="&#x443;" horiz-adv-x="382" d="M188 199l17 116l31 179h140l-143 -564q-15 -59 -51 -90.5t-98 -31.5h-46v121h25q16 0 31.5 11t23.5 45l6 26l-121 483h146l20 -178l14 -117h5z" />
<glyph unicode="&#x444;" horiz-adv-x="567" d="M219 -190v183q-39 1 -69 13t-52 29.5t-35 39t-18 41.5q-6 25 -7.5 59t-1.5 70q0 45 3 79.5t13 60.5q7 19 22 38.5t36.5 35.5t49 27t59.5 13v197h127v-197q36 -2 64.5 -13t49.5 -26.5t34.5 -34t19.5 -36.5q9 -26 12 -62.5t3 -78.5v-15q0 -27 -0.5 -43t-3.5 -41 q-5 -40 -22.5 -68t-42.5 -46.5t-54 -28t-57 -12.5v-184h-130zM346 121q19 3 31 14t14 30q2 14 2.5 29.5t0.5 50.5q0 33 -1.5 59t-3.5 39q-2 10 -12 19t-31 10v-251zM219 372q-30 -11 -39 -36.5t-9 -81.5v-20q0 -63 9 -87.5t39 -25.5v251z" />
<glyph unicode="&#x445;" horiz-adv-x="405" d="M199 140l-45 -140h-150l118 252l-112 243h153l40 -129h3l41 129h147l-114 -243l120 -252h-150l-46 140h-5z" />
<glyph unicode="&#x446;" horiz-adv-x="438" d="M374 495v-373h56v-245h-109v123h-279v495h137v-372h58v372h137z" />
<glyph unicode="&#x447;" horiz-adv-x="399" d="M216 192q-47 -20 -88 -20q-48 0 -74.5 28.5t-26.5 81.5v213h137v-165q0 -17 7.5 -24.5t19.5 -7.5t30 8v189h137v-495h-137v191z" />
<glyph unicode="&#x448;" horiz-adv-x="607" d="M567 495v-495h-525v495h137v-372h56v372h139v-372h57v372h136z" />
<glyph unicode="&#x449;" horiz-adv-x="633" d="M568 495v-373h57v-244h-110v122h-473v495h138v-372h56v372h138v-372h57v372h137z" />
<glyph unicode="&#x44a;" horiz-adv-x="482" d="M136 0v373h-130v122h268v-176h22q95 0 136 -40t41 -118q0 -43 -14 -73.5t-38 -50t-57 -28.5t-71 -9h-157zM290 119q48 0 48 42q0 23 -14.5 31t-34.5 8h-15v-81h16z" />
<glyph unicode="&#x44b;" horiz-adv-x="598" d="M416 0v495h138v-495h-138zM42 0v495h137v-176h22q95 0 136 -40t41 -118q0 -43 -14 -73.5t-38 -50t-57 -28.5t-71 -9h-156zM195 119q48 0 48 42q0 23 -14.5 31t-34.5 8h-15v-81h16z" />
<glyph unicode="&#x44c;" horiz-adv-x="385" d="M194 119q48 0 48 42q0 23 -14.5 31t-34.5 8h-15v-81h16zM40 0v495h138v-176h22q95 0 136 -40t41 -118q0 -43 -14 -73.5t-38 -50t-57 -28.5t-71 -9h-157z" />
<glyph unicode="&#x44d;" horiz-adv-x="372" d="M128 304h80q0 14 -1 27.5t-3.5 23.5t-8 16t-14.5 6q-11 0 -19 -12t-8 -38l-131 15q5 80 49 120.5t119 40.5q60 0 92.5 -25t47.5 -65q5 -13 7.5 -32.5t4 -42t2 -47t0.5 -46.5q0 -18 -0.5 -38.5t-1.5 -40.5t-3 -38t-5 -30q-5 -20 -16.5 -39t-30 -33.5t-46 -23t-64.5 -8.5 q-74 0 -116.5 41.5t-42.5 114.5l135 17q0 -25 7.5 -35t18.5 -10t17 8t8.5 19.5t3 25t0.5 24.5h-81v105z" />
<glyph unicode="&#x44e;" horiz-adv-x="580" d="M385 503q62 0 97.5 -25t48.5 -62q5 -14 7.5 -34t4 -42.5t2 -46.5t0.5 -45v-15q0 -27 -0.5 -53.5t-3.5 -51.5q-5 -43 -22 -69.5t-40 -41t-49.5 -19.5t-51.5 -5q-34 0 -59 9t-43 23.5t-28.5 33.5t-15.5 39q-5 17 -6.5 46t-1.5 55h-45v-199h-137v495h137v-191h46q0 37 4 64 t10 45q14 40 51 65t95 25zM385 376q-18 0 -25 -20q-4 -10 -4.5 -40.5t-1.5 -72.5v-15q0 -26 0.5 -49t4.5 -35q5 -22 26 -22q11 0 18 7t7 15q2 6 3 36t1 65q0 33 -1 64t-3 44q-2 10 -8 16.5t-17 6.5z" />
<glyph unicode="&#x44f;" horiz-adv-x="402" d="M20 0l32 150q5 23 16 41.5t31 31.5q-38 17 -52 48t-14 67q0 77 45.5 117t123.5 40h169v-495h-137v190h-11q-20 0 -34 -16t-22 -66l-18 -108h-129zM213 379q-18 0 -33.5 -9t-15.5 -34q0 -23 15 -30.5t38 -7.5h17v81h-21z" />
<glyph unicode="&#x451;" horiz-adv-x="394" d="M170 220q0 -24 -0.5 -44.5t2.5 -31.5q5 -22 25 -22q11 0 20 9t11 31l135 -20q-4 -68 -46 -108t-116 -40q-38 0 -65 8.5t-46 23t-30 33.5t-16 39q-3 12 -5 30t-3 38t-1.5 40.5t-0.5 38.5q0 22 1 46.5t3 47t5.5 42t8.5 32.5q15 40 52 65t97 25q75 0 118 -40.5t43 -118.5 v-124h-192zM176 356q-2 -5 -3 -19t-2 -34h54v42q0 10 -5.5 20t-19.5 10q-18 0 -24 -19zM233 554v130h119v-130h-119zM59 554v130h118v-130h-118z" />
<glyph unicode="&#x452;" horiz-adv-x="415" d="M277 495q35 0 60.5 -16.5t33.5 -57.5q3 -13 4.5 -35t2.5 -47.5t1.5 -52t0.5 -47.5v-45q0 -27 -0.5 -53.5t-3.5 -51.5q-5 -42 -20 -67.5t-37 -39t-49.5 -17.5t-58.5 -4v103q19 2 23.5 12.5t4.5 18.5q1 3 1.5 17t0.5 34v43v44l-1 97q0 20 -10 28t-21 8q-12 0 -21 -10 t-9 -29v-327h-137v558h-42v77h42v91h137v-91h119v-77h-119v-107l5 -1q6 8 17 16t24 14.5t26.5 10.5t25.5 4z" />
<glyph unicode="&#x453;" horiz-adv-x="355" d="M103 574l100 186l108 -54l-136 -175zM177 373v-373h-137v495h300v-122h-163z" />
<glyph unicode="&#x454;" horiz-adv-x="384" d="M373 141q-3 -69 -49.5 -108t-118.5 -39q-38 0 -65 8.5t-46 23t-30 33.5t-16 39q-3 12 -5 30t-3 38t-1.5 40.5t-0.5 38.5q0 22 1 46.5t3 47t5.5 42t8.5 32.5q15 40 52.5 65t97.5 25q73 0 118 -37.5t47 -111.5l-133 -15q-2 20 -11 28.5t-19 8.5q-21 0 -28 -20q-2 -5 -3 -19 t-2 -34h95v-105h-96q0 -36 5 -54q5 -22 26 -22q11 0 21.5 9t11.5 31z" />
<glyph unicode="&#x455;" horiz-adv-x="387" d="M158 162q-1 -20 9.5 -32t26.5 -12q13 0 22.5 9.5t9.5 21.5q0 26 -8.5 35t-23.5 14q-29 10 -57.5 19.5t-52 25t-38 41.5t-14.5 69q0 31 10.5 58.5t31.5 47.5t51.5 32t70.5 12q81 0 121 -41t41 -110l-130 -17q0 14 -7.5 28.5t-24.5 14.5q-16 0 -22.5 -10t-6.5 -18 q0 -15 5 -23t22 -13q36 -11 66 -22t52.5 -29t35 -45t12.5 -69q0 -30 -8.5 -58t-28.5 -49.5t-52.5 -34.5t-80.5 -13q-74 0 -117 37t-46 112z" />
<glyph unicode="&#x456;" horiz-adv-x="237" d="M50 566v130h137v-130h-137zM50 0v494h137v-494h-137z" />
<glyph unicode="&#x457;" horiz-adv-x="237" d="M150 547v130h119v-130h-119zM-24 547v130h118v-130h-118zM50 0v494h137v-494h-137z" />
<glyph unicode="&#x458;" horiz-adv-x="226" d="M46 566v130h137v-130h-137zM183 -35q0 -86 -49 -123t-137 -37h-11v128h17q26 0 34.5 16.5t8.5 52.5v493h137v-530z" />
<glyph unicode="&#x459;" horiz-adv-x="594" d="M384 495v-176h23q95 0 136 -40t41 -118q0 -43 -14 -73.5t-38 -50t-57 -28.5t-71 -9h-157v373h-40v-171q0 -57 -13 -96t-35.5 -63.5t-53 -38t-65.5 -19.5l-35 107q21 8 35.5 17t24 21t14 29.5t4.5 43.5v292h301zM401 119q48 0 48 42q0 23 -14.5 31t-34.5 8h-15v-81h16z " />
<glyph unicode="&#x45a;" horiz-adv-x="584" d="M391 119q48 0 48 42q0 23 -14.5 31t-34.5 8h-15v-81h16zM375 319h22q95 0 136 -40t41 -118q0 -43 -14 -73.5t-38 -50t-57 -28.5t-71 -9h-157v209h-57v-209h-138v495h138v-178h57v178h138v-176z" />
<glyph unicode="&#x45b;" horiz-adv-x="413" d="M184 448q6 8 16.5 16.5t22.5 15t25 10.5t25 4q34 0 53.5 -11t30 -29t13.5 -41.5t3 -49.5v-363h-137v328q0 20 -8 28t-19 8q-12 0 -21 -10t-9 -29v-325h-137v558h-42v77h42v91h137v-91h117v-77h-117v-109z" />
<glyph unicode="&#x45c;" horiz-adv-x="412" d="M136 574l100 186l108 -54l-136 -175zM296 256q32 -9 48 -35.5t24 -61.5l34 -159h-134l-19 117q-4 25 -8.5 40t-10.5 23t-15 10.5t-22 2.5h-15v-193h-136v494h136v-188h11q9 0 17 2t15 9.5t12.5 21.5t10.5 39l22 117h127l-29 -144q-8 -35 -25.5 -58.5t-42.5 -32.5v-4z" />
<glyph unicode="&#x45e;" horiz-adv-x="382" d="M188 199l17 116l31 179h140l-143 -564q-15 -59 -51 -90.5t-98 -31.5h-46v121h25q16 0 31.5 11t23.5 45l6 26l-121 483h146l20 -178l14 -117h5zM127 685q1 -11 6 -23.5t13.5 -23t19.5 -17.5t23 -7q14 0 24.5 7t18 17.5t11 23t4.5 23.5h95q-2 -24 -11.5 -51t-28 -50 t-46.5 -38t-67 -15q-42 0 -70.5 15t-47 38t-27.5 50t-10 51h93z" />
<glyph unicode="&#x45f;" horiz-adv-x="418" d="M377 495v-495h-114v-123h-109v123h-108v495h137v-373h57v373h137z" />
<glyph unicode="&#x490;" horiz-adv-x="394" d="M370 802v-236h-183v-566h-136v696h213v106h106z" />
<glyph unicode="&#x491;" horiz-adv-x="355" d="M177 0h-137v495h197v114h104v-236h-164v-373z" />
<glyph unicode="&#x4d9;" horiz-adv-x="394" d="M228 278q0 24 -1 44.5t-4 31.5q-5 22 -25 22q-11 0 -18.5 -9t-9.5 -31l-135 20q4 68 46 108t116 40q37 0 64.5 -8.5t46 -23t30 -33.5t16.5 -39q3 -12 5 -30t3 -38t1.5 -40.5t0.5 -38.5q0 -23 -1 -47t-3 -46.5t-5.5 -42t-8.5 -32.5q-15 -40 -52 -65t-97 -25 q-75 0 -118 40.5t-43 118.5v124h192zM222 142q2 5 3 19t2 34h-54v-42q0 -10 5.5 -20t19.5 -10q18 0 24 19z" />
<glyph unicode="&#x1e80;" horiz-adv-x="641" d="M320 331l-62 -331h-150l-101 696h155l37 -388h5l64 388h112l64 -395h6l31 395h155l-101 -696h-150l-59 331h-6zM344 748l-195 105l77 93l167 -130z" />
<glyph unicode="&#x1e81;" horiz-adv-x="582" d="M287 225l-16 -119l-16 -106h-151l-94 494h144l17 -175l13 -128h5l15 128l21 175h129l24 -177l19 -126h5l12 129l15 174h141l-94 -494h-151l-16 106l-17 119h-5zM288 531l-136 175l108 54l100 -186z" />
<glyph unicode="&#x1e82;" horiz-adv-x="641" d="M320 331l-62 -331h-150l-101 696h155l37 -388h5l64 388h112l64 -395h6l31 395h155l-101 -696h-150l-59 331h-6zM247 786l167 130l77 -93l-195 -105z" />
<glyph unicode="&#x1e83;" horiz-adv-x="582" d="M287 225l-16 -119l-16 -106h-151l-94 494h144l17 -175l13 -128h5l15 128l21 175h129l24 -177l19 -126h5l12 129l15 174h141l-94 -494h-151l-16 106l-17 119h-5zM246 574l100 186l108 -54l-136 -175z" />
<glyph unicode="&#x1e84;" horiz-adv-x="641" d="M320 331l-62 -331h-150l-101 696h155l37 -388h5l64 388h112l64 -395h6l31 395h155l-101 -696h-150l-59 331h-6zM352 729v130h119v-130h-119zM178 729v130h118v-130h-118z" />
<glyph unicode="&#x1e85;" horiz-adv-x="582" d="M287 225l-16 -119l-16 -106h-151l-94 494h144l17 -175l13 -128h5l15 128l21 175h129l24 -177l19 -126h5l12 129l15 174h141l-94 -494h-151l-16 106l-17 119h-5zM317 547v130h119v-130h-119zM143 547v130h118v-130h-118z" />
<glyph unicode="&#x1ef2;" horiz-adv-x="414" d="M212 442l25 117l30 137h144l-135 -413v-283h-137v283l-136 413h145l34 -139l25 -115h5zM232 718l-195 105l77 93l167 -130z" />
<glyph unicode="&#x1ef3;" horiz-adv-x="382" d="M188 199l17 116l31 179h140l-143 -564q-15 -59 -51 -90.5t-98 -31.5h-46v121h25q16 0 31.5 11t23.5 45l6 26l-121 483h146l20 -178l14 -117h5zM178 531l-136 175l108 54l100 -186z" />
<glyph unicode="&#x2013;" horiz-adv-x="500" d="M20 221v107h460v-107h-460z" />
<glyph unicode="&#x2014;" horiz-adv-x="1000" d="M20 221v107h960v-107h-960z" />
<glyph unicode="&#x2015;" horiz-adv-x="1000" d="M20 221v107h960v-107h-960z" />
<glyph unicode="&#x2018;" horiz-adv-x="298" d="M139 713h76l-33 -149h29v-154h-136v151z" />
<glyph unicode="&#x2019;" horiz-adv-x="298" d="M151 411h-76l33 149h-29v154h136v-151z" />
<glyph unicode="&#x201a;" horiz-adv-x="234" d="M123 -153h-76l33 149h-29v154h136v-151z" />
<glyph unicode="&#x201c;" horiz-adv-x="396" d="M109 713h76l-33 -149h29v-154h-136v151zM279 713h76l-33 -149h29v-154h-136v151z" />
<glyph unicode="&#x201d;" horiz-adv-x="396" d="M291 411h-76l33 149h-29v154h136v-151zM121 411h-76l33 149h-29v154h136v-151z" />
<glyph unicode="&#x201e;" horiz-adv-x="396" d="M291 -154h-76l33 149h-29v154h136v-151zM121 -154h-76l33 149h-29v154h136v-151z" />
<glyph unicode="&#x2020;" horiz-adv-x="394" d="M258 365v-515h-121v515h-123v122h123v189h121v-189h122v-122h-122z" />
<glyph unicode="&#x2021;" horiz-adv-x="394" d="M258 365v-132h122v-122h-122v-261h-121v261h-123v122h123v132h-123v122h123v189h121v-189h122v-122h-122z" />
<glyph unicode="&#x2022;" horiz-adv-x="477" d="M94 274q0 33 12.5 61.5t34 50t50 34t61.5 12.5t61.5 -12.5t50 -34t34 -50t12.5 -61.5t-12.5 -61.5t-34 -50t-50 -34t-61.5 -12.5t-61.5 12.5t-50 34t-34 50t-12.5 61.5z" />
<glyph unicode="&#x2023;" horiz-adv-x="584" d="M544 287l-463 -281v551z" />
<glyph unicode="&#x2026;" horiz-adv-x="799" d="M47 0v150h135v-150h-135zM333 0v150h135v-150h-135zM619 0v150h135v-150h-135z" />
<glyph unicode="&#x2030;" horiz-adv-x="927" d="M536 318q0 5 -4 11.5t-13 6.5t-12.5 -6.5t-3.5 -11.5v-216q0 -5 4 -10.5t13 -5.5q8 0 12 5.5t4 10.5v216zM631 97q0 -46 -31 -72.5t-79 -26.5t-78.5 26.5t-30.5 72.5v228q0 46 31 72t78 26q49 0 79.5 -26t30.5 -72v-228zM150 598q0 5 -4 11.5t-13 6.5t-12.5 -6.5 t-3.5 -11.5v-216q0 -5 4 -10.5t13 -5.5q8 0 12 5.5t4 10.5v216zM245 377q0 -46 -31 -72.5t-79 -26.5t-78.5 26.5t-30.5 72.5v228q0 46 31 72t78 26q49 0 79.5 -26t30.5 -72v-228zM208 -17h-81l314 731h81zM806 318q0 5 -4 11.5t-13 6.5t-12.5 -6.5t-3.5 -11.5v-216 q0 -5 4 -10.5t13 -5.5q8 0 12 5.5t4 10.5v216zM901 97q0 -46 -31 -72.5t-79 -26.5t-78.5 26.5t-30.5 72.5v228q0 46 31 72t78 26q49 0 79.5 -26t30.5 -72v-228z" />
<glyph unicode="&#x2039;" horiz-adv-x="336" d="M164 46l-116 201l116 200h129l-115 -200l115 -201h-129z" />
<glyph unicode="&#x203a;" horiz-adv-x="336" d="M47 46l115 201l-115 200h129l116 -200l-116 -201h-129z" />
<glyph unicode="&#x2044;" horiz-adv-x="128" d="M-47 -17h-81l314 731h81z" />
<glyph unicode="&#x2070;" horiz-adv-x="280" d="M157 688q0 5 -4 11.5t-13 6.5t-12.5 -6.5t-3.5 -11.5v-216q0 -5 4 -10.5t13 -5.5q8 0 12 5.5t4 10.5v216zM252 467q0 -46 -31 -72.5t-79 -26.5t-78.5 26.5t-30.5 72.5v228q0 46 31 72t78 26q49 0 79.5 -26t30.5 -72v-228z" />
<glyph unicode="&#x2074;" horiz-adv-x="280" d="M237 427v-57h-87v57h-132v71l89 288h88l-83 -279h38v85h87v-85h24v-80h-24z" />
<glyph unicode="&#x2075;" horiz-adv-x="280" d="M167 652q42 0 63.5 -23t21.5 -61v-73q0 -29 -5.5 -52.5t-18.5 -41t-35 -27t-54 -9.5q-48 0 -80 29.5t-32 85.5l92 10q0 -25 8 -31t13 -6q6 0 11.5 4t5.5 15v81q0 5 -2.5 11t-13.5 6q-3 0 -9 -3.5t-12 -16.5h-81v236h208v-84h-116v-62q8 6 18 9t18 3z" />
<glyph unicode="&#x2076;" horiz-adv-x="280" d="M158 533q0 5 -4.5 10t-12.5 5t-12 -6t-4 -12v-60q0 -5 4 -10t12 -5t12.5 5t4.5 10v63zM167 619q3 2 9.5 2.5t11.5 0.5t16 -3t22 -13t19.5 -28t8.5 -48v-40q0 -20 -2.5 -40.5t-14.5 -38.5q-14 -20 -39 -32t-57 -12q-41 0 -70.5 21.5t-34.5 64.5q-2 8 -2 19.5v25.5 q0 23 2 44t10 41l82 203h109l-71 -166z" />
<glyph unicode="&#x2077;" horiz-adv-x="256" d="M141 370h-99l112 332h-39v-39h-89v123h232v-75z" />
<glyph unicode="&#x2078;" horiz-adv-x="280" d="M250 673q0 -23 -4.5 -47t-25.5 -38q23 -14 26.5 -41t3.5 -54q0 -37 -4.5 -55t-15.5 -32q-15 -20 -40 -30t-52 -10q-26 0 -51 10.5t-39 30.5q-11 15 -15 34.5t-4 51.5q0 22 4 49t27 46q-23 14 -27 38t-4 47q0 25 4.5 46t18.5 38q16 17 38.5 26.5t47.5 9.5q23 0 47.5 -7.5 t39.5 -25.5q14 -16 19.5 -35.5t5.5 -51.5zM124 639q0 -6 4.5 -10.5t12.5 -4.5t12 6t4 11v51q0 5 -4 10t-12 5t-12.5 -5t-4.5 -10v-53zM124 468q0 -6 4.5 -10.5t12.5 -4.5t12 6t4 11v67q0 5 -4 10t-12 5t-12.5 -5t-4.5 -10v-69z" />
<glyph unicode="&#x2079;" horiz-adv-x="280" d="M124 624q0 -6 4.5 -10.5t12.5 -4.5t12 6t4 11v63q0 6 -4 11t-12 5t-12.5 -5t-4.5 -11v-65zM115 538q-5 -2 -10.5 -2.5t-10.5 -0.5t-16 3t-22 12.5t-19.5 27.5t-8.5 48v44q0 20 2.5 40.5t15.5 38.5q14 20 38.5 32t56.5 12q41 0 70.5 -21.5t34.5 -64.5q2 -8 2 -22v-28 q0 -23 -1.5 -43.5t-9.5 -40.5l-83 -203h-108l70 167z" />
<glyph unicode="&#x207a;" horiz-adv-x="280" d="M179 507v-88h-80v88h-90v76h90v88h80v-88h90v-76h-90z" />
<glyph unicode="&#x207b;" horiz-adv-x="250" d="M27 491v81h202v-81h-202z" />
<glyph unicode="&#x207c;" horiz-adv-x="280" d="M9 560v75h260v-75h-260zM9 457v75h260v-75h-260z" />
<glyph unicode="&#x207d;" horiz-adv-x="193" d="M33 555q0 72 27 134.5t66 113.5l64 -25q-32 -52 -51 -110.5t-19 -109.5q0 -57 19 -116t48 -107l-55 -34q-45 58 -72 120t-27 134z" />
<glyph unicode="&#x207e;" horiz-adv-x="193" d="M187 555q0 -72 -28 -134t-72 -120l-56 34q30 48 48.5 107t18.5 116q0 51 -18.5 109.5t-49.5 110.5l64 25q38 -51 65.5 -113t27.5 -135z" />
<glyph unicode="&#x207f;" horiz-adv-x="285" d="M128 583q9 12 24 20.5t33 8.5q24 0 38.5 -7t22.5 -18.5t11 -27.5t3 -34v-245h-103v219q0 11 -4.5 14.5t-9.5 3.5t-9.5 -5t-4.5 -14v-218h-103v328h102v-25z" />
<glyph unicode="&#x2080;" horiz-adv-x="280" d="M157 228q0 5 -4 11.5t-13 6.5t-12.5 -6.5t-3.5 -11.5v-216q0 -5 4 -10.5t13 -5.5q8 0 12 5.5t4 10.5v216zM252 7q0 -46 -31 -72.5t-79 -26.5t-78.5 26.5t-30.5 72.5v228q0 46 31 72t78 26q49 0 79.5 -26t30.5 -72v-228z" />
<glyph unicode="&#x2081;" horiz-adv-x="224" d="M82 -90v308l-57 -42v101l69 49h85v-416h-97z" />
<glyph unicode="&#x2082;" horiz-adv-x="280" d="M27 -90v78l112 188q14 22 14 51q0 7 -3.5 13.5t-13.5 6.5q-11 0 -17.5 -10.5t-6.5 -38.5l-94 12q3 62 37.5 92.5t81.5 30.5q59 0 86.5 -28.5t27.5 -77.5q0 -23 -7.5 -45t-22.5 -49l-76 -135h98v-88h-216z" />
<glyph unicode="&#x2083;" horiz-adv-x="280" d="M144 333q32 0 53.5 -9.5t34 -26t18 -39t5.5 -48.5q0 -21 -7.5 -46t-30.5 -37q25 -8 31.5 -31t6.5 -59q0 -29 -5.5 -52.5t-19 -41t-35.5 -27t-54 -9.5q-48 0 -80 29.5t-32 85.5l93 10q0 -25 7.5 -31t12.5 -6q6 0 11.5 4t5.5 15v51q0 14 -7.5 19t-18.5 5h-26v75h29 q23 0 23 22v42q0 5 -3.5 11.5t-14.5 6.5q-8 0 -14.5 -9t-6.5 -37l-92 13q2 57 34.5 88.5t81.5 31.5z" />
<glyph unicode="&#x2084;" horiz-adv-x="280" d="M237 -33v-57h-87v57h-132v71l89 288h88l-83 -279h38v85h87v-85h24v-80h-24z" />
<glyph unicode="&#x2085;" horiz-adv-x="280" d="M167 192q42 0 63.5 -23t21.5 -61v-73q0 -29 -5.5 -52.5t-18.5 -41t-35 -27t-54 -9.5q-48 0 -80 29.5t-32 85.5l92 10q0 -25 8 -31t13 -6q6 0 11.5 4t5.5 15v81q0 5 -2.5 11t-13.5 6q-3 0 -9 -3.5t-12 -16.5h-81v236h208v-84h-116v-62q8 6 18 9t18 3z" />
<glyph unicode="&#x2086;" horiz-adv-x="280" d="M158 73q0 5 -4.5 10t-12.5 5t-12 -6t-4 -12v-60q0 -5 4 -10t12 -5t12.5 5t4.5 10v63zM167 159q3 2 9.5 2.5t11.5 0.5t16 -3t22 -13t19.5 -28t8.5 -48v-40q0 -20 -2.5 -40.5t-14.5 -38.5q-14 -20 -39 -32t-57 -12q-41 0 -70.5 21.5t-34.5 64.5q-2 8 -2 19.5v25.5 q0 23 2 44t10 41l82 203h109l-71 -166z" />
<glyph unicode="&#x2087;" horiz-adv-x="256" d="M141 -90h-99l112 332h-39v-39h-89v123h232v-75z" />
<glyph unicode="&#x2088;" horiz-adv-x="280" d="M250 213q0 -23 -4.5 -47t-25.5 -38q23 -14 26.5 -41t3.5 -54q0 -37 -4.5 -55t-15.5 -32q-15 -20 -40 -30t-52 -10q-26 0 -51 10.5t-39 30.5q-11 15 -15 34.5t-4 51.5q0 22 4 49t27 46q-23 14 -27 38t-4 47q0 25 4.5 46t18.5 38q16 17 38.5 26.5t47.5 9.5q23 0 47.5 -7.5 t39.5 -25.5q14 -16 19.5 -35.5t5.5 -51.5zM124 179q0 -6 4.5 -10.5t12.5 -4.5t12 6t4 11v51q0 5 -4 10t-12 5t-12.5 -5t-4.5 -10v-53zM124 8q0 -6 4.5 -10.5t12.5 -4.5t12 6t4 11v67q0 5 -4 10t-12 5t-12.5 -5t-4.5 -10v-69z" />
<glyph unicode="&#x2089;" horiz-adv-x="280" d="M124 164q0 -6 4.5 -10.5t12.5 -4.5t12 6t4 11v63q0 6 -4 11t-12 5t-12.5 -5t-4.5 -11v-65zM115 78q-5 -2 -10.5 -2.5t-10.5 -0.5t-16 3t-22 12.5t-19.5 27.5t-8.5 48v44q0 20 2.5 40.5t15.5 38.5q14 20 38.5 32t56.5 12q41 0 70.5 -21.5t34.5 -64.5q2 -8 2 -22v-28 q0 -23 -1.5 -43.5t-9.5 -40.5l-83 -203h-108l70 167z" />
<glyph unicode="&#x208a;" horiz-adv-x="280" d="M179 45v-88h-80v88h-90v75h90v89h80v-89h90v-75h-90z" />
<glyph unicode="&#x208b;" horiz-adv-x="250" d="M27 29v81h202v-81h-202z" />
<glyph unicode="&#x208c;" horiz-adv-x="280" d="M9 98v75h260v-75h-260zM9 -5v75h260v-75h-260z" />
<glyph unicode="&#x208d;" horiz-adv-x="193" d="M33 126q0 72 27 134.5t66 113.5l64 -25q-32 -52 -51 -110.5t-19 -109.5q0 -57 19 -116t48 -107l-55 -34q-45 58 -72 120t-27 134z" />
<glyph unicode="&#x208e;" horiz-adv-x="193" d="M187 126q0 -72 -28 -134t-72 -120l-56 34q30 48 48.5 107t18.5 116q0 51 -18.5 109.5t-49.5 110.5l64 25q38 -51 65.5 -113t27.5 -135z" />
<glyph unicode="&#x20ab;" horiz-adv-x="430" d="M142 632h84v59h120v-59h47v-79h-47v-429h-115v27q-13 -16 -31.5 -23.5t-32.5 -7.5q-44 0 -70 23.5t-31 84.5q-1 13 -2 39.5t-1 52.5q0 15 0.5 33t2 35.5t3 32.5t3.5 25q3 11 8.5 24t16 24.5t28 19t43.5 7.5q11 0 27 -4t31 -18v54h-84v79zM81 78h266v-91h-266v91zM208 409 q-6 0 -10 -3.5t-5 -8.5q-2 -11 -2.5 -35.5t-0.5 -47.5q0 -25 0.5 -43t2.5 -25q2 -6 5 -10.5t10 -4.5q12 0 17 17q2 5 2 21v35v48q0 17 -0.5 28.5t-2.5 16.5q-5 12 -16 12z" />
<glyph unicode="&#x20ac;" horiz-adv-x="430" d="M20 330h42v39h-42v71h42v79q0 83 46.5 133t134.5 50q47 0 80.5 -13.5t55.5 -37.5t32 -56.5t9 -71.5l-131 -23q-1 31 -13.5 51.5t-33.5 20.5q-14 0 -22.5 -5.5t-13.5 -13.5t-7 -17.5t-2 -16.5v-79h128v-71h-128v-39h128v-68h-128v-98q0 -14 7 -27t33 -13q20 0 32.5 18 t13.5 54l135 -18q-1 -83 -46 -133.5t-130 -50.5q-94 0 -137 44t-43 132v92h-42v68z" />
<glyph unicode="&#x2103;" horiz-adv-x="733" d="M532 702q91 0 134.5 -44.5t43.5 -115.5v-9.5t-1 -9.5l-131 -23q-1 31 -13.5 51.5t-33.5 20.5q-14 0 -22.5 -5.5t-13.5 -13.5t-7 -17.5t-2 -16.5v-355q0 -14 7 -27t33 -13q20 0 32.5 18t13.5 54l135 -18q-1 -83 -46 -133.5t-130 -50.5q-94 0 -137 44t-43 132v349 q0 83 44.5 133t136.5 50zM214 571q0 20 -13 33.5t-34 13.5q-20 0 -33 -13.5t-13 -33.5t13 -34t33 -14q21 0 34 14t13 34zM298 571q0 -27 -10 -51t-28 -42t-42 -28t-51 -10t-50.5 10t-41.5 28t-28 42t-10 51t10 51t28 41.5t41.5 28t50.5 10.5t51 -10.5t42 -28t28 -41.5 t10 -51z" />
<glyph unicode="&#x2105;" horiz-adv-x="654" d="M171 341q-52 0 -76.5 22t-35.5 54q-4 12 -7.5 40t-3.5 65q0 38 4 69t10 47q11 29 38.5 47.5t69.5 18.5q54 0 84 -30.5t31 -90.5l-99 -11q0 18 -5 25.5t-11 7.5q-11 0 -14 -11q-1 -3 -2 -12t-1.5 -20.5t-1 -22.5t-0.5 -18q0 -24 0.5 -41.5t2.5 -25.5q1 -5 4.5 -9.5 t10.5 -4.5q6 0 11.5 8t5.5 25l100 -13q-1 -56 -31.5 -87.5t-83.5 -31.5zM501 357q45 0 71.5 -18t36.5 -45q3 -9 5 -22.5t2.5 -30t1 -33.5t0.5 -32v-45.5t-2 -36.5q-3 -32 -15.5 -51t-30 -30t-37.5 -14.5t-38 -3.5q-49 0 -74.5 24t-33.5 53q-2 9 -3.5 21t-2.5 26t-1 28.5 v27.5q0 32 2.5 65.5t9.5 51.5q11 29 38 47t71 18zM501 259q-11 0 -14 -10q-2 -5 -3 -19.5t-1 -35.5v-31v-33.5t2 -23.5q3 -12 16 -12q5 0 8.5 3.5t4.5 8.5q1 4 2 27t1 42v42t-2 30q-1 4 -3.5 8t-10.5 4zM215 -17h-81l314 731h81z" />
<glyph unicode="&#x2109;" horiz-adv-x="701" d="M494 566v-147h160v-131h-160v-288h-136v696h319v-130h-183zM221 571q0 20 -13 33.5t-34 13.5q-20 0 -33 -13.5t-13 -33.5t13 -34t33 -14q21 0 34 14t13 34zM305 571q0 -27 -10 -51t-28 -42t-42 -28t-51 -10t-50.5 10t-41.5 28t-28 42t-10 51t10 51t28 41.5t41.5 28 t50.5 10.5t51 -10.5t42 -28t28 -41.5t10 -51z" />
<glyph unicode="&#x2113;" horiz-adv-x="435" d="M408 156q-24 -75 -66.5 -120.5t-105.5 -45.5q-33 0 -61 12.5t-48.5 34.5t-31.5 52.5t-11 67.5v21q-8 -4 -18 -12.5t-20 -13.5l-37 66q18 12 39 26.5t35 29.5v201q0 59 11 101t30.5 68.5t46 38.5t57.5 12q21 0 42 -8t37.5 -25.5t27 -43.5t10.5 -62q0 -80 -40 -153.5 t-125 -159.5v-44q0 -31 6 -52.5t15.5 -34.5t21.5 -18.5t23 -5.5q24 0 46 27t37 76zM180 365q40 50 59.5 95.5t19.5 99.5q0 17 -8.5 32.5t-26.5 15.5q-17 0 -30.5 -27.5t-13.5 -89.5v-126z" />
<glyph unicode="&#x2116;" horiz-adv-x="749" d="M299 367v329h133v-696h-116l-74 203l-46 132h-5v-335h-135v696h119l73 -202l46 -127h5zM587 702q45 0 71.5 -16.5t36.5 -42.5q3 -8 4.5 -21t2.5 -28t1.5 -31.5t0.5 -29.5v-46t-2 -32q-4 -26 -15.5 -43t-28 -28t-35 -15.5t-36.5 -4.5q-53 0 -80 22.5t-33 49.5 q-5 16 -5.5 44t-0.5 51q0 30 2 62.5t9 48.5q12 26 38.5 43t69.5 17zM478 333h221v-84h-221v84zM586 609q-8 0 -12 -11q-2 -5 -3 -16t-1 -32v-30q0 -16 1 -31t3 -20q4 -11 13 -11q5 0 8 4.5t4 8.5q2 6 2 17v33v30q0 17 -0.5 28t-2.5 19q-4 11 -12 11z" />
<glyph unicode="&#x2117;" horiz-adv-x="703" d="M346 -8q-75 0 -132 26.5t-95.5 73.5t-58 110.5t-19.5 138.5q0 76 19.5 140t58 111t95.5 73.5t132 26.5q73 0 130 -26.5t96 -73.5t59 -111t20 -140q0 -75 -20 -138.5t-59 -110.5t-96 -73.5t-130 -26.5zM346 615q-56 0 -97.5 -21.5t-69 -59t-41 -87t-13.5 -106.5 q0 -56 14.5 -105t42.5 -86t69.5 -58.5t94.5 -21.5q55 0 96.5 21.5t69.5 58.5t41.5 86t13.5 105q0 57 -14.5 106.5t-42 87t-69 59t-95.5 21.5zM360 541q27 0 48.5 -6.5t36.5 -21.5t23.5 -40t8.5 -63q0 -65 -26.5 -101.5t-89.5 -36.5h-28v-153h-83v422h110zM333 462v-110h23 q16 0 29.5 10.5t13.5 47.5q0 29 -11.5 40.5t-30.5 11.5h-24z" />
<glyph unicode="&#x2122;" horiz-adv-x="729" d="M579 504l-26 -70l-28 -65h-46l-31 68l-26 67h-4v-205h-80v396h77l87 -174l38 76l48 98h78v-396h-84v205h-3zM216 615v-316h-86v316h-84v81h254v-81h-84z" />
<glyph unicode="&#x2126;" horiz-adv-x="446" d="M363 128h47v-128h-168v136q20 10 20 40v349q0 47 -40 47q-41 0 -41 -47v-349q0 -17 5.5 -26t16.5 -13v-137h-166v128h44l1 3q-37 28 -37 98v299q0 45 13.5 77.5t37 54.5t56 32.5t70.5 10.5q85 0 131.5 -42.5t46.5 -132.5v-299q0 -38 -10.5 -61t-27.5 -37z" />
<glyph unicode="&#x212b;" horiz-adv-x="449" d="M276 136h-102l-21 -136h-144l132 696h30q-22 14 -34.5 36t-12.5 50q0 21 8 39.5t21.5 32.5t32 22t39.5 8q22 0 40.5 -8t32 -22t21 -32.5t7.5 -39.5q0 -28 -12.5 -50.5t-34.5 -35.5h28l133 -696h-143zM207 375l-14 -111h63l-13 111l-15 141h-6zM225 812q-12 0 -21.5 -9 t-9.5 -22q0 -14 9.5 -22t21.5 -8q13 0 22 8t9 22q0 13 -9 22t-22 9z" />
<glyph unicode="&#x212e;" horiz-adv-x="817" d="M218 284v-147q29 -43 80 -68.5t106 -25.5q58 0 109 27t87 72h94q-58 -71 -134 -112t-157 -41q-69 0 -130.5 25t-107 68t-72 101.5t-26.5 124.5q0 67 26.5 125t72 101.5t107 68.5t130.5 25q71 0 131.5 -25.5t105 -71.5t70.5 -109t29 -138h-521zM586 482q-12 21 -32 38 t-44.5 28.5t-51.5 18t-54 6.5q-47 0 -97 -25.5t-89 -69.5v-144h368v148z" />
<glyph unicode="&#x2153;" horiz-adv-x="657" d="M93 280v308l-57 -42v101l69 49h85v-416h-97zM197 -17h-81l314 731h81zM509 423q32 0 53.5 -9.5t34 -26t18 -39t5.5 -48.5q0 -21 -7.5 -46t-30.5 -37q25 -8 31.5 -31t6.5 -59q0 -29 -5.5 -52.5t-19 -41t-35.5 -27t-54 -9.5q-48 0 -80 29.5t-32 85.5l93 10q0 -25 7.5 -31 t12.5 -6q6 0 11.5 4t5.5 15v51q0 14 -7.5 19t-18.5 5h-26v75h29q23 0 23 22v42q0 5 -3.5 11.5t-14.5 6.5q-8 0 -14.5 -9t-6.5 -37l-92 13q2 57 34.5 88.5t81.5 31.5z" />
<glyph unicode="&#x2154;" horiz-adv-x="657" d="M24 280v78l112 188q14 22 14 51q0 7 -3.5 13.5t-13.5 6.5q-11 0 -17.5 -10.5t-6.5 -38.5l-94 12q3 62 37.5 92.5t81.5 30.5q59 0 86.5 -28.5t27.5 -77.5q0 -23 -7.5 -45t-22.5 -49l-76 -135h98v-88h-216zM225 -17h-81l314 731h81zM531 423q32 0 53.5 -9.5t34 -26t18 -39 t5.5 -48.5q0 -21 -7.5 -46t-30.5 -37q25 -8 31.5 -31t6.5 -59q0 -29 -5.5 -52.5t-19 -41t-35.5 -27t-54 -9.5q-48 0 -80 29.5t-32 85.5l93 10q0 -25 7.5 -31t12.5 -6q6 0 11.5 4t5.5 15v51q0 14 -7.5 19t-18.5 5h-26v75h29q23 0 23 22v42q0 5 -3.5 11.5t-14.5 6.5 q-8 0 -14.5 -9t-6.5 -37l-92 13q2 57 34.5 88.5t81.5 31.5z" />
<glyph unicode="&#x2155;" horiz-adv-x="657" d="M94 280v308l-57 -42v101l69 49h85v-416h-97zM193 -17h-81l314 731h81zM535 282q42 0 63.5 -23t21.5 -61v-73q0 -29 -5.5 -52.5t-18.5 -41t-35 -27t-54 -9.5q-48 0 -80 29.5t-32 85.5l92 10q0 -25 8 -31t13 -6q6 0 11.5 4t5.5 15v81q0 5 -2.5 11t-13.5 6q-3 0 -9 -3.5 t-12 -16.5h-81v236h208v-84h-116v-62q8 6 18 9t18 3z" />
<glyph unicode="&#x2156;" horiz-adv-x="657" d="M26 280v78l112 188q14 22 14 51q0 7 -3.5 13.5t-13.5 6.5q-11 0 -17.5 -10.5t-6.5 -38.5l-94 12q3 62 37.5 92.5t81.5 30.5q59 0 86.5 -28.5t27.5 -77.5q0 -23 -7.5 -45t-22.5 -49l-76 -135h98v-88h-216zM218 -17h-81l314 731h81zM554 282q42 0 63.5 -23t21.5 -61v-73 q0 -29 -5.5 -52.5t-18.5 -41t-35 -27t-54 -9.5q-48 0 -80 29.5t-32 85.5l92 10q0 -25 8 -31t13 -6q6 0 11.5 4t5.5 15v81q0 5 -2.5 11t-13.5 6q-3 0 -9 -3.5t-12 -16.5h-81v236h208v-84h-116v-62q8 6 18 9t18 3z" />
<glyph unicode="&#x2157;" horiz-adv-x="657" d="M136 703q32 0 53.5 -9.5t34 -26t18 -39t5.5 -48.5q0 -21 -7.5 -46t-30.5 -37q25 -8 31.5 -31t6.5 -59q0 -29 -5.5 -52.5t-19 -41t-35.5 -27t-54 -9.5q-48 0 -80 29.5t-32 85.5l93 10q0 -25 7.5 -31t12.5 -6q6 0 11.5 4t5.5 15v51q0 14 -7.5 19t-18.5 5h-26v75h29 q23 0 23 22v42q0 5 -3.5 11.5t-14.5 6.5q-8 0 -14.5 -9t-6.5 -37l-92 13q2 57 34.5 88.5t81.5 31.5zM214 -17h-81l314 731h81zM552 282q42 0 63.5 -23t21.5 -61v-73q0 -29 -5.5 -52.5t-18.5 -41t-35 -27t-54 -9.5q-48 0 -80 29.5t-32 85.5l92 10q0 -25 8 -31t13 -6 q6 0 11.5 4t5.5 15v81q0 5 -2.5 11t-13.5 6q-3 0 -9 -3.5t-12 -16.5h-81v236h208v-84h-116v-62q8 6 18 9t18 3z" />
<glyph unicode="&#x2158;" horiz-adv-x="657" d="M233 337v-57h-87v57h-132v71l89 288h88l-83 -279h38v85h87v-85h24v-80h-24zM220 -17h-81l314 731h81zM557 282q42 0 63.5 -23t21.5 -61v-73q0 -29 -5.5 -52.5t-18.5 -41t-35 -27t-54 -9.5q-48 0 -80 29.5t-32 85.5l92 10q0 -25 8 -31t13 -6q6 0 11.5 4t5.5 15v81 q0 5 -2.5 11t-13.5 6q-3 0 -9 -3.5t-12 -16.5h-81v236h208v-84h-116v-62q8 6 18 9t18 3z" />
<glyph unicode="&#x2159;" horiz-adv-x="657" d="M107 280v308l-57 -42v101l69 49h85v-416h-97zM213 -17h-81l314 731h81zM511 163q0 5 -4.5 10t-12.5 5t-12 -6t-4 -12v-60q0 -5 4 -10t12 -5t12.5 5t4.5 10v63zM520 249q3 2 9.5 2.5t11.5 0.5t16 -3t22 -13t19.5 -28t8.5 -48v-40q0 -20 -2.5 -40.5t-14.5 -38.5 q-14 -20 -39 -32t-57 -12q-41 0 -70.5 21.5t-34.5 64.5q-2 8 -2 19.5v25.5q0 23 2 44t10 41l82 203h109l-71 -166z" />
<glyph unicode="&#x215a;" horiz-adv-x="657" d="M174 562q42 0 63.5 -23t21.5 -61v-73q0 -29 -5.5 -52.5t-18.5 -41t-35 -27t-54 -9.5q-48 0 -80 29.5t-32 85.5l92 10q0 -25 8 -31t13 -6q6 0 11.5 4t5.5 15v81q0 5 -2.5 11t-13.5 6q-3 0 -9 -3.5t-12 -16.5h-81v236h208v-84h-116v-62q8 6 18 9t18 3zM235 -17h-81l314 731 h81zM527 163q0 5 -4.5 10t-12.5 5t-12 -6t-4 -12v-60q0 -5 4 -10t12 -5t12.5 5t4.5 10v63zM536 249q3 2 9.5 2.5t11.5 0.5t16 -3t22 -13t19.5 -28t8.5 -48v-40q0 -20 -2.5 -40.5t-14.5 -38.5q-14 -20 -39 -32t-57 -12q-41 0 -70.5 21.5t-34.5 64.5q-2 8 -2 19.5v25.5 q0 23 2 44t10 41l82 203h109l-71 -166z" />
<glyph unicode="&#x215b;" horiz-adv-x="657" d="M93 280v308l-57 -42v101l69 49h85v-416h-97zM195 -17h-81l314 731h81zM621 303q0 -23 -4.5 -47t-25.5 -38q23 -14 26.5 -41t3.5 -54q0 -37 -4.5 -55t-15.5 -32q-15 -20 -40 -30t-52 -10q-26 0 -51 10.5t-39 30.5q-11 15 -15 34.5t-4 51.5q0 22 4 49t27 46q-23 14 -27 38 t-4 47q0 25 4.5 46t18.5 38q16 17 38.5 26.5t47.5 9.5q23 0 47.5 -7.5t39.5 -25.5q14 -16 19.5 -35.5t5.5 -51.5zM495 269q0 -6 4.5 -10.5t12.5 -4.5t12 6t4 11v51q0 5 -4 10t-12 5t-12.5 -5t-4.5 -10v-53zM495 98q0 -6 4.5 -10.5t12.5 -4.5t12 6t4 11v67q0 5 -4 10t-12 5 t-12.5 -5t-4.5 -10v-69z" />
<glyph unicode="&#x215c;" horiz-adv-x="657" d="M136 703q32 0 53.5 -9.5t34 -26t18 -39t5.5 -48.5q0 -21 -7.5 -46t-30.5 -37q25 -8 31.5 -31t6.5 -59q0 -29 -5.5 -52.5t-19 -41t-35.5 -27t-54 -9.5q-48 0 -80 29.5t-32 85.5l93 10q0 -25 7.5 -31t12.5 -6q6 0 11.5 4t5.5 15v51q0 14 -7.5 19t-18.5 5h-26v75h29 q23 0 23 22v42q0 5 -3.5 11.5t-14.5 6.5q-8 0 -14.5 -9t-6.5 -37l-92 13q2 57 34.5 88.5t81.5 31.5zM213 -17h-81l314 731h81zM636 303q0 -23 -4.5 -47t-25.5 -38q23 -14 26.5 -41t3.5 -54q0 -37 -4.5 -55t-15.5 -32q-15 -20 -40 -30t-52 -10q-26 0 -51 10.5t-39 30.5 q-11 15 -15 34.5t-4 51.5q0 22 4 49t27 46q-23 14 -27 38t-4 47q0 25 4.5 46t18.5 38q16 17 38.5 26.5t47.5 9.5q23 0 47.5 -7.5t39.5 -25.5q14 -16 19.5 -35.5t5.5 -51.5zM510 269q0 -6 4.5 -10.5t12.5 -4.5t12 6t4 11v51q0 5 -4 10t-12 5t-12.5 -5t-4.5 -10v-53zM510 98 q0 -6 4.5 -10.5t12.5 -4.5t12 6t4 11v67q0 5 -4 10t-12 5t-12.5 -5t-4.5 -10v-69z" />
<glyph unicode="&#x215d;" horiz-adv-x="657" d="M159 562q42 0 63.5 -23t21.5 -61v-73q0 -29 -5.5 -52.5t-18.5 -41t-35 -27t-54 -9.5q-48 0 -80 29.5t-32 85.5l92 10q0 -25 8 -31t13 -6q6 0 11.5 4t5.5 15v81q0 5 -2.5 11t-13.5 6q-3 0 -9 -3.5t-12 -16.5h-81v236h208v-84h-116v-62q8 6 18 9t18 3zM215 -17h-81l314 731 h81zM638 303q0 -23 -4.5 -47t-25.5 -38q23 -14 26.5 -41t3.5 -54q0 -37 -4.5 -55t-15.5 -32q-15 -20 -40 -30t-52 -10q-26 0 -51 10.5t-39 30.5q-11 15 -15 34.5t-4 51.5q0 22 4 49t27 46q-23 14 -27 38t-4 47q0 25 4.5 46t18.5 38q16 17 38.5 26.5t47.5 9.5q23 0 47.5 -7.5 t39.5 -25.5q14 -16 19.5 -35.5t5.5 -51.5zM512 269q0 -6 4.5 -10.5t12.5 -4.5t12 6t4 11v51q0 5 -4 10t-12 5t-12.5 -5t-4.5 -10v-53zM512 98q0 -6 4.5 -10.5t12.5 -4.5t12 6t4 11v67q0 5 -4 10t-12 5t-12.5 -5t-4.5 -10v-69z" />
<glyph unicode="&#x215e;" horiz-adv-x="657" d="M144 280h-99l112 332h-39v-39h-89v123h232v-75zM195 -17h-81l314 731h81zM628 303q0 -23 -4.5 -47t-25.5 -38q23 -14 26.5 -41t3.5 -54q0 -37 -4.5 -55t-15.5 -32q-15 -20 -40 -30t-52 -10q-26 0 -51 10.5t-39 30.5q-11 15 -15 34.5t-4 51.5q0 22 4 49t27 46 q-23 14 -27 38t-4 47q0 25 4.5 46t18.5 38q16 17 38.5 26.5t47.5 9.5q23 0 47.5 -7.5t39.5 -25.5q14 -16 19.5 -35.5t5.5 -51.5zM502 269q0 -6 4.5 -10.5t12.5 -4.5t12 6t4 11v51q0 5 -4 10t-12 5t-12.5 -5t-4.5 -10v-53zM502 98q0 -6 4.5 -10.5t12.5 -4.5t12 6t4 11v67 q0 5 -4 10t-12 5t-12.5 -5t-4.5 -10v-69z" />
<glyph unicode="&#x215f;" horiz-adv-x="439" d="M248 -17h-81l314 731h81zM146 280v308l-57 -42v101l69 49h85v-416h-97z" />
<glyph unicode="&#x2190;" horiz-adv-x="829" d="M769 372v-99h-532l120 -116l-71 -71l-236 237l236 238l71 -71l-120 -118h532z" />
<glyph unicode="&#x2191;" horiz-adv-x="518" d="M310 0h-99v516l-116 -119l-71 71l237 236l238 -236l-71 -71l-118 119v-516z" />
<glyph unicode="&#x2192;" horiz-adv-x="829" d="M584 372l-120 118l70 71l236 -238l-236 -237l-70 71l120 116h-533v99h533z" />
<glyph unicode="&#x2193;" horiz-adv-x="518" d="M310 187l118 120l71 -71l-238 -236l-237 236l71 71l117 -120v517h98v-517z" />
<glyph unicode="&#x2196;" horiz-adv-x="840" d="M775 65l-69 -71l-486 484v-168h-99v334h336v-98h-168z" />
<glyph unicode="&#x2198;" horiz-adv-x="840" d="M121 575l69 70l486 -483v167h99v-333h-336v98h168z" />
<glyph unicode="&#x21a9;" horiz-adv-x="867" d="M210 371h443q42 0 58.5 24.5t16.5 59.5v76q0 33 -18 51.5t-57 18.5h-103v96h107q46 0 78.5 -13t52.5 -35.5t29 -54t9 -67.5v-72q0 -83 -44.5 -132.5t-136.5 -49.5h-435l120 -117l-69 -69l-235 236l235 236l69 -69z" />
<glyph unicode="&#x21aa;" horiz-adv-x="863" d="M522 490l70 69l234 -236l-234 -236l-70 69l121 117h-434q-93 0 -137.5 49.5t-44.5 132.5v72q0 36 9 67.5t29 54t52 35.5t79 13h107v-96h-102q-41 0 -58.5 -18.5t-17.5 -51.5v-76q0 -35 17 -59.5t59 -24.5h442z" />
<glyph unicode="&#x21b3;" horiz-adv-x="854" d="M187 371h454l-120 119l70 69l234 -236l-234 -236l-70 69l120 118h-553v419h99v-322z" />
<glyph unicode="&#x21b5;" horiz-adv-x="854" d="M717 693h98v-419h-552l119 -118l-69 -69l-235 236l235 236l69 -69l-119 -119h454v322z" />
<glyph unicode="&#x21de;" horiz-adv-x="510" d="M99 366h103v151l-110 -103l-71 72l229 218l234 -218l-71 -72l-114 103v-151h101v-92h-101v-54h101v-90h-101v-130h-97v130h-103v90h103v54h-103v92z" />
<glyph unicode="&#x21df;" horiz-adv-x="510" d="M99 429h102v55h-102v89h102v131h98v-131h101v-89h-101v-55h101v-91h-101v-153l114 104l71 -71l-234 -218l-229 218l71 71l109 -104v153h-102v91z" />
<glyph unicode="&#x21e0;" horiz-adv-x="836" d="M391 370h99v-97h-99v97zM529 370h99v-97h-99v97zM669 370h99v-97h-99v97zM353 370v-97h-117l121 -118l-71 -70l-235 236l235 238l71 -70l-121 -119h117z" />
<glyph unicode="&#x21e1;" horiz-adv-x="522" d="M309 395h-98v116l-117 -120l-71 70l237 236l238 -236l-70 -70l-119 120v-116zM309 357v-99h-98v99h98zM309 219v-99h-98v99h98zM309 79v-99h-98v99h98z" />
<glyph unicode="&#x21e2;" horiz-adv-x="836" d="M584 371l-121 118l70 71l236 -238l-236 -237l-70 71l121 117h-117v98h117zM429 273h-99v98h99v-98zM291 273h-99v98h99v-98zM152 273h-100v98h100v-98z" />
<glyph unicode="&#x21e3;" horiz-adv-x="522" d="M308 166l119 120q17 -17 34.5 -35t35.5 -35q-60 -59 -119 -117.5t-119 -116.5l-236 234l70 70l118 -120v116h97v-116zM211 320v99h97v-99h-97zM211 598v99h97v-99h-97zM211 459v98h97v-98h-97z" />
<glyph unicode="&#x21e4;" horiz-adv-x="871" d="M66 104v435h106v-435h-106zM829 372v-99h-431l120 -116l-71 -71l-235 237l235 238l71 -71l-120 -118h431z" />
<glyph unicode="&#x21e5;" horiz-adv-x="871" d="M724 104v435h106v-435h-106zM498 372l-120 118l71 71l235 -238l-235 -237l-71 71l120 116h-431v99h431z" />
<glyph unicode="&#x21e7;" horiz-adv-x="840" d="M423 593l-207 -215h94v-301h227v301h93zM37 306l386 397l386 -397h-195v-306h-382v306h-195z" />
<glyph unicode="&#x21ea;" horiz-adv-x="840" d="M303 -45v-67h228v67h-228zM225 26h382v-207h-382v207zM417 593l-208 -215h94v-200h228v200h93zM30 306l387 397l386 -397h-195v-206h-383v206h-195z" />
<glyph unicode="&#x2202;" horiz-adv-x="431" d="M206 111q22 0 36 17.5t23 45.5t14 61.5t7 65.5q-24 28 -43 37.5t-37 9.5q-15 0 -27 -10.5t-20.5 -27t-13.5 -38t-5 -42.5q0 -63 20 -91t46 -28zM205 -10q-40 0 -74 15.5t-59 45.5t-39 74.5t-14 102.5q0 54 14 98t39 75t58 47.5t71 16.5q23 0 41 -6t40 -17q-2 34 -11 63.5 t-23.5 51t-34.5 33.5t-44 12q-12 0 -31 -4t-50 -17v125q23 8 46 11.5t41 3.5q66 0 110 -30t71 -81t38.5 -118t11.5 -140q0 -180 -55.5 -271t-145.5 -91z" />
<glyph unicode="&#x2207;" horiz-adv-x="449" d="M440 696l-133 -696h-166l-132 696h431zM222 180h6l15 141l33 238h-101l32 -238z" />
<glyph unicode="&#x220f;" horiz-adv-x="446" d="M259 -79v642h-72v-642h-136v775h343v-775h-135z" />
<glyph unicode="&#x2211;" horiz-adv-x="350" d="M174 58h165v-136h-318v124l79 270l-81 260v120h309v-130h-157l78 -250z" />
<glyph unicode="&#x2212;" horiz-adv-x="430" d="M408 354v-111h-389v111h389z" />
<glyph unicode="&#x221a;" horiz-adv-x="492" d="M326 -77h-116l-93 375l-74 -21l-27 103l191 60l56 -265l89 616h121z" />
<glyph unicode="&#x221e;" horiz-adv-x="623" d="M186 421q18 0 35.5 -6.5t34.5 -17t31.5 -24t26.5 -26.5q25 36 54.5 55t74.5 19q29 0 54 -11.5t43 -32.5t28 -49.5t10 -62.5q0 -31 -11 -59.5t-30 -50t-44.5 -34.5t-54.5 -13q-41 0 -71 22.5t-55 53.5q-25 -32 -55.5 -54t-75.5 -22q-29 0 -53.5 11.5t-43 32.5t-29 49.5 t-10.5 63.5q0 31 11 59.5t30.5 50t45 34t54.5 12.5zM186 319q-17 0 -30.5 -15.5t-13.5 -37.5q0 -24 13 -41t29 -17q19 0 37 16.5t33 39.5q-14 21 -31 38t-37 17zM440 319q-17 0 -35 -15t-35 -38q17 -23 34.5 -40.5t34.5 -17.5t30 17t13 40t-13 38.5t-29 15.5z" />
<glyph unicode="&#x2227;" horiz-adv-x="425" d="M211 286l-59 -285h-133l136 531h111l141 -531h-136l-57 285h-3z" />
<glyph unicode="&#x2228;" horiz-adv-x="425" d="M214 246l57 285h136l-141 -531h-111l-136 531h133l59 -285h3z" />
<glyph unicode="&#x2229;" horiz-adv-x="430" d="M406 -1h-142v310q0 40 -12.5 61.5t-41.5 21.5q-27 0 -39.5 -19.5t-12.5 -63.5v-310h-139v314q0 47 8.5 87.5t30 70.5t57.5 47t90 17q58 0 96.5 -17t62 -47t33 -70.5t9.5 -87.5v-314z" />
<glyph unicode="&#x222a;" horiz-adv-x="430" d="M406 221q0 -47 -9.5 -87.5t-33 -70.5t-62 -47t-96.5 -17q-54 0 -90 17t-57.5 47t-30 70.5t-8.5 87.5v314h139v-310q0 -44 12.5 -63.5t39.5 -19.5q29 0 41.5 21.5t12.5 61.5v310h142v-314z" />
<glyph unicode="&#x222b;" horiz-adv-x="316" d="M98 437q0 13 1 34t3 44t3.5 45t3.5 37q5 50 19.5 83.5t36.5 54t51 29t64 8.5q17 0 39.5 -4.5t42.5 -15.5l-26 -98q-20 6 -32.5 7t-18.5 1q-30 0 -42 -24t-16 -85q-1 -13 -1.5 -38.5t-1.5 -58.5t-1.5 -70t-1 -73t-1 -68.5t-0.5 -55.5q0 -96 -10 -160.5t-32 -104t-57 -56 t-84 -16.5q-17 0 -38.5 4.5t-41.5 14.5l23 88q20 -5 31 -6t17 -1q13 0 22.5 5.5t17 20.5t13 41.5t8.5 68.5q5 54 7 138.5t2 210.5z" />
<glyph unicode="&#x2248;" horiz-adv-x="430" d="M281 316q-20 0 -36.5 8t-32.5 17.5t-32.5 17.5t-34.5 8q-15 0 -26.5 -9.5t-35.5 -40.5l-68 65q17 29 34 47t34.5 28t34.5 13.5t33 3.5q20 0 36.5 -8t32.5 -17t32 -17t34 -8q14 0 27 12t37 44l68 -69q-17 -29 -32.5 -47t-31 -29t-33.5 -15t-40 -4zM281 141q-20 0 -36.5 8 t-32.5 17.5t-32.5 17.5t-34.5 8q-15 0 -26.5 -9t-35.5 -41l-68 66q17 29 34 47t34.5 28t34.5 13.5t33 3.5q20 0 36.5 -8t32.5 -17t32 -17t34 -8q14 0 27 12t37 44l68 -69q-17 -29 -32.5 -47.5t-31 -29t-33.5 -15t-40 -4.5z" />
<glyph unicode="&#x2260;" horiz-adv-x="430" d="M185 156l-63 -116h-106l63 116h-60v111h120l37 68h-157v111h217l62 113h106l-62 -113h66v-111h-126l-37 -68h163v-111h-223z" />
<glyph unicode="&#x2264;" horiz-adv-x="430" d="M28 318v99l379 155v-130l-209 -74h1l208 -77v-131zM29 0v116h378v-116h-378z" />
<glyph unicode="&#x2265;" horiz-adv-x="430" d="M29 160v131l208 77h1l-209 74v130l379 -155v-99zM29 0v116h378v-116h-378z" />
<glyph unicode="&#x2303;" horiz-adv-x="745" d="M73 412l296 296l297 -296l-66 -68l-231 226l-229 -226z" />
<glyph unicode="&#x2318;" horiz-adv-x="824" d="M267 498v56q0 24 -16.5 40.5t-39.5 16.5q-24 0 -41 -16t-17 -41q0 -24 16.5 -40t41.5 -16h56zM566 498h56q24 0 40.5 16.5t16.5 39.5q0 24 -16.5 40.5t-40.5 16.5q-23 0 -39.5 -16t-16.5 -41v-56zM267 199h-56q-25 0 -41.5 -16.5t-16.5 -39.5q0 -25 16.5 -41.5 t41.5 -16.5q24 0 40 16.5t16 41.5v56zM566 199v-56q0 -25 16.5 -41.5t39.5 -16.5q24 0 40.5 16.5t16.5 41.5q0 23 -16.5 39.5t-40.5 16.5h-56zM473 292v113h-113v-113h113zM566 292h56q37 0 65.5 -12t47 -32.5t28 -47.5t9.5 -57t-9.5 -57t-28 -48t-47 -33t-65.5 -12 q-36 0 -63.5 12t-46.5 32.5t-29 48t-10 57.5v56h-113v-56q0 -29 -9.5 -56t-28 -48t-46.5 -33.5t-65 -12.5q-35 0 -62.5 12t-47 32t-30 47.5t-10.5 58.5q0 30 10 57t29.5 47.5t47 32.5t63.5 12h56v113h-56q-30 0 -57.5 12t-48 32.5t-32.5 47.5t-12 57q0 31 11 58t30.5 47.5 t47.5 32.5t61 12q37 0 65 -12t46.5 -32.5t28 -47.5t9.5 -58v-56h113v56q0 31 11 58t30.5 47.5t47 32.5t60.5 12q36 0 64 -12t47 -32.5t29 -48t10 -57.5q0 -29 -12 -56t-32 -47.5t-47.5 -33t-58.5 -12.5h-56v-113z" />
<glyph unicode="&#x2324;" horiz-adv-x="775" d="M676 696v-96h-585v96h585zM86 274l297 312l296 -312l-67 -68l-229 245q-18 -20 -49.5 -53.5t-65 -70t-65 -69.5t-49.5 -52z" />
<glyph unicode="&#x2325;" horiz-adv-x="1188" d="M570 681h564v-97h-564v97zM57 681h293l324 -586h460v-95h-532l-324 584h-221v97z" />
<glyph unicode="&#x2326;" horiz-adv-x="1168" d="M491 279l-141 -142l-61 61l142 141l-142 142l61 61l141 -141l142 141l61 -61l-142 -142l142 -141l-61 -61zM954 347l-251 255h-511v-510h511zM750 0h-650v695h650l337 -348z" />
<glyph unicode="&#x232b;" horiz-adv-x="1168" d="M556 137l-61 61l141 141l-141 142l61 61l142 -141l140 141l61 -61l-141 -142l141 -141l-61 -61l-140 142zM486 92h511v510h-511l-252 -255zM101 347l338 348h649v-695h-649z" />
<glyph unicode="&#x235f;" horiz-adv-x="804" d="M752 346q0 -73 -28 -137.5t-76 -112.5t-112.5 -75.5t-137.5 -27.5t-137 27.5t-112 75.5t-75.5 112.5t-27.5 138.5q0 73 27.5 137.5t75.5 112.5t112.5 75.5t138.5 27.5q73 0 137.5 -28t112.5 -76t75.5 -112.5t27.5 -137.5h-1zM693 346q0 61 -23 115t-63 94t-94 63t-115 23 t-115 -23t-94 -63t-63 -94t-23 -115t23 -114.5t63 -93.5t94 -63t115 -23t115 23t94 63t63 93.5t23 114.5zM521 301l26 -169l-157 76l-141 -76l21 165l-118 117l163 32l75 148l80 -146l164 -34z" />
<glyph unicode="&#x23cf;" horiz-adv-x="854" d="M768 227v-136h-702v136h702zM768 314h-702l351 351z" />
<glyph unicode="&#x25a0;" horiz-adv-x="875" d="M756 40h-633v633h633v-633z" />
<glyph unicode="&#x25a1;" horiz-adv-x="841" d="M164 83h522v527h-522v-527zM81 0v693h687v-693h-687z" />
<glyph unicode="&#x25b2;" horiz-adv-x="820" d="M781 176h-702l351 351z" />
<glyph unicode="&#x25b6;" horiz-adv-x="595" d="M138 701l351 -350l-351 -351v701z" />
<glyph unicode="&#x25bc;" horiz-adv-x="820" d="M430 176l-351 351h702z" />
<glyph unicode="&#x25c0;" horiz-adv-x="595" d="M452 0l-351 351l351 350v-701z" />
<glyph unicode="&#x25ca;" horiz-adv-x="530" d="M294 -18h-82q-4 8 -17.5 34t-31.5 60.5t-38 73t-38 73t-31.5 60.5t-17.5 35l175 337h82l172 -337zM253 520q-5 -10 -19 -39t-30.5 -61.5t-31 -61.5t-18.5 -39q4 -10 19 -39t32 -62t31.5 -62.5t18.5 -38.5q5 10 19.5 38.5t30.5 61.5t30 62t19 39z" />
<glyph unicode="&#x25cf;" horiz-adv-x="843" d="M744 357q0 -64 -25 -121.5t-68.5 -101t-101 -69t-121.5 -25.5q-65 0 -122.5 25t-101 68.5t-68.5 101t-25 122.5q0 66 26 123.5t69.5 100t101 67.5t120.5 25t120 -25t100.5 -68.5t69.5 -101t26 -121.5z" />
<glyph unicode="&#x25fc;" horiz-adv-x="495" d="M0 495h495v-495h-495v495z" />
<glyph unicode="&#x2602;" horiz-adv-x="780" d="M405 695q55 0 112.5 -27.5t104.5 -73.5t77 -106t30 -124q-16 18 -40 28.5t-50 10.5q-23 0 -45 -9.5t-41 -29.5h-2q-23 39 -75 39q-28 0 -62 -14v-304q0 -42 -25.5 -67.5t-73.5 -25.5q-42 0 -69.5 23.5t-27.5 74.5v13h47v-13q0 -28 13.5 -41t34.5 -13q16 0 26 5t15.5 13 t7.5 18t2 20v296q-14 7 -27 9.5t-25 2.5q-26 0 -46.5 -10t-38.5 -27q-17 20 -40 29.5t-47 9.5q-25 0 -48.5 -9.5t-40.5 -29.5l-1 1q0 64 30.5 123.5t77.5 106t105 74.5t113 28v31h29v-32zM730 363q-1 0 -1 1z" />
<glyph unicode="&#x2605;" horiz-adv-x="814" d="M605 254l39 -258l-239 117l-214 -117l32 251l-181 180l249 48l114 226l123 -223l250 -51z" />
<glyph unicode="&#x2606;" horiz-adv-x="838" d="M608 257l39 -259l-240 117l-218 -119l33 255l-183 182l254 49l113 225l124 -223l254 -51zM727 415l-213 43l-107 193l-98 -196l-212 -40l153 -153l-27 -216l184 99l206 -99l-35 221z" />
<glyph unicode="&#x2610;" horiz-adv-x="841" d="M164 83h522v527h-522v-527zM81 0v693h687v-693h-687z" />
<glyph unicode="&#x2611;" horiz-adv-x="850" d="M81 0v693h687v-693h-687zM163 82h523v479q-43 -42 -87.5 -97.5t-85 -115.5t-74.5 -118.5t-56 -105.5q-56 -11 -84 -27q-8 31 -22 73t-30.5 82.5t-34 73t-32.5 43.5q25 20 49 27.5t38 7.5q9 0 22 -14t25.5 -37t23.5 -52.5t17 -60.5q23 37 56.5 80.5t72 88t79 85t77.5 71.5 q11 12 21 23.5t21 21.5h-519v-528z" />
<glyph unicode="&#x2612;" horiz-adv-x="850" d="M590 571l59 -58l-165 -166l168 -168l-61 -57l-166 166l-168 -169l-58 61l166 165l-166 167l59 59l167 -166zM165 83h522v527h-522v-527zM82 0v693h687v-693h-687z" />
<glyph unicode="&#x2622;" horiz-adv-x="837" d="M418 432q16 0 30.5 -7t25 -18t16.5 -25.5t6 -30.5t-6 -30t-16.5 -24.5t-25 -17t-30.5 -6.5q-31 0 -55.5 22t-24.5 56t23.5 57.5t56.5 23.5zM569 89q-79 -41 -154 -41q-81 0 -148 42l98 170q30 -14 54 -14q20 0 50 14zM364 442q-23 -14 -36 -37.5t-16 -53.5h-197 q0 86 35.5 149t114.5 114zM569 615q72 -40 112 -108t40 -156h-197q-6 62 -55 93zM416 684q-68 0 -128 -26.5t-105 -72t-71 -106t-26 -128.5q0 -70 26.5 -130.5t72 -105.5t106.5 -70.5t129 -25.5q66 0 125.5 26.5t105 71.5t72 103.5t26.5 122.5q0 79 -28.5 142t-75 107 t-106.5 68t-123 24zM418 -17q-77 0 -144 28.5t-117 78t-78.5 117t-28.5 144.5q0 67 26 132t74 117t115.5 84t150.5 32q78 0 146 -28t118 -76.5t78.5 -114t28.5 -141.5q0 -77 -28.5 -145t-78 -118.5t-117 -80t-145.5 -29.5z" />
<glyph unicode="&#x2623;" horiz-adv-x="856" d="M553 462q-13 -27 -37 -43q-44 30 -86 30q-41 0 -89 -30q-14 8 -22 18.5t-15 24.5q32 21 62 32t62 11q64 0 125 -43zM502 120q-7 12 -11.5 25t-6.5 27q88 44 88 124v12t-1 14q11 7 27 8.5t27 1.5q4 -16 4 -37q0 -54 -33.5 -101t-93.5 -74zM351 120q-28 12 -51 30 t-39.5 41.5t-25.5 50t-9 54.5q0 21 4 38h12q22 -2 42 -12v-30q0 -76 88 -120q-2 -14 -7.5 -27.5t-13.5 -24.5zM272 531q0 -68 38 -107.5t111 -48.5v-22q-23 -5 -32.5 -18.5t-9.5 -27.5q0 -5 1 -9.5t3 -9.5l-19 -10q-60 72 -133 72q-29 0 -56.5 -12t-48.5 -32.5t-34 -47.5 t-13 -57q0 -22 6 -56l-11 -5q-8 25 -13.5 50.5t-5.5 50.5q0 29 8 57t26.5 52.5t48 45t73.5 34.5q0 63 11.5 109.5t35 78t59.5 51t86 28.5l5 -15q-136 -39 -136 -151zM583 533q0 109 -118 148l5 16q91 -20 134 -77t43 -155v-16t-1 -17q78 -31 116 -83.5t38 -119.5 q0 -45 -18 -96l-13 4q8 43 8 65q0 30 -12.5 56.5t-33.5 46t-49.5 30.5t-60.5 11q-40 0 -71.5 -19t-55.5 -52l-23 13q3 10 3 20q0 16 -9 27.5t-30 17.5v22q72 9 110 49.5t38 108.5zM428 53q-42 -32 -81 -42.5t-74 -10.5q-26 0 -49 4t-43.5 14t-40 27t-39.5 43l11 8 q68 -60 117 -60q33 0 62 12.5t50.5 33.5t34 49.5t12.5 60.5q0 12 -2.5 30t-15.5 41l22 13q7 -11 17.5 -14.5t20.5 -3.5q18 0 33 17l23 -12q-17 -41 -17 -72t12 -58.5t33 -48.5t48 -33t57 -12q66 0 122 54l12 -8q-19 -26 -38 -42.5t-39.5 -26t-43.5 -13t-50 -3.5 q-38 0 -77.5 10.5t-76.5 42.5z" />
<glyph unicode="&#x262e;" horiz-adv-x="834" d="M410 713q78 0 145.5 -28t117.5 -76.5t78.5 -113.5t28.5 -139q0 -77 -29 -144t-79.5 -116.5t-118.5 -78t-145 -28.5q-73 0 -138.5 29t-115 78.5t-78.5 116t-29 140.5q0 75 28.5 141t78 114.5t115.5 76.5t141 28zM675 204q18 32 28.5 69t10.5 83q0 58 -19 108t-54.5 88.5 t-86 64.5t-113.5 35v-239zM384 413v239q-60 -8 -110 -33t-86 -64.5t-56 -91.5t-20 -112q0 -27 2.5 -47t7.5 -36t12.5 -31.5t18.5 -33.5zM441 338v-289q59 7 107 34t93 75zM384 338l-197 -180q23 -22 45 -40t45 -32.5t49 -24t58 -14.5v291z" />
<glyph unicode="&#x262f;" horiz-adv-x="828" d="M525 174q-21 0 -34.5 15.5t-13.5 33.5q0 23 15.5 37.5t32.5 14.5q22 0 36.5 -16t14.5 -36q0 -22 -15.5 -35.5t-35.5 -13.5zM253 488q0 -20 13 -35t36 -15q22 0 36.5 15t14.5 35q0 18 -14 33.5t-38 15.5q-17 0 -32.5 -13.5t-15.5 -35.5zM50 356q0 82 31.5 148.5t82.5 114 t116 73.5t133 26q82 0 149.5 -29.5t115.5 -79.5t74 -116.5t26 -140.5q0 -82 -29.5 -148.5t-79.5 -114t-115.5 -73t-138.5 -25.5q-81 0 -148.5 30.5t-115.5 81t-74.5 116.5t-26.5 137zM249 649q21 6 42 6q41 0 74.5 -15.5t57 -39t36.5 -51t13 -52.5q0 -51 -19.5 -94.5 t-67.5 -91.5q-21 -21 -29 -51.5t-8 -51.5q0 -74 45.5 -115.5t128.5 -41.5q43 0 85 23.5t75 64.5t53.5 96t20.5 118q0 66 -24.5 128.5t-69.5 110.5t-108 77.5t-141 29.5q-45 0 -87.5 -11.5t-81.5 -34.5z" />
<glyph unicode="&#x2672;" horiz-adv-x="919" d="M668 448l-211 21l60 38l-46 81l-124 -185l-169 98l103 166q11 18 27 28t42 10h243q20 0 27.5 -2.5t14.5 -13.5l53 -87l64 38zM50 421h211l85 -183l-60 35l-31 -28q-16 -15 -16 -29q0 -25 31 -25h192v-211h-185q-32 0 -45 10.5t-23 28.5l-113 208q-7 12 -9.5 25t-2.5 27 q0 26 7 50t25 43zM593 372l172 102l95 -176q9 -18 9 -30q0 -11 -3.5 -20.5t-8.5 -18.5l-108 -194q-9 -16 -15.5 -26.5t-13 -17t-15 -9t-21.5 -2.5h-84v-77l-111 175l110 169v-70h109zM199 504l144 -83l120 181q-19 37 -47.5 61t-71.5 24q-29 0 -48 -28zM311 275l-61 131 h-158l47 -32q-19 -18 -29.5 -42.5t-10.5 -50.5q0 -29 9.5 -46.5t25 -27t34.5 -13t37 -3.5h28q-11 8 -11 24q0 20 19 39l42 38zM448 178h-237q-17 0 -28.5 1t-20 2.5t-16 4t-15.5 5.5l88 -163q9 -16 19.5 -25.5t33.5 -9.5h176v185zM686 582l-59 93q-6 10 -13 13.5t-19 3.5 h-204q31 -7 51.5 -33t38.5 -58l56 -100l-37 -23l159 -15l67 145zM611 368l115 -191q19 2 41 10t41 20.5t31.5 28.5t12.5 34q0 7 -2 13t-4 11l-89 159zM587 206l-81 -128l81 -130v45h96q9 0 20.5 5t20.5 21l103 188q-32 -30 -67.5 -37.5t-88.5 -7.5h-84v44z" />
<glyph unicode="&#x2673;" horiz-adv-x="869" d="M536 0v-59h-16l-74 95l78 98l13 -2v-59h128q36 0 52.5 12t16.5 32q0 19 -16 46l-100 170l67 39l111 -194q23 -39 23 -73q0 -48 -40.5 -76.5t-102.5 -28.5h-140zM393 73v-73h-213q-60 0 -95 28.5t-35 75.5q0 36 24 78l73 131l-46 25l7 13l118 22l42 -112l-8 -15l-47 29 l-64 -116q-13 -24 -13 -43q0 -18 13.5 -30.5t45.5 -12.5h198zM624 400l-121 21l-6 12l49 27l-71 120q-8 14 -19.5 22t-25.5 8t-27 -10t-21 -25l-99 -174l-64 37l106 185q22 38 49.5 54.5t57.5 16.5q31 0 59.5 -18t46.5 -50l73 -129l51 29l6 -14zM452 120h-55v228l-36 -25v57 l42 30h49v-290z" />
<glyph unicode="&#x2674;" horiz-adv-x="869" d="M329 124v46l107 134q14 15 14 33q0 11 -8 20t-23 9q-14 0 -23.5 -11.5t-12.5 -31.5l-52 6q6 42 31 64.5t57 22.5q36 0 60 -20t24 -58q0 -14 -5 -29.5t-16 -29.5l-83 -104h99v-51h-169zM536 0v-59h-16l-74 95l78 98l13 -2v-59h128q36 0 52.5 12t16.5 32q0 19 -16 46 l-100 170l67 39l111 -194q23 -39 23 -73q0 -48 -40.5 -76.5t-102.5 -28.5h-140zM393 73v-73h-213q-60 0 -95 28.5t-35 75.5q0 36 24 78l73 131l-46 25l7 13l118 22l42 -112l-8 -15l-47 29l-64 -116q-13 -24 -13 -43q0 -18 13.5 -30.5t45.5 -12.5h198zM624 400l-121 21l-6 12 l49 27l-71 120q-8 14 -19.5 22t-25.5 8t-27 -10t-21 -25l-99 -174l-64 37l106 185q22 38 49.5 54.5t57.5 16.5q31 0 59.5 -18t46.5 -50l73 -129l51 29l6 -14z" />
<glyph unicode="&#x2675;" horiz-adv-x="869" d="M536 0v-59h-16l-74 95l78 98l13 -2v-59h128q36 0 52.5 12t16.5 32q0 19 -16 46l-100 170l67 39l111 -194q23 -39 23 -73q0 -48 -40.5 -76.5t-102.5 -28.5h-140zM393 73v-73h-213q-60 0 -95 28.5t-35 75.5q0 36 24 78l73 131l-46 25l7 13l118 22l42 -112l-8 -15l-47 29 l-64 -116q-13 -24 -13 -43q0 -18 13.5 -30.5t45.5 -12.5h198zM624 400l-121 21l-6 12l49 27l-71 120q-8 14 -19.5 22t-25.5 8t-27 -10t-21 -25l-99 -174l-64 37l106 185q22 38 49.5 54.5t57.5 16.5q31 0 59.5 -18t46.5 -50l73 -129l51 29l6 -14zM505 214q0 -42 -24.5 -67.5 t-66.5 -25.5q-14 0 -27.5 3.5t-25 12.5t-20 24t-12.5 37l51 7q4 -19 13.5 -27t21.5 -8q18 0 28.5 12.5t10.5 30.5q0 19 -10.5 28.5t-26.5 9.5h-29v48h26q16 0 26.5 9.5t10.5 23.5t-10 24t-24 10q-11 0 -20 -9.5t-14 -26.5l-52 6q7 35 31 57.5t55 22.5q45 0 65.5 -25 t20.5 -58q0 -15 -5 -29t-22 -27q17 -14 23 -30t6 -33z" />
<glyph unicode="&#x2676;" horiz-adv-x="869" d="M536 0v-59h-16l-74 95l78 98l13 -2v-59h128q36 0 52.5 12t16.5 32q0 19 -16 46l-100 170l67 39l111 -194q23 -39 23 -73q0 -48 -40.5 -76.5t-102.5 -28.5h-140zM393 73v-73h-213q-60 0 -95 28.5t-35 75.5q0 36 24 78l73 131l-46 25l7 13l118 22l42 -112l-8 -15l-47 29 l-64 -116q-13 -24 -13 -43q0 -18 13.5 -30.5t45.5 -12.5h198zM624 400l-121 21l-6 12l49 27l-71 120q-8 14 -19.5 22t-25.5 8t-27 -10t-21 -25l-99 -174l-64 37l106 185q22 38 49.5 54.5t57.5 16.5q31 0 59.5 -18t46.5 -50l73 -129l51 29l6 -14zM477 167v-41h-51v41h-117v43 l96 206h56l-93 -200h58v70h51v-70h22v-49h-22z" />
<glyph unicode="&#x2677;" horiz-adv-x="869" d="M536 0v-59h-16l-74 95l78 98l13 -2v-59h128q36 0 52.5 12t16.5 32q0 19 -16 46l-100 170l67 39l111 -194q23 -39 23 -73q0 -48 -40.5 -76.5t-102.5 -28.5h-140zM393 73v-73h-213q-60 0 -95 28.5t-35 75.5q0 36 24 78l73 131l-46 25l7 13l118 22l42 -112l-8 -15l-47 29 l-64 -116q-13 -24 -13 -43q0 -18 13.5 -30.5t45.5 -12.5h198zM624 400l-121 21l-6 12l49 27l-71 120q-8 14 -19.5 22t-25.5 8t-27 -10t-21 -25l-99 -174l-64 37l106 185q22 38 49.5 54.5t57.5 16.5q31 0 59.5 -18t46.5 -50l73 -129l51 29l6 -14zM510 215q0 -41 -22 -69 t-67 -28q-31 0 -54.5 16t-32.5 60l51 10q8 -38 36 -38q13 0 20.5 5.5t11.5 14t5.5 18.5t1.5 19q0 19 -6.5 34.5t-28.5 15.5q-10 0 -18 -7t-15 -18h-47v162h151v-50h-102v-47q10 5 19.5 7t19.5 2q38 0 57.5 -25t19.5 -64v-18z" />
<glyph unicode="&#x2678;" horiz-adv-x="869" d="M536 0v-59h-16l-74 95l78 98l13 -2v-59h128q36 0 52.5 12t16.5 32q0 19 -16 46l-100 170l67 39l111 -194q23 -39 23 -73q0 -48 -40.5 -76.5t-102.5 -28.5h-140zM393 73v-73h-213q-60 0 -95 28.5t-35 75.5q0 36 24 78l73 131l-46 25l7 13l118 22l42 -112l-8 -15l-47 29 l-64 -116q-13 -24 -13 -43q0 -18 13.5 -30.5t45.5 -12.5h198zM624 400l-121 21l-6 12l49 27l-71 120q-8 14 -19.5 22t-25.5 8t-27 -10t-21 -25l-99 -174l-64 37l106 185q22 38 49.5 54.5t57.5 16.5q31 0 59.5 -18t46.5 -50l73 -129l51 29l6 -14zM514 211q0 -24 -7.5 -42 t-20 -29t-28.5 -16.5t-33 -5.5q-38 0 -62 22.5t-24 67.5q0 14 3.5 30t12.5 33q17 33 36.5 69t36.5 70h56l-55 -113h6q35 0 57 -25.5t22 -60.5zM460 209q0 20 -10 30t-24 10t-24.5 -10t-10.5 -30t9.5 -31t25.5 -11q14 0 24 11t10 31z" />
<glyph unicode="&#x2679;" horiz-adv-x="869" d="M536 0v-59h-16l-74 95l78 98l13 -2v-59h128q36 0 52.5 12t16.5 32q0 19 -16 46l-100 170l67 39l111 -194q23 -39 23 -73q0 -48 -40.5 -76.5t-102.5 -28.5h-140zM393 73v-73h-213q-60 0 -95 28.5t-35 75.5q0 36 24 78l73 131l-46 25l7 13l118 22l42 -112l-8 -15l-47 29 l-64 -116q-13 -24 -13 -43q0 -18 13.5 -30.5t45.5 -12.5h198zM624 400l-121 21l-6 12l49 27l-71 120q-8 14 -19.5 22t-25.5 8t-27 -10t-21 -25l-99 -174l-64 37l106 185q22 38 49.5 54.5t57.5 16.5q31 0 59.5 -18t46.5 -50l73 -129l51 29l6 -14zM412 115h-56l95 239h-61v-41 h-52v92h172v-44z" />
<glyph unicode="&#x267a;" horiz-adv-x="869" d="M536 0v-59h-16l-74 95l78 98l13 -2v-59h128q36 0 52.5 12t16.5 32q0 19 -16 46l-100 170l67 39l111 -194q23 -39 23 -73q0 -48 -40.5 -76.5t-102.5 -28.5h-140zM393 73v-73h-213q-60 0 -95 28.5t-35 75.5q0 36 24 78l73 131l-46 25l7 13l118 22l42 -112l-8 -15l-47 29 l-64 -116q-13 -24 -13 -43q0 -18 13.5 -30.5t45.5 -12.5h198zM624 400l-121 21l-6 12l49 27l-71 120q-8 14 -19.5 22t-25.5 8t-27 -10t-21 -25l-99 -174l-64 37l106 185q22 38 49.5 54.5t57.5 16.5q31 0 59.5 -18t46.5 -50l73 -129l51 29l6 -14z" />
<glyph unicode="&#x267b;" horiz-adv-x="889" d="M730 616l-82 -144h-167l52 33l-74 133q-12 21 -27.5 34.5t-29.5 21.5h181q28 0 37.5 -6t15.5 -17l46 -82zM321 695q36 0 63.5 -19t42.5 -39l-121 -220l-147 87l83 146q13 17 33 31t46 14zM738 495l86 -148q15 -25 15 -52q0 -24 -11 -44t-28 -34.5t-39 -22.5t-43 -8h-8 l-123 222zM303 290l-46 27l-72 -131q-17 -27 -25 -47.5t-8 -33.5l-88 152q-14 24 -14 39q0 8 5 23l50 86l-41 20h161zM469 80l86 137v-60h149q16 0 44 7.5t51 22.5l-100 -152q-15 -23 -32 -29t-31 -6h-81v-58zM448 0h-189q-11 0 -25.5 4.5t-27.5 14t-22 25.5t-9 40 q0 18 6.5 35.5t17.5 37.5h249v-157z" />
<glyph unicode="&#x267c;" horiz-adv-x="836" d="M786 352q0 -76 -29 -143t-79 -117t-117 -79t-143 -29t-143 29t-117 79t-79 117t-29 143t29 143t79 117t117 79t143 29t143 -29t117 -79t79 -117t29 -143zM593 538l-34 61q-5 9 -12 13t-27 4h-137q11 -5 22.5 -15t20.5 -26l55 -100l-39 -25h125l62 108zM323 617 q-20 0 -35.5 -9.5t-23.5 -24.5l-62 -109l111 -65l90 165q-12 15 -32.5 29t-47.5 14zM522 403l92 -166h6q16 0 32 6t29 16.5t21 25.5t8 33q0 9 -2 19t-9 20l-64 111zM251 415h-120l30 -14l-38 -64q-5 -8 -5 -19q0 -13 10 -30l69 -111q0 20 23 60l55 97l34 -19zM498 54v43h61 q9 0 22.5 5t24.5 22l75 113q-17 -10 -38.5 -16.5t-32.5 -6.5h-112v46l-64 -102zM418 214h-186q-18 -27 -18 -53q0 -18 6.5 -30.5t16.5 -20t20.5 -10.5t18.5 -3h142v117z" />
<glyph unicode="&#x267d;" horiz-adv-x="836" d="M786 353q0 -76 -29 -143t-79 -117t-117 -79t-143 -29t-143 29t-117 79t-79 117t-29 143t29 143t79 117t117 79t143 29t143 -29t117 -79t79 -117t29 -143zM767 353q0 72 -27.5 135.5t-74.5 111t-111 75t-136 27.5t-135.5 -27.5t-111 -75t-75 -111t-27.5 -135.5t27.5 -136 t75 -111t111 -74.5t135.5 -27.5t136 27.5t111 74.5t74.5 111t27.5 136zM631 558l-62 -108h-125l39 25l-55 100q-9 16 -20.5 26t-22.5 15h137q20 0 27 -4t12 -13l34 -61zM325 617q27 0 47.5 -14t32.5 -29l-90 -165l-111 65l62 109q8 15 23.5 24.5t35.5 9.5zM637 468l64 -111 q7 -10 9 -20t2 -19q0 -18 -8 -33t-21 -25.5t-29 -16.5t-32 -6h-6l-92 166zM311 315l-34 19l-55 -97q-23 -40 -23 -60l-69 111q-10 17 -10 30q0 11 5 19l38 64l-30 14h120zM436 158l64 102v-46h112q11 0 32.5 6.5t38.5 16.5l-75 -113q-11 -17 -24.5 -22t-22.5 -5h-61v-43z M420 97h-142q-8 0 -18.5 3t-20.5 10.5t-16.5 20t-6.5 30.5q0 26 18 53h186v-117z" />
<glyph unicode="&#x2693;" horiz-adv-x="698" d="M381 68q33 3 70 14.5t81 52.5l-40 35l142 41l-21 -152l-38 41q-54 -55 -111 -79t-115 -29q-58 5 -115 29t-110 79l-38 -41l-22 152l142 -41l-40 -35q22 -21 42 -33.5t39 -19.5t36.5 -10t34.5 -4v397h-128v48h128v12q-27 8 -44 32t-17 53q0 38 26.5 64t63.5 26q18 0 34 -7 t28 -19t19 -28.5t7 -35.5q0 -29 -15.5 -50.5t-40.5 -31.5v-15h130v-48h-130v-397h2z" />
<glyph unicode="&#x26a0;" horiz-adv-x="884" d="M437 525q24 0 36 -13.5t12 -32.5l-29 -281q-2 -8 -8.5 -13t-11.5 -5q-6 0 -12.5 5t-7.5 13l-23 281q0 16 12 31t32 15zM437 75q-6 0 -14 2t-14.5 6.5t-11.5 13t-5 21.5q0 4 2 11t7.5 14t14 11.5t21.5 4.5q17 0 29.5 -11.5t12.5 -31.5q0 -19 -12.5 -30t-29.5 -11zM391 669 q11 19 24 27.5t27 8.5q13 0 25.5 -8.5t22.5 -25.5l331 -588q10 -17 10 -37t-12.5 -33t-40.5 -13h-675q-29 0 -41.5 13.5t-12.5 32.5q0 18 11 37zM125 90q-5 -8 -8.5 -14t-3.5 -11t6 -7t23 -2h597q17 0 23 2t6 7t-4 11.5t-9 14.5l-297 526q-9 17 -19 17q-5 0 -10 -5t-9 -12z " />
<glyph unicode="&#x2706;" horiz-adv-x="432" d="M268 501q-26 0 -36 -38t-10 -125q0 -12 2 -36t7 -48.5t14 -43.5t23 -21v-201q-9 0 -24 6t-33 21t-37 41t-34.5 66t-25 95.5t-9.5 130.5q0 113 20.5 183t48 109t54.5 53.5t40 15.5v-208zM281 -12v201h60q8 0 14 -4.5t6 -15.5v-160q0 -8 -4.5 -14.5t-15.5 -6.5h-60z M281 501v208h60q8 0 14 -6t6 -14v-163q0 -25 -20 -25h-60z" />
<glyph unicode="&#x2708;" horiz-adv-x="890" d="M566 246l-208 -351h-96l115 351h-191l-61 -80h-75l38 127l-41 126h75l64 -84h192l-112 359h95l207 -359h247q25 0 38 -14.5t13 -31.5q0 -16 -12.5 -29.5t-37.5 -13.5h-250z" />
<glyph unicode="&#x2709;" horiz-adv-x="1070" d="M353 330l-229 228v-454zM712 337l227 -227v456zM169 64h726l-222 224l-143 -144l-137 136zM162 610l368 -371l366 371h-734zM1005 671v-671h-941v671h941z" />
<glyph unicode="&#x2713;" horiz-adv-x="764" d="M756 656q-35 -27 -75.5 -72.5t-82 -102.5t-82.5 -121.5t-78 -127t-67.5 -120t-50.5 -100.5q-36 -8 -62 -16t-39 -16q-7 29 -17.5 66.5t-23.5 77.5t-28 79t-30 71.5t-29.5 54t-26.5 27.5q23 20 52 28.5t49 8.5q13 0 31 -23.5t35.5 -61t31.5 -83.5t19 -91q37 65 91 142.5 t115.5 152.5t126.5 139.5t126 104.5z" />
<glyph unicode="&#x2716;" horiz-adv-x="742" d="M717 172l-173 -174l-173 175l-173 -175l-173 174l175 172l-175 172l173 174l173 -174l173 174l173 -174l-174 -172z" />
<glyph unicode="&#x271a;" horiz-adv-x="748" d="M264 666h230v-218h218v-230h-213v-218h-231v218h-217v230h213v218z" />
<glyph unicode="&#x272a;" horiz-adv-x="796" d="M752 346q0 -74 -28 -138.5t-76 -112.5t-112.5 -75.5t-138.5 -27.5t-138.5 27.5t-112.5 75.5t-76 112.5t-28 138.5q0 73 28 138t76 113t112.5 76t138.5 28t138.5 -28t112.5 -76t76 -113t28 -138zM484 468l-96 177l-91 -179l-196 -39l141 -140l-24 -199l170 92l189 -92 l-32 204l137 135z" />
<glyph unicode="&#x2794;" horiz-adv-x="754" d="M250 53l224 224h-440v139h439l-224 223h194l291 -292l-292 -293z" />
<glyph unicode="&#xe000;" horiz-adv-x="430" d="M380 154q0 -37 -12 -66.5t-34 -50.5t-51.5 -32t-63.5 -11q-35 0 -65 11t-52 32t-34 50.5t-12 66.5v387q0 37 12.5 67t34.5 51t51.5 32t64.5 11q72 0 116.5 -43t44.5 -118v-387zM247 546q0 13 -8.5 20.5t-19.5 7.5t-20.5 -7.5t-9.5 -20.5v-397q0 -12 9.5 -19.5t20.5 -7.5 t19.5 7.5t8.5 19.5v397z" />
<glyph unicode="&#xe001;" horiz-adv-x="371" d="M141 0v537l-91 -71v149l104 81h120v-696h-133z" />
<glyph unicode="&#xe002;" horiz-adv-x="430" d="M54 0v120l171 317q13 24 16.5 45.5t3.5 46.5q0 14 -6.5 29t-23.5 15q-6 0 -13 -3t-12.5 -12t-9.5 -25t-4 -41l-132 16q0 50 13.5 86.5t37 60.5t54.5 35.5t66 11.5q89 0 128.5 -47t39.5 -126q0 -47 -10 -81t-33 -78l-126 -239h160v-131h-320z" />
<glyph unicode="&#xe003;" horiz-adv-x="430" d="M325 358q32 -15 44 -46t12 -60v-69q0 -87 -45 -138t-133 -51q-177 0 -168 195l135 16q-3 -27 0 -43t9 -25t13 -11.5t13 -2.5q11 0 24 8.5t13 35.5v83q0 29 -16 41t-36 12h-30v114h38q20 0 34.5 11t14.5 37v66q0 14 -7 27.5t-25 13.5q-7 0 -14 -3t-12.5 -11.5t-9 -24.5 t-3.5 -42l-132 16q0 46 13.5 82.5t37.5 61.5t56 38t69 13q46 0 77 -14.5t49.5 -37.5t26.5 -52t8 -57v-41q0 -19 -1.5 -39t-7.5 -38.5t-17 -34t-30 -25.5v-5z" />
<glyph unicode="&#xe004;" horiz-adv-x="430" d="M357 98v-98h-131v98h-203v111l149 487h132l-141 -470h63v124h131v-124h39v-128h-39z" />
<glyph unicode="&#xe005;" horiz-adv-x="430" d="M384 183q0 -91 -42.5 -140t-130.5 -49q-79 0 -122 48.5t-38 146.5l129 16q-3 -27 -0.5 -43t8 -24.5t12.5 -11t13 -2.5q11 0 21.5 8t10.5 35v149q0 28 -28 28q-8 0 -21 -6.5t-22 -29.5h-111v388h311v-127h-185v-126l3 -1q11 12 31 18t34 6q68 0 97.5 -38t29.5 -98v-147z " />
<glyph unicode="&#xe006;" horiz-adv-x="430" d="M245 404q15 8 37 8q16 0 34 -5t33.5 -20t25.5 -41.5t10 -69.5v-98q0 -35 -7 -68.5t-26 -59t-51.5 -41t-83.5 -15.5q-41 0 -70.5 12t-49.5 33t-29.5 49t-9.5 61v62q0 37 3 72t16 70l127 343h147l-111 -288zM250 281q0 14 -9.5 21t-20.5 7t-19.5 -7t-8.5 -21v-131 q0 -13 8.5 -20t19.5 -7t20.5 7t9.5 20v131z" />
<glyph unicode="&#xe007;" horiz-adv-x="430" d="M210 0h-135l165 569h-63v-67h-122v194h327v-116z" />
<glyph unicode="&#xe008;" horiz-adv-x="430" d="M328 362q19 -9 29 -24t15 -33t6 -38t1 -40v-57q0 -86 -42 -131t-119 -45q-44 0 -75 14t-51 38t-29 55.5t-9 66.5v35q0 19 1 42t6 45t16 41t32 31l-1 6q-19 10 -29.5 25.5t-16 34t-6.5 38.5t-1 39v30q0 32 10 62t30 53.5t50 37.5t71 14q42 0 73 -13t50.5 -35.5t29 -52.5 t9.5 -64v-32q0 -20 -1 -40.5t-6.5 -39.5t-16 -34t-29.5 -24zM245 547q0 11 -8 19t-20 8q-10 0 -20 -8t-10 -19v-106q0 -11 9.5 -19t20.5 -8q12 0 20 8t8 19v106zM245 288q0 11 -8 19t-20 8t-21 -8t-9 -19v-140q0 -11 9.5 -18.5t20.5 -7.5q12 0 20 7.5t8 18.5v140z" />
<glyph unicode="&#xe009;" horiz-adv-x="430" d="M193 292q-15 -8 -37 -8q-16 0 -34 3.5t-33.5 17t-25.5 41t-10 75.5v97q0 35 7 68.5t26 59t51.5 41t83.5 15.5q40 0 70 -12t50 -33t29.5 -49t9.5 -61v-62q0 -37 -3 -72t-16 -70l-127 -343h-147l111 288zM188 415q0 -14 9.5 -21t20.5 -7t19.5 7t8.5 21v131q0 13 -8.5 20 t-19.5 7t-20.5 -7t-9.5 -20v-131z" />
<glyph unicode="&#xe00a;" horiz-adv-x="430" d="M4 302h68l20 102h-52v95h67l34 196h98l-35 -196h70l35 196h98l-36 -196h54v-95h-70l-17 -102h53v-95h-71l-36 -207h-97l36 207h-71l-35 -207h-98l37 207h-52v95zM170 302h70l19 102h-71z" />
<glyph unicode="&#xe00b;" horiz-adv-x="430" d="M400 205q0 -46 -7.5 -83.5t-26.5 -65t-50 -43.5t-78 -18v-78h-36v78q-44 2 -75 17t-50.5 39t-28.5 55.5t-9 66.5l136 26q2 -29 7.5 -48t19.5 -25v169q-51 21 -82.5 43.5t-48 48t-22 54.5t-5.5 63q0 40 9 74.5t28 60.5t49 42t72 20v68h36v-67q48 -2 79.5 -19.5t49.5 -42.5 t25.5 -55t7.5 -58l-134 -29q0 24 -5 44.5t-23 26.5v-142q51 -24 82.5 -46t49.5 -47t24 -56t6 -73zM266 204q0 28 -6 44.5t-22 27.5v-151q19 7 23.5 30t4.5 49zM179 505q0 -18 3.5 -31.5t19.5 -25.5v120q-14 -8 -18.5 -27t-4.5 -36z" />
<glyph unicode="&#xe00c;" horiz-adv-x="430" d="M20 330h42v39h-42v71h42v79q0 83 46.5 133t134.5 50q47 0 80.5 -13.5t55.5 -37.5t32 -56.5t9 -71.5l-131 -23q-1 31 -13.5 51.5t-33.5 20.5q-14 0 -22.5 -5.5t-13.5 -13.5t-7 -17.5t-2 -16.5v-79h128v-71h-128v-39h128v-68h-128v-98q0 -14 7 -27t33 -13q20 0 32.5 18 t13.5 54l135 -18q-1 -83 -46 -133.5t-130 -50.5q-94 0 -137 44t-43 132v92h-42v68z" />
<glyph unicode="&#xe00d;" horiz-adv-x="430" d="M76 441h76l8 63q4 36 14 71.5t29.5 63t49.5 45t74 17.5q23 0 46.5 -2t46.5 -14l-26 -113q-19 8 -32.5 9t-21.5 1q-21 0 -32.5 -21.5t-14.5 -46.5l-9 -73h71v-115h-85q-5 -52 -10 -101.5t-11 -100.5q-12 -99 -46 -152.5t-108 -53.5q-18 0 -43.5 4t-54.5 17l33 107 q14 -8 23 -9t14 -1q20 0 30 17t15 59l23 214h-59v115z" />
<glyph unicode="&#xe00e;" horiz-adv-x="430" d="M221 568q-17 0 -29.5 -12t-12.5 -30t4.5 -35t10.5 -36t12.5 -39t10.5 -44h99v-103h-97q-3 -48 -11 -80.5t-23 -63.5h199v-125h-353v112q24 34 38 70t17 87h-56v103h50q-9 36 -21.5 74t-12.5 86q0 39 13.5 70.5t36.5 54t55 34.5t69 12q42 0 76 -12.5t58 -35.5t36 -55 t11 -70l-131 -29q-1 31 -13.5 49t-33.5 18h-2z" />
<glyph unicode="&#xe00f;" horiz-adv-x="371" d="M210 501q63 -7 96.5 -48t33.5 -111l-133 -15q0 26 -7.5 37.5t-18.5 11.5q-10 0 -15 -5.5t-8 -14.5q-3 -8 -4 -39.5t-2 -73.5v-15q0 -26 1 -49t4 -35q5 -22 24 -22q11 0 18.5 10t7.5 35l135 -17q0 -66 -35 -106.5t-97 -47.5v-98h-51v97q-31 3 -54 12t-39 23t-25.5 31.5 t-14.5 36.5q-3 12 -5 30t-3 38t-1.5 40.5t-0.5 38.5q0 22 1 46.5t3 47t5.5 42t8.5 32.5q14 35 44.5 59.5t80.5 29.5v92h51v-93z" />
<glyph unicode="&#xe010;" horiz-adv-x="430" d="M222 443l23 126l30 127h144l-110 -342h63v-68h-84l-4 -13v-28h88v-67h-88v-178h-137v178h-83v67h83v28l-4 13h-79v68h57l-110 342h145l33 -129l25 -124h8z" />
<glyph unicode="&#xe024;" horiz-adv-x="430" d="M377 154q0 -37 -12 -66.5t-34 -50.5t-51.5 -32t-63.5 -11q-35 0 -65 11t-52 32t-34 50.5t-12 66.5v188q0 37 12.5 67t34.5 51t51.5 32t64.5 11q72 0 116.5 -43t44.5 -118v-188zM244 347q0 13 -8.5 20.5t-19.5 7.5t-20.5 -7.5t-9.5 -20.5v-198q0 -14 9.5 -20.5t20.5 -6.5 t19.5 6.5t8.5 20.5v198z" />
<glyph unicode="&#xe025;" horiz-adv-x="430" d="M38 0v129h112v207l-91 -71v149l104 81h120v-366h109v-129h-354z" />
<glyph unicode="&#xe026;" horiz-adv-x="430" d="M42 0v112q60 52 100 89.5t60 58.5q23 25 31.5 42.5t8.5 33.5q0 18 -9 26t-22 8q-15 0 -27.5 -15t-14.5 -56l-131 20q0 44 15 78t40.5 57.5t58 36t67.5 12.5q79 0 120.5 -38.5t41.5 -108.5q0 -35 -17 -71.5t-41 -63.5q-7 -8 -18 -19t-24.5 -23.5t-27.5 -25.5t-26 -24h164 v-129h-349z" />
<glyph unicode="&#xe027;" horiz-adv-x="430" d="M329 180q31 -14 43 -43.5t12 -56.5v-65q0 -82 -44 -130t-130 -48q-173 0 -164 185l133 15q-3 -26 -0.5 -41t8 -23t12.5 -10.5t13 -2.5q11 0 23 7.5t12 32.5v78q0 27 -15.5 38t-34.5 11h-30v108h38q19 0 33 10t14 34v62q0 13 -6.5 25.5t-23.5 12.5q-7 0 -13.5 -3t-12 -11 t-8.5 -23.5t-3 -39.5l-130 16q0 44 13 78.5t36.5 58t54.5 36t67 12.5q45 0 75.5 -14t49 -35.5t26 -49t7.5 -54.5v-38q0 -18 -1.5 -36.5t-7.5 -36t-17 -32t-29 -23.5v-4z" />
<glyph unicode="&#xe028;" horiz-adv-x="430" d="M359 0v-159h-129v159h-196v104l142 391h130l-135 -374h59v95h129v-95h37v-121h-37z" />
<glyph unicode="&#xe029;" horiz-adv-x="430" d="M378 13q0 -86 -41 -132t-127 -46q-78 0 -119.5 46t-37.5 139l128 15q-3 -26 -0.5 -41t7.5 -22.5t11.5 -10t12.5 -2.5q11 0 20.5 7t9.5 32v140q0 11 -7.5 18t-19.5 7q-7 0 -19.5 -5.5t-20.5 -27.5h-110v365h304v-121h-180v-115q11 11 31.5 15.5t33.5 4.5q67 0 95.5 -35.5 t28.5 -92.5v-138z" />
<glyph unicode="&#xe02a;" horiz-adv-x="430" d="M242 264q0 13 -9 19t-20 6q-10 0 -18 -6t-8 -19v-122q0 -11 8 -17.5t18 -6.5q11 0 20 6.5t9 17.5v122zM235 383q9 3 20.5 4t15.5 1q15 0 33 -4.5t33.5 -18.5t26 -39.5t10.5 -66.5v-91q0 -33 -7 -64.5t-25 -56t-50 -39t-82 -14.5q-39 0 -68.5 11.5t-48.5 31t-28.5 46.5 t-9.5 58v57q0 34 3.5 68t15.5 66l123 322h144l-107 -269z" />
<glyph unicode="&#xe02b;" horiz-adv-x="430" d="M208 -159h-133l160 533h-59v-63h-121v184h320v-110z" />
<glyph unicode="&#xe02c;" horiz-adv-x="430" d="M242 514q0 9 -8 16.5t-19 7.5q-9 0 -18.5 -7.5t-9.5 -16.5v-99q0 -11 8.5 -18t19.5 -7t19 7t8 18v99zM242 271q0 10 -8 17t-19 7t-19.5 -7t-8.5 -17v-131q0 -10 8.5 -16.5t19.5 -6.5t19 6.5t8 16.5v131zM324 341h-1q19 -9 29.5 -22t15 -28.5t5.5 -33.5t1 -36v-60 q0 -81 -41.5 -124t-116.5 -43q-43 0 -73 13.5t-49.5 36t-28.5 52.5t-9 63v32q0 18 0.5 39t5.5 41.5t16 39t32 30.5q0 2 -0.5 2.5t-0.5 2.5q-18 10 -28.5 24.5t-16 32t-6.5 36t-1 36.5v28q0 30 10 58.5t29.5 50.5t49 35t69.5 13q41 0 71 -12.5t49.5 -33.5t28.5 -49t9 -60v-30 q0 -18 -1 -37.5t-6.5 -37t-15.5 -32t-28 -23.5z" />
<glyph unicode="&#xe02d;" horiz-adv-x="430" d="M188 232q0 -13 8.5 -19t19.5 -6t19 6t8 19v123q0 11 -8 18t-19 7t-19.5 -7t-8.5 -18v-123zM192 116q-16 -7 -36 -7q-15 0 -33 3t-33 15.5t-25 38.5t-10 72v91q0 33 7 64.5t25 56t50 39t82 14.5q40 0 69 -11.5t48.5 -31t29 -46.5t9.5 -58v-58q0 -35 -3 -67.5t-16 -65.5 l-123 -322h-145l108 270z" />
<glyph unicode="&#xe02e;" horiz-adv-x="430" d="M25 257h61l18 86h-47v81h60l31 167h88l-31 -167h63l31 167h88l-32 -167h49v-81h-63l-16 -86h48v-81h-64l-32 -176h-88l33 176h-64l-32 -176h-88l33 176h-46v81zM174 257h63l17 86h-64z" />
<glyph unicode="&#xe02f;" horiz-adv-x="430" d="M378 175q0 -38 -7 -70t-24 -55t-45 -37t-70 -17v-67h-34v67q-39 2 -66.5 15t-45.5 33.5t-26.5 47.5t-8.5 57l125 22q2 -50 22 -62v141q-44 18 -71.5 37.5t-43 41t-21.5 46.5t-6 53q0 69 33.5 114.5t108.5 53.5v58h34v-57q41 -3 69 -18.5t45 -37t24.5 -46.5t7.5 -48 l-123 -25q0 20 -4.5 37.5t-18.5 23.5v-119l17 -7q43 -16 69 -33.5t39 -39.5t17 -48.5t4 -60.5zM255 174q0 19 -4.5 34t-18.5 25v-125q15 6 19 25.5t4 40.5zM177 430q0 -14 4.5 -26t16.5 -24v102q-11 -7 -16 -22t-5 -30z" />
<glyph unicode="&#xe030;" horiz-adv-x="430" d="M34 282h37v31h-37v62h37v66q0 71 42 113.5t122 42.5q42 0 72.5 -11.5t50 -32t28.5 -48.5t8 -61l-119 -20q-1 26 -12 43.5t-29 17.5q-24 0 -32 -15.5t-8 -28.5v-66h116v-62h-116v-31h116v-60h-116v-82q0 -12 6 -22.5t29 -10.5q18 0 29 15.5t12 46.5l122 -16 q-1 -71 -40.5 -114.5t-117.5 -43.5q-85 0 -124 37.5t-39 113.5v76h-37v60z" />
<glyph unicode="&#xe031;" horiz-adv-x="430" d="M87 415h73l8 59q4 34 14 67t28.5 59t47.5 42.5t72 16.5q22 0 45 -2t45 -13l-25 -106q-18 7 -31 8t-21 1q-20 0 -31.5 -20.5t-14.5 -43.5l-9 -68h69v-109h-82l-20 -189q-12 -94 -45 -144t-105 -50q-17 0 -42 4t-53 16l32 100q14 -7 22.5 -8t13.5 -1q20 0 29.5 16t14.5 55 l22 201h-57v109z" />
<glyph unicode="&#xe032;" horiz-adv-x="430" d="M221 482q-20 0 -29.5 -9.5t-9.5 -25.5t5 -33t11 -34q5 -14 10 -30t8 -33h89v-89h-87q-2 -39 -9 -67t-20 -53h178v-108h-320v97q22 29 34.5 59t14.5 72h-50v89h45q-2 8 -4.5 16.5t-5.5 16.5q-8 23 -14.5 48t-6.5 54q0 33 12 60t33 46t50 29.5t63 10.5q77 0 120 -41.5 t44 -106.5l-120 -25q-1 26 -12 41.5t-29 15.5z" />
<glyph unicode="&#xe033;" horiz-adv-x="430" d="M244 467q54 -8 85.5 -43.5t31.5 -93.5l-122 -13q0 23 -6.5 32.5t-15.5 9.5t-13.5 -4t-6.5 -12q-2 -6 -3 -26.5t-2 -47.5v-35q0 -21 0.5 -40.5t3.5 -30.5q2 -8 8.5 -12.5t12.5 -4.5q9 0 15.5 8.5t6.5 29.5l124 -14q0 -57 -32.5 -91.5t-86.5 -41.5v-84h-48v83 q-51 6 -81 32.5t-39 55.5q-3 10 -5 25.5t-3 32.5t-1 34v32q0 19 1 39.5t2.5 40t4.5 36t8 27.5q12 30 40 51t73 26v78h48v-79z" />
<glyph unicode="&#xe034;" horiz-adv-x="430" d="M220 378l21 106l27 108h130l-98 -290h57v-60h-76l-3 -10v-23h79v-58h-79v-151h-126v151h-74v58h74v23l-2 10h-72v60h51l-98 290h131l30 -110l23 -104h5z" />
<glyph unicode="&#xe048;" horiz-adv-x="390" d="M357 154q0 -37 -12 -66.5t-34 -50.5t-51.5 -32t-63.5 -11q-35 0 -65 11t-52 32t-34 50.5t-12 66.5v188q0 37 12.5 67t34.5 51t51.5 32t64.5 11q72 0 116.5 -43t44.5 -118v-188zM224 347q0 13 -8.5 20.5t-19.5 7.5t-20.5 -7.5t-9.5 -20.5v-198q0 -14 9.5 -20.5t20.5 -6.5 t19.5 6.5t8.5 20.5v198z" />
<glyph unicode="&#xe049;" horiz-adv-x="410" d="M28 0v129h112v207l-91 -71v149l104 81h120v-366h109v-129h-354z" />
<glyph unicode="&#xe04a;" horiz-adv-x="389" d="M22 0v112q60 52 100 89.5t60 58.5q23 25 31.5 42.5t8.5 33.5q0 18 -9 26t-22 8q-15 0 -27.5 -15t-14.5 -56l-131 20q0 44 15 78t40.5 57.5t58 36t67.5 12.5q79 0 120.5 -38.5t41.5 -108.5q0 -35 -17 -71.5t-41 -63.5q-7 -8 -18 -19t-24.5 -23.5t-27.5 -25.5t-26 -24h164 v-129h-349z" />
<glyph unicode="&#xe04b;" horiz-adv-x="389" d="M309 180q31 -14 43 -43.5t12 -56.5v-65q0 -82 -44 -130t-130 -48q-173 0 -164 185l133 15q-3 -26 -0.5 -41t8 -23t12.5 -10.5t13 -2.5q11 0 23 7.5t12 32.5v78q0 27 -15.5 38t-34.5 11h-30v108h38q19 0 33 10t14 34v62q0 13 -6.5 25.5t-23.5 12.5q-7 0 -13.5 -3t-12 -11 t-8.5 -23.5t-3 -39.5l-130 16q0 44 13 78.5t36.5 58t54.5 36t67 12.5q45 0 75.5 -14t49 -35.5t26 -49t7.5 -54.5v-38q0 -18 -1.5 -36.5t-7.5 -36t-17 -32t-29 -23.5v-4z" />
<glyph unicode="&#xe04c;" horiz-adv-x="409" d="M348 0v-159h-129v159h-196v104l142 391h130l-135 -374h59v95h129v-95h37v-121h-37z" />
</font>
</defs>
</svg>
