<?xml version="1.0" standalone="no"?>
<!DOCTYPE svg PUBLIC "-//W3C//DTD SVG 1.1//EN" "http://www.w3.org/Graphics/SVG/1.1/DTD/svg11.dtd" >
<svg xmlns="http://www.w3.org/2000/svg">
<metadata></metadata>
<defs>
<font id="pf_din_text_comp_promedium" horiz-adv-x="1818" >
<font-face units-per-em="1000" ascent="750" descent="-250" />
<missing-glyph horiz-adv-x="205" />
<glyph unicode="fj" horiz-adv-x="441" d="M397 494v-546q0 -70 -36.5 -107.5t-114.5 -37.5h-20v101h15q30 0 39 16t9 48v442h-120v-410h-109v410h-47v84h47v83q0 40 13.5 69.5t36 48.5t52.5 28t63 9q46 0 83.5 -11.5t73.5 -40.5l-57 -83q-24 20 -49 26t-42 6q-20 0 -32.5 -5.5t-20 -14.5t-10 -20t-2.5 -21v-74h228 z" />
<glyph unicode="ffj" horiz-adv-x="668" d="M623 494v-546q0 -72 -36 -108.5t-122 -36.5h-13v101h15q30 0 39 18t9 56v432h-120v-410h-108v410h-119v-410h-108v410h-47v84h47v44q0 93 43.5 136.5t121.5 43.5q53 0 101 -23q23 23 55.5 34t70.5 11q50 0 90.5 -17.5t68.5 -47.5l-63 -79q-18 19 -41.5 30t-46.5 11 q-20 0 -32.5 -5.5t-19.5 -14.5t-10 -20t-3 -21v-82h228zM287 494v98q0 5 1 8q-29 16 -55 16q-24 0 -37.5 -8t-19.5 -21t-7 -28t-1 -29v-36h119z" />
<glyph unicode="ff" horiz-adv-x="483" d="M225 718q45 0 88 -17q17 20 42 30t54 10h58v-99h-33q-19 0 -29.5 -12t-10.5 -31v-106h74v-83h-74v-410h-108v410h-118v-410h-108v410h-47v83h47v53q0 88 44.5 130t120.5 42zM286 493v111q-14 8 -29 10t-24 2q-24 0 -37.5 -8.5t-19.5 -21t-7 -28t-1 -29.5v-36h118z" />
<glyph unicode="fi" horiz-adv-x="441" d="M289 0v410h-120v-410h-109v410h-47v84h47v83q0 40 13.5 69.5t36 48.5t52.5 28t63 9q46 0 83.5 -11.5t73.5 -40.5l-57 -83q-24 20 -49 26t-42 6q-20 0 -32.5 -5.5t-20 -14.5t-10 -20t-2.5 -21v-74h228v-494h-108z" />
<glyph unicode="fl" horiz-adv-x="467" d="M428 -6q-36 0 -62 6.5t-43.5 22.5t-26 42.5t-8.5 65.5v491q-17 5 -29.5 7t-25.5 2q-20 0 -32.5 -5.5t-19.5 -15t-9.5 -21.5t-2.5 -24v-71h78v-84h-78v-410h-109v410h-47v84h47v83q0 40 11.5 69.5t32.5 49t49.5 29t62.5 9.5q27 0 75.5 -5.5t105.5 -28.5l-1 -553 q0 -29 8.5 -41.5t31.5 -12.5h12v-99h-20z" />
<glyph unicode="ffi" horiz-adv-x="668" d="M225 718q53 0 101 -23q23 23 55.5 34t70.5 11q50 0 90.5 -17.5t68.5 -47.5l-63 -79q-18 19 -41.5 30t-46.5 11q-20 0 -32.5 -5.5t-19.5 -14.5t-10 -20t-3 -21v-82h228v-494h-108v410h-120v-410h-108v410h-119v-410h-108v410h-47v84h47v44q0 93 43.5 136.5t121.5 43.5z M287 494v98q0 5 1 8q-29 16 -55 16q-24 0 -37.5 -8t-19.5 -21t-7 -28t-1 -29v-36h119z" />
<glyph unicode="ffl" horiz-adv-x="693" d="M459 637q-20 0 -32.5 -5.5t-19.5 -15t-9.5 -21.5t-2.5 -25v-76h78v-84h-78v-410h-109v410h-118v-410h-108v410h-47v84h47v44q0 91 43.5 135.5t121.5 44.5q53 0 101 -23q22 23 53 34t67 11q16 0 37 -1.5t44.5 -5t48 -9.5t47.5 -16l-1 -561q0 -29 8.5 -41.5t31.5 -12.5h12 v-99h-20q-36 0 -62 6.5t-43.5 22.5t-26 42.5t-8.5 65.5v497q-17 5 -29.5 7t-25.5 2zM286 494v109q-13 8 -29 10t-24 2q-24 0 -37.5 -8t-19.5 -20.5t-7 -28t-1 -29.5v-35h118z" />
<glyph unicode="ft" horiz-adv-x="481" d="M410 0q-34 0 -57 10.5t-37.5 27.5t-20.5 38t-6 42v292h-120v-410h-109v410h-47v84h47v105q0 65 35.5 96t88.5 31h57v-99h-32q-19 0 -29.5 -12t-10.5 -31v-90h120v131h104v-131h60v-84h-60v-258q0 -27 10 -40t38 -13h12v-99h-43z" />
<glyph unicode=" "  horiz-adv-x="205" />
<glyph unicode="&#x09;" horiz-adv-x="205" />
<glyph unicode="&#xa0;" horiz-adv-x="205" />
<glyph unicode="!" horiz-adv-x="252" d="M171 190h-90l-9 506h107zM74 0v109h104v-109h-104z" />
<glyph unicode="&#x22;" horiz-adv-x="280" d="M166 490v206h77v-206h-77zM39 490v206h76v-206h-76z" />
<glyph unicode="#" horiz-adv-x="405" d="M5 290h70l23 125h-56v74h69l38 209h76l-39 -209h79l38 209h75l-39 -209h58v-74h-71l-22 -125h58v-74h-72l-39 -216h-75l39 216h-79l-38 -216h-76l40 216h-57v74zM150 290h79l23 125h-79z" />
<glyph unicode="$" horiz-adv-x="405" d="M375 198q0 -44 -7.5 -80.5t-25.5 -63t-47 -42t-72 -17.5v-83h-37v83q-41 2 -70.5 16t-48 36.5t-27.5 52t-9 63.5l108 21q1 -32 11 -56t36 -30v213q-49 21 -78.5 42.5t-45.5 45.5t-21 51.5t-5 60.5q0 78 36 130t114 60v73h37v-72q44 -2 73.5 -18t47 -40t24.5 -52t7 -54 l-106 -25q0 33 -10 56t-36 28v-185q49 -22 79 -43t46.5 -45.5t21.5 -55t5 -70.5zM269 197q0 40 -9 59.5t-37 36.5v-195q16 3 25 12.5t13.5 23t6 29.5t1.5 34zM143 512q0 -26 6.5 -44.5t36.5 -36.5v165q-27 -8 -35 -33.5t-8 -50.5z" />
<glyph unicode="%" horiz-adv-x="630" d="M523 325q0 9 -6.5 16.5t-18.5 7.5t-18.5 -7.5t-6.5 -16.5v-233q0 -9 6.5 -16.5t19.5 -7.5q11 0 17.5 7.5t6.5 16.5v233zM602 88q0 -44 -30 -67.5t-73 -23.5t-73 23.5t-30 67.5v241q0 44 30.5 68t72.5 24q44 0 73.5 -24t29.5 -68v-241zM154 605q0 9 -6.5 16.5t-18.5 7.5 t-18.5 -7.5t-6.5 -16.5v-233q0 -9 6.5 -16.5t19.5 -7.5q11 0 17.5 7.5t6.5 16.5v233zM233 368q0 -44 -30 -67.5t-73 -23.5t-73 23.5t-30 67.5v241q0 44 30.5 68t72.5 24q44 0 73.5 -24t29.5 -68v-241zM190 -17h-66l314 731h66z" />
<glyph unicode="&#x26;" horiz-adv-x="480" d="M179 544q0 -23 11.5 -53t30.5 -65l111 -197q6 18 9 40t4 46h94q-1 -45 -12.5 -94.5t-31.5 -88.5l76 -132h-119l-26 45q-31 -32 -65 -41.5t-70 -9.5q-33 0 -60.5 13t-47.5 37t-31 58t-11 75q0 60 25 106.5t70 89.5l-18 32q-15 28 -27 64.5t-12 75.5q0 33 10 61.5 t28.5 49.5t45 33t58.5 12q55 0 94 -21.5t62 -72.5l-89 -45q-9 23 -25 33.5t-35 10.5q-28 0 -38.5 -20t-10.5 -42zM186 286q-21 -26 -32.5 -51t-11.5 -54q0 -37 17.5 -64t49.5 -27q20 0 39 9.5t32 24.5z" />
<glyph unicode="'" horiz-adv-x="186" d="M57 490v206h77v-206h-77z" />
<glyph unicode="(" horiz-adv-x="253" d="M46 306q0 62 10.5 119.5t29 109t43 98.5t52.5 88l62 -30q-24 -42 -42.5 -89t-31.5 -96t-20 -99t-7 -97q0 -51 7 -103t20 -101.5t31 -96t41 -86.5l-54 -35q-60 86 -100.5 190.5t-40.5 227.5z" />
<glyph unicode=")" horiz-adv-x="253" d="M243 306q0 -123 -41 -227.5t-101 -190.5l-53 35q22 40 40.5 86.5t31.5 96t20 101.5t7 103q0 47 -7 97t-20 99t-32 96t-42 89l61 30q28 -41 52.5 -88t43 -98.5t29.5 -109t11 -119.5z" />
<glyph unicode="*" horiz-adv-x="373" d="M304 423l-61 -42l-61 102l-63 -103l-60 43l76 95l-111 30l24 69l106 -44l-10 122h75l-10 -121l105 43l25 -69l-113 -30z" />
<glyph unicode="+" horiz-adv-x="405" d="M244 253v-157h-84v157h-146v86h146v158h84v-158h146v-86h-146z" />
<glyph unicode="," horiz-adv-x="214" d="M108 -137h-60l29 131h-26v126h112v-123z" />
<glyph unicode="-" horiz-adv-x="365" d="M49 234v94h278v-94h-278z" />
<glyph unicode="." horiz-adv-x="211" d="M49 0v121h112v-121h-112z" />
<glyph unicode="/" horiz-adv-x="273" d="M84 -42h-81l186 767h81z" />
<glyph unicode="0" horiz-adv-x="405" d="M356 141q0 -35 -12 -62.5t-32.5 -46.5t-48 -28.5t-58.5 -9.5q-32 0 -59.5 9.5t-48 28.5t-32.5 46.5t-12 62.5v412q0 35 12 63t32.5 47t48 29t59.5 10q67 0 109 -39t42 -110v-412zM249 557q0 20 -12.5 31.5t-31.5 11.5q-20 0 -33 -11.5t-13 -31.5v-420q0 -20 13 -31.5 t33 -11.5q19 0 31.5 11.5t12.5 31.5v420z" />
<glyph unicode="1" horiz-adv-x="405" d="M197 0v575l-95 -76v116l101 81h101v-696h-107z" />
<glyph unicode="2" horiz-adv-x="405" d="M203 600q-23 -1 -37 -22t-14 -75l-106 12q0 89 43 138t115 49q83 0 119 -44.5t36 -119.5q1 -46 -9.5 -82t-31.5 -77l-141 -277h175v-102h-300v94q45 85 88.5 169.5t87.5 169.5q14 26 17.5 51.5t3.5 53.5q0 9 -1.5 20t-6.5 20t-14 15.5t-24 6.5z" />
<glyph unicode="3" horiz-adv-x="405" d="M299 358q35 -16 46 -46.5t11 -68.5l-1 -80q0 -83 -43.5 -126t-116.5 -43q-85 0 -122 46.5t-32 131.5l107 13q-5 -50 9.5 -70t39.5 -20q18 0 33.5 12.5t15.5 46.5v94q0 35 -16 50t-45 15h-30v92h35q29 0 44 14t15 47v77q0 20 -9 38t-35 18q-25 0 -39.5 -20.5t-14.5 -68.5 l-106 14q2 81 46 129.5t119 48.5q41 0 69 -13t45 -34.5t24.5 -49t7.5 -55.5v-55q0 -20 -1.5 -39.5t-7 -36.5t-17 -31.5t-31.5 -24.5v-5z" />
<glyph unicode="4" horiz-adv-x="405" d="M332 104v-104h-105v104h-204v91l148 501h105l-144 -492h95v158h105v-158h44v-100h-44z" />
<glyph unicode="5" horiz-adv-x="405" d="M199 -6q-79 0 -115.5 45t-36.5 125l104 17v-14q0 -39 12 -55.5t38 -16.5q18 0 31.5 12t15.5 46v165q0 43 -43 43q-16 0 -30.5 -8.5t-22.5 -28.5h-90v372h290v-99h-192v-168q1 0 1.5 -0.5t2.5 -0.5q13 14 33.5 20.5t39.5 6.5q64 0 91.5 -35.5t27.5 -89.5v-144 q0 -99 -38.5 -145.5t-118.5 -46.5z" />
<glyph unicode="6" horiz-adv-x="405" d="M206 396q18 12 44 12q49 0 78.5 -32t29.5 -101v-122q0 -34 -9.5 -63t-28.5 -50.5t-48 -33.5t-68 -12q-69 0 -109.5 39t-40.5 105v89q0 41 4.5 73.5t15.5 61.5l128 334h113l-113 -296zM251 279q0 20 -13 30.5t-32 10.5q-23 0 -34.5 -15t-11.5 -35v-134q0 -20 13 -30.5 t32 -10.5q20 0 33 10.5t13 30.5v143z" />
<glyph unicode="7" horiz-adv-x="405" d="M182 0h-106l170 597h-100v-75h-95v174h307v-91z" />
<glyph unicode="8" horiz-adv-x="405" d="M354 489q0 -38 -11 -72t-42 -51q0 -1 1 -1q19 -12 29.5 -27t15.5 -33t6.5 -39.5t1.5 -46.5v-60q0 -43 -11.5 -74t-32 -51.5t-48 -30t-59.5 -9.5q-40 0 -69 12t-47.5 34t-27.5 52t-9 65v50q0 24 1.5 47t7 43.5t16.5 37t30 28.5q-17 7 -27.5 20.5t-16.5 29t-8 31t-2 26.5 v80q0 69 41.5 110.5t109.5 41.5q73 0 112 -41.5t39 -120.5v-51zM248 269q0 21 -9.5 38t-35.5 17t-36 -17t-10 -38v-132q0 -19 13.5 -31t32.5 -12q20 0 32.5 12t12.5 31v132zM248 549q0 22 -10.5 37t-34.5 15q-18 0 -32 -11.5t-14 -30.5v-110q0 -19 13.5 -30.5t32.5 -11.5 q20 0 32.5 11.5t12.5 30.5v100z" />
<glyph unicode="9" horiz-adv-x="405" d="M203 300q-18 -12 -44 -12q-49 0 -78.5 29.5t-29.5 104.5v121q0 34 9.5 63t28.5 50.5t48 33.5t69 12q74 0 112 -39t38 -105v-89q0 -79 -20 -135l-128 -334h-114l113 296zM158 417q0 -20 13 -31t33 -11q23 0 34 15.5t11 35.5v134q0 20 -12.5 30.5t-32.5 10.5 q-19 0 -32.5 -10.5t-13.5 -30.5v-143z" />
<glyph unicode=":" horiz-adv-x="211" d="M49 279v121h112v-121h-112zM49 0v121h112v-121h-112z" />
<glyph unicode=";" horiz-adv-x="214" d="M108 -137h-60l29 131h-26v126h112v-123zM51 279v121h112v-121h-112z" />
<glyph unicode="&#x3c;" horiz-adv-x="405" d="M388 75l-373 187v72l374 187v-99l-271 -124l270 -123v-100z" />
<glyph unicode="=" horiz-adv-x="405" d="M14 338v87h376v-87h-376zM14 172v87h376v-87h-376z" />
<glyph unicode="&#x3e;" horiz-adv-x="405" d="M18 175l269 123l-271 124v99l374 -187v-72l-372 -187v100z" />
<glyph unicode="?" horiz-adv-x="394" d="M369 524q0 -26 -2 -45t-6.5 -34.5t-11.5 -30t-17 -32.5l-48 -84q-8 -13 -12.5 -27t-4.5 -34v-53h-106v80q0 22 7 41.5t18 37.5q24 40 38.5 64.5t22 42.5t9.5 33.5t2 38.5q0 11 -3 24.5t-9.5 25t-18 19.5t-29.5 8q-24 0 -42.5 -19.5t-18.5 -67.5l-106 12q2 89 49 133.5 t122 44.5q88 0 127.5 -46t39.5 -132zM162 0v109h103v-109h-103z" />
<glyph unicode="@" horiz-adv-x="782" d="M448 192q-16 -24 -44 -37t-58 -13q-28 0 -46.5 10t-30 26.5t-16 38t-4.5 44.5q0 24 6.5 47t21.5 41t38 29t56 11h52v40q0 19 -9 29.5t-32 10.5q-13 0 -25.5 -8.5t-17.5 -30.5l-80 24q13 46 47 71.5t83 25.5q58 0 90.5 -26.5t32.5 -92.5v-171q0 -24 12.5 -36.5t26.5 -12.5 q17 0 33 6.5t29 25.5t20.5 52t7.5 86q0 58 -16 105t-46.5 80.5t-74.5 51.5t-99 18q-69 0 -119.5 -24t-82.5 -65.5t-47.5 -96t-15.5 -115.5q0 -72 17.5 -129.5t50.5 -97.5t82 -61t112 -21q47 0 85 9t84 35l32 -70q-46 -22 -95 -35.5t-101 -13.5q-79 0 -143 23.5t-109.5 71 t-70 119.5t-24.5 170q0 82 22.5 151t66 119t107.5 78.5t146 28.5q81 0 141.5 -25.5t100.5 -70.5t59.5 -105.5t19.5 -129.5q0 -68 -15 -115t-40.5 -76.5t-58 -42.5t-68.5 -13q-8 0 -20.5 3t-26.5 10t-26 18t-18 26h-2zM423 323h-36q-20 0 -35 -12t-15 -44q0 -21 11 -33 t32 -12q20 0 31.5 14t11.5 37v50z" />
<glyph unicode="A" horiz-adv-x="422" d="M302 0l-27 145h-128q-7 -36 -13.5 -72.5t-12.5 -72.5h-110q35 175 70 348t70 348h120l141 -696h-110zM208 535q-10 -72 -21 -143.5t-24 -145.5h95l-45 289h-5z" />
<glyph unicode="B" horiz-adv-x="430" d="M276 505q0 48 -19 69t-63 21h-34v-180h35q42 0 61.5 23t19.5 67zM282 220q0 49 -18 73t-63 24h-41v-216h43q26 0 41.5 9.5t24 25.5t11 38t2.5 46zM305 364q46 -15 63 -57t17 -96q0 -109 -46.5 -160t-142.5 -51h-144v696h152q92 0 133.5 -48.5t41.5 -140.5 q0 -48 -16.5 -84t-57.5 -54v-5z" />
<glyph unicode="C" horiz-adv-x="406" d="M215 702q43 0 74 -12t51.5 -33.5t30 -51t9.5 -64.5l-105 -27q0 38 -14.5 62t-46.5 24q-19 0 -31 -8t-18.5 -20.5t-9 -27t-2.5 -27.5v-353q0 -10 2 -22t8.5 -22.5t18 -17.5t29.5 -7q60 0 61 86q27 -5 54 -8.5t54 -7.5q-2 -79 -43.5 -125t-122.5 -46q-86 0 -127 43.5 t-41 127.5v347q0 39 8.5 73.5t28.5 60.5t52.5 41t79.5 15z" />
<glyph unicode="D" horiz-adv-x="435" d="M276 513q0 38 -14.5 59.5t-55.5 21.5h-46v-492h46q40 0 55 21t15 61v329zM225 696q62 0 98 -21.5t50 -72.5q11 -37 11.5 -101.5t0.5 -151.5q0 -86 -1 -148t-13 -98q-19 -59 -60.5 -81t-94.5 -22h-164v696h173z" />
<glyph unicode="E" horiz-adv-x="380" d="M52 0v696h309v-102h-201v-189h175v-103h-175v-200h201v-102h-309z" />
<glyph unicode="F" horiz-adv-x="380" d="M160 594v-189h175v-103h-175v-302h-108v696h309v-102h-201z" />
<glyph unicode="G" horiz-adv-x="427" d="M219 -6q-86 0 -127 43.5t-41 127.5v347q0 39 9 73.5t29.5 60.5t52.5 41t78 15q85 0 125 -44t40 -115v-8l-105 -21q0 38 -14.5 62t-46.5 24q-19 0 -31 -8t-18.5 -20.5t-9 -27t-2.5 -27.5v-353q0 -11 3 -21q3 -18 14.5 -33t40.5 -15t46.5 15t17.5 41v137h-64v94h171v-222 q0 -82 -46.5 -124t-121.5 -42z" />
<glyph unicode="H" horiz-adv-x="443" d="M284 0v304h-125v-304h-107v696h107v-291h125v291h107v-696h-107z" />
<glyph unicode="I" horiz-adv-x="217" d="M54 0v696h109v-696h-109z" />
<glyph unicode="J" horiz-adv-x="367" d="M309 696v-523q0 -86 -43 -132.5t-126 -46.5q-45 0 -82.5 19.5t-62.5 59.5l80 62q11 -17 29.5 -28.5t34.5 -11.5q33 0 47.5 22.5t14.5 51.5v527h108z" />
<glyph unicode="K" horiz-adv-x="430" d="M317 0l-112 300q-11 -24 -22.5 -48.5t-23.5 -48.5v-203h-107v696h107v-281h5l131 281h112q-35 -71 -70 -141t-70 -141l160 -414h-110z" />
<glyph unicode="L" horiz-adv-x="359" d="M52 0v696h108v-594h193v-102h-301z" />
<glyph unicode="M" horiz-adv-x="573" d="M254 152l-50 129l-43 122h-5v-403h-107v696h104l76 -198l55 -151h5l56 155l75 194h104v-696h-108v401h-4l-44 -124l-49 -125h-65z" />
<glyph unicode="N" horiz-adv-x="466" d="M156 405v-405h-107v696h97l84 -207q10 -26 20 -51t21 -51l35 -96q2 0 2.5 0.5t2.5 0.5v404h106v-696h-95l-84 206q-20 51 -39.5 100t-38.5 99h-4z" />
<glyph unicode="O" horiz-adv-x="430" d="M275 526q0 29 -12.5 52t-47.5 23q-19 0 -31 -8.5t-18.5 -21t-9 -28t-2.5 -28.5v-350q0 -27 13.5 -48.5t46.5 -21.5t47 22.5t14 54.5v354zM384 178q0 -91 -41 -137.5t-129 -46.5t-128 44.5t-40 128.5v350q0 41 9.5 75t29.5 58.5t52.5 38t77.5 13.5q48 0 80.5 -12.5 t52 -36.5t28 -58t8.5 -77v-340z" />
<glyph unicode="P" horiz-adv-x="412" d="M206 696q96 0 140.5 -50t44.5 -161q0 -49 -9 -89t-31 -68.5t-57.5 -44.5t-89.5 -16h-44v-267h-108v696h154zM160 594v-224h38q50 0 69.5 28.5t19.5 85.5q0 51 -18.5 80.5t-68.5 29.5h-40z" />
<glyph unicode="Q" horiz-adv-x="430" d="M216 -6q-88 0 -128.5 44.5t-40.5 128.5v350q0 41 9.5 75t29.5 58.5t52.5 38t77.5 13.5q48 0 80.5 -12.5t52 -36.5t28 -58t8.5 -77v-340q0 -55 -15 -92l59 -47l-51 -62l-56 45q-19 -16 -46.5 -22t-59.5 -6zM197 126l48 60l31 -25v348v17t-1 18q-2 25 -16 41t-43 16 q-31 0 -44.5 -20.5t-15.5 -47.5q-1 -14 -1 -26.5v-24.5v-317q0 -27 13.5 -49t46.5 -22q11 0 17 3z" />
<glyph unicode="R" horiz-adv-x="430" d="M211 696q85 0 133 -47.5t48 -154.5q0 -66 -18.5 -111.5t-65.5 -71.5l103 -311h-110l-90 288h-51v-288h-108v696h159zM160 594v-204h44q42 0 62 24.5t20 78.5q0 48 -19.5 74.5t-64.5 26.5h-42z" />
<glyph unicode="S" horiz-adv-x="411" d="M379 198q0 -47 -8.5 -84.5t-28.5 -64t-53.5 -41t-82.5 -14.5q-45 0 -77.5 13t-53.5 36t-30.5 54t-9.5 66l107 21q2 -39 15 -63.5t51 -24.5q22 0 35 8.5t19.5 22.5t8 32t1.5 38q0 25 -3 42t-11.5 29t-24 21t-40.5 20q-50 21 -80.5 43t-46.5 46.5t-21 52t-5 60.5 q0 42 10 77t31 60.5t53.5 39.5t77.5 14q49 0 81 -15.5t51 -39.5t27 -53t8 -56l-107 -25q0 38 -13 62t-51 24q-20 0 -31.5 -8t-18.5 -21t-9 -28t-2 -30q0 -18 2 -31.5t11.5 -25.5t28.5 -24t52 -25q46 -18 73.5 -38.5t41.5 -45t18.5 -55t4.5 -69.5z" />
<glyph unicode="T" horiz-adv-x="340" d="M224 595v-595h-109v595h-112v101h333v-101h-112z" />
<glyph unicode="U" horiz-adv-x="433" d="M386 695v-517q0 -91 -40.5 -137.5t-128.5 -46.5t-128.5 44.5t-40.5 128.5v528h108v-530q0 -27 13.5 -48.5t46.5 -21.5t47 22.5t14 54.5v523h109z" />
<glyph unicode="V" horiz-adv-x="421" d="M293 696h114l-133 -696h-129l-131 696h115l47 -286l32 -219h5l32 219z" />
<glyph unicode="W" horiz-adv-x="611" d="M495 0h-112l-55 302q-5 29 -10 58.5t-10 58.5h-4l-21 -119l-28 -150l-28 -150h-111l-101 696h118q8 -66 15 -130t14 -130q1 -9 4 -35.5t6 -56t5.5 -56t3.5 -35.5h4q7 39 13 77.5t12 77.5l51 288h92l50 -289q6 -39 12.5 -78.5t13.5 -78.5h4l16 158l28 288h119z" />
<glyph unicode="X" horiz-adv-x="414" d="M286 0l-79 239h-2l-79 -239h-120l141 364q-33 83 -65.5 165.5t-65.5 166.5h121q17 -53 34 -104.5t34 -104.5l4 1l66 208h122l-135 -332q36 -92 72.5 -182.5t72.5 -181.5h-121z" />
<glyph unicode="Y" horiz-adv-x="395" d="M201 425l33 123l39 148h114l-135 -408v-288h-108v288l-136 408h114l43 -151l32 -120h4z" />
<glyph unicode="Z" horiz-adv-x="341" d="M22 0v98l185 497h-177v101h291v-96l-185 -498h184v-102h-298z" />
<glyph unicode="[" horiz-adv-x="235" d="M62 -102v799h158v-73h-63v-652h63v-74h-158z" />
<glyph unicode="\" horiz-adv-x="250" d="M5 714h81l156 -739h-80z" />
<glyph unicode="]" horiz-adv-x="235" d="M15 -103v74h63v653h-63v73h157v-800h-157z" />
<glyph unicode="^" horiz-adv-x="405" d="M7 322q40 94 79.5 186t80.5 186h72l162 -374h-98l-57 143l-44 112l-49 -129q-12 -30 -24.5 -61.5t-23.5 -62.5h-98v0z" />
<glyph unicode="_" horiz-adv-x="500" d="M0 -146v76h500v-76h-500z" />
<glyph unicode="`" horiz-adv-x="371" d="M216 543l-116 168l89 40l84 -177z" />
<glyph unicode="a" horiz-adv-x="385" d="M235 39q-16 -23 -40 -34t-51 -11q-33 0 -55.5 12t-36 32.5t-19 47.5t-5.5 58q0 29 7.5 57t24.5 49.5t45 35t70 13.5h63v54q0 22 -10.5 34.5t-39.5 12.5q-15 0 -30 -10t-20 -36l-98 30q13 55 52.5 86t102.5 31q75 0 113.5 -34t38.5 -114v-353h-109v38zM238 218h-43 q-23 0 -42 -15t-19 -53q0 -26 13.5 -40t36.5 -14q26 0 40 16.5t14 44.5v61z" />
<glyph unicode="b" horiz-adv-x="385" d="M231 -6q-29 0 -49.5 10t-34.5 34q-1 0 -1.5 -0.5t-1.5 -0.5v-37h-107v726h108v-270h4q14 23 40.5 34t45.5 11q26 0 43.5 -5.5t29.5 -15.5t19 -23.5t13 -28.5q8 -23 11 -58t3 -74v-45q0 -36 -1.5 -70t-3.5 -60q-4 -39 -15.5 -63.5t-27.5 -38.5t-35.5 -19.5t-39.5 -5.5z M193 98q16 0 25 7t14 17q7 13 9 43.5t2 76.5t-1 79.5t-9 50.5q-5 12 -14 18.5t-26 6.5q-29 0 -41 -26q-7 -12 -7 -29q-1 -23 -0.5 -50.5t-0.5 -62.5v-37t1 -35q0 -25 11.5 -42t36.5 -17z" />
<glyph unicode="c" horiz-adv-x="358" d="M187 -6q-34 0 -59 8t-42.5 22t-28 31.5t-15.5 37.5q-3 12 -5 30t-2.5 38.5t-1 42t-0.5 39.5q0 24 1 49.5t3 48.5t5 43t8 32q15 38 49.5 62t92.5 24q75 0 110.5 -41t35.5 -113q-26 -3 -53.5 -6t-53.5 -7q0 35 -11.5 51t-30.5 16q-30 0 -41 -30q-3 -10 -5.5 -40t-2.5 -70 v-36q0 -29 0.5 -56.5t5.5 -41.5q5 -16 15 -25.5t28 -9.5q42 0 42 64q27 -5 54 -8t54 -8q-1 -70 -39.5 -108.5t-112.5 -38.5z" />
<glyph unicode="d" horiz-adv-x="390" d="M153 -6q-20 0 -39.5 5.5t-35.5 19.5t-27.5 38.5t-15.5 63.5q-2 22 -2.5 55.5t-0.5 67.5q0 45 2.5 89.5t9.5 73.5q4 18 11.5 35t20.5 30t32.5 21t48.5 8q21 0 42.5 -8.5t36.5 -26.5h4v260h108v-726h-107v37q-1 0 -1.5 0.5t-1.5 0.5q-14 -24 -35 -34t-50 -10zM192 98 q25 0 36.5 17t11.5 42q1 16 1 34v36v26q-1 25 -0.5 47.5t-0.5 40.5q0 24 -11 40t-37 16t-37 -24q-8 -16 -10 -49.5t-2 -81.5q0 -46 2 -76.5t8 -43.5q5 -11 14 -17.5t25 -6.5z" />
<glyph unicode="e" horiz-adv-x="376" d="M140 222q0 -28 0.5 -54t4.5 -40q10 -34 44 -34q40 0 45 57l108 -17q-4 -66 -43 -103t-111 -37q-35 0 -60 8.5t-42.5 22.5t-27.5 32t-15 36q-3 12 -5 30t-3 38.5t-1.5 42t-0.5 40.5q0 48 3.5 96t13.5 74q14 40 49 64t93 24q74 0 112 -41t38 -116v-123h-202zM149 371 q-4 -9 -5.5 -28.5t-2.5 -46.5h92v42q0 24 -8.5 43t-35.5 19q-29 0 -40 -29z" />
<glyph unicode="f" horiz-adv-x="256" d="M168 407v-407h-109v407h-47v87h47v105q0 65 35.5 96t88.5 31h57v-99h-32q-19 0 -29.5 -12t-10.5 -31v-90h74v-87h-74z" />
<glyph unicode="g" horiz-adv-x="392" d="M239 42q-14 -23 -41 -33.5t-46 -10.5q-29 0 -48.5 7.5t-32 20.5t-19.5 30.5t-11 38.5q-5 20 -6.5 49.5t-2.5 60.5v43q0 35 1.5 67t3.5 58q8 69 41 98t78 29q29 0 49.5 -10t34.5 -34q1 0 1.5 0.5t1.5 0.5v37h107v-522q0 -77 -35.5 -123.5t-120.5 -46.5q-70 0 -109 35 t-42 101q26 4 53 8t53 9q2 -53 47 -53q24 0 35 17t11 40v83h-3zM194 396q-16 1 -25 -6t-14 -18q-7 -13 -9 -43.5t-2 -76.5q0 -45 1.5 -77t8.5 -49q11 -25 40 -25q26 0 38 20t11 44v100v37t-1 35q0 25 -11.5 42t-36.5 17z" />
<glyph unicode="h" horiz-adv-x="391" d="M148 450h4q15 21 41 35.5t54 14.5q30 0 50.5 -10t32.5 -27.5t17 -41.5t5 -51v-370h-109v342q0 53 -47 53q-22 0 -35.5 -14.5t-13.5 -41.5v-339h-107v726h108v-276z" />
<glyph unicode="i" horiz-adv-x="204" d="M47 591v105h109v-105h-109zM47 0v494h109v-494h-109z" />
<glyph unicode="j" horiz-adv-x="201" d="M47 591v105h109v-105h-109zM156 -52q0 -69 -36.5 -107t-115.5 -38h-20v102h16q29 0 38 16t9 54v520h109v-547z" />
<glyph unicode="k" horiz-adv-x="400" d="M153 317l104 177h126l-124 -192l136 -302h-124q-22 51 -43 101.5t-43 101.5q-9 -17 -18 -33t-19 -33v-137h-107v725h107v-408h5z" />
<glyph unicode="l" horiz-adv-x="222" d="M183 -6q-36 0 -62.5 6.5t-44 22.5t-26 42.5t-8.5 65.5v595h109v-579q0 -29 8.5 -41.5t31.5 -12.5h12v-99h-20z" />
<glyph unicode="m" horiz-adv-x="597" d="M446 500q30 0 50.5 -9.5t33 -26.5t18 -40t5.5 -50v-374h-109v342q0 26 -11.5 39.5t-31.5 13.5t-33.5 -14t-14.5 -38v-343h-109v342q0 26 -11.5 39.5t-31.5 13.5t-34 -15.5t-14 -42.5v-337h-108v495h108v-45l4 -1q15 21 37.5 36t50.5 15q38 0 61 -15.5t34 -41.5 q21 26 48.5 41.5t57.5 15.5z" />
<glyph unicode="n" horiz-adv-x="390" d="M146 450h4q15 21 40 35.5t53 14.5q30 0 50.5 -9.5t33 -27t18 -40.5t5.5 -50v-373h-108v342q0 53 -45 53q-23 0 -37 -15.5t-14 -42.5v-337h-108v494h108v-44z" />
<glyph unicode="o" horiz-adv-x="382" d="M194 502q40 0 67.5 -10.5t45.5 -28.5t26.5 -42t10.5 -52q4 -29 4.5 -64t0.5 -64v-26q0 -23 -1.5 -46t-3.5 -45q-5 -41 -21.5 -67t-39 -40t-48.5 -19t-51 -5q-35 0 -60.5 9.5t-43 25.5t-27 36.5t-13.5 43.5q-2 13 -3.5 29.5t-2.5 34.5t-1 36.5v34.5q0 24 1 49.5t3 48.5 t5 43t8 32q14 38 50 62t94 24zM193 402q-24 0 -36 -18q-7 -12 -10.5 -26t-5 -32t-1.5 -40.5v-51.5v-8q0 -27 0.5 -52t4.5 -40q5 -17 16 -28.5t32 -11.5q16 0 27.5 9.5t15.5 23.5q1 4 2.5 15.5t2.5 28t1.5 35.5t0.5 38q0 35 -1 68t-5 50q-2 11 -7 18q-11 22 -37 22z" />
<glyph unicode="p" horiz-adv-x="383" d="M228 501q20 0 39.5 -5.5t35.5 -19.5t27.5 -39t15.5 -64q2 -22 3 -55t1 -67q0 -44 -2.5 -89.5t-9.5 -74.5q-4 -18 -11.5 -34.5t-20.5 -29.5t-33 -21t-48 -8q-21 0 -42.5 7.5t-37.5 26.5h-3v-219h-108v686h106v-37l3 -2q14 25 35.5 35t49.5 10zM189 396q-24 0 -36 -16.5 t-12 -42.5v-157q0 -17 0.5 -31.5t4.5 -22.5q11 -28 43 -28q27 0 38 23q7 16 9.5 50t2.5 82q0 45 -2 76t-9 44q-8 23 -39 23z" />
<glyph unicode="q" horiz-adv-x="391" d="M243 -192v230h-4q-14 -23 -40.5 -34t-45.5 -11q-26 0 -43.5 6t-29.5 16t-19.5 23.5t-12.5 29.5q-9 28 -12 72t-3 86v21q0 35 1.5 67t3.5 58q4 39 16 63.5t28.5 39t35.5 20t39 5.5q29 0 49.5 -10t34.5 -35l3 2v37h107v-686h-108zM195 395q-31 0 -39 -23q-7 -13 -9 -44 t-2 -76t1.5 -79.5t8.5 -51.5q11 -24 40 -24q22 0 35 15.5t13 37.5q1 23 0.5 51t0.5 58v6v37t-1 34q0 26 -11.5 42.5t-36.5 16.5z" />
<glyph unicode="r" horiz-adv-x="287" d="M50 495h109v-55h2q19 38 45 49.5t62 11.5h10v-115q-8 1 -15 1.5t-14 0.5q-43 0 -66.5 -20.5t-23.5 -72.5v-295h-109v495z" />
<glyph unicode="s" horiz-adv-x="363" d="M135 151q-1 -27 11.5 -43t35.5 -16q24 0 36 13.5t12 37.5q0 31 -11 43.5t-41 23.5q-33 12 -60 24.5t-45.5 29.5t-28.5 40t-10 56q0 60 38.5 101t113.5 41q78 0 113.5 -39t35.5 -105l-106 -14q1 27 -10.5 43t-33.5 16q-26 0 -35 -15t-9 -30q0 -20 9.5 -32.5t44.5 -24.5 q37 -12 63.5 -25t43.5 -31t25 -42.5t8 -58.5q0 -32 -8 -59t-26.5 -47.5t-47.5 -32t-71 -11.5q-73 0 -112.5 36t-41.5 105z" />
<glyph unicode="t" horiz-adv-x="254" d="M177 0q-34 0 -56 10.5t-35.5 27.5t-19 38t-5.5 42v292h-48v85h49v125h104v-125h60v-85h-60v-257q0 -28 9 -40.5t37 -12.5h13v-100h-48z" />
<glyph unicode="u" horiz-adv-x="391" d="M243 44q-1 0 -1.5 0.5t-2.5 0.5q-15 -22 -40 -36t-53 -14q-31 0 -51.5 9.5t-33 26.5t-17.5 40.5t-5 50.5v373h109v-343q0 -29 11.5 -41.5t33.5 -12.5q20 0 35.5 15.5t15.5 42.5v339h107v-495h-108v44z" />
<glyph unicode="v" horiz-adv-x="367" d="M245 0h-124q-29 125 -58 247t-58 247h118q9 -50 18 -99t17 -99q6 -38 12 -75t13 -75h5l24 149l33 199h117z" />
<glyph unicode="w" horiz-adv-x="566" d="M280 281l-26 -150l-26 -131h-116l-102 494h114l26 -177l24 -159h4l24 160l28 176h106l28 -175l28 -162h4l22 162l25 175h112l-102 -494h-117l-25 128l-27 153h-4z" />
<glyph unicode="x" horiz-adv-x="369" d="M244 0l-58 155h-3l-60 -155h-118q29 63 59.5 126t59.5 126l-114 242h121l54 -146h2q14 37 26.5 73.5t26.5 72.5h119l-114 -242q30 -63 59.5 -126t58.5 -126h-119z" />
<glyph unicode="y" horiz-adv-x="359" d="M181 167l27 144l36 183h111l-143 -570q-14 -55 -44.5 -86t-88.5 -31h-38v95h22q22 0 36 14.5t24 56.5l7 31l-126 490h115l31 -183l27 -144h4z" />
<glyph unicode="z" horiz-adv-x="328" d="M26 0v98l155 300h-143v96h265v-91l-158 -302h158v-101h-277z" />
<glyph unicode="{" horiz-adv-x="245" d="M111 298q21 -8 41 -38.5t20 -84.5v-140q0 -30 10.5 -46.5t27.5 -16.5h21v-75h-56q-42 0 -70.5 31t-28.5 84v147q0 49 -14.5 76.5t-46.5 31.5v66q32 4 46.5 32.5t14.5 75.5v141q0 53 28.5 84t70.5 31h56v-75h-21q-17 0 -27.5 -18.5t-10.5 -47.5v-130q0 -53 -19.5 -83 t-41.5 -40v-5z" />
<glyph unicode="|" horiz-adv-x="235" d="M76 -162v885h85v-885h-85z" />
<glyph unicode="}" horiz-adv-x="245" d="M136 303q-22 10 -41.5 40t-19.5 83v130q0 29 -10.5 47.5t-27.5 18.5h-21v75h57q42 0 70 -31t28 -84v-141q0 -47 14.5 -75.5t46.5 -32.5v-66q-32 -4 -46.5 -31.5t-14.5 -76.5v-147q0 -53 -28 -84t-70 -31h-57v75h21q17 0 27.5 16.5t10.5 46.5v140q0 54 20 84.5t41 38.5v5z " />
<glyph unicode="~" horiz-adv-x="405" d="M128 346q22 0 41 -8t36.5 -17t33.5 -16.5t32 -7.5q18 0 31.5 11t32.5 35l59 -35q-23 -48 -51 -73.5t-63 -25.5q-20 0 -39 7.5t-37 17t-36 17t-35 7.5q-19 0 -33.5 -9.5t-35.5 -36.5l-56 36q21 45 49.5 71.5t70.5 26.5z" />
<glyph unicode="&#xa1;" horiz-adv-x="252" d="M82 307h89l9 -506h-107zM178 498v-110h-104v110h104z" />
<glyph unicode="&#xa2;" horiz-adv-x="405" d="M177 -4q-55 5 -82.5 33.5t-36.5 63.5q-3 12 -5 30t-2.5 38.5t-1 42t-0.5 39.5q0 24 1 49.5t3 48.5t5 43t8 32q13 32 39.5 55t71.5 29v102h53v-101q63 -6 93.5 -46.5t30.5 -106.5q-26 -3 -53.5 -6t-53.5 -7q0 35 -11.5 51t-30.5 16q-30 0 -41 -30q-3 -10 -5.5 -40 t-2.5 -70v-36q0 -29 0.5 -56.5t5.5 -41.5q5 -16 15 -25.5t28 -9.5q42 0 42 64q27 -5 54 -8t54 -8q-1 -63 -33 -100.5t-92 -44.5v-113h-53v113z" />
<glyph unicode="&#xa3;" horiz-adv-x="405" d="M206 702q79 0 124 -43.5t45 -120.5l-105 -24q0 38 -15.5 61t-47.5 23q-23 0 -39.5 -16t-16.5 -43q0 -18 4.5 -36t11 -38t13 -43.5t11.5 -52.5h97v-84h-94q0 -60 -11.5 -102.5t-31.5 -84.5h209v-98h-330v91q14 24 23.5 44.5t16 42.5t11 47.5t7.5 59.5h-57v84h51 q-5 25 -11.5 45t-12.5 39.5t-10.5 40t-4.5 45.5q0 37 12 67t33.5 51.5t51.5 33t66 11.5z" />
<glyph unicode="&#xa4;" horiz-adv-x="503" d="M97 417q-14 15 -29 29.5t-29 28.5q31 32 63 63l57 -58q40 24 86 24q43 0 84 -23l58 60q18 -17 31.5 -31.5t31.5 -31.5l-59 -58q24 -41 24 -85q0 -43 -25 -85l59 -58l-63 -64l-58 59q-41 -24 -85 -24q-46 0 -86 24l-58 -59l-62 63l59 58q-23 41 -23 83q0 44 24 85z M243 425q-39 0 -65 -27.5t-26 -66.5q0 -18 7.5 -34t19.5 -28t28 -19t34 -7q19 0 36 7.5t29.5 20t20 29.5t7.5 36q0 38 -27 63.5t-64 25.5z" />
<glyph unicode="&#xa5;" horiz-adv-x="405" d="M273 343h83v-58h-99q-1 -5 -1.5 -11t-0.5 -11v-29h101v-59h-101v-175h-105v175h-98v59h98v29q0 5 -0.5 11t-1.5 11h-96v58h79l-114 353h111l39 -139q8 -35 16.5 -69t17.5 -68h5q9 35 17 69t17 69t18 69t19 69h110z" />
<glyph unicode="&#xa6;" horiz-adv-x="235" d="M76 310v409h85v-409h-85zM161 244v-410h-85v410h85z" />
<glyph unicode="&#xa7;" horiz-adv-x="423" d="M395 296q0 -36 -15 -62t-44 -45q20 -25 29 -52t9 -55q0 -34 -12.5 -61.5t-35.5 -47.5t-56 -31t-73 -11q-42 0 -86 19t-76 51l60 67q32 -29 56 -39t47 -10q36 0 54 16.5t18 42.5q0 52 -97 105q-32 18 -57 34.5t-41.5 35t-25 41t-8.5 52.5q0 33 17.5 62t46.5 46 q-42 43 -42 99q0 33 12 60t33 47t50.5 31t64.5 11q48 0 85.5 -16t75.5 -49l-61 -70q-32 29 -55.5 36.5t-44.5 7.5q-26 0 -42 -15.5t-16 -36.5q0 -26 22.5 -45.5t58.5 -40.5q29 -18 56 -36t47.5 -39t33 -46t12.5 -56zM295 293q0 28 -28 50.5t-92 53.5q-16 -5 -26 -17.5 t-10 -29.5q0 -16 12 -31t30.5 -28.5t40.5 -25.5t41 -22q15 6 23.5 20.5t8.5 29.5z" />
<glyph unicode="&#xa8;" horiz-adv-x="354" d="M213 568v105h94v-105h-94zM49 568v105h94v-105h-94z" />
<glyph unicode="&#xa9;" horiz-adv-x="703" d="M349 546q48 0 81 -30t33 -78l-67 -17q-1 26 -13 41.5t-34 15.5q-23 0 -34 -13t-11 -30v-204q0 -17 12.5 -29t31.5 -12q43 0 46 57l69 -14q-2 -54 -32.5 -82.5t-81.5 -28.5q-48 0 -81 28.5t-33 85.5v197q0 54 32 83.5t82 29.5zM347 -8q-75 0 -131.5 26.5t-95 73.5 t-58 110.5t-19.5 138.5q0 76 19.5 140t58 111t95.5 73.5t131 26.5q73 0 129.5 -26.5t95.5 -73.5t59 -111t20 -140q0 -75 -20 -138.5t-59 -110.5t-95.5 -73.5t-129.5 -26.5zM347 628q-59 0 -103 -22.5t-73 -61.5t-43 -91.5t-14 -111.5t15.5 -110.5t45 -90t73 -61t99.5 -22.5 q58 0 102 22.5t73 61t43.5 90t14.5 110.5t-15 111.5t-44.5 91.5t-73 61.5t-100.5 22.5z" />
<glyph unicode="&#xaa;" horiz-adv-x="265" d="M22 529q11 39 39.5 61t73.5 22q54 0 81 -23.5t27 -77.5v-231h-85v20q-24 -24 -59 -24q-24 0 -40.5 8t-26 22t-13.5 32t-4 39q0 19 5.5 38t17.5 33.5t32 23.5t50 9h38v29q0 25 -28 25q-8 0 -17.5 -5.5t-12.5 -22.5zM158 419h-24q-15 0 -27 -8.5t-12 -29.5q0 -17 8.5 -24 t22.5 -7q17 0 24.5 9.5t7.5 25.5v34z" />
<glyph unicode="&#xab;" horiz-adv-x="487" d="M157 46l-112 194l112 193h103l-110 -193l110 -194h-103zM340 46l-112 194l112 193h103l-110 -193l110 -194h-103z" />
<glyph unicode="&#xac;" horiz-adv-x="405" d="M389 96h-85v157h-290v86h375v-243z" />
<glyph unicode="&#xad;" horiz-adv-x="365" d="M49 234v94h278v-94h-278z" />
<glyph unicode="&#xae;" horiz-adv-x="486" d="M274 351l-36 106h-15v-106h-52v273h74q76 0 76 -85q0 -22 -6.5 -41t-26.5 -31l43 -116h-57zM269 539q0 18 -6.5 28t-23.5 10h-16v-73h19q15 0 21 10t6 25zM243 260q-50 0 -87.5 17.5t-63 48.5t-38.5 73t-13 91q0 50 13 92.5t38.5 73.5t63 48.5t87.5 17.5q48 0 85 -17.5 t62.5 -48.5t39 -73.5t13.5 -92.5q0 -49 -13.5 -91t-39 -73t-62.5 -48.5t-85 -17.5zM243 676q-39 0 -67 -14.5t-47 -39.5t-28 -58.5t-9 -71.5q0 -40 10 -73.5t29 -57.5t47 -37.5t65 -13.5q39 0 67 14t46 38.5t26.5 58t8.5 71.5t-9.5 71.5t-28 58.5t-46.5 39.5t-64 14.5z" />
<glyph unicode="&#xaf;" horiz-adv-x="372" d="M78 577v89h246v-89h-246z" />
<glyph unicode="&#xb0;" horiz-adv-x="317" d="M212 585q0 23 -14.5 37.5t-36.5 14.5t-36.5 -14.5t-14.5 -37.5q0 -22 14.5 -37t36.5 -15t36.5 15t14.5 37zM277 585q0 -24 -9 -45t-25 -37t-37 -25t-45 -9t-45 9t-37 25t-25 37t-9 45t9 45.5t25 37t37 25t45 9.5q25 0 46 -9.5t36.5 -25t24.5 -37t9 -45.5z" />
<glyph unicode="&#xb1;" horiz-adv-x="405" d="M244 270v-153h-84v153h-146v84h146v153h84v-153h146v-84h-146zM390 82v-82h-376v82h376z" />
<glyph unicode="&#xb2;" horiz-adv-x="264" d="M28 370v62l114 197q8 14 11.5 29t3.5 31q0 11 -5 21t-21 10q-15 0 -23 -14t-8 -46l-78 11q1 58 30 89t80 31q55 0 80.5 -27t25.5 -74q0 -24 -7 -47t-22 -49q-6 -11 -18 -32t-25 -44t-25 -44t-18 -32h109v-72h-204z" />
<glyph unicode="&#xb3;" horiz-adv-x="264" d="M238 504q0 -28 -3 -53q-5 -42 -30.5 -63.5t-70.5 -21.5q-52 0 -78.5 28t-26.5 77v5l78 9q2 -22 7 -33t23 -11q12 0 17.5 8.5t5.5 15.5v55q0 33 -35 33h-26v63h28q14 0 23.5 6.5t9.5 23.5v46q0 10 -5.5 18t-18.5 8q-33 0 -33 -51q-20 2 -38.5 5t-38.5 6q2 51 31 81.5 t80 30.5q41 0 63 -15t31 -40q5 -14 6 -34t1 -36q0 -22 -5 -43.5t-30 -35.5q23 -10 29 -30t6 -52z" />
<glyph unicode="&#xb4;" horiz-adv-x="371" d="M132 574l85 177l89 -40l-116 -168z" />
<glyph unicode="&#xb6;" horiz-adv-x="431" d="M135 316q-57 10 -91 55.5t-34 132.5q0 37 8.5 72t27 62.5t48.5 44.5t74 17h234v-95h-45v-675h-85v675h-50v-675h-87v386z" />
<glyph unicode="&#xb7;" horiz-adv-x="211" d="M49 210v121h112v-121h-112z" />
<glyph unicode="&#xb8;" horiz-adv-x="431" d="M220 26l-22 -71q25 -3 41 -11.5t25.5 -20.5t13 -25.5t3.5 -24.5t-4.5 -25t-15 -26t-28 -20.5t-42.5 -8.5q-8 0 -35.5 2.5t-55.5 16.5l17 45q20 -9 33.5 -11.5t25.5 -2.5q14 0 24.5 9t10.5 23q0 34 -45 33l-25 19l30 100z" />
<glyph unicode="&#xb9;" horiz-adv-x="217" d="M93 370v330l-61 -45v82l67 49h73v-416h-79z" />
<glyph unicode="&#xba;" horiz-adv-x="263" d="M133 612q45 0 69 -16.5t33 -41.5q3 -8 5 -22t3 -30.5t1.5 -33.5t0.5 -31q0 -45 -3 -73q-3 -26 -14.5 -43.5t-27 -28t-33.5 -14.5t-35 -4q-51 0 -76.5 22t-30.5 47q-5 15 -5.5 44t-0.5 53q0 32 2.5 65t8.5 48q11 27 36 43t67 16zM131 536q-19 0 -24 -19q-2 -8 -3.5 -32.5 t-1.5 -55.5q0 -17 0.5 -32.5t2.5 -25.5q5 -21 28 -21q11 0 16.5 6t7.5 11q3 8 4 22.5t1 35.5v15v21t-0.5 24t-2 22.5t-4.5 16.5q-6 12 -24 12z" />
<glyph unicode="&#xbb;" horiz-adv-x="487" d="M229 46l111 194l-111 193h104l111 -193l-111 -194h-104zM46 46l110 194l-110 193h104l111 -193l-111 -194h-104z" />
<glyph unicode="&#xbc;" horiz-adv-x="630" d="M558 59v-59h-74v59h-132v61l91 296h75l-88 -290h54v99h74v-99h28v-67h-28zM179 -17h-66l314 731h66zM105 280v330l-61 -45v82l67 49h73v-416h-79z" />
<glyph unicode="&#xbd;" horiz-adv-x="630" d="M380 0v62l114 197q8 14 11.5 29t3.5 31q0 11 -5 21t-21 10q-15 0 -23 -14t-8 -46l-78 11q1 58 30 89t80 31q55 0 80.5 -27t25.5 -74q0 -24 -7 -47t-22 -49q-6 -11 -18 -32t-25 -44t-25 -44t-18 -32h109v-72h-204zM176 -17h-66l314 731h66zM100 280v330l-61 -45v82l67 49 h73v-416h-79z" />
<glyph unicode="&#xbe;" horiz-adv-x="630" d="M236 414q0 -28 -3 -53q-5 -42 -30.5 -63.5t-70.5 -21.5q-52 0 -78.5 28t-26.5 77v5l78 9q2 -22 7 -33t23 -11q12 0 17.5 8.5t5.5 15.5v55q0 33 -35 33h-26v63h28q14 0 23.5 6.5t9.5 23.5v46q0 10 -5.5 18t-18.5 8q-33 0 -33 -51q-20 2 -38.5 5t-38.5 6q2 51 31 81.5 t80 30.5q41 0 63 -15t31 -40q5 -14 6 -34t1 -36q0 -22 -5 -43.5t-30 -35.5q23 -10 29 -30t6 -52zM198 -17h-66l314 731h66zM577 59v-59h-74v59h-132v61l91 296h75l-88 -290h54v99h74v-99h28v-67h-28z" />
<glyph unicode="&#xbf;" horiz-adv-x="394" d="M38 -27q0 25 2 44t6.5 34.5t11.5 30.5t17 32q10 16 21 33.5t21 36t16.5 37.5t6.5 39v53h106v-80q0 -22 -7 -42t-18 -38q-24 -40 -38.5 -64.5t-22 -42.5t-9.5 -33.5t-2 -37.5q0 -11 3 -24t9.5 -25t18 -20t29.5 -8q24 0 42.5 19.5t18.5 67.5l106 -12q-2 -89 -49 -133.5 t-122 -44.5q-88 0 -127.5 46t-39.5 132zM245 497v-110h-103v110h103z" />
<glyph unicode="&#xc0;" horiz-adv-x="422" d="M302 0l-27 145h-128q-7 -36 -13.5 -72.5t-12.5 -72.5h-110q35 175 70 348t70 348h120l141 -696h-110zM214 718l-179 99l64 75l154 -121zM208 535q-10 -72 -21 -143.5t-24 -145.5h95l-45 289h-5z" />
<glyph unicode="&#xc1;" horiz-adv-x="422" d="M302 0l-27 145h-128q-7 -36 -13.5 -72.5t-12.5 -72.5h-110q35 175 70 348t70 348h120l141 -696h-110zM166 770l154 121l64 -75l-179 -98zM208 535q-10 -72 -21 -143.5t-24 -145.5h95l-45 289h-5z" />
<glyph unicode="&#xc2;" horiz-adv-x="422" d="M302 0l-27 145h-128q-7 -36 -13.5 -72.5t-12.5 -72.5h-110q35 175 70 348t70 348h120l141 -696h-110zM211 801l-118 -77l-43 38l132 132h63l126 -131l-43 -39zM208 535q-10 -72 -21 -143.5t-24 -145.5h95l-45 289h-5z" />
<glyph unicode="&#xc3;" horiz-adv-x="422" d="M302 0l-27 145h-128q-7 -36 -13.5 -72.5t-12.5 -72.5h-110q35 175 70 348t70 348h120l141 -696h-110zM317 861q13 -8 25.5 -15.5t26.5 -15.5q-22 -46 -47 -66.5t-51 -20.5q-17 0 -31.5 5.5t-28 12.5t-26 12.5t-24.5 5.5t-26 -9t-29 -29l-53 33q18 40 46 62.5t56 22.5 q15 0 29 -5.5t27.5 -12.5t26 -12.5t24.5 -5.5q14 0 26 8t29 30zM208 535q-10 -72 -21 -143.5t-24 -145.5h95l-45 289h-5z" />
<glyph unicode="&#xc4;" horiz-adv-x="422" d="M302 0l-27 145h-128q-7 -36 -13.5 -72.5t-12.5 -72.5h-110q35 175 70 348t70 348h120l141 -696h-110zM208 535q-10 -72 -21 -143.5t-24 -145.5h95l-45 289h-5zM246 740v106h94v-106h-94zM82 740v106h94v-106h-94z" />
<glyph unicode="&#xc5;" horiz-adv-x="422" d="M302 0l-27 145h-128q-7 -36 -13.5 -72.5t-12.5 -72.5h-110q35 175 70 348t70 348h120l141 -696h-110zM213 698q-41 0 -68.5 28t-27.5 68t27.5 68t68.5 28t68 -28t27 -68t-27 -68t-68 -28zM208 535q-10 -72 -21 -143.5t-24 -145.5h95l-45 289h-5zM213 832 q-17 0 -28.5 -11.5t-11.5 -27.5q0 -17 11.5 -28t28.5 -11q16 0 27.5 11t11.5 28q0 16 -11.5 27.5t-27.5 11.5z" />
<glyph unicode="&#xc6;" horiz-adv-x="633" d="M301 0v166h-132l-51 -166h-112l223 696h380v-102h-201v-189h175v-103h-175v-197h201v-105h-308zM198 269h103v324h-5z" />
<glyph unicode="&#xc7;" horiz-adv-x="406" d="M215 702q43 0 74 -12t51.5 -33.5t30 -51t9.5 -64.5l-105 -27q0 38 -14.5 62t-46.5 24q-19 0 -31 -8t-18.5 -20.5t-9 -27t-2.5 -27.5v-353q0 -10 2 -22t8.5 -22.5t18 -17.5t29.5 -7q60 0 61 86q27 -5 54 -8.5t54 -7.5q-2 -73 -37.5 -118t-105.5 -52l-12 -40 q25 -3 41 -11.5t25.5 -20.5t13 -25.5t3.5 -24.5t-4.5 -25t-15 -26t-28 -20.5t-42.5 -8.5q-8 0 -35.5 2.5t-55.5 16.5l17 45q20 -9 33.5 -11.5t25.5 -2.5q14 0 24.5 9t10.5 23q0 34 -45 33l-25 19l20 68q-72 6 -107 49t-35 121v347q0 39 8.5 73.5t28.5 60.5t52.5 41t79.5 15z " />
<glyph unicode="&#xc8;" horiz-adv-x="380" d="M52 0v696h309v-102h-201v-189h175v-103h-175v-200h201v-102h-309zM230 718l-179 99l64 75l154 -121z" />
<glyph unicode="&#xc9;" horiz-adv-x="380" d="M52 0v696h309v-102h-201v-189h175v-103h-175v-200h201v-102h-309zM127 770l154 121l64 -75l-179 -98z" />
<glyph unicode="&#xca;" horiz-adv-x="380" d="M52 0v696h309v-102h-201v-189h175v-103h-175v-200h201v-102h-309zM205 801l-118 -77l-43 38l132 132h63l126 -131l-43 -39z" />
<glyph unicode="&#xcb;" horiz-adv-x="380" d="M52 0v696h309v-102h-201v-189h175v-103h-175v-200h201v-102h-309zM241 740v106h94v-106h-94zM77 740v106h94v-106h-94z" />
<glyph unicode="&#xcc;" horiz-adv-x="217" d="M54 0v696h109v-696h-109zM118 718l-179 99l64 75l154 -121z" />
<glyph unicode="&#xcd;" horiz-adv-x="217" d="M54 0v696h109v-696h-109zM58 770l154 121l64 -75l-179 -98z" />
<glyph unicode="&#xce;" horiz-adv-x="217" d="M54 0v696h109v-696h-109zM110 801l-118 -77l-43 38l132 132h63l126 -131l-43 -39z" />
<glyph unicode="&#xcf;" horiz-adv-x="217" d="M54 0v696h109v-696h-109zM144 740v106h94v-106h-94zM-20 740v106h94v-106h-94z" />
<glyph unicode="&#xd0;" horiz-adv-x="435" d="M225 696q62 0 98 -21.5t50 -72.5q11 -37 11.5 -101.5t0.5 -151.5q0 -86 -1 -148t-13 -98q-19 -59 -60.5 -81t-94.5 -22h-164v315h-47v75h47v306h173zM276 513q0 38 -14.5 59.5t-55.5 21.5h-46v-204h54v-75h-54v-213h46q40 0 55 21t15 61v329z" />
<glyph unicode="&#xd1;" horiz-adv-x="466" d="M156 405v-405h-107v696h97l84 -207q10 -26 20 -51t21 -51l35 -96q2 0 2.5 0.5t2.5 0.5v404h106v-696h-95l-84 206q-20 51 -39.5 100t-38.5 99h-4zM340 853q13 -8 25.5 -15.5t26.5 -15.5q-22 -46 -47 -66.5t-51 -20.5q-17 0 -31.5 5.5t-28 12.5t-26 12.5t-24.5 5.5t-26 -9 t-29 -29l-53 33q18 40 46 62.5t56 22.5q15 0 29 -5.5t27.5 -12.5t26 -12.5t24.5 -5.5q14 0 26 8t29 30z" />
<glyph unicode="&#xd2;" horiz-adv-x="430" d="M275 526q0 29 -12.5 52t-47.5 23q-19 0 -31 -8.5t-18.5 -21t-9 -28t-2.5 -28.5v-350q0 -27 13.5 -48.5t46.5 -21.5t47 22.5t14 54.5v354zM384 178q0 -91 -41 -137.5t-129 -46.5t-128 44.5t-40 128.5v350q0 41 9.5 75t29.5 58.5t52.5 38t77.5 13.5q48 0 80.5 -12.5 t52 -36.5t28 -58t8.5 -77v-340zM247 718l-179 99l64 75l154 -121z" />
<glyph unicode="&#xd3;" horiz-adv-x="430" d="M275 526q0 29 -12.5 52t-47.5 23q-19 0 -31 -8.5t-18.5 -21t-9 -28t-2.5 -28.5v-350q0 -27 13.5 -48.5t46.5 -21.5t47 22.5t14 54.5v354zM384 178q0 -91 -41 -137.5t-129 -46.5t-128 44.5t-40 128.5v350q0 41 9.5 75t29.5 58.5t52.5 38t77.5 13.5q48 0 80.5 -12.5 t52 -36.5t28 -58t8.5 -77v-340zM150 770l154 121l64 -75l-179 -98z" />
<glyph unicode="&#xd4;" horiz-adv-x="430" d="M275 526q0 29 -12.5 52t-47.5 23q-19 0 -31 -8.5t-18.5 -21t-9 -28t-2.5 -28.5v-350q0 -27 13.5 -48.5t46.5 -21.5t47 22.5t14 54.5v354zM384 178q0 -91 -41 -137.5t-129 -46.5t-128 44.5t-40 128.5v350q0 41 9.5 75t29.5 58.5t52.5 38t77.5 13.5q48 0 80.5 -12.5 t52 -36.5t28 -58t8.5 -77v-340zM215 801l-118 -77l-43 38l132 132h63l126 -131l-43 -39z" />
<glyph unicode="&#xd5;" horiz-adv-x="430" d="M384 178q0 -91 -41 -137.5t-129 -46.5t-128 44.5t-40 128.5v350q0 41 9.5 75t29.5 58.5t52.5 38t77.5 13.5q48 0 80.5 -12.5t52 -36.5t28 -58t8.5 -77v-340zM275 526q0 29 -12.5 52t-47.5 23q-19 0 -31 -8.5t-18.5 -21t-9 -28t-2.5 -28.5v-350q0 -27 13.5 -48.5 t46.5 -21.5t47 22.5t14 54.5v354zM323 866q13 -8 25.5 -15.5t26.5 -15.5q-22 -46 -47 -66.5t-51 -20.5q-17 0 -31.5 5.5t-28 12.5t-26 12.5t-24.5 5.5t-26 -9t-29 -29l-53 33q18 40 46 62.5t56 22.5q15 0 29 -5.5t27.5 -12.5t26 -12.5t24.5 -5.5q14 0 26 8t29 30z" />
<glyph unicode="&#xd6;" horiz-adv-x="430" d="M275 526q0 29 -12.5 52t-47.5 23q-19 0 -31 -8.5t-18.5 -21t-9 -28t-2.5 -28.5v-350q0 -27 13.5 -48.5t46.5 -21.5t47 22.5t14 54.5v354zM384 178q0 -91 -41 -137.5t-129 -46.5t-128 44.5t-40 128.5v350q0 41 9.5 75t29.5 58.5t52.5 38t77.5 13.5q48 0 80.5 -12.5 t52 -36.5t28 -58t8.5 -77v-340zM249 740v106h94v-106h-94zM85 740v106h94v-106h-94z" />
<glyph unicode="&#xd7;" horiz-adv-x="405" d="M264 297l124 -129l-60 -60l-126 128l-132 -128l-58 60l131 129l-126 128l61 60l126 -129l132 130l58 -61z" />
<glyph unicode="&#xd8;" horiz-adv-x="430" d="M40 12l25 56q-19 39 -19 99v350q0 41 9.5 75t29.5 58.5t52.5 38t77.5 13.5q42 0 71 -9.5t49 -26.5l17 36l39 -20l-26 -57q19 -42 19 -107v-340q0 -91 -41 -137.5t-129 -46.5q-80 0 -121 38l-18 -39zM154 264l121 267q-1 27 -14 48.5t-46 21.5q-19 0 -31 -8.5t-18.5 -21 t-9 -28t-2.5 -28.5v-251zM275 429l-121 -264q0 -27 13.5 -48.5t46.5 -21.5t47 22.5t14 54.5v257z" />
<glyph unicode="&#xd9;" horiz-adv-x="433" d="M386 695v-517q0 -91 -40.5 -137.5t-128.5 -46.5t-128.5 44.5t-40.5 128.5v528h108v-530q0 -27 13.5 -48.5t46.5 -21.5t47 22.5t14 54.5v523h109zM242 718l-179 99l64 75l154 -121z" />
<glyph unicode="&#xda;" horiz-adv-x="433" d="M386 695v-517q0 -91 -40.5 -137.5t-128.5 -46.5t-128.5 44.5t-40.5 128.5v528h108v-530q0 -27 13.5 -48.5t46.5 -21.5t47 22.5t14 54.5v523h109zM149 770l154 121l64 -75l-179 -98z" />
<glyph unicode="&#xdb;" horiz-adv-x="433" d="M386 695v-517q0 -91 -40.5 -137.5t-128.5 -46.5t-128.5 44.5t-40.5 128.5v528h108v-530q0 -27 13.5 -48.5t46.5 -21.5t47 22.5t14 54.5v523h109zM216 801l-118 -77l-43 38l132 132h63l126 -131l-43 -39z" />
<glyph unicode="&#xdc;" horiz-adv-x="433" d="M386 695v-517q0 -91 -40.5 -137.5t-128.5 -46.5t-128.5 44.5t-40.5 128.5v528h108v-530q0 -27 13.5 -48.5t46.5 -21.5t47 22.5t14 54.5v523h109zM252 740v106h94v-106h-94zM88 740v106h94v-106h-94z" />
<glyph unicode="&#xdd;" horiz-adv-x="395" d="M201 425l33 123l39 148h114l-135 -408v-288h-108v288l-136 408h114l43 -151l32 -120h4zM148 770l154 121l64 -75l-179 -98z" />
<glyph unicode="&#xde;" horiz-adv-x="412" d="M206 568q96 0 140.5 -50t44.5 -161q0 -49 -9 -89t-31 -68.5t-57.5 -44.5t-89.5 -16h-44v-139h-108l-1 696h107v-128h48zM160 466v-224h38q50 0 69.5 28.5t19.5 86.5q0 50 -18.5 79.5t-68.5 29.5h-40z" />
<glyph unicode="&#xdf;" horiz-adv-x="402" d="M300 428q32 -15 46.5 -42.5t14.5 -60.5v-155q0 -29 -3 -60t-15 -57t-34.5 -42.5t-61.5 -16.5q-22 0 -46 3v88q51 0 51 53v192q0 16 -9.5 24.5t-21.5 8.5h-8v96h5q14 0 21 10.5t7 37.5v67q0 23 -12.5 36.5t-34.5 13.5t-35 -13.5t-13 -33.5v-577h-108v574q0 69 40.5 110.5 t114.5 41.5q72 0 112.5 -37.5t40.5 -109.5v-48q0 -32 -11 -58.5t-40 -40.5v-4z" />
<glyph unicode="&#xe0;" horiz-adv-x="385" d="M235 39q-16 -23 -40 -34t-51 -11q-33 0 -55.5 12t-36 32.5t-19 47.5t-5.5 58q0 29 7.5 57t24.5 49.5t45 35t70 13.5h63v54q0 22 -10.5 34.5t-39.5 12.5q-15 0 -30 -10t-20 -36l-98 30q13 55 52.5 86t102.5 31q75 0 113.5 -34t38.5 -114v-353h-109v38zM238 218h-43 q-23 0 -42 -15t-19 -53q0 -26 13.5 -40t36.5 -14q26 0 40 16.5t14 44.5v61zM188 543l-116 168l89 40l84 -177z" />
<glyph unicode="&#xe1;" horiz-adv-x="385" d="M235 39q-16 -23 -40 -34t-51 -11q-33 0 -55.5 12t-36 32.5t-19 47.5t-5.5 58q0 29 7.5 57t24.5 49.5t45 35t70 13.5h63v54q0 22 -10.5 34.5t-39.5 12.5q-15 0 -30 -10t-20 -36l-98 30q13 55 52.5 86t102.5 31q75 0 113.5 -34t38.5 -114v-353h-109v38zM238 218h-43 q-23 0 -42 -15t-19 -53q0 -26 13.5 -40t36.5 -14q26 0 40 16.5t14 44.5v61zM152 574l85 177l89 -40l-116 -168z" />
<glyph unicode="&#xe2;" horiz-adv-x="385" d="M235 39q-16 -23 -40 -34t-51 -11q-33 0 -55.5 12t-36 32.5t-19 47.5t-5.5 58q0 29 7.5 57t24.5 49.5t45 35t70 13.5h63v54q0 22 -10.5 34.5t-39.5 12.5q-15 0 -30 -10t-20 -36l-98 30q13 55 52.5 86t102.5 31q75 0 113.5 -34t38.5 -114v-353h-109v38zM238 218h-43 q-23 0 -42 -15t-19 -53q0 -26 13.5 -40t36.5 -14q26 0 40 16.5t14 44.5v61zM200 627l-118 -94l-43 38l132 149h63l126 -148l-43 -39z" />
<glyph unicode="&#xe3;" horiz-adv-x="385" d="M235 39q-16 -23 -40 -34t-51 -11q-33 0 -55.5 12t-36 32.5t-19 47.5t-5.5 58q0 29 7.5 57t24.5 49.5t45 35t70 13.5h63v54q0 22 -10.5 34.5t-39.5 12.5q-15 0 -30 -10t-20 -36l-98 30q13 55 52.5 86t102.5 31q75 0 113.5 -34t38.5 -114v-353h-109v38zM303 680 q13 -8 25.5 -15.5t26.5 -15.5q-22 -46 -47 -66.5t-51 -20.5q-17 0 -31.5 5.5t-28 12.5t-26 12.5t-24.5 5.5t-26 -9t-29 -29l-53 33q18 40 46 62.5t56 22.5q15 0 29 -5.5t27.5 -12.5t26 -12.5t24.5 -5.5q14 0 26 8t29 30zM238 218h-43q-23 0 -42 -15t-19 -53q0 -26 13.5 -40 t36.5 -14q26 0 40 16.5t14 44.5v61z" />
<glyph unicode="&#xe4;" horiz-adv-x="385" d="M235 39q-16 -23 -40 -34t-51 -11q-33 0 -55.5 12t-36 32.5t-19 47.5t-5.5 58q0 29 7.5 57t24.5 49.5t45 35t70 13.5h63v54q0 22 -10.5 34.5t-39.5 12.5q-15 0 -30 -10t-20 -36l-98 30q13 55 52.5 86t102.5 31q75 0 113.5 -34t38.5 -114v-353h-109v38zM238 218h-43 q-23 0 -42 -15t-19 -53q0 -26 13.5 -40t36.5 -14q26 0 40 16.5t14 44.5v61zM233 568v105h94v-105h-94zM69 568v105h94v-105h-94z" />
<glyph unicode="&#xe5;" horiz-adv-x="385" d="M235 39q-16 -23 -40 -34t-51 -11q-33 0 -55.5 12t-36 32.5t-19 47.5t-5.5 58q0 29 7.5 57t24.5 49.5t45 35t70 13.5h63v54q0 22 -10.5 34.5t-39.5 12.5q-15 0 -30 -10t-20 -36l-98 30q13 55 52.5 86t102.5 31q75 0 113.5 -34t38.5 -114v-353h-109v38zM238 218h-43 q-23 0 -42 -15t-19 -53q0 -26 13.5 -40t36.5 -14q26 0 40 16.5t14 44.5v61zM208 530q-41 0 -68.5 28t-27.5 68t27.5 68t68.5 28t68 -28t27 -68t-27 -68t-68 -28zM208 664q-17 0 -28.5 -11.5t-11.5 -27.5q0 -17 11.5 -28t28.5 -11q16 0 27.5 11t11.5 28q0 16 -11.5 27.5 t-27.5 11.5z" />
<glyph unicode="&#xe6;" horiz-adv-x="572" d="M389 -6q-45 0 -76.5 15.5t-47.5 43.5q-15 -19 -30.5 -30.5t-30 -18t-28 -8.5t-24.5 -2q-38 0 -62.5 12t-38.5 32t-20 47.5t-6 57.5q0 29 8 56.5t25.5 49.5t45.5 35t68 13h61v56q0 22 -11.5 34.5t-37.5 12.5q-17 0 -30.5 -9.5t-19.5 -35.5q-25 8 -49 15l-48 14 q14 57 55 87t101 30q37 0 61 -9.5t38 -26.5q37 37 101 37q72 0 112.5 -41t40.5 -116v-122h-203q0 -26 0.5 -51t3.5 -42t14.5 -26.5t30.5 -9.5q21 0 32.5 14.5t14.5 38.5q26 -5 53 -10l54 -10q-7 -60 -44.5 -96.5t-112.5 -36.5zM233 219h-42q-23 0 -41.5 -15.5t-18.5 -53.5 q0 -25 13.5 -39.5t38.5 -14.5q24 0 37 17t13 44v62zM437 298v26q0 22 -3 42q-2 14 -14 24t-29 10q-20 0 -32 -11t-13 -31l-3 -60h94z" />
<glyph unicode="&#xe7;" horiz-adv-x="358" d="M339 141q-1 -65 -34 -102.5t-96 -43.5l-12 -40q25 -3 41 -11.5t25.5 -20.5t13 -25.5t3.5 -24.5t-4.5 -25t-15 -26t-28 -20.5t-42.5 -8.5q-8 0 -35.5 2.5t-55.5 16.5l17 45q20 -9 33.5 -11.5t25.5 -2.5q14 0 24.5 9t10.5 23q0 34 -45 33l-25 19l20 69q-54 5 -81.5 33.5 t-36.5 63.5q-3 12 -5 30t-2.5 38.5t-1 42t-0.5 39.5q0 24 1 49.5t3 48.5t5 43t8 32q15 38 49.5 62t92.5 24q75 0 110.5 -41t35.5 -113q-26 -3 -53.5 -6t-53.5 -7q0 35 -11.5 51t-30.5 16q-30 0 -41 -30q-3 -10 -5.5 -40t-2.5 -70v-36q0 -29 0.5 -56.5t5.5 -41.5 q5 -16 15 -25.5t28 -9.5q42 0 42 64q27 -5 54 -8t54 -8z" />
<glyph unicode="&#xe8;" horiz-adv-x="376" d="M140 222q0 -28 0.5 -54t4.5 -40q10 -34 44 -34q40 0 45 57l108 -17q-4 -66 -43 -103t-111 -37q-35 0 -60 8.5t-42.5 22.5t-27.5 32t-15 36q-3 12 -5 30t-3 38.5t-1.5 42t-0.5 40.5q0 48 3.5 96t13.5 74q14 40 49 64t93 24q74 0 112 -41t38 -116v-123h-202zM149 371 q-4 -9 -5.5 -28.5t-2.5 -46.5h92v42q0 24 -8.5 43t-35.5 19q-29 0 -40 -29zM188 543l-116 168l89 40l84 -177z" />
<glyph unicode="&#xe9;" horiz-adv-x="376" d="M140 222q0 -28 0.5 -54t4.5 -40q10 -34 44 -34q40 0 45 57l108 -17q-4 -66 -43 -103t-111 -37q-35 0 -60 8.5t-42.5 22.5t-27.5 32t-15 36q-3 12 -5 30t-3 38.5t-1.5 42t-0.5 40.5q0 48 3.5 96t13.5 74q14 40 49 64t93 24q74 0 112 -41t38 -116v-123h-202zM149 371 q-4 -9 -5.5 -28.5t-2.5 -46.5h92v42q0 24 -8.5 43t-35.5 19q-29 0 -40 -29zM141 574l85 177l89 -40l-116 -168z" />
<glyph unicode="&#xea;" horiz-adv-x="376" d="M140 222q0 -28 0.5 -54t4.5 -40q10 -34 44 -34q40 0 45 57l108 -17q-4 -66 -43 -103t-111 -37q-35 0 -60 8.5t-42.5 22.5t-27.5 32t-15 36q-3 12 -5 30t-3 38.5t-1.5 42t-0.5 40.5q0 48 3.5 96t13.5 74q14 40 49 64t93 24q74 0 112 -41t38 -116v-123h-202zM149 371 q-4 -9 -5.5 -28.5t-2.5 -46.5h92v42q0 24 -8.5 43t-35.5 19q-29 0 -40 -29zM190 627l-118 -94l-43 38l132 149h63l126 -148l-43 -39z" />
<glyph unicode="&#xeb;" horiz-adv-x="376" d="M140 222q0 -28 0.5 -54t4.5 -40q10 -34 44 -34q40 0 45 57l108 -17q-4 -66 -43 -103t-111 -37q-35 0 -60 8.5t-42.5 22.5t-27.5 32t-15 36q-3 12 -5 30t-3 38.5t-1.5 42t-0.5 40.5q0 48 3.5 96t13.5 74q14 40 49 64t93 24q74 0 112 -41t38 -116v-123h-202zM149 371 q-4 -9 -5.5 -28.5t-2.5 -46.5h92v42q0 24 -8.5 43t-35.5 19q-29 0 -40 -29zM222 568v105h94v-105h-94zM58 568v105h94v-105h-94z" />
<glyph unicode="&#xec;" horiz-adv-x="204" d="M47 0v494h109v-494h-109zM89 543l-116 168l89 40l84 -177z" />
<glyph unicode="&#xed;" horiz-adv-x="214" d="M47 0v494h109v-494h-109zM70 574l85 177l89 -40l-116 -168z" />
<glyph unicode="&#xee;" horiz-adv-x="261" d="M75 0v494h109v-494h-109zM131 627l-118 -94l-43 38l132 149h63l126 -148l-43 -39z" />
<glyph unicode="&#xef;" horiz-adv-x="238" d="M64 0v494h109v-494h-109zM154 568v105h94v-105h-94zM-10 568v105h94v-105h-94z" />
<glyph unicode="&#xf0;" horiz-adv-x="386" d="M349 258v-31t-1 -35t-2 -35t-2 -31q-5 -41 -20.5 -67t-38 -40.5t-49 -20t-53.5 -5.5q-64 0 -97 29t-44 71q-3 11 -5 28.5t-2.5 38t-1 42t-0.5 40.5q0 49 4.5 88t13.5 64q13 35 44.5 59.5t82.5 24.5q18 0 40.5 -6.5t39.5 -23.5h1q0 32 -2 59t-13 53l-57 -42l-30 40l60 43 q-17 23 -50.5 34t-65.5 15l13 80q40 -3 68.5 -9.5t49.5 -16.5t35.5 -21.5t25.5 -24.5l60 44l30 -38q-16 -12 -31.5 -24t-31.5 -23q8 -16 13.5 -36t9 -48t5 -64t1.5 -83v-128zM193 378q-15 0 -26.5 -7t-17.5 -23q-5 -14 -6.5 -37.5t-2.5 -75.5v-32t0.5 -30.5t2 -26.5t3.5 -19 q6 -15 16.5 -24.5t30.5 -9.5q16 0 28.5 11t14.5 26q3 11 5 42.5t2 66.5q0 34 -0.5 59t-4.5 40q-11 40 -45 40z" />
<glyph unicode="&#xf1;" horiz-adv-x="390" d="M146 450h4q15 21 40 35.5t53 14.5q30 0 50.5 -9.5t33 -27t18 -40.5t5.5 -50v-373h-108v342q0 53 -45 53q-23 0 -37 -15.5t-14 -42.5v-337h-108v494h108v-44zM297 686q13 -8 25.5 -15.5t26.5 -15.5q-22 -46 -47 -66.5t-51 -20.5q-17 0 -31.5 5.5t-28 12.5t-26 12.5 t-24.5 5.5t-26 -9t-29 -29l-53 33q18 40 46 62.5t56 22.5q15 0 29 -5.5t27.5 -12.5t26 -12.5t24.5 -5.5q14 0 26 8t29 30z" />
<glyph unicode="&#xf2;" horiz-adv-x="382" d="M194 502q40 0 67.5 -10.5t45.5 -28.5t26.5 -42t10.5 -52q4 -29 4.5 -64t0.5 -64v-26q0 -23 -1.5 -46t-3.5 -45q-5 -41 -21.5 -67t-39 -40t-48.5 -19t-51 -5q-35 0 -60.5 9.5t-43 25.5t-27 36.5t-13.5 43.5q-2 13 -3.5 29.5t-2.5 34.5t-1 36.5v34.5q0 24 1 49.5t3 48.5 t5 43t8 32q14 38 50 62t94 24zM193 402q-24 0 -36 -18q-7 -12 -10.5 -26t-5 -32t-1.5 -40.5v-51.5v-8q0 -27 0.5 -52t4.5 -40q5 -17 16 -28.5t32 -11.5q16 0 27.5 9.5t15.5 23.5q1 4 2.5 15.5t2.5 28t1.5 35.5t0.5 38q0 35 -1 68t-5 50q-2 11 -7 18q-11 22 -37 22zM184 543 l-116 168l89 40l84 -177z" />
<glyph unicode="&#xf3;" horiz-adv-x="382" d="M194 502q40 0 67.5 -10.5t45.5 -28.5t26.5 -42t10.5 -52q4 -29 4.5 -64t0.5 -64v-26q0 -23 -1.5 -46t-3.5 -45q-5 -41 -21.5 -67t-39 -40t-48.5 -19t-51 -5q-35 0 -60.5 9.5t-43 25.5t-27 36.5t-13.5 43.5q-2 13 -3.5 29.5t-2.5 34.5t-1 36.5v34.5q0 24 1 49.5t3 48.5 t5 43t8 32q14 38 50 62t94 24zM193 402q-24 0 -36 -18q-7 -12 -10.5 -26t-5 -32t-1.5 -40.5v-51.5v-8q0 -27 0.5 -52t4.5 -40q5 -17 16 -28.5t32 -11.5q16 0 27.5 9.5t15.5 23.5q1 4 2.5 15.5t2.5 28t1.5 35.5t0.5 38q0 35 -1 68t-5 50q-2 11 -7 18q-11 22 -37 22zM132 574 l85 177l89 -40l-116 -168z" />
<glyph unicode="&#xf4;" horiz-adv-x="382" d="M194 502q40 0 67.5 -10.5t45.5 -28.5t26.5 -42t10.5 -52q4 -29 4.5 -64t0.5 -64v-26q0 -23 -1.5 -46t-3.5 -45q-5 -41 -21.5 -67t-39 -40t-48.5 -19t-51 -5q-35 0 -60.5 9.5t-43 25.5t-27 36.5t-13.5 43.5q-2 13 -3.5 29.5t-2.5 34.5t-1 36.5v34.5q0 24 1 49.5t3 48.5 t5 43t8 32q14 38 50 62t94 24zM193 402q-24 0 -36 -18q-7 -12 -10.5 -26t-5 -32t-1.5 -40.5v-51.5v-8q0 -27 0.5 -52t4.5 -40q5 -17 16 -28.5t32 -11.5q16 0 27.5 9.5t15.5 23.5q1 4 2.5 15.5t2.5 28t1.5 35.5t0.5 38q0 35 -1 68t-5 50q-2 11 -7 18q-11 22 -37 22zM191 627 l-118 -94l-43 38l132 149h63l126 -148l-43 -39z" />
<glyph unicode="&#xf5;" horiz-adv-x="382" d="M194 502q40 0 67.5 -10.5t45.5 -28.5t26.5 -42t10.5 -52q4 -29 4.5 -64t0.5 -64v-26q0 -23 -1.5 -46t-3.5 -45q-5 -41 -21.5 -67t-39 -40t-48.5 -19t-51 -5q-35 0 -60.5 9.5t-43 25.5t-27 36.5t-13.5 43.5q-2 13 -3.5 29.5t-2.5 34.5t-1 36.5v34.5q0 24 1 49.5t3 48.5 t5 43t8 32q14 38 50 62t94 24zM193 402q-24 0 -36 -18q-7 -12 -10.5 -26t-5 -32t-1.5 -40.5v-51.5v-8q0 -27 0.5 -52t4.5 -40q5 -17 16 -28.5t32 -11.5q16 0 27.5 9.5t15.5 23.5q1 4 2.5 15.5t2.5 28t1.5 35.5t0.5 38q0 35 -1 68t-5 50q-2 11 -7 18q-11 22 -37 22zM299 686 q13 -8 25.5 -15.5t26.5 -15.5q-22 -46 -47 -66.5t-51 -20.5q-17 0 -31.5 5.5t-28 12.5t-26 12.5t-24.5 5.5t-26 -9t-29 -29l-53 33q18 40 46 62.5t56 22.5q15 0 29 -5.5t27.5 -12.5t26 -12.5t24.5 -5.5q14 0 26 8t29 30z" />
<glyph unicode="&#xf6;" horiz-adv-x="382" d="M194 502q40 0 67.5 -10.5t45.5 -28.5t26.5 -42t10.5 -52q4 -29 4.5 -64t0.5 -64v-26q0 -23 -1.5 -46t-3.5 -45q-5 -41 -21.5 -67t-39 -40t-48.5 -19t-51 -5q-35 0 -60.5 9.5t-43 25.5t-27 36.5t-13.5 43.5q-2 13 -3.5 29.5t-2.5 34.5t-1 36.5v34.5q0 24 1 49.5t3 48.5 t5 43t8 32q14 38 50 62t94 24zM193 402q-24 0 -36 -18q-7 -12 -10.5 -26t-5 -32t-1.5 -40.5v-51.5v-8q0 -27 0.5 -52t4.5 -40q5 -17 16 -28.5t32 -11.5q16 0 27.5 9.5t15.5 23.5q1 4 2.5 15.5t2.5 28t1.5 35.5t0.5 38q0 35 -1 68t-5 50q-2 11 -7 18q-11 22 -37 22zM229 568 v105h94v-105h-94zM65 568v105h94v-105h-94z" />
<glyph unicode="&#xf7;" horiz-adv-x="405" d="M267 459q0 -26 -18.5 -45.5t-44.5 -19.5t-45 19.5t-19 45.5t19 45t45 19t44.5 -19t18.5 -45zM267 127q0 -26 -18.5 -45t-44.5 -19t-45 19t-19 45t19 45.5t45 19.5t44.5 -19.5t18.5 -45.5zM390 335v-85h-376v85h376z" />
<glyph unicode="&#xf8;" horiz-adv-x="382" d="M194 502q52 0 87 -19l21 44l31 -16l-24 -50q17 -18 25 -41.5t10 -50.5q4 -29 4.5 -64t0.5 -64v-26q0 -23 -1.5 -46t-3.5 -45q-5 -41 -21.5 -67t-39 -40t-48.5 -19t-51 -5q-56 0 -91 24l-18 -37l-28 16l21 45q-11 14 -18 31.5t-10 35.5q-2 13 -3.5 29.5t-2.5 34.5t-1 36.5 v34.5q0 24 1 49.5t3 48.5t5 43t8 32q14 38 50 62t94 24zM147 127q5 -14 15.5 -23.5t30.5 -9.5q16 0 27.5 9.5t15.5 23.5q1 4 2.5 15.5t2.5 28t1.5 35.5t0.5 38v40.5t-2 37.5zM193 402q-24 0 -36 -18q-7 -12 -10.5 -26t-5 -32t-1.5 -40.5v-51.5v-8v-37q23 48 45.5 94.5 t45.5 94.5q-1 1 -1 2q-11 22 -37 22z" />
<glyph unicode="&#xf9;" horiz-adv-x="391" d="M243 44q-1 0 -1.5 0.5t-2.5 0.5q-15 -22 -40 -36t-53 -14q-31 0 -51.5 9.5t-33 26.5t-17.5 40.5t-5 50.5v373h109v-343q0 -29 11.5 -41.5t33.5 -12.5q20 0 35.5 15.5t15.5 42.5v339h107v-495h-108v44zM190 543l-116 168l89 40l84 -177z" />
<glyph unicode="&#xfa;" horiz-adv-x="391" d="M243 44q-1 0 -1.5 0.5t-2.5 0.5q-15 -22 -40 -36t-53 -14q-31 0 -51.5 9.5t-33 26.5t-17.5 40.5t-5 50.5v373h109v-343q0 -29 11.5 -41.5t33.5 -12.5q20 0 35.5 15.5t15.5 42.5v339h107v-495h-108v44zM167 574l85 177l89 -40l-116 -168z" />
<glyph unicode="&#xfb;" horiz-adv-x="391" d="M243 44q-1 0 -1.5 0.5t-2.5 0.5q-15 -22 -40 -36t-53 -14q-31 0 -51.5 9.5t-33 26.5t-17.5 40.5t-5 50.5v373h109v-343q0 -29 11.5 -41.5t33.5 -12.5q20 0 35.5 15.5t15.5 42.5v339h107v-495h-108v44zM194 627l-118 -94l-43 38l132 149h63l126 -148l-43 -39z" />
<glyph unicode="&#xfc;" horiz-adv-x="391" d="M243 44q-1 0 -1.5 0.5t-2.5 0.5q-15 -22 -40 -36t-53 -14q-31 0 -51.5 9.5t-33 26.5t-17.5 40.5t-5 50.5v373h109v-343q0 -29 11.5 -41.5t33.5 -12.5q20 0 35.5 15.5t15.5 42.5v339h107v-495h-108v44zM229 568v105h94v-105h-94zM65 568v105h94v-105h-94z" />
<glyph unicode="&#xfd;" horiz-adv-x="359" d="M181 167l27 144l36 183h111l-143 -570q-14 -55 -44.5 -86t-88.5 -31h-38v95h22q22 0 36 14.5t24 56.5l7 31l-126 490h115l31 -183l27 -144h4zM135 574l85 177l89 -40l-116 -168z" />
<glyph unicode="&#xfe;" horiz-adv-x="383" d="M228 501q20 0 39.5 -5.5t35.5 -19.5t27.5 -39t15.5 -64q2 -22 3 -55t1 -67q0 -24 -0.5 -48.5t-2.5 -47.5t-5 -43t-7 -35q-5 -16 -12.5 -31t-20.5 -26.5t-31.5 -18.5t-45.5 -7q-21 0 -42.5 7.5t-37.5 26.5h-3v-219h-108v886h106v-237l3 -2q14 25 35.5 35t49.5 10zM189 396 q-24 0 -36 -16.5t-12 -42.5v-157q0 -17 0.5 -31.5t4.5 -22.5q11 -28 43 -28q27 0 38 23q7 16 9.5 50t2.5 82q0 45 -2 76t-9 44q-8 23 -39 23z" />
<glyph unicode="&#xff;" horiz-adv-x="359" d="M181 167l27 144l36 183h111l-143 -570q-14 -55 -44.5 -86t-88.5 -31h-38v95h22q22 0 36 14.5t24 56.5l7 31l-126 490h115l31 -183l27 -144h4zM211 568v105h94v-105h-94zM47 568v105h94v-105h-94z" />
<glyph unicode="&#x100;" horiz-adv-x="422" d="M302 0l-27 145h-128q-7 -36 -13.5 -72.5t-12.5 -72.5h-110q35 175 70 348t70 348h120l141 -696h-110zM88 748v89h246v-89h-246zM208 535q-10 -72 -21 -143.5t-24 -145.5h95l-45 289h-5z" />
<glyph unicode="&#x101;" horiz-adv-x="385" d="M235 39q-16 -23 -40 -34t-51 -11q-33 0 -55.5 12t-36 32.5t-19 47.5t-5.5 58q0 29 7.5 57t24.5 49.5t45 35t70 13.5h63v54q0 22 -10.5 34.5t-39.5 12.5q-15 0 -30 -10t-20 -36l-98 30q13 55 52.5 86t102.5 31q75 0 113.5 -34t38.5 -114v-353h-109v38zM238 218h-43 q-23 0 -42 -15t-19 -53q0 -26 13.5 -40t36.5 -14q26 0 40 16.5t14 44.5v61zM78 577v89h246v-89h-246z" />
<glyph unicode="&#x102;" horiz-adv-x="422" d="M302 0l-27 145h-128q-7 -36 -13.5 -72.5t-12.5 -72.5h-110q35 175 70 348t70 348h120l141 -696h-110zM151 884q1 -11 6 -22.5t13.5 -21.5t19.5 -16.5t25 -6.5q15 0 27 6.5t19.5 16.5t12 21.5t4.5 22.5h79q-2 -21 -11 -45.5t-26 -45t-43 -34t-62 -13.5q-39 0 -66 13.5 t-44 34t-24.5 45t-8.5 45.5h79zM208 535q-10 -72 -21 -143.5t-24 -145.5h95l-45 289h-5z" />
<glyph unicode="&#x103;" horiz-adv-x="385" d="M235 39q-16 -23 -40 -34t-51 -11q-33 0 -55.5 12t-36 32.5t-19 47.5t-5.5 58q0 29 7.5 57t24.5 49.5t45 35t70 13.5h63v54q0 22 -10.5 34.5t-39.5 12.5q-15 0 -30 -10t-20 -36l-98 30q13 55 52.5 86t102.5 31q75 0 113.5 -34t38.5 -114v-353h-109v38zM238 218h-43 q-23 0 -42 -15t-19 -53q0 -26 13.5 -40t36.5 -14q26 0 40 16.5t14 44.5v61zM131 687q1 -11 6.5 -22.5t14 -21.5t19.5 -16.5t25 -6.5q15 0 26.5 6.5t19.5 16.5t12.5 21.5t4.5 22.5h79q-2 -21 -11 -45.5t-26.5 -45t-43 -34t-61.5 -13.5q-39 0 -66 13.5t-44 34t-25 45t-9 45.5 h79z" />
<glyph unicode="&#x104;" horiz-adv-x="422" d="M264 -103q0 44 37 105l-26 143h-128q-7 -36 -13.5 -72.5t-12.5 -72.5h-110q35 175 70 348t70 348h120l141 -696h-50q-18 -29 -24 -52t-6 -38q0 -23 12 -33t31 -10q10 0 22.5 3t28.5 12l20 -53q-20 -13 -43.5 -19.5t-45.5 -6.5q-40 0 -66.5 24.5t-26.5 69.5zM208 535 q-10 -72 -21 -143.5t-24 -145.5h95l-45 289h-5z" />
<glyph unicode="&#x105;" horiz-adv-x="385" d="M200 -103q0 46 38 106v35l-3 1q-16 -23 -40 -34t-51 -11q-33 0 -55.5 12t-36 32.5t-19 47.5t-5.5 58q0 29 7.5 57t24.5 49.5t45 35t70 13.5h63v54q0 22 -10.5 34.5t-39.5 12.5q-15 0 -30 -10t-20 -36l-98 30q13 55 52.5 86t102.5 31q75 0 113.5 -34t38.5 -114v-353h-49 q-18 -29 -24 -52t-6 -38q0 -23 12 -33t31 -10q10 0 22.5 3t28.5 12l20 -53q-20 -13 -43.5 -19.5t-45.5 -6.5q-40 0 -66.5 24.5t-26.5 69.5zM238 218h-43q-23 0 -42 -15t-19 -53q0 -26 13.5 -40t36.5 -14q26 0 40 16.5t14 44.5v61z" />
<glyph unicode="&#x106;" horiz-adv-x="406" d="M215 702q43 0 74 -12t51.5 -33.5t30 -51t9.5 -64.5l-105 -27q0 38 -14.5 62t-46.5 24q-19 0 -31 -8t-18.5 -20.5t-9 -27t-2.5 -27.5v-353q0 -10 2 -22t8.5 -22.5t18 -17.5t29.5 -7q60 0 61 86q27 -5 54 -8.5t54 -7.5q-2 -79 -43.5 -125t-122.5 -46q-86 0 -127 43.5 t-41 127.5v347q0 39 8.5 73.5t28.5 60.5t52.5 41t79.5 15zM141 770l154 121l64 -75l-179 -98z" />
<glyph unicode="&#x107;" horiz-adv-x="358" d="M187 -6q-34 0 -59 8t-42.5 22t-28 31.5t-15.5 37.5q-3 12 -5 30t-2.5 38.5t-1 42t-0.5 39.5q0 24 1 49.5t3 48.5t5 43t8 32q15 38 49.5 62t92.5 24q75 0 110.5 -41t35.5 -113q-26 -3 -53.5 -6t-53.5 -7q0 35 -11.5 51t-30.5 16q-30 0 -41 -30q-3 -10 -5.5 -40t-2.5 -70 v-36q0 -29 0.5 -56.5t5.5 -41.5q5 -16 15 -25.5t28 -9.5q42 0 42 64q27 -5 54 -8t54 -8q-1 -70 -39.5 -108.5t-112.5 -38.5zM132 574l85 177l89 -40l-116 -168z" />
<glyph unicode="&#x108;" horiz-adv-x="406" d="M215 702q43 0 74 -12t51.5 -33.5t30 -51t9.5 -64.5l-105 -27q0 38 -14.5 62t-46.5 24q-19 0 -31 -8t-18.5 -20.5t-9 -27t-2.5 -27.5v-353q0 -10 2 -22t8.5 -22.5t18 -17.5t29.5 -7q60 0 61 86q27 -5 54 -8.5t54 -7.5q-2 -79 -43.5 -125t-122.5 -46q-86 0 -127 43.5 t-41 127.5v347q0 39 8.5 73.5t28.5 60.5t52.5 41t79.5 15zM215 801l-118 -77l-43 38l132 132h63l126 -131l-43 -39z" />
<glyph unicode="&#x109;" horiz-adv-x="358" d="M187 -6q-34 0 -59 8t-42.5 22t-28 31.5t-15.5 37.5q-3 12 -5 30t-2.5 38.5t-1 42t-0.5 39.5q0 24 1 49.5t3 48.5t5 43t8 32q15 38 49.5 62t92.5 24q75 0 110.5 -41t35.5 -113q-26 -3 -53.5 -6t-53.5 -7q0 35 -11.5 51t-30.5 16q-30 0 -41 -30q-3 -10 -5.5 -40t-2.5 -70 v-36q0 -29 0.5 -56.5t5.5 -41.5q5 -16 15 -25.5t28 -9.5q42 0 42 64q27 -5 54 -8t54 -8q-1 -70 -39.5 -108.5t-112.5 -38.5zM191 627l-118 -94l-43 38l132 149h63l126 -148l-43 -39z" />
<glyph unicode="&#x10a;" horiz-adv-x="406" d="M215 702q43 0 74 -12t51.5 -33.5t30 -51t9.5 -64.5l-105 -27q0 38 -14.5 62t-46.5 24q-19 0 -31 -8t-18.5 -20.5t-9 -27t-2.5 -27.5v-353q0 -10 2 -22t8.5 -22.5t18 -17.5t29.5 -7q60 0 61 86q27 -5 54 -8.5t54 -7.5q-2 -79 -43.5 -125t-122.5 -46q-86 0 -127 43.5 t-41 127.5v347q0 39 8.5 73.5t28.5 60.5t52.5 41t79.5 15zM167 743v105h93v-105h-93z" />
<glyph unicode="&#x10b;" horiz-adv-x="358" d="M187 -6q-34 0 -59 8t-42.5 22t-28 31.5t-15.5 37.5q-3 12 -5 30t-2.5 38.5t-1 42t-0.5 39.5q0 24 1 49.5t3 48.5t5 43t8 32q15 38 49.5 62t92.5 24q75 0 110.5 -41t35.5 -113q-26 -3 -53.5 -6t-53.5 -7q0 35 -11.5 51t-30.5 16q-30 0 -41 -30q-3 -10 -5.5 -40t-2.5 -70 v-36q0 -29 0.5 -56.5t5.5 -41.5q5 -16 15 -25.5t28 -9.5q42 0 42 64q27 -5 54 -8t54 -8q-1 -70 -39.5 -108.5t-112.5 -38.5zM146 574v105h93v-105h-93z" />
<glyph unicode="&#x10c;" horiz-adv-x="406" d="M215 702q43 0 74 -12t51.5 -33.5t30 -51t9.5 -64.5l-105 -27q0 38 -14.5 62t-46.5 24q-19 0 -31 -8t-18.5 -20.5t-9 -27t-2.5 -27.5v-353q0 -10 2 -22t8.5 -22.5t18 -17.5t29.5 -7q60 0 61 86q27 -5 54 -8.5t54 -7.5q-2 -79 -43.5 -125t-122.5 -46q-86 0 -127 43.5 t-41 127.5v347q0 39 8.5 73.5t28.5 60.5t52.5 41t79.5 15zM332 894l43 -39l-126 -129h-63l-132 131l43 37l118 -77z" />
<glyph unicode="&#x10d;" horiz-adv-x="358" d="M187 -6q-34 0 -59 8t-42.5 22t-28 31.5t-15.5 37.5q-3 12 -5 30t-2.5 38.5t-1 42t-0.5 39.5q0 24 1 49.5t3 48.5t5 43t8 32q15 38 49.5 62t92.5 24q75 0 110.5 -41t35.5 -113q-26 -3 -53.5 -6t-53.5 -7q0 35 -11.5 51t-30.5 16q-30 0 -41 -30q-3 -10 -5.5 -40t-2.5 -70 v-36q0 -29 0.5 -56.5t5.5 -41.5q5 -16 15 -25.5t28 -9.5q42 0 42 64q27 -5 54 -8t54 -8q-1 -70 -39.5 -108.5t-112.5 -38.5zM309 721l43 -40l-126 -147h-63l-132 149l43 38l118 -94z" />
<glyph unicode="&#x10e;" horiz-adv-x="435" d="M276 513q0 38 -14.5 59.5t-55.5 21.5h-46v-492h46q40 0 55 21t15 61v329zM225 696q62 0 98 -21.5t50 -72.5q11 -37 11.5 -101.5t0.5 -151.5q0 -86 -1 -148t-13 -98q-19 -59 -60.5 -81t-94.5 -22h-164v696h173zM320 894l43 -39l-126 -129h-63l-132 131l43 37l118 -77z" />
<glyph unicode="&#x10f;" horiz-adv-x="498" d="M448 523h-56l27 98h-23v105h102v-103zM153 -6q-20 0 -39.5 5.5t-35.5 19.5t-27.5 38.5t-15.5 63.5q-2 22 -2.5 55.5t-0.5 67.5q0 45 2.5 89.5t9.5 73.5q4 18 11.5 35t20.5 30t32.5 21t48.5 8q21 0 42.5 -8.5t36.5 -26.5h4v260h108v-726h-107v37q-1 0 -1.5 0.5t-1.5 0.5 q-14 -24 -35 -34t-50 -10zM192 98q25 0 36.5 17t11.5 42q1 16 1 34v36v26q-1 25 -0.5 47.5t-0.5 40.5q0 24 -11 40t-37 16t-37 -24q-8 -16 -10 -49.5t-2 -81.5q0 -46 2 -76.5t8 -43.5q5 -11 14 -17.5t25 -6.5z" />
<glyph unicode="&#x110;" horiz-adv-x="435" d="M225 696q62 0 98 -21.5t50 -72.5q11 -37 11.5 -101.5t0.5 -151.5q0 -86 -1 -148t-13 -98q-19 -59 -60.5 -81t-94.5 -22h-164v315h-47v75h47v306h173zM276 513q0 38 -14.5 59.5t-55.5 21.5h-46v-204h54v-75h-54v-213h46q40 0 55 21t15 61v329z" />
<glyph unicode="&#x111;" horiz-adv-x="385" d="M159 644h77v82h108v-82h42v-73h-42v-571h-107v37q-1 0 -1.5 0.5t-1.5 0.5q-14 -24 -35 -34t-50 -10q-20 0 -39.5 5.5t-35.5 19.5t-27.5 38.5t-15.5 63.5q-2 22 -2.5 55.5t-0.5 67.5q0 45 2.5 89.5t9.5 73.5q4 18 11.5 35t20.5 30t32.5 21t48.5 8q21 0 42.5 -8.5 t36.5 -26.5h4v105h-77v73zM188 98q25 0 36.5 17t11.5 42q1 16 1 34v36v26q-1 25 -0.5 47.5t-0.5 40.5q0 24 -11 40t-37 16t-37 -24q-8 -16 -10 -49.5t-2 -81.5q0 -46 2 -76.5t8 -43.5q5 -11 14 -17.5t25 -6.5z" />
<glyph unicode="&#x112;" horiz-adv-x="380" d="M52 0v696h309v-102h-201v-189h175v-103h-175v-200h201v-102h-309zM81 748v89h246v-89h-246z" />
<glyph unicode="&#x113;" horiz-adv-x="376" d="M140 222q0 -28 0.5 -54t4.5 -40q10 -34 44 -34q40 0 45 57l108 -17q-4 -66 -43 -103t-111 -37q-35 0 -60 8.5t-42.5 22.5t-27.5 32t-15 36q-3 12 -5 30t-3 38.5t-1.5 42t-0.5 40.5q0 48 3.5 96t13.5 74q14 40 49 64t93 24q74 0 112 -41t38 -116v-123h-202zM149 371 q-4 -9 -5.5 -28.5t-2.5 -46.5h92v42q0 24 -8.5 43t-35.5 19q-29 0 -40 -29zM74 577v89h246v-89h-246z" />
<glyph unicode="&#x114;" horiz-adv-x="380" d="M52 0v696h309v-102h-201v-189h175v-103h-175v-200h201v-102h-309zM145 882q1 -11 6 -22.5t13.5 -21.5t19.5 -16.5t25 -6.5q15 0 27 6.5t19.5 16.5t12 21.5t4.5 22.5h79q-2 -21 -11 -45.5t-26 -45t-43 -34t-62 -13.5q-39 0 -66 13.5t-44 34t-24.5 45t-8.5 45.5h79z" />
<glyph unicode="&#x115;" horiz-adv-x="376" d="M140 222q0 -28 0.5 -54t4.5 -40q10 -34 44 -34q40 0 45 57l108 -17q-4 -66 -43 -103t-111 -37q-35 0 -60 8.5t-42.5 22.5t-27.5 32t-15 36q-3 12 -5 30t-3 38.5t-1.5 42t-0.5 40.5q0 48 3.5 96t13.5 74q14 40 49 64t93 24q74 0 112 -41t38 -116v-123h-202zM149 371 q-4 -9 -5.5 -28.5t-2.5 -46.5h92v42q0 24 -8.5 43t-35.5 19q-29 0 -40 -29zM128 687q1 -11 6.5 -22.5t14 -21.5t19.5 -16.5t25 -6.5q15 0 26.5 6.5t19.5 16.5t12.5 21.5t4.5 22.5h79q-2 -21 -11 -45.5t-26.5 -45t-43 -34t-61.5 -13.5q-39 0 -66 13.5t-44 34t-25 45t-9 45.5 h79z" />
<glyph unicode="&#x116;" horiz-adv-x="380" d="M52 0v696h309v-102h-201v-189h175v-103h-175v-200h201v-102h-309zM164 749v105h93v-105h-93z" />
<glyph unicode="&#x117;" horiz-adv-x="376" d="M140 222q0 -28 0.5 -54t4.5 -40q10 -34 44 -34q40 0 45 57l108 -17q-4 -66 -43 -103t-111 -37q-35 0 -60 8.5t-42.5 22.5t-27.5 32t-15 36q-3 12 -5 30t-3 38.5t-1.5 42t-0.5 40.5q0 48 3.5 96t13.5 74q14 40 49 64t93 24q74 0 112 -41t38 -116v-123h-202zM149 371 q-4 -9 -5.5 -28.5t-2.5 -46.5h92v42q0 24 -8.5 43t-35.5 19q-29 0 -40 -29zM146 574v105h93v-105h-93z" />
<glyph unicode="&#x118;" horiz-adv-x="380" d="M261 -103q0 21 8.5 47t27.5 56h-245v696h309v-102h-201v-189h175v-103h-175v-200h201v-102h-2q-18 -29 -24 -52t-6 -38q0 -23 12 -33t31 -10q10 0 22.5 3t28.5 12l20 -53q-20 -13 -43.5 -19.5t-45.5 -6.5q-40 0 -66.5 24.5t-26.5 69.5z" />
<glyph unicode="&#x119;" horiz-adv-x="376" d="M197 -76q0 31 19 72q-7 -1 -13.5 -1.5t-14.5 -0.5q-35 0 -60 8.5t-42.5 22.5t-27.5 32t-15 36q-3 12 -5 30t-3 38.5t-1.5 42t-0.5 40.5q0 48 3.5 96t13.5 74q14 40 49 64t93 24q74 0 112 -41t38 -116v-123h-202q0 -28 0.5 -54t4.5 -40q10 -34 44 -34q40 0 45 57l108 -17 q-5 -71 -46 -106q-18 -30 -24.5 -53t-6.5 -38q0 -23 12 -33t31 -10q10 0 22.5 3t28.5 12l20 -53q-20 -13 -43.5 -19.5t-45.5 -6.5q-40 0 -66.5 24.5t-26.5 69.5zM149 371q-4 -9 -5.5 -28.5t-2.5 -46.5h92v42q0 24 -8.5 43t-35.5 19q-29 0 -40 -29z" />
<glyph unicode="&#x11a;" horiz-adv-x="380" d="M52 0v696h309v-102h-201v-189h175v-103h-175v-200h201v-102h-309zM326 894l43 -39l-126 -129h-63l-132 131l43 37l118 -77z" />
<glyph unicode="&#x11b;" horiz-adv-x="376" d="M140 222q0 -28 0.5 -54t4.5 -40q10 -34 44 -34q40 0 45 57l108 -17q-4 -66 -43 -103t-111 -37q-35 0 -60 8.5t-42.5 22.5t-27.5 32t-15 36q-3 12 -5 30t-3 38.5t-1.5 42t-0.5 40.5q0 48 3.5 96t13.5 74q14 40 49 64t93 24q74 0 112 -41t38 -116v-123h-202zM149 371 q-4 -9 -5.5 -28.5t-2.5 -46.5h92v42q0 24 -8.5 43t-35.5 19q-29 0 -40 -29zM309 721l43 -40l-126 -147h-63l-132 149l43 38l118 -94z" />
<glyph unicode="&#x11c;" horiz-adv-x="427" d="M219 -6q-86 0 -127 43.5t-41 127.5v347q0 39 9 73.5t29.5 60.5t52.5 41t78 15q85 0 125 -44t40 -115v-8l-105 -21q0 38 -14.5 62t-46.5 24q-19 0 -31 -8t-18.5 -20.5t-9 -27t-2.5 -27.5v-353q0 -11 3 -21q3 -18 14.5 -33t40.5 -15t46.5 15t17.5 41v137h-64v94h171v-222 q0 -82 -46.5 -124t-121.5 -42zM217 801l-118 -77l-43 38l132 132h63l126 -131l-43 -39z" />
<glyph unicode="&#x11d;" horiz-adv-x="392" d="M239 42q-14 -23 -41 -33.5t-46 -10.5q-29 0 -48.5 7.5t-32 20.5t-19.5 30.5t-11 38.5q-5 20 -6.5 49.5t-2.5 60.5v43q0 35 1.5 67t3.5 58q8 69 41 98t78 29q29 0 49.5 -10t34.5 -34q1 0 1.5 0.5t1.5 0.5v37h107v-522q0 -77 -35.5 -123.5t-120.5 -46.5q-70 0 -109 35 t-42 101q26 4 53 8t53 9q2 -53 47 -53q24 0 35 17t11 40v83h-3zM194 396q-16 1 -25 -6t-14 -18q-7 -13 -9 -43.5t-2 -76.5q0 -45 1.5 -77t8.5 -49q11 -25 40 -25q26 0 38 20t11 44v100v37t-1 35q0 25 -11.5 42t-36.5 17zM196 627l-118 -94l-43 38l132 149h63l126 -148 l-43 -39z" />
<glyph unicode="&#x11e;" horiz-adv-x="427" d="M219 -6q-86 0 -127 43.5t-41 127.5v347q0 39 9 73.5t29.5 60.5t52.5 41t78 15q85 0 125 -44t40 -115v-8l-105 -21q0 38 -14.5 62t-46.5 24q-19 0 -31 -8t-18.5 -20.5t-9 -27t-2.5 -27.5v-353q0 -11 3 -21q3 -18 14.5 -33t40.5 -15t46.5 15t17.5 41v137h-64v94h171v-222 q0 -82 -46.5 -124t-121.5 -42zM157 884q1 -11 6 -22.5t13.5 -21.5t19.5 -16.5t25 -6.5q15 0 27 6.5t19.5 16.5t12 21.5t4.5 22.5h79q-2 -21 -11 -45.5t-26 -45t-43 -34t-62 -13.5q-39 0 -66 13.5t-44 34t-24.5 45t-8.5 45.5h79z" />
<glyph unicode="&#x11f;" horiz-adv-x="392" d="M239 42q-14 -23 -41 -33.5t-46 -10.5q-29 0 -48.5 7.5t-32 20.5t-19.5 30.5t-11 38.5q-5 20 -6.5 49.5t-2.5 60.5v43q0 35 1.5 67t3.5 58q8 69 41 98t78 29q29 0 49.5 -10t34.5 -34q1 0 1.5 0.5t1.5 0.5v37h107v-522q0 -77 -35.5 -123.5t-120.5 -46.5q-70 0 -109 35 t-42 101q26 4 53 8t53 9q2 -53 47 -53q24 0 35 17t11 40v83h-3zM194 396q-16 1 -25 -6t-14 -18q-7 -13 -9 -43.5t-2 -76.5q0 -45 1.5 -77t8.5 -49q11 -25 40 -25q26 0 38 20t11 44v100v37t-1 35q0 25 -11.5 42t-36.5 17zM139 687q1 -11 6.5 -22.5t14 -21.5t19.5 -16.5 t25 -6.5q15 0 26.5 6.5t19.5 16.5t12.5 21.5t4.5 22.5h79q-2 -21 -11 -45.5t-26.5 -45t-43 -34t-61.5 -13.5q-39 0 -66 13.5t-44 34t-25 45t-9 45.5h79z" />
<glyph unicode="&#x120;" horiz-adv-x="427" d="M219 -6q-86 0 -127 43.5t-41 127.5v347q0 39 9 73.5t29.5 60.5t52.5 41t78 15q85 0 125 -44t40 -115v-8l-105 -21q0 38 -14.5 62t-46.5 24q-19 0 -31 -8t-18.5 -20.5t-9 -27t-2.5 -27.5v-353q0 -11 3 -21q3 -18 14.5 -33t40.5 -15t46.5 15t17.5 41v137h-64v94h171v-222 q0 -82 -46.5 -124t-121.5 -42zM170 749v105h93v-105h-93z" />
<glyph unicode="&#x121;" horiz-adv-x="392" d="M239 42q-14 -23 -41 -33.5t-46 -10.5q-29 0 -48.5 7.5t-32 20.5t-19.5 30.5t-11 38.5q-5 20 -6.5 49.5t-2.5 60.5v43q0 35 1.5 67t3.5 58q8 69 41 98t78 29q29 0 49.5 -10t34.5 -34q1 0 1.5 0.5t1.5 0.5v37h107v-522q0 -77 -35.5 -123.5t-120.5 -46.5q-70 0 -109 35 t-42 101q26 4 53 8t53 9q2 -53 47 -53q24 0 35 17t11 40v83h-3zM194 396q-16 1 -25 -6t-14 -18q-7 -13 -9 -43.5t-2 -76.5q0 -45 1.5 -77t8.5 -49q11 -25 40 -25q26 0 38 20t11 44v100v37t-1 35q0 25 -11.5 42t-36.5 17zM160 574v105h93v-105h-93z" />
<glyph unicode="&#x122;" horiz-adv-x="427" d="M219 -6q-86 0 -127 43.5t-41 127.5v347q0 39 9 73.5t29.5 60.5t52.5 41t78 15q85 0 125 -44t40 -115v-8l-105 -21q0 38 -14.5 62t-46.5 24q-19 0 -31 -8t-18.5 -20.5t-9 -27t-2.5 -27.5v-353q0 -11 3 -21q3 -18 14.5 -33t40.5 -15t46.5 15t17.5 41v137h-64v94h171v-222 q0 -82 -46.5 -124t-121.5 -42zM220 -264h-56l27 98h-23v105h102v-103z" />
<glyph unicode="&#x123;" horiz-adv-x="392" d="M239 42q-14 -23 -41 -33.5t-46 -10.5q-29 0 -48.5 7.5t-32 20.5t-19.5 30.5t-11 38.5q-5 20 -6.5 49.5t-2.5 60.5v43q0 35 1.5 67t3.5 58q8 69 41 98t78 29q29 0 49.5 -10t34.5 -34q1 0 1.5 0.5t1.5 0.5v37h107v-522q0 -77 -35.5 -123.5t-120.5 -46.5q-70 0 -109 35 t-42 101q26 4 53 8t53 9q2 -53 47 -53q24 0 35 17t11 40v83h-3zM194 396q-16 1 -25 -6t-14 -18q-7 -13 -9 -43.5t-2 -76.5q0 -45 1.5 -77t8.5 -49q11 -25 40 -25q26 0 38 20t11 44v100v37t-1 35q0 25 -11.5 42t-36.5 17zM209 756h55q-6 -25 -12.5 -49t-13.5 -49h23v-104 h-102v102z" />
<glyph unicode="&#x124;" horiz-adv-x="443" d="M284 0v304h-125v-304h-107v696h107v-291h125v291h107v-696h-107zM220 801l-118 -77l-43 38l132 132h63l126 -131l-43 -39z" />
<glyph unicode="&#x125;" horiz-adv-x="391" d="M148 450h4q15 21 41 35.5t54 14.5q30 0 50.5 -10t32.5 -27.5t17 -41.5t5 -51v-370h-109v342q0 53 -47 53q-22 0 -35.5 -14.5t-13.5 -41.5v-339h-107v726h108v-276zM93 801l-118 -77l-43 38l132 132h63l126 -131l-43 -39z" />
<glyph unicode="&#x126;" horiz-adv-x="443" d="M284 0v304h-125v-304h-107v527h-45v68h45v101h107v-101h125v101h107v-101h45v-68h-45v-527h-107zM284 405v122h-125v-122h125z" />
<glyph unicode="&#x127;" horiz-adv-x="391" d="M148 635h128v-66h-128v-126h4q15 21 41 35.5t54 14.5q30 0 50.5 -10t32.5 -27.5t17 -41.5t5 -51v-363h-109v335q0 53 -47 53q-22 0 -35.5 -14.5t-13.5 -41.5v-332h-107v569h-39v66h39v91h108v-91z" />
<glyph unicode="&#x128;" horiz-adv-x="217" d="M54 0v696h109v-696h-109zM218 856q13 -8 25.5 -15.5t26.5 -15.5q-22 -46 -47 -66.5t-51 -20.5q-17 0 -31.5 5.5t-28 12.5t-26 12.5t-24.5 5.5t-26 -9t-29 -29l-53 33q18 40 46 62.5t56 22.5q15 0 29 -5.5t27.5 -12.5t26 -12.5t24.5 -5.5q14 0 26 8t29 30z" />
<glyph unicode="&#x129;" horiz-adv-x="277" d="M85 0v494h109v-494h-109zM245 686q13 -8 25.5 -15.5t26.5 -15.5q-22 -46 -47 -66.5t-51 -20.5q-17 0 -31.5 5.5t-28 12.5t-26 12.5t-24.5 5.5t-26 -9t-29 -29l-53 33q18 40 46 62.5t56 22.5q15 0 29 -5.5t27.5 -12.5t26 -12.5t24.5 -5.5q14 0 26 8t29 30z" />
<glyph unicode="&#x12a;" horiz-adv-x="217" d="M54 0v696h109v-696h-109zM-15 748v89h246v-89h-246z" />
<glyph unicode="&#x12b;" horiz-adv-x="217" d="M54 0v494h109v-494h-109zM-13 577v89h246v-89h-246z" />
<glyph unicode="&#x12c;" horiz-adv-x="217" d="M54 0v696h109v-696h-109zM48 884q1 -11 6 -22.5t13.5 -21.5t19.5 -16.5t25 -6.5q15 0 27 6.5t19.5 16.5t12 21.5t4.5 22.5h79q-2 -21 -11 -45.5t-26 -45t-43 -34t-62 -13.5q-39 0 -66 13.5t-44 34t-24.5 45t-8.5 45.5h79z" />
<glyph unicode="&#x12d;" horiz-adv-x="263" d="M79 0v494h109v-494h-109zM68 692q1 -11 6.5 -22.5t14 -21.5t19.5 -16.5t25 -6.5q15 0 26.5 6.5t19.5 16.5t12.5 21.5t4.5 22.5h79q-2 -21 -11 -45.5t-26.5 -45t-43 -34t-61.5 -13.5q-39 0 -66 13.5t-44 34t-25 45t-9 45.5h79z" />
<glyph unicode="&#x12e;" horiz-adv-x="217" d="M41 -101q0 20 8.5 46t26.5 55h-22v696h109v-696h-25q-17 -29 -23 -51.5t-6 -36.5q0 -23 12 -33t31 -10q10 0 22.5 3t28.5 12l20 -53q-20 -13 -43.5 -19.5t-45.5 -6.5q-40 0 -66.5 24.5t-26.5 69.5z" />
<glyph unicode="&#x12f;" horiz-adv-x="204" d="M31 -101q0 20 8.5 46t26.5 55h-19v494h109v-494h-28q-17 -29 -23 -51.5t-6 -36.5q0 -23 12 -33t31 -10q10 0 22.5 3t28.5 12l20 -53q-20 -13 -43.5 -19.5t-45.5 -6.5q-40 0 -66.5 24.5t-26.5 69.5zM47 591v105h109v-105h-109z" />
<glyph unicode="&#x130;" horiz-adv-x="217" d="M54 0v696h109v-696h-109zM63 749v105h93v-105h-93z" />
<glyph unicode="&#x131;" horiz-adv-x="204" d="M47 0v494h109v-494h-109z" />
<glyph unicode="&#x132;" horiz-adv-x="590" d="M54 0v696h109v-696h-109zM532 696v-523q0 -86 -43 -132.5t-126 -46.5q-45 0 -82.5 19.5t-62.5 59.5l80 62q11 -17 29.5 -28.5t34.5 -11.5q33 0 47.5 22.5t14.5 51.5v527h108z" />
<glyph unicode="&#x133;" horiz-adv-x="356" d="M47 591v105h109v-105h-109zM47 0v494h109v-494h-109zM202 591v105h109v-105h-109zM311 -52q0 -69 -36.5 -107t-115.5 -38h-20v102h16q29 0 38 16t9 54v520h109v-547z" />
<glyph unicode="&#x134;" horiz-adv-x="352" d="M294 697v-523q0 -86 -43 -132.5t-126 -46.5q-45 0 -82.5 19.5t-62.5 59.5l80 62q11 -17 29.5 -28.5t34.5 -11.5q33 0 47.5 22.5t14.5 51.5v527h108zM239 803l-118 -77l-43 38l132 132h63l126 -131l-43 -39z" />
<glyph unicode="&#x135;" horiz-adv-x="281" d="M194 -57q0 -69 -37.5 -107t-116.5 -38h-17v102h13q30 0 40 19.5t10 57.5v518h108v-552zM140 627l-117 -94l-43 38l132 149h63l126 -148l-43 -39z" />
<glyph unicode="&#x136;" horiz-adv-x="430" d="M317 0l-112 300q-11 -24 -22.5 -48.5t-23.5 -48.5v-203h-107v696h107v-281h5l131 281h112q-35 -71 -70 -141t-70 -141l160 -414h-110zM236 -244h-56l27 98h-23v105h102v-103z" />
<glyph unicode="&#x137;" horiz-adv-x="400" d="M153 317l104 177h126l-124 -192l136 -302h-124q-22 51 -43 101.5t-43 101.5q-9 -17 -18 -33t-19 -33v-137h-107v725h107v-408h5zM216 -264h-56l27 98h-23v105h102v-103z" />
<glyph unicode="&#x138;" horiz-adv-x="401" d="M156 317l104 177h126l-124 -192l133 -302h-124q-21 51 -41.5 101.5t-41.5 101.5q-9 -17 -18 -33t-19 -33v-137h-107v494h107v-177h5z" />
<glyph unicode="&#x139;" horiz-adv-x="359" d="M52 0v696h108v-594h193v-102h-301zM62 770l154 121l64 -75l-179 -98z" />
<glyph unicode="&#x13a;" horiz-adv-x="222" d="M183 -6q-36 0 -62.5 6.5t-44 22.5t-26 42.5t-8.5 65.5v595h109v-579q0 -29 8.5 -41.5t31.5 -12.5h12v-99h-20zM49 790l154 121l64 -75l-179 -98z" />
<glyph unicode="&#x13b;" horiz-adv-x="359" d="M52 0v696h108v-594h193v-102h-301zM200 -264h-56l27 98h-23v105h102v-103z" />
<glyph unicode="&#x13c;" horiz-adv-x="222" d="M183 -6q-36 0 -62.5 6.5t-44 22.5t-26 42.5t-8.5 65.5v595h109v-579q0 -29 8.5 -41.5t31.5 -12.5h12v-99h-20zM121 -264h-56l27 98h-23v105h102v-103z" />
<glyph unicode="&#x13d;" horiz-adv-x="359" d="M52 0v696h108v-594h193v-102h-301zM289 493h-56l27 98h-23v105h102v-103z" />
<glyph unicode="&#x13e;" horiz-adv-x="298" d="M248 522h-56l27 98h-23v105h102v-103zM183 -6q-36 0 -62.5 6.5t-44 22.5t-26 42.5t-8.5 65.5v595h109v-579q0 -29 8.5 -41.5t31.5 -12.5h12v-99h-20z" />
<glyph unicode="&#x13f;" horiz-adv-x="359" d="M52 0v696h108v-594h193v-102h-301zM228 298v105h93v-105h-93z" />
<glyph unicode="&#x140;" horiz-adv-x="284" d="M191 336v105h93v-105h-93zM183 -6q-36 0 -62.5 6.5t-44 22.5t-26 42.5t-8.5 65.5v595h109v-579q0 -29 8.5 -41.5t31.5 -12.5h12v-99h-20z" />
<glyph unicode="&#x141;" horiz-adv-x="392" d="M85 0v239l-49 -35l-36 52l85 61v379h108v-301l78 56l36 -52l-114 -82v-215h193v-102h-301z" />
<glyph unicode="&#x142;" horiz-adv-x="296" d="M228 -6q-36 0 -62.5 6.5t-44 22.5t-26 42.5t-8.5 65.5v144l-51 -36l-36 52l87 62v373h109v-294l63 45l36 -52l-99 -71v-207q0 -29 8.5 -41.5t31.5 -12.5h12v-99h-20z" />
<glyph unicode="&#x143;" horiz-adv-x="466" d="M156 405v-405h-107v696h97l84 -207q10 -26 20 -51t21 -51l35 -96q2 0 2.5 0.5t2.5 0.5v404h106v-696h-95l-84 206q-20 51 -39.5 100t-38.5 99h-4zM173 770l154 121l64 -75l-179 -98z" />
<glyph unicode="&#x144;" horiz-adv-x="390" d="M146 450h4q15 21 40 35.5t53 14.5q30 0 50.5 -9.5t33 -27t18 -40.5t5.5 -50v-373h-108v342q0 53 -45 53q-23 0 -37 -15.5t-14 -42.5v-337h-108v494h108v-44zM129 574l85 177l89 -40l-116 -168z" />
<glyph unicode="&#x145;" horiz-adv-x="466" d="M156 405v-405h-107v696h97l84 -207q10 -26 20 -51t21 -51l35 -96q2 0 2.5 0.5t2.5 0.5v404h106v-696h-95l-84 206q-20 51 -39.5 100t-38.5 99h-4zM236 -244h-56l27 98h-23v105h102v-103z" />
<glyph unicode="&#x146;" horiz-adv-x="390" d="M146 450h4q15 21 40 35.5t53 14.5q30 0 50.5 -9.5t33 -27t18 -40.5t5.5 -50v-373h-108v342q0 53 -45 53q-23 0 -37 -15.5t-14 -42.5v-337h-108v494h108v-44zM191 -264h-56l27 98h-23v105h102v-103z" />
<glyph unicode="&#x147;" horiz-adv-x="466" d="M156 405v-405h-107v696h97l84 -207q10 -26 20 -51t21 -51l35 -96q2 0 2.5 0.5t2.5 0.5v404h106v-696h-95l-84 206q-20 51 -39.5 100t-38.5 99h-4zM356 894l43 -39l-126 -129h-63l-132 131l43 37l118 -77z" />
<glyph unicode="&#x148;" horiz-adv-x="390" d="M146 450h4q15 21 40 35.5t53 14.5q30 0 50.5 -9.5t33 -27t18 -40.5t5.5 -50v-373h-108v342q0 53 -45 53q-23 0 -37 -15.5t-14 -42.5v-337h-108v494h108v-44zM307 721l43 -40l-126 -147h-63l-132 149l43 38l118 -94z" />
<glyph unicode="&#x149;" horiz-adv-x="462" d="M218 450h4q15 21 40 35.5t53 14.5q30 0 50.5 -9.5t33 -27t18 -40.5t5.5 -50v-373h-108v342q0 53 -45 53q-23 0 -37 -15.5t-14 -42.5v-337h-108v494h108v-44zM52 463h-56l27 98h-23v105h102v-103z" />
<glyph unicode="&#x14a;" horiz-adv-x="466" d="M416 -64q0 -29 -8 -49t-22 -32t-32 -17.5t-39 -5.5q-17 0 -34 3.5t-34 8.5l19 81q20 -2 31 2t11 29v78q-18 44 -35 88t-35 88q-11 29 -22.5 56.5t-22.5 55.5l-33 86h-4v-408h-107v696h97q22 -55 44 -109.5t45 -109.5l39 -101q8 -21 16 -42.5t16 -42.5q2 0 2.5 0.5 t2.5 0.5v404h106z" />
<glyph unicode="&#x14b;" horiz-adv-x="390" d="M146 450h4q15 21 40 35.5t53 14.5q30 0 50.5 -9.5t33 -27t18 -40.5t5.5 -50v-437q0 -29 -8 -49t-22 -32t-32 -17.5t-39 -5.5q-17 0 -34 3.5t-34 8.5l19 81q20 -2 31 2t11 29v386q0 53 -45 53q-23 0 -37 -15.5t-14 -42.5v-337h-108v494h108v-44z" />
<glyph unicode="&#x14c;" horiz-adv-x="430" d="M275 526q0 29 -12.5 52t-47.5 23q-19 0 -31 -8.5t-18.5 -21t-9 -28t-2.5 -28.5v-350q0 -27 13.5 -48.5t46.5 -21.5t47 22.5t14 54.5v354zM384 178q0 -91 -41 -137.5t-129 -46.5t-128 44.5t-40 128.5v350q0 41 9.5 75t29.5 58.5t52.5 38t77.5 13.5q48 0 80.5 -12.5 t52 -36.5t28 -58t8.5 -77v-340zM91 748v89h246v-89h-246z" />
<glyph unicode="&#x14d;" horiz-adv-x="382" d="M194 502q40 0 67.5 -10.5t45.5 -28.5t26.5 -42t10.5 -52q4 -29 4.5 -64t0.5 -64v-26q0 -23 -1.5 -46t-3.5 -45q-5 -41 -21.5 -67t-39 -40t-48.5 -19t-51 -5q-35 0 -60.5 9.5t-43 25.5t-27 36.5t-13.5 43.5q-2 13 -3.5 29.5t-2.5 34.5t-1 36.5v34.5q0 24 1 49.5t3 48.5 t5 43t8 32q14 38 50 62t94 24zM193 402q-24 0 -36 -18q-7 -12 -10.5 -26t-5 -32t-1.5 -40.5v-51.5v-8q0 -27 0.5 -52t4.5 -40q5 -17 16 -28.5t32 -11.5q16 0 27.5 9.5t15.5 23.5q1 4 2.5 15.5t2.5 28t1.5 35.5t0.5 38q0 35 -1 68t-5 50q-2 11 -7 18q-11 22 -37 22zM64 577 v89h246v-89h-246z" />
<glyph unicode="&#x14e;" horiz-adv-x="430" d="M275 526q0 29 -12.5 52t-47.5 23q-19 0 -31 -8.5t-18.5 -21t-9 -28t-2.5 -28.5v-350q0 -27 13.5 -48.5t46.5 -21.5t47 22.5t14 54.5v354zM384 178q0 -91 -41 -137.5t-129 -46.5t-128 44.5t-40 128.5v350q0 41 9.5 75t29.5 58.5t52.5 38t77.5 13.5q48 0 80.5 -12.5 t52 -36.5t28 -58t8.5 -77v-340zM155 884q1 -11 6 -22.5t13.5 -21.5t19.5 -16.5t25 -6.5q15 0 27 6.5t19.5 16.5t12 21.5t4.5 22.5h79q-2 -21 -11 -45.5t-26 -45t-43 -34t-62 -13.5q-39 0 -66 13.5t-44 34t-24.5 45t-8.5 45.5h79z" />
<glyph unicode="&#x14f;" horiz-adv-x="382" d="M194 502q40 0 67.5 -10.5t45.5 -28.5t26.5 -42t10.5 -52q4 -29 4.5 -64t0.5 -64v-26q0 -23 -1.5 -46t-3.5 -45q-5 -41 -21.5 -67t-39 -40t-48.5 -19t-51 -5q-35 0 -60.5 9.5t-43 25.5t-27 36.5t-13.5 43.5q-2 13 -3.5 29.5t-2.5 34.5t-1 36.5v34.5q0 24 1 49.5t3 48.5 t5 43t8 32q14 38 50 62t94 24zM193 402q-24 0 -36 -18q-7 -12 -10.5 -26t-5 -32t-1.5 -40.5v-51.5v-8q0 -27 0.5 -52t4.5 -40q5 -17 16 -28.5t32 -11.5q16 0 27.5 9.5t15.5 23.5q1 4 2.5 15.5t2.5 28t1.5 35.5t0.5 38q0 35 -1 68t-5 50q-2 11 -7 18q-11 22 -37 22zM127 687 q1 -11 6.5 -22.5t14 -21.5t19.5 -16.5t25 -6.5q15 0 26.5 6.5t19.5 16.5t12.5 21.5t4.5 22.5h79q-2 -21 -11 -45.5t-26.5 -45t-43 -34t-61.5 -13.5q-39 0 -66 13.5t-44 34t-25 45t-9 45.5h79z" />
<glyph unicode="&#x150;" horiz-adv-x="430" d="M275 526q0 29 -12.5 52t-47.5 23q-19 0 -31 -8.5t-18.5 -21t-9 -28t-2.5 -28.5v-350q0 -27 13.5 -48.5t46.5 -21.5t47 22.5t14 54.5v354zM384 178q0 -91 -41 -137.5t-129 -46.5t-128 44.5t-40 128.5v350q0 41 9.5 75t29.5 58.5t52.5 38t77.5 13.5q48 0 80.5 -12.5 t52 -36.5t28 -58t8.5 -77v-340zM73 765l145 128l63 -67l-167 -111zM242 768l148 124l61 -68l-169 -108z" />
<glyph unicode="&#x151;" horiz-adv-x="382" d="M194 502q40 0 67.5 -10.5t45.5 -28.5t26.5 -42t10.5 -52q4 -29 4.5 -64t0.5 -64v-26q0 -23 -1.5 -46t-3.5 -45q-5 -41 -21.5 -67t-39 -40t-48.5 -19t-51 -5q-35 0 -60.5 9.5t-43 25.5t-27 36.5t-13.5 43.5q-2 13 -3.5 29.5t-2.5 34.5t-1 36.5v34.5q0 24 1 49.5t3 48.5 t5 43t8 32q14 38 50 62t94 24zM193 402q-24 0 -36 -18q-7 -12 -10.5 -26t-5 -32t-1.5 -40.5v-51.5v-8q0 -27 0.5 -52t4.5 -40q5 -17 16 -28.5t32 -11.5q16 0 27.5 9.5t15.5 23.5q1 4 2.5 15.5t2.5 28t1.5 35.5t0.5 38q0 35 -1 68t-5 50q-2 11 -7 18q-11 22 -37 22zM70 574 l84 177l90 -40l-117 -168zM201 574l84 177l90 -40l-116 -168z" />
<glyph unicode="&#x152;" horiz-adv-x="586" d="M360 104h206v-104h-297q-26 -6 -56 -6q-83 0 -126 44.5t-43 128.5v350q0 41 10 75t30.5 58.5t52.5 38t76 13.5q31 0 57 -6h296v-102h-206v-189h180v-103h-180v-198zM258 569q-5 15 -16.5 22t-28.5 7q-19 0 -31 -8.5t-18.5 -21t-9 -27.5t-2.5 -28v-345q0 -27 13.5 -49 t46.5 -22q17 0 29 7t17 23v442z" />
<glyph unicode="&#x153;" horiz-adv-x="586" d="M402 -6q-36 0 -61.5 9.5t-43.5 29.5q-23 -24 -53.5 -32t-59.5 -8q-33 0 -57 8.5t-41 22t-27.5 31.5t-15.5 38q-3 12 -5 30.5t-3 38.5t-1.5 41.5t-0.5 39.5q0 24 1 49.5t3 48.5t5 43t8 32q15 38 50 62t93 24q36 0 64 -11t43 -30q36 41 106 41q75 0 113 -41t38 -116v-123 h-202q0 -26 0.5 -53.5t5.5 -41.5q9 -33 44 -33q21 0 31.5 14.5t13.5 38.5q26 -5 53 -9.5t54 -9.5q-7 -60 -43.5 -97t-111.5 -37zM193 402q-24 0 -36 -18q-12 -12 -14 -49t-3 -101v-8q0 -27 0.5 -52t4.5 -40q5 -17 16 -28.5t32 -11.5q16 0 27.5 9.5t15.5 23.5q1 4 2.5 15.5 t2.5 28t1.5 35.5t0.5 38q0 44 -1 77t-12 59q-11 22 -37 22zM448 296v57q-2 19 -11.5 33t-32.5 14q-14 0 -24 -6.5t-17 -22.5q-4 -9 -5 -28.5t-2 -46.5h92z" />
<glyph unicode="&#x154;" horiz-adv-x="430" d="M211 696q85 0 133 -47.5t48 -154.5q0 -66 -18.5 -111.5t-65.5 -71.5l103 -311h-110l-90 288h-51v-288h-108v696h159zM160 594v-204h44q42 0 62 24.5t20 78.5q0 48 -19.5 74.5t-64.5 26.5h-42zM136 770l154 121l64 -75l-179 -98z" />
<glyph unicode="&#x155;" horiz-adv-x="287" d="M50 495h109v-55h2q19 38 45 49.5t62 11.5h10v-115q-8 1 -15 1.5t-14 0.5q-43 0 -66.5 -20.5t-23.5 -72.5v-295h-109v495zM99 574l85 177l89 -40l-116 -168z" />
<glyph unicode="&#x156;" horiz-adv-x="430" d="M211 696q85 0 133 -47.5t48 -154.5q0 -66 -18.5 -111.5t-65.5 -71.5l103 -311h-110l-90 288h-51v-288h-108v696h159zM160 594v-204h44q42 0 62 24.5t20 78.5q0 48 -19.5 74.5t-64.5 26.5h-42zM227 -244h-56l27 98h-23v105h102v-103z" />
<glyph unicode="&#x157;" horiz-adv-x="287" d="M50 495h109v-55h2q19 38 45 49.5t62 11.5h10v-115q-8 1 -15 1.5t-14 0.5q-43 0 -66.5 -20.5t-23.5 -72.5v-295h-109v495zM107 -263h-56l27 98h-23v105h102v-103z" />
<glyph unicode="&#x158;" horiz-adv-x="430" d="M211 696q85 0 133 -47.5t48 -154.5q0 -66 -18.5 -111.5t-65.5 -71.5l103 -311h-110l-90 288h-51v-288h-108v696h159zM160 594v-204h44q42 0 62 24.5t20 78.5q0 48 -19.5 74.5t-64.5 26.5h-42zM300 894l43 -39l-126 -129h-63l-132 131l43 37l118 -77z" />
<glyph unicode="&#x159;" horiz-adv-x="287" d="M50 495h109v-55h2q19 38 45 49.5t62 11.5h10v-115q-8 1 -15 1.5t-14 0.5q-43 0 -66.5 -20.5t-23.5 -72.5v-295h-109v495zM260 721l43 -40l-126 -147h-63l-132 149l43 38l118 -94z" />
<glyph unicode="&#x15a;" horiz-adv-x="411" d="M379 198q0 -47 -8.5 -84.5t-28.5 -64t-53.5 -41t-82.5 -14.5q-45 0 -77.5 13t-53.5 36t-30.5 54t-9.5 66l107 21q2 -39 15 -63.5t51 -24.5q22 0 35 8.5t19.5 22.5t8 32t1.5 38q0 25 -3 42t-11.5 29t-24 21t-40.5 20q-50 21 -80.5 43t-46.5 46.5t-21 52t-5 60.5 q0 42 10 77t31 60.5t53.5 39.5t77.5 14q49 0 81 -15.5t51 -39.5t27 -53t8 -56l-107 -25q0 38 -13 62t-51 24q-20 0 -31.5 -8t-18.5 -21t-9 -28t-2 -30q0 -18 2 -31.5t11.5 -25.5t28.5 -24t52 -25q46 -18 73.5 -38.5t41.5 -45t18.5 -55t4.5 -69.5zM123 770l154 121l64 -75 l-179 -98z" />
<glyph unicode="&#x15b;" horiz-adv-x="363" d="M135 151q-1 -27 11.5 -43t35.5 -16q24 0 36 13.5t12 37.5q0 31 -11 43.5t-41 23.5q-33 12 -60 24.5t-45.5 29.5t-28.5 40t-10 56q0 60 38.5 101t113.5 41q78 0 113.5 -39t35.5 -105l-106 -14q1 27 -10.5 43t-33.5 16q-26 0 -35 -15t-9 -30q0 -20 9.5 -32.5t44.5 -24.5 q37 -12 63.5 -25t43.5 -31t25 -42.5t8 -58.5q0 -32 -8 -59t-26.5 -47.5t-47.5 -32t-71 -11.5q-73 0 -112.5 36t-41.5 105zM130 574l85 177l89 -40l-116 -168z" />
<glyph unicode="&#x15c;" horiz-adv-x="411" d="M379 198q0 -47 -8.5 -84.5t-28.5 -64t-53.5 -41t-82.5 -14.5q-45 0 -77.5 13t-53.5 36t-30.5 54t-9.5 66l107 21q2 -39 15 -63.5t51 -24.5q22 0 35 8.5t19.5 22.5t8 32t1.5 38q0 25 -3 42t-11.5 29t-24 21t-40.5 20q-50 21 -80.5 43t-46.5 46.5t-21 52t-5 60.5 q0 42 10 77t31 60.5t53.5 39.5t77.5 14q49 0 81 -15.5t51 -39.5t27 -53t8 -56l-107 -25q0 38 -13 62t-51 24q-20 0 -31.5 -8t-18.5 -21t-9 -28t-2 -30q0 -18 2 -31.5t11.5 -25.5t28.5 -24t52 -25q46 -18 73.5 -38.5t41.5 -45t18.5 -55t4.5 -69.5zM211 801l-118 -77l-43 38 l132 132h63l126 -131l-43 -39z" />
<glyph unicode="&#x15d;" horiz-adv-x="363" d="M135 151q-1 -27 11.5 -43t35.5 -16q24 0 36 13.5t12 37.5q0 31 -11 43.5t-41 23.5q-33 12 -60 24.5t-45.5 29.5t-28.5 40t-10 56q0 60 38.5 101t113.5 41q78 0 113.5 -39t35.5 -105l-106 -14q1 27 -10.5 43t-33.5 16q-26 0 -35 -15t-9 -30q0 -20 9.5 -32.5t44.5 -24.5 q37 -12 63.5 -25t43.5 -31t25 -42.5t8 -58.5q0 -32 -8 -59t-26.5 -47.5t-47.5 -32t-71 -11.5q-73 0 -112.5 36t-41.5 105zM189 627l-118 -94l-43 38l132 149h63l126 -148l-43 -39z" />
<glyph unicode="&#x15e;" horiz-adv-x="411" d="M379 198q0 -44 -7.5 -80t-25.5 -62.5t-47 -42t-72 -18.5l-12 -40q25 -3 41 -11.5t25.5 -20.5t13 -25.5t3.5 -24.5t-4.5 -25t-15 -26t-28 -20.5t-42.5 -8.5q-8 0 -35.5 2.5t-55.5 16.5l17 45q20 -9 33.5 -11.5t25.5 -2.5q14 0 24.5 9t10.5 23q0 34 -45 33l-25 19l20 68 q-38 4 -65 18.5t-44.5 37t-25.5 51t-8 61.5l107 21q2 -39 15 -63.5t51 -24.5q22 0 35 8.5t19.5 22.5t8 32t1.5 38q0 25 -3 42t-11.5 29t-24 21t-40.5 20q-50 21 -80.5 43t-46.5 46.5t-21 52t-5 60.5q0 42 10 77t31 60.5t53.5 39.5t77.5 14q49 0 81 -15.5t51 -39.5t27 -53 t8 -56l-107 -25q0 38 -13 62t-51 24q-20 0 -31.5 -8t-18.5 -21t-9 -28t-2 -30q0 -18 2 -31.5t11.5 -25.5t28.5 -24t52 -25q46 -18 73.5 -38.5t41.5 -45t18.5 -55t4.5 -69.5z" />
<glyph unicode="&#x15f;" horiz-adv-x="363" d="M135 151q-1 -27 11.5 -43t35.5 -16q24 0 36 13.5t12 37.5q0 31 -11 43.5t-41 23.5q-33 12 -60 24.5t-45.5 29.5t-28.5 40t-10 56q0 60 38.5 101t113.5 41q78 0 113.5 -39t35.5 -105l-106 -14q1 27 -10.5 43t-33.5 16q-26 0 -35 -15t-9 -30q0 -20 9.5 -32.5t44.5 -24.5 q37 -12 63.5 -25t43.5 -31t25 -42.5t8 -58.5q0 -30 -7 -56t-23 -45.5t-41.5 -32t-61.5 -15.5l-12 -40q25 -3 41 -11.5t25.5 -20.5t13 -25.5t3.5 -24.5t-4.5 -25t-15 -26t-28 -20.5t-42.5 -8.5q-8 0 -35.5 2.5t-55.5 16.5l17 45q20 -9 33.5 -11.5t25.5 -2.5q14 0 24.5 9 t10.5 23q0 34 -45 33l-25 19l20 69q-60 6 -91.5 41t-33.5 98z" />
<glyph unicode="&#x160;" horiz-adv-x="411" d="M379 198q0 -47 -8.5 -84.5t-28.5 -64t-53.5 -41t-82.5 -14.5q-45 0 -77.5 13t-53.5 36t-30.5 54t-9.5 66l107 21q2 -39 15 -63.5t51 -24.5q22 0 35 8.5t19.5 22.5t8 32t1.5 38q0 25 -3 42t-11.5 29t-24 21t-40.5 20q-50 21 -80.5 43t-46.5 46.5t-21 52t-5 60.5 q0 42 10 77t31 60.5t53.5 39.5t77.5 14q49 0 81 -15.5t51 -39.5t27 -53t8 -56l-107 -25q0 38 -13 62t-51 24q-20 0 -31.5 -8t-18.5 -21t-9 -28t-2 -30q0 -18 2 -31.5t11.5 -25.5t28.5 -24t52 -25q46 -18 73.5 -38.5t41.5 -45t18.5 -55t4.5 -69.5zM327 894l43 -39l-126 -129 h-63l-132 131l43 37l118 -77z" />
<glyph unicode="&#x161;" horiz-adv-x="363" d="M135 151q-1 -27 11.5 -43t35.5 -16q24 0 36 13.5t12 37.5q0 31 -11 43.5t-41 23.5q-33 12 -60 24.5t-45.5 29.5t-28.5 40t-10 56q0 60 38.5 101t113.5 41q78 0 113.5 -39t35.5 -105l-106 -14q1 27 -10.5 43t-33.5 16q-26 0 -35 -15t-9 -30q0 -20 9.5 -32.5t44.5 -24.5 q37 -12 63.5 -25t43.5 -31t25 -42.5t8 -58.5q0 -32 -8 -59t-26.5 -47.5t-47.5 -32t-71 -11.5q-73 0 -112.5 36t-41.5 105zM304 721l43 -40l-126 -147h-63l-132 149l43 38l118 -94z" />
<glyph unicode="&#x162;" horiz-adv-x="340" d="M224 595v-595h-109v595h-112v101h333v-101h-112zM172 -264h-56l27 98h-23v105h102v-103z" />
<glyph unicode="&#x163;" horiz-adv-x="254" d="M177 0q-34 0 -56 10.5t-35.5 27.5t-19 38t-5.5 42v292h-48v85h49v125h104v-125h60v-85h-60v-257q0 -28 9 -40.5t37 -12.5h13v-100h-48zM132 -264h-56l27 98h-23v105h102v-103z" />
<glyph unicode="&#x164;" horiz-adv-x="340" d="M224 595v-595h-109v595h-112v101h333v-101h-112zM290 894l43 -39l-126 -129h-63l-132 131l43 37l118 -77z" />
<glyph unicode="&#x165;" horiz-adv-x="326" d="M275 550h-56l27 98h-23v105h102v-103zM177 0q-34 0 -56 10.5t-35.5 27.5t-19 38t-5.5 42v292h-48v85h49v125h104v-125h60v-85h-60v-257q0 -28 9 -40.5t37 -12.5h13v-100h-48z" />
<glyph unicode="&#x166;" horiz-adv-x="340" d="M224 595v-181h91v-77h-91v-337h-109v337h-89v77h89v181h-112v101h333v-101h-112z" />
<glyph unicode="&#x167;" horiz-adv-x="252" d="M177 0q-34 0 -56 10.5t-35.5 27.5t-19 38t-5.5 42v128h-48v74h48v90h-48v85h49v125h104v-125h60v-85h-60v-90h60v-74h-60v-93q0 -28 9 -40.5t37 -12.5h13v-100h-48z" />
<glyph unicode="&#x168;" horiz-adv-x="433" d="M386 695v-517q0 -91 -40.5 -137.5t-128.5 -46.5t-128.5 44.5t-40.5 128.5v528h108v-530q0 -27 13.5 -48.5t46.5 -21.5t47 22.5t14 54.5v523h109zM322 861q13 -8 25.5 -15.5t26.5 -15.5q-22 -46 -47 -66.5t-51 -20.5q-17 0 -31.5 5.5t-28 12.5t-26 12.5t-24.5 5.5t-26 -9 t-29 -29l-53 33q18 40 46 62.5t56 22.5q15 0 29 -5.5t27.5 -12.5t26 -12.5t24.5 -5.5q14 0 26 8t29 30z" />
<glyph unicode="&#x169;" horiz-adv-x="391" d="M243 44q-1 0 -1.5 0.5t-2.5 0.5q-15 -22 -40 -36t-53 -14q-31 0 -51.5 9.5t-33 26.5t-17.5 40.5t-5 50.5v373h109v-343q0 -29 11.5 -41.5t33.5 -12.5q20 0 35.5 15.5t15.5 42.5v339h107v-495h-108v44zM303 686q13 -8 25.5 -15.5t26.5 -15.5q-22 -46 -47 -66.5t-51 -20.5 q-17 0 -31.5 5.5t-28 12.5t-26 12.5t-24.5 5.5t-26 -9t-29 -29l-53 33q18 40 46 62.5t56 22.5q15 0 29 -5.5t27.5 -12.5t26 -12.5t24.5 -5.5q14 0 26 8t29 30z" />
<glyph unicode="&#x16a;" horiz-adv-x="433" d="M386 695v-517q0 -91 -40.5 -137.5t-128.5 -46.5t-128.5 44.5t-40.5 128.5v528h108v-530q0 -27 13.5 -48.5t46.5 -21.5t47 22.5t14 54.5v523h109zM93 748v89h246v-89h-246z" />
<glyph unicode="&#x16b;" horiz-adv-x="391" d="M243 44q-1 0 -1.5 0.5t-2.5 0.5q-15 -22 -40 -36t-53 -14q-31 0 -51.5 9.5t-33 26.5t-17.5 40.5t-5 50.5v373h109v-343q0 -29 11.5 -41.5t33.5 -12.5q20 0 35.5 15.5t15.5 42.5v339h107v-495h-108v44zM76 577v89h246v-89h-246z" />
<glyph unicode="&#x16c;" horiz-adv-x="433" d="M386 695v-517q0 -91 -40.5 -137.5t-128.5 -46.5t-128.5 44.5t-40.5 128.5v528h108v-530q0 -27 13.5 -48.5t46.5 -21.5t47 22.5t14 54.5v523h109zM157 884q1 -11 6 -22.5t13.5 -21.5t19.5 -16.5t25 -6.5q15 0 27 6.5t19.5 16.5t12 21.5t4.5 22.5h79q-2 -21 -11 -45.5 t-26 -45t-43 -34t-62 -13.5q-39 0 -66 13.5t-44 34t-24.5 45t-8.5 45.5h79z" />
<glyph unicode="&#x16d;" horiz-adv-x="391" d="M243 44q-1 0 -1.5 0.5t-2.5 0.5q-15 -22 -40 -36t-53 -14q-31 0 -51.5 9.5t-33 26.5t-17.5 40.5t-5 50.5v373h109v-343q0 -29 11.5 -41.5t33.5 -12.5q20 0 35.5 15.5t15.5 42.5v339h107v-495h-108v44zM133 687q1 -11 6.5 -22.5t14 -21.5t19.5 -16.5t25 -6.5 q15 0 26.5 6.5t19.5 16.5t12.5 21.5t4.5 22.5h79q-2 -21 -11 -45.5t-26.5 -45t-43 -34t-61.5 -13.5q-39 0 -66 13.5t-44 34t-25 45t-9 45.5h79z" />
<glyph unicode="&#x16e;" horiz-adv-x="433" d="M386 695v-517q0 -91 -40.5 -137.5t-128.5 -46.5t-128.5 44.5t-40.5 128.5v528h108v-530q0 -27 13.5 -48.5t46.5 -21.5t47 22.5t14 54.5v523h109zM217 713q-41 0 -68.5 28t-27.5 68t27.5 68t68.5 28t68 -28t27 -68t-27 -68t-68 -28zM217 847q-17 0 -28.5 -11.5 t-11.5 -27.5q0 -17 11.5 -28t28.5 -11q16 0 27.5 11t11.5 28q0 16 -11.5 27.5t-27.5 11.5z" />
<glyph unicode="&#x16f;" horiz-adv-x="391" d="M243 44q-1 0 -1.5 0.5t-2.5 0.5q-15 -22 -40 -36t-53 -14q-31 0 -51.5 9.5t-33 26.5t-17.5 40.5t-5 50.5v373h109v-343q0 -29 11.5 -41.5t33.5 -12.5q20 0 35.5 15.5t15.5 42.5v339h107v-495h-108v44zM201 530q-41 0 -68.5 28t-27.5 68t27.5 68t68.5 28t68 -28t27 -68 t-27 -68t-68 -28zM201 664q-17 0 -28.5 -11.5t-11.5 -27.5q0 -17 11.5 -28t28.5 -11q16 0 27.5 11t11.5 28q0 16 -11.5 27.5t-27.5 11.5z" />
<glyph unicode="&#x170;" horiz-adv-x="433" d="M386 695v-517q0 -91 -40.5 -137.5t-128.5 -46.5t-128.5 44.5t-40.5 128.5v528h108v-530q0 -27 13.5 -48.5t46.5 -21.5t47 22.5t14 54.5v523h109zM73 765l145 128l63 -67l-167 -111zM242 768l148 124l61 -68l-169 -108z" />
<glyph unicode="&#x171;" horiz-adv-x="391" d="M243 44q-1 0 -1.5 0.5t-2.5 0.5q-15 -22 -40 -36t-53 -14q-31 0 -51.5 9.5t-33 26.5t-17.5 40.5t-5 50.5v373h109v-343q0 -29 11.5 -41.5t33.5 -12.5q20 0 35.5 15.5t15.5 42.5v339h107v-495h-108v44zM74 574l84 177l90 -40l-117 -168zM205 574l84 177l90 -40l-116 -168z " />
<glyph unicode="&#x172;" horiz-adv-x="433" d="M155 -103q0 40 33 99q-72 7 -106 50.5t-34 120.5v528h108v-530q0 -27 13.5 -48.5t46.5 -21.5t47 22.5t14 54.5v523h109v-517q0 -82 -33 -128t-103 -54q-16 -28 -21.5 -50t-5.5 -36q0 -23 12 -33t31 -10q10 0 22.5 3t28.5 12l20 -53q-20 -13 -43.5 -19.5t-45.5 -6.5 q-40 0 -66.5 24.5t-26.5 69.5z" />
<glyph unicode="&#x173;" horiz-adv-x="391" d="M208 -101q0 20 8.5 46t26.5 55v44q-1 0 -1.5 0.5t-2.5 0.5q-15 -22 -40 -36t-53 -14q-31 0 -51.5 9.5t-33 26.5t-17.5 40.5t-5 50.5v373h109v-343q0 -29 11.5 -41.5t33.5 -12.5q20 0 35.5 15.5t15.5 42.5v339h107v-495h-46q-17 -29 -23 -51.5t-6 -36.5q0 -23 12 -33 t31 -10q10 0 22.5 3t28.5 12l20 -53q-20 -13 -43.5 -19.5t-45.5 -6.5q-40 0 -66.5 24.5t-26.5 69.5z" />
<glyph unicode="&#x174;" horiz-adv-x="611" d="M495 0h-112l-55 302q-5 29 -10 58.5t-10 58.5h-4l-21 -119l-28 -150l-28 -150h-111l-101 696h118q8 -66 15 -130t14 -130q1 -9 4 -35.5t6 -56t5.5 -56t3.5 -35.5h4q7 39 13 77.5t12 77.5l51 288h92l50 -289q6 -39 12.5 -78.5t13.5 -78.5h4l16 158l28 288h119zM304 801 l-118 -77l-43 38l132 132h63l126 -131l-43 -39z" />
<glyph unicode="&#x175;" horiz-adv-x="566" d="M280 281l-26 -150l-26 -131h-116l-102 494h114l26 -177l24 -159h4l24 160l28 176h106l28 -175l28 -162h4l22 162l25 175h112l-102 -494h-117l-25 128l-27 153h-4zM280 627l-118 -94l-43 38l132 149h63l126 -148l-43 -39z" />
<glyph unicode="&#x176;" horiz-adv-x="395" d="M201 425l33 123l39 148h114l-135 -408v-288h-108v288l-136 408h114l43 -151l32 -120h4zM203 801l-118 -77l-43 38l132 132h63l126 -131l-43 -39z" />
<glyph unicode="&#x177;" horiz-adv-x="359" d="M181 167l27 144l36 183h111l-143 -570q-14 -55 -44.5 -86t-88.5 -31h-38v95h22q22 0 36 14.5t24 56.5l7 31l-126 490h115l31 -183l27 -144h4zM181 627l-118 -94l-43 38l132 149h63l126 -148l-43 -39z" />
<glyph unicode="&#x178;" horiz-adv-x="395" d="M201 425l33 123l39 148h114l-135 -408v-288h-108v288l-136 408h114l43 -151l32 -120h4zM234 740v106h94v-106h-94zM70 740v106h94v-106h-94z" />
<glyph unicode="&#x179;" horiz-adv-x="341" d="M22 0v98l185 497h-177v101h291v-96l-185 -498h184v-102h-298zM111 770l154 121l64 -75l-179 -98z" />
<glyph unicode="&#x17a;" horiz-adv-x="328" d="M26 0v98l155 300h-143v96h265v-91l-158 -302h158v-101h-277zM132 574l85 177l89 -40l-116 -168z" />
<glyph unicode="&#x17b;" horiz-adv-x="341" d="M22 0v98l185 497h-177v101h291v-96l-185 -498h184v-102h-298zM139 749v105h93v-105h-93z" />
<glyph unicode="&#x17c;" horiz-adv-x="328" d="M26 0v98l155 300h-143v96h265v-91l-158 -302h158v-101h-277zM132 574v105h93v-105h-93z" />
<glyph unicode="&#x17d;" horiz-adv-x="341" d="M22 0v98l185 497h-177v101h291v-96l-185 -498h184v-102h-298zM293 894l43 -39l-126 -129h-63l-132 131l43 37l118 -77z" />
<glyph unicode="&#x17e;" horiz-adv-x="328" d="M26 0v98l155 300h-143v96h265v-91l-158 -302h158v-101h-277zM292 721l43 -40l-126 -147h-63l-132 149l43 38l118 -94z" />
<glyph unicode="&#x192;" horiz-adv-x="405" d="M84 429h77l10 77q4 35 13 69.5t27 61.5t45.5 44t69.5 17q20 0 40.5 -2.5t37.5 -11.5l-21 -92q-15 7 -28.5 8.5t-23.5 1.5q-29 0 -41.5 -26t-16.5 -62l-11 -85h76v-92h-87l-25 -222q-6 -49 -15.5 -86.5t-26 -63t-41 -38.5t-59.5 -13q-17 0 -40 4t-46 15q1 5 5 17l8.5 25.5 t8 25t5.5 16.5q14 -7 23.5 -8.5t17.5 -1.5q26 0 38 24.5t18 76.5l26 229h-64v92z" />
<glyph unicode="&#x1a0;" horiz-adv-x="461" d="M384 178q0 -91 -41 -137.5t-129 -46.5t-128 44.5t-40 128.5v350q0 41 9.5 75t29.5 58.5t52.5 38t77.5 13.5q53 0 86 -14.5t53 -42.5q17 7 24.5 25.5t7.5 56.5v59h84v-64q0 -129 -90 -154q2 -11 3 -23.5t1 -26.5v-340zM275 526q0 29 -12.5 52t-47.5 23q-19 0 -31 -8.5 t-18.5 -21t-9 -28t-2.5 -28.5v-350q0 -27 13.5 -48.5t46.5 -21.5t47 22.5t14 54.5v354z" />
<glyph unicode="&#x1a1;" horiz-adv-x="430" d="M194 502q45 0 74.5 -13t46.5 -35q17 7 25 26t8 57v56h84v-48q0 -64 -19.5 -108.5t-69.5 -59.5q0 -2 0.5 -4t0.5 -4q4 -29 4.5 -64t0.5 -64v-26q0 -23 -1.5 -46t-3.5 -45q-5 -41 -21.5 -67t-39 -40t-48.5 -19t-51 -5q-35 0 -60.5 9.5t-43 25.5t-27 36.5t-13.5 43.5 q-2 13 -3.5 29.5t-2.5 34.5t-1 36.5v34.5q0 24 1 49.5t3 48.5t5 43t8 32q14 38 50 62t94 24zM193 402q-24 0 -36 -18q-7 -12 -10.5 -26t-5 -32t-1.5 -40.5v-51.5v-8q0 -27 0.5 -52t4.5 -40q5 -17 16 -28.5t32 -11.5q16 0 27.5 9.5t15.5 23.5q1 4 2.5 15.5t2.5 28t1.5 35.5 t0.5 38q0 35 -1 68t-5 50q-2 11 -7 18q-11 22 -37 22z" />
<glyph unicode="&#x1af;" horiz-adv-x="495" d="M386 695v-54q24 5 34 23t10 63v59h84v-64q0 -154 -128 -160v-384q0 -91 -40.5 -137.5t-128.5 -46.5t-128.5 44.5t-40.5 128.5v528h108v-530q0 -27 13.5 -48.5t46.5 -21.5t47 22.5t14 54.5v523h109z" />
<glyph unicode="&#x1b0;" horiz-adv-x="471" d="M243 44q-1 0 -1.5 0.5t-2.5 0.5q-15 -22 -40 -36t-53 -14q-31 0 -51.5 9.5t-33 26.5t-17.5 40.5t-5 50.5v373h109v-343q0 -29 11.5 -41.5t33.5 -12.5q20 0 35.5 15.5t15.5 42.5v339h107v-44q24 5 34 23t10 63v56h84v-48q0 -38 -6.5 -69t-21.5 -53.5t-39.5 -36 t-60.5 -15.5v-371h-108v44z" />
<glyph unicode="&#x1fc;" horiz-adv-x="633" d="M301 0v166h-132l-51 -166h-112l223 696h380v-102h-201v-189h175v-103h-175v-197h201v-105h-308zM198 269h103v324h-5zM343 770l154 121l64 -75l-179 -98z" />
<glyph unicode="&#x1fd;" horiz-adv-x="572" d="M389 -6q-45 0 -76.5 15.5t-47.5 43.5q-15 -19 -30.5 -30.5t-30 -18t-28 -8.5t-24.5 -2q-38 0 -62.5 12t-38.5 32t-20 47.5t-6 57.5q0 29 8 56.5t25.5 49.5t45.5 35t68 13h61v56q0 22 -11.5 34.5t-37.5 12.5q-17 0 -30.5 -9.5t-19.5 -35.5q-25 8 -49 15l-48 14 q14 57 55 87t101 30q37 0 61 -9.5t38 -26.5q37 37 101 37q72 0 112.5 -41t40.5 -116v-122h-203q0 -26 0.5 -51t3.5 -42t14.5 -26.5t30.5 -9.5q21 0 32.5 14.5t14.5 38.5q26 -5 53 -10l54 -10q-7 -60 -44.5 -96.5t-112.5 -36.5zM257 574l85 177l89 -40l-116 -168zM233 219 h-42q-23 0 -41.5 -15.5t-18.5 -53.5q0 -25 13.5 -39.5t38.5 -14.5q24 0 37 17t13 44v62zM437 298v26q0 22 -3 42q-2 14 -14 24t-29 10q-20 0 -32 -11t-13 -31l-3 -60h94z" />
<glyph unicode="&#x1fe;" horiz-adv-x="430" d="M40 12l25 56q-19 39 -19 99v350q0 41 9.5 75t29.5 58.5t52.5 38t77.5 13.5q42 0 71 -9.5t49 -26.5l17 36l39 -20l-26 -57q19 -42 19 -107v-340q0 -91 -41 -137.5t-129 -46.5q-80 0 -121 38l-18 -39zM154 264l121 267q-1 27 -14 48.5t-46 21.5q-19 0 -31 -8.5t-18.5 -21 t-9 -28t-2.5 -28.5v-251zM275 429l-121 -264q0 -27 13.5 -48.5t46.5 -21.5t47 22.5t14 54.5v257zM152 770l154 121l64 -75l-179 -98z" />
<glyph unicode="&#x1ff;" horiz-adv-x="382" d="M194 502q52 0 87 -19l21 44q8 -5 15.5 -8.5t15.5 -7.5l-24 -50q17 -18 25 -41.5t10 -50.5q4 -29 4.5 -64t0.5 -64v-26q0 -23 -1.5 -46t-3.5 -45q-5 -41 -21.5 -67t-39 -40t-48.5 -19t-51 -5q-56 0 -91 24l-18 -37q-7 4 -14 7.5t-14 8.5l21 45q-11 14 -18 31.5t-10 35.5 q-2 13 -3.5 29.5t-2.5 34.5t-1 36.5v34.5q0 24 1 49.5t3 48.5t5 43t8 32q14 38 50 62t94 24zM132 574l85 177l89 -40l-116 -168zM147 127q5 -14 15.5 -23.5t30.5 -9.5q16 0 27.5 9.5t15.5 23.5q1 4 2.5 15.5t2.5 28t1.5 35.5t0.5 38v40.5t-2 37.5zM193 402q-24 0 -36 -18 q-7 -12 -10.5 -26t-5 -32t-1.5 -40.5v-51.5v-8v-37q23 48 45.5 94.5t45.5 94.5q-1 1 -1 2q-11 22 -37 22z" />
<glyph unicode="&#x218;" horiz-adv-x="411" d="M379 198q0 -47 -8.5 -84.5t-28.5 -64t-53.5 -41t-82.5 -14.5q-45 0 -77.5 13t-53.5 36t-30.5 54t-9.5 66l107 21q2 -39 15 -63.5t51 -24.5q22 0 35 8.5t19.5 22.5t8 32t1.5 38q0 25 -3 42t-11.5 29t-24 21t-40.5 20q-50 21 -80.5 43t-46.5 46.5t-21 52t-5 60.5 q0 42 10 77t31 60.5t53.5 39.5t77.5 14q49 0 81 -15.5t51 -39.5t27 -53t8 -56l-107 -25q0 38 -13 62t-51 24q-20 0 -31.5 -8t-18.5 -21t-9 -28t-2 -30q0 -18 2 -31.5t11.5 -25.5t28.5 -24t52 -25q46 -18 73.5 -38.5t41.5 -45t18.5 -55t4.5 -69.5zM216 -264h-56l27 98h-23 v105h102v-103z" />
<glyph unicode="&#x219;" horiz-adv-x="363" d="M135 151q-1 -27 11.5 -43t35.5 -16q24 0 36 13.5t12 37.5q0 31 -11 43.5t-41 23.5q-33 12 -60 24.5t-45.5 29.5t-28.5 40t-10 56q0 60 38.5 101t113.5 41q78 0 113.5 -39t35.5 -105l-106 -14q1 27 -10.5 43t-33.5 16q-26 0 -35 -15t-9 -30q0 -20 9.5 -32.5t44.5 -24.5 q37 -12 63.5 -25t43.5 -31t25 -42.5t8 -58.5q0 -32 -8 -59t-26.5 -47.5t-47.5 -32t-71 -11.5q-73 0 -112.5 36t-41.5 105zM187 -264h-56l27 98h-23v105h102v-103z" />
<glyph unicode="&#x259;" horiz-adv-x="376" d="M236 274q0 28 -1 54t-6 40q-10 34 -43 34q-40 0 -44 -57l-108 17q4 66 43 103.5t112 37.5q34 0 59.5 -8.5t42.5 -22.5t27.5 -32t15.5 -37q3 -12 5 -30t3 -38.5t1.5 -42t0.5 -39.5q0 -24 -1 -49t-3 -48t-5 -42t-8 -32q-15 -40 -49.5 -64t-92.5 -24q-75 0 -113 41t-38 116 v123h202zM227 125q4 9 5.5 28.5t2.5 46.5h-92v-42q0 -24 8.5 -43t35.5 -19q29 0 40 29z" />
<glyph unicode="&#x2b9;" horiz-adv-x="239" d="M261 688l-143 -285l-74 23l104 297z" />
<glyph unicode="&#x2c6;" horiz-adv-x="374" d="M196 627l-118 -94l-43 38l132 149h63l126 -148l-43 -39z" />
<glyph unicode="&#x2c7;" horiz-adv-x="373" d="M314 721l43 -40l-126 -147h-63l-132 149l43 38l118 -94z" />
<glyph unicode="&#x2d8;" horiz-adv-x="423" d="M141 687q1 -11 6.5 -22.5t14 -21.5t19.5 -16.5t25 -6.5q15 0 26.5 6.5t19.5 16.5t12.5 21.5t4.5 22.5h79q-2 -21 -11 -45.5t-26.5 -45t-43 -34t-61.5 -13.5q-39 0 -66 13.5t-44 34t-25 45t-9 45.5h79z" />
<glyph unicode="&#x2d9;" horiz-adv-x="385" d="M161 574v105h93v-105h-93z" />
<glyph unicode="&#x2da;" horiz-adv-x="385" d="M207 530q-41 0 -68.5 28t-27.5 68t27.5 68t68.5 28t68 -28t27 -68t-27 -68t-68 -28zM207 664q-17 0 -28.5 -11.5t-11.5 -27.5q0 -17 11.5 -28t28.5 -11q16 0 27.5 11t11.5 28q0 16 -11.5 27.5t-27.5 11.5z" />
<glyph unicode="&#x2db;" horiz-adv-x="395" d="M254 -103q0 45 40 109h58l2 -3q-19 -31 -25.5 -54.5t-6.5 -38.5q0 -23 12 -33t31 -10q10 0 22.5 3t28.5 12l20 -53q-20 -13 -43.5 -19.5t-45.5 -6.5q-40 0 -66.5 24.5t-26.5 69.5z" />
<glyph unicode="&#x2dc;" horiz-adv-x="362" d="M287 686q13 -8 25.5 -15.5t26.5 -15.5q-22 -46 -47 -66.5t-51 -20.5q-17 0 -31.5 5.5t-28 12.5t-26 12.5t-24.5 5.5t-26 -9t-29 -29l-53 33q18 40 46 62.5t56 22.5q15 0 29 -5.5t27.5 -12.5t26 -12.5t24.5 -5.5q14 0 26 8t29 30z" />
<glyph unicode="&#x2dd;" horiz-adv-x="385" d="M78 574l84 177l90 -40l-117 -168zM209 574l84 177l90 -40l-116 -168z" />
<glyph unicode="&#x384;" horiz-adv-x="371" d="M132 574l85 177l89 -40l-116 -168z" />
<glyph unicode="&#x385;" horiz-adv-x="416" d="M294 572v101h94v-101h-94zM28 572v101h94v-101h-94zM138 566l71 184l93 -32l-104 -176z" />
<glyph unicode="&#x386;" horiz-adv-x="422" d="M302 0l-27 145h-128q-7 -36 -13.5 -72.5t-12.5 -72.5h-110q35 175 70 348t70 348h120l141 -696h-110zM-90 554l85 177l89 -40l-116 -168zM208 535q-10 -72 -21 -143.5t-24 -145.5h95l-45 289h-5z" />
<glyph unicode="&#x387;" horiz-adv-x="211" d="M49 279v121h112v-121h-112z" />
<glyph unicode="&#x388;" horiz-adv-x="380" d="M52 0v696h309v-102h-201v-189h175v-103h-175v-200h201v-102h-309zM-151 564l85 177l89 -40l-116 -168z" />
<glyph unicode="&#x389;" horiz-adv-x="443" d="M284 0v304h-125v-304h-107v696h107v-291h125v291h107v-696h-107zM-146 554l85 177l89 -40l-116 -168z" />
<glyph unicode="&#x38a;" horiz-adv-x="217" d="M54 0v696h109v-696h-109zM-150 554l85 177l89 -40l-116 -168z" />
<glyph unicode="&#x38c;" horiz-adv-x="430" d="M275 526q0 29 -12.5 52t-47.5 23q-19 0 -31 -8.5t-18.5 -21t-9 -28t-2.5 -28.5v-350q0 -27 13.5 -48.5t46.5 -21.5t47 22.5t14 54.5v354zM384 178q0 -91 -41 -137.5t-129 -46.5t-128 44.5t-40 128.5v350q0 41 9.5 75t29.5 58.5t52.5 38t77.5 13.5q48 0 80.5 -12.5 t52 -36.5t28 -58t8.5 -77v-340zM-130 554l85 177l89 -40l-116 -168z" />
<glyph unicode="&#x38e;" horiz-adv-x="395" d="M201 425l33 123l39 148h114l-135 -408v-288h-108v288l-136 408h114l43 -151l32 -120h4zM-176 554l85 177l89 -40l-116 -168z" />
<glyph unicode="&#x38f;" horiz-adv-x="430" d="M275 523q0 15 -2.5 29t-9 25t-18.5 17.5t-31 6.5q-20 0 -31.5 -9t-18.5 -22t-9 -28.5t-2 -28.5v-340q0 -25 10 -39t27 -20v-114h-152v102h48l1 1q-26 20 -33.5 53t-7.5 77v284q0 41 10 75t30.5 58.5t52 38t75.5 13.5q47 0 79 -12.5t52 -36.5t29 -58t9 -77v-289 q0 -12 -0.5 -23t-1.5 -21q-5 -55 -39 -82v-1h50v-102h-153v113q16 7 26 21.5t10 38.5v350zM-121 554l85 177l89 -40l-116 -168z" />
<glyph unicode="&#x390;" horiz-adv-x="263" d="M206 -3q-7 -1 -17.5 -1h-15.5q-59 0 -83 27t-24 86v385h105v-362q0 -28 8.5 -36t28.5 -9zM220 572v101h94v-101h-94zM-46 572v101h94v-101h-94zM64 566l71 184l93 -32l-104 -176z" />
<glyph unicode="&#x391;" horiz-adv-x="422" d="M302 0l-27 145h-128q-7 -36 -13.5 -72.5t-12.5 -72.5h-110q35 175 70 348t70 348h120l141 -696h-110zM208 535q-10 -72 -21 -143.5t-24 -145.5h95l-45 289h-5z" />
<glyph unicode="&#x392;" horiz-adv-x="430" d="M276 505q0 48 -19 69t-63 21h-34v-180h35q42 0 61.5 23t19.5 67zM282 220q0 49 -18 73t-63 24h-41v-216h43q26 0 41.5 9.5t24 25.5t11 38t2.5 46zM305 364q46 -15 63 -57t17 -96q0 -109 -46.5 -160t-142.5 -51h-144v696h152q92 0 133.5 -48.5t41.5 -140.5 q0 -48 -16.5 -84t-57.5 -54v-5z" />
<glyph unicode="&#x393;" horiz-adv-x="376" d="M160 594v-594h-108v696h301v-102h-193z" />
<glyph unicode="&#x394;" horiz-adv-x="422" d="M11 0l140 696h120l142 -696h-402zM185 372l-46 -270h144l-45 272l-24 150h-5z" />
<glyph unicode="&#x395;" horiz-adv-x="380" d="M52 0v696h309v-102h-201v-189h175v-103h-175v-200h201v-102h-309z" />
<glyph unicode="&#x396;" horiz-adv-x="341" d="M22 0v98l185 497h-177v101h291v-96l-185 -498h184v-102h-298z" />
<glyph unicode="&#x397;" horiz-adv-x="443" d="M284 0v304h-125v-304h-107v696h107v-291h125v291h107v-696h-107z" />
<glyph unicode="&#x398;" horiz-adv-x="430" d="M169 405h90v-103h-90v103zM278 524q0 29 -14 53t-49 24q-19 0 -31.5 -8.5t-20 -21.5t-10.5 -28.5t-3 -28.5v-347q0 -27 15.5 -49.5t48.5 -22.5t48.5 23t15.5 55v351zM387 180q0 -91 -42 -138.5t-130 -47.5t-130.5 45.5t-42.5 129.5v347q0 41 10 75t31 59t54 38.5t78 13.5 q48 0 81 -12.5t53.5 -36.5t29 -58.5t8.5 -77.5v-337z" />
<glyph unicode="&#x399;" horiz-adv-x="217" d="M54 0v696h109v-696h-109z" />
<glyph unicode="&#x39a;" horiz-adv-x="430" d="M317 0l-112 300q-11 -24 -22.5 -48.5t-23.5 -48.5v-203h-107v696h107v-281h5l131 281h112q-35 -71 -70 -141t-70 -141l160 -414h-110z" />
<glyph unicode="&#x39b;" horiz-adv-x="422" d="M212 518l-26 -136q-10 -55 -16.5 -94.5t-12 -70.5t-9.5 -55.5t-8 -48.5l-8.5 -51t-10.5 -62h-110q35 175 70 348t70 348h120l141 -696h-110l-29 171q-7 39 -15 86.5t-22 120.5l-22 140h-2z" />
<glyph unicode="&#x39c;" horiz-adv-x="573" d="M254 152l-50 129l-43 122h-5v-403h-107v696h104l76 -198l55 -151h5l56 155l75 194h104v-696h-108v401h-4l-44 -124l-49 -125h-65z" />
<glyph unicode="&#x39d;" horiz-adv-x="466" d="M156 405v-405h-107v696h97l84 -207q10 -26 20 -51t21 -51l35 -96q2 0 2.5 0.5t2.5 0.5v404h106v-696h-95l-84 206q-20 51 -39.5 100t-38.5 99h-4z" />
<glyph unicode="&#x39e;" horiz-adv-x="376" d="M29 594v102h324v-102h-324zM56 303v101h269v-101h-269zM29 0v106h324v-106h-324z" />
<glyph unicode="&#x39f;" horiz-adv-x="430" d="M275 526q0 29 -12.5 52t-47.5 23q-19 0 -31 -8.5t-18.5 -21t-9 -28t-2.5 -28.5v-350q0 -27 13.5 -48.5t46.5 -21.5t47 22.5t14 54.5v354zM384 178q0 -91 -41 -137.5t-129 -46.5t-128 44.5t-40 128.5v350q0 41 9.5 75t29.5 58.5t52.5 38t77.5 13.5q48 0 80.5 -12.5 t52 -36.5t28 -58t8.5 -77v-340z" />
<glyph unicode="&#x3a0;" horiz-adv-x="430" d="M270 0v595h-110v-595h-108v696h326v-696h-108z" />
<glyph unicode="&#x3a1;" horiz-adv-x="412" d="M206 696q96 0 140.5 -50t44.5 -161q0 -49 -9 -89t-31 -68.5t-57.5 -44.5t-89.5 -16h-44v-267h-108v696h154zM160 594v-224h38q50 0 69.5 28.5t19.5 85.5q0 51 -18.5 80.5t-68.5 29.5h-40z" />
<glyph unicode="&#x3a3;" horiz-adv-x="330" d="M135 103h185v-103h-301v96l89 263l-92 243v94h292v-102h-176l92 -235z" />
<glyph unicode="&#x3a4;" horiz-adv-x="340" d="M224 595v-595h-109v595h-112v101h333v-101h-112z" />
<glyph unicode="&#x3a5;" horiz-adv-x="395" d="M201 425l33 123l39 148h114l-135 -408v-288h-108v288l-136 408h114l43 -151l32 -120h4z" />
<glyph unicode="&#x3a6;" horiz-adv-x="554" d="M511 234q0 -44 -16 -76t-41.5 -54t-57.5 -34t-65 -15v-55h-107v55h-1q-49 5 -83 21.5t-55.5 42.5t-31 61t-9.5 77v225q0 43 15.5 76t41 56t58 35t65.5 12v35h107l1 -35q33 -2 65 -14t57.5 -34.5t41 -55.5t15.5 -76v-247zM410 490q0 38 -22.5 59t-56.5 24l1 -429 q13 2 27 8t25.5 16t18.5 24t7 32v266zM224 573q-36 -5 -57 -25t-21 -58v-266q0 -19 7 -33.5t18 -24.5t25 -15.5t28 -6.5v429z" />
<glyph unicode="&#x3a7;" horiz-adv-x="414" d="M286 0l-79 239h-2l-79 -239h-120l141 364q-33 83 -65.5 165.5t-65.5 166.5h121q17 -53 34 -104.5t34 -104.5l4 1l66 208h122l-135 -332q36 -92 72.5 -182.5t72.5 -181.5h-121z" />
<glyph unicode="&#x3a8;" horiz-adv-x="552" d="M507 695v-364q0 -39 -14.5 -71t-39 -55t-56.5 -36t-67 -14v-155h-107v155q-36 1 -68 14t-56.5 36t-39 55t-14.5 71v364h106v-361q0 -36 20 -54.5t52 -19.5v435h107v-435q29 1 50.5 20t21.5 54v361h105z" />
<glyph unicode="&#x3a9;" horiz-adv-x="430" d="M275 523q0 15 -2.5 29t-9 25t-18.5 17.5t-31 6.5q-20 0 -31.5 -9t-18.5 -22t-9 -28.5t-2 -28.5v-340q0 -25 10 -39t27 -20v-114h-152v102h48l1 1q-26 20 -33.5 53t-7.5 77v284q0 41 10 75t30.5 58.5t52 38t75.5 13.5q47 0 79 -12.5t52 -36.5t29 -58t9 -77v-289 q0 -12 -0.5 -23t-1.5 -21q-5 -55 -39 -82v-1h50v-102h-153v113q16 7 26 21.5t10 38.5v350v0z" />
<glyph unicode="&#x3aa;" horiz-adv-x="217" d="M54 0v696h109v-696h-109zM142 740v106h94v-106h-94zM-22 740v106h94v-106h-94z" />
<glyph unicode="&#x3ab;" horiz-adv-x="395" d="M201 425l33 123l39 148h114l-135 -408v-288h-108v288l-136 408h114l43 -151l32 -120h4zM231 740v106h94v-106h-94zM67 740v106h94v-106h-94z" />
<glyph unicode="&#x3ac;" horiz-adv-x="386" d="M242 0v38h-4q-14 -23 -40.5 -34t-45.5 -11q-29 0 -48.5 7.5t-31.5 20.5t-19 31t-12 38q-5 21 -6.5 56.5t-2.5 100.5q0 35 1.5 67t3.5 58q8 71 40.5 99.5t76.5 28.5q29 0 51.5 -11t34.5 -34l3 2v37h107v-494h-108zM194 395q-31 0 -39 -23q-7 -13 -9 -44t-2 -76t1.5 -79.5 t8.5 -51.5q11 -24 40 -24q22 0 35 15.5t13 37.5q1 23 0.5 51t0.5 58v6v37t-1 34q0 26 -11.5 42.5t-36.5 16.5zM133 574l85 177l89 -40l-116 -168z" />
<glyph unicode="&#x3ad;" horiz-adv-x="369" d="M190 401q-23 0 -34 -16.5t-11 -37.5q0 -22 11.5 -36.5t36.5 -14.5h53v-87h-55q-26 0 -36 -18.5t-10 -40.5t11 -38.5t36 -16.5q17 0 32 13.5t15 43.5l110 -17q-2 -66 -42.5 -103.5t-107.5 -37.5q-75 0 -119 33.5t-44 115.5q0 34 11.5 64.5t48.5 46.5v1q-35 14 -46.5 40.5 t-11.5 62.5q0 31 10 57.5t29 45.5t47.5 30t64.5 11q72 0 116 -38.5t44 -109.5l-110 -14q0 61 -49 61zM132 574l85 177l89 -40l-116 -168z" />
<glyph unicode="&#x3ae;" horiz-adv-x="390" d="M146 450h4q15 21 40 35.5t53 14.5q30 0 50.5 -9.5t33 -27t18 -40.5t5.5 -50v-373h-108v342q0 26 -12.5 39.5t-34.5 13.5q-23 0 -36 -14.5t-13 -41.5v-339h-108v494h108v-44zM125 574l85 177l89 -40l-116 -168z" />
<glyph unicode="&#x3af;" horiz-adv-x="211" d="M186 -3q-7 -1 -17.5 -1h-15.5q-59 0 -83 27t-24 86v385h105v-362q0 -28 8.5 -36t28.5 -9zM46 574l85 177l89 -40l-116 -168z" />
<glyph unicode="&#x3b0;" horiz-adv-x="382" d="M141 493v-266q0 -30 0.5 -57t5.5 -42q10 -34 46 -34q16 0 27 10t15 24q1 4 2.5 15.5t2 27.5t1 35t0.5 38v249h108v-262q0 -27 -1 -53.5t-4 -52.5q-5 -42 -21.5 -67.5t-39 -40t-48.5 -19.5t-51 -5q-33 0 -57 8.5t-41 22.5t-27.5 32t-15.5 37q-3 12 -5 30t-3 38.5t-1 42 v40.5v249h107zM278 572v101h94v-101h-94zM12 572v101h94v-101h-94zM122 566l71 184l93 -32l-104 -176z" />
<glyph unicode="&#x3b1;" horiz-adv-x="386" d="M242 0v38h-4q-14 -23 -40.5 -34t-45.5 -11q-29 0 -48.5 7.5t-31.5 20.5t-19 31t-12 38q-5 21 -6.5 56.5t-2.5 100.5q0 35 1.5 67t3.5 58q8 71 40.5 99.5t76.5 28.5q29 0 51.5 -11t34.5 -34l3 2v37h107v-494h-108zM194 395q-31 0 -39 -23q-7 -13 -9 -44t-2 -76t1.5 -79.5 t8.5 -51.5q11 -24 40 -24q22 0 35 15.5t13 37.5q1 23 0.5 51t0.5 58v6v37t-1 34q0 26 -11.5 42.5t-36.5 16.5z" />
<glyph unicode="&#x3b2;" horiz-adv-x="395" d="M148 171q0 -12 1.5 -25.5t7 -24t15 -17.5t24.5 -7q18 0 28.5 6.5t16 22.5t7.5 42.5t2 65.5q0 38 -2 63.5t-8 41.5t-17 22.5t-30 6.5h-11v84h10q13 0 22 7.5t15 20t8.5 28t2.5 31.5t-2.5 31t-7.5 27t-14.5 19.5t-22.5 7.5q-21 0 -33 -14t-12 -34v-405zM41 571 q0 72 40 113.5t115 41.5q153 0 153 -181q0 -54 -13 -84t-45 -45v-2q22 -8 35 -21.5t20.5 -34.5t10 -52t2.5 -73q0 -55 -3.5 -99.5t-16 -75.5t-37 -47.5t-65.5 -16.5q-26 0 -46.5 9t-37.5 31h-4v-182h-108v719z" />
<glyph unicode="&#x3b3;" horiz-adv-x="374" d="M140 -35l-6 52q-10 45 -19.5 87.5t-19 84.5l-19 84t-20.5 86q-5 23 -13.5 33t-26.5 10h-5l-9 89q18 7 34 9t29 2q32 0 48 -15.5t27 -43.5q8 -20 13.5 -44.5t10.5 -49.5l29 -155h6q13 75 27.5 151t29.5 149h113q-31 -122 -62.5 -247t-61.5 -251v-193h-105v162z" />
<glyph unicode="&#x3b4;" horiz-adv-x="386" d="M321 633q-23 2 -39 3t-27 1q-42 0 -68 -15t-26 -47q0 -16 20 -37t56 -44q38 -23 60.5 -43.5t34.5 -44.5t16 -53t4 -68q0 -42 -0.5 -81.5t-5.5 -78.5q-4 -41 -20 -66.5t-38.5 -40t-49 -20t-51.5 -5.5q-34 0 -58.5 8t-41 22t-27 33t-15.5 41q-7 29 -8 66.5t-1 73.5 q0 32 3 70.5t14 69.5q9 25 26 45t44 32q-35 28 -48.5 56t-13.5 68q0 68 43 107t136 39q16 0 40.5 -1t47.5 -5zM195 391q-18 -5 -29 -17.5t-15 -24.5q-5 -17 -7 -42t-2 -78q0 -44 2 -70t10 -43q10 -22 40 -22q15 0 23.5 5.5t13.5 15.5q8 16 11 43.5t4 71.5v61q0 43 -10 66 q-6 13 -15.5 20.5t-25.5 13.5z" />
<glyph unicode="&#x3b5;" horiz-adv-x="369" d="M190 401q-23 0 -34 -16.5t-11 -37.5q0 -22 11.5 -36.5t36.5 -14.5h53v-87h-55q-26 0 -36 -18.5t-10 -40.5t11 -38.5t36 -16.5q17 0 32 13.5t15 43.5l110 -17q-2 -66 -42.5 -103.5t-107.5 -37.5q-75 0 -119 33.5t-44 115.5q0 34 11.5 64.5t48.5 46.5v1q-35 14 -46.5 40.5 t-11.5 62.5q0 31 10 57.5t29 45.5t47.5 30t64.5 11q72 0 116 -38.5t44 -109.5l-110 -14q0 61 -49 61z" />
<glyph unicode="&#x3b6;" horiz-adv-x="364" d="M202 398h-154v97h306v-85q-105 -72 -159 -137.5t-54 -113.5q0 -27 24.5 -45t86.5 -43q42 -17 62.5 -37t20.5 -50q0 -10 -3 -23t-11.5 -30.5t-24 -40.5t-41.5 -53l-72 45q26 38 32.5 53t6.5 20q0 13 -9.5 20.5t-31.5 15.5q-31 11 -58.5 23t-48 29t-32.5 42t-12 63 q0 60 40 120.5t132 126.5v3z" />
<glyph unicode="&#x3b7;" horiz-adv-x="390" d="M146 450h4q15 21 40 35.5t53 14.5q30 0 50.5 -9.5t33 -27t18 -40.5t5.5 -50v-373h-108v342q0 26 -12.5 39.5t-34.5 13.5q-23 0 -36 -14.5t-13 -41.5v-339h-108v494h108v-44z" />
<glyph unicode="&#x3b8;" horiz-adv-x="382" d="M348 271q0 -35 -0.5 -75t-4.5 -72q-5 -42 -21 -67.5t-38.5 -39.5t-48.5 -19t-51 -5q-33 0 -57 8.5t-41.5 22t-28 31.5t-15.5 37q-5 21 -6.5 61.5t-2.5 90.5v104q0 42 0.5 77t0.5 65q1 50 4.5 89.5t11.5 59.5q14 38 49.5 62t93.5 24q60 0 94 -24.5t47 -59.5 q11 -30 12.5 -89.5t1.5 -140.5v-140zM147 127q10 -34 45 -34q18 0 28 11.5t15 25.5q3 11 4.5 44.5t1.5 68.5v87h-100v-104q0 -30 0.5 -57t5.5 -42zM241 467q0 37 -1 72.5t-5 50.5q-10 35 -43 35q-20 0 -29.5 -9t-14.5 -26q-5 -16 -5.5 -51t-1.5 -82v-44h100v54z" />
<glyph unicode="&#x3b9;" horiz-adv-x="211" d="M186 -3q-7 -1 -17.5 -1h-15.5q-59 0 -83 27t-24 86v385h105v-362q0 -28 8.5 -36t28.5 -9z" />
<glyph unicode="&#x3ba;" horiz-adv-x="401" d="M156 317l104 177h126l-124 -192l133 -302h-124q-21 51 -41.5 101.5t-41.5 101.5q-9 -17 -18 -33t-19 -33v-137h-107v494h107v-177h5z" />
<glyph unicode="&#x3bb;" horiz-adv-x="370" d="M366 0q-38 -3 -62 0t-39.5 15.5t-25 35.5t-17.5 60l-39 179h-3q-7 -29 -15 -59t-15 -60l-40 -171h-107q34 118 67.5 235.5t66.5 235.5l-22 109q-5 23 -16 37t-43 14h-8l-2 91q15 4 30 5.5t26 1.5q48 0 73 -26.5t38 -82.5l112 -496q6 -26 13.5 -32.5t26.5 -8.5z" />
<glyph unicode="&#x3bc;" horiz-adv-x="400" d="M249 44h-4q-11 -20 -32.5 -29t-43.5 -9h-7.5t-8.5 1v-199h-108v686h108v-342q0 -26 12.5 -39.5t34.5 -13.5q23 0 36 14.5t13 41.5v339h108v-494h-108v44z" />
<glyph unicode="&#x3bd;" horiz-adv-x="367" d="M245 0h-124q-29 125 -58 247t-58 247h118q9 -50 18 -99t17 -99q6 -38 12 -75t13 -75h5l24 149l33 199h117z" />
<glyph unicode="&#x3be;" horiz-adv-x="338" d="M195 726q75 0 115 -38t40 -111q-27 -4 -53.5 -7.5t-52.5 -6.5q0 29 -13 46.5t-35 17.5q-29 0 -40 -24.5t-11 -68.5q0 -22 2.5 -40.5t10.5 -32t24 -21t43 -7.5h77v-92h-73q-27 0 -43.5 -12t-25.5 -30.5t-12 -41t-3 -43.5q0 -28 5 -47t16 -33t28 -25t41 -23 q52 -26 80.5 -45.5t28.5 -51.5q0 -12 -3 -26t-11 -33t-22 -43t-36 -55l-80 46q17 28 25 45t8 28q0 13 -12 22.5t-37 20.5q-43 15 -70 34t-42.5 45t-21.5 60t-6 80q0 60 14.5 105t56.5 65q-24 9 -38 25.5t-21.5 37t-9.5 43.5t-2 44q0 43 8 78.5t26.5 61t49 39.5t75.5 14z" />
<glyph unicode="&#x3bf;" horiz-adv-x="382" d="M194 502q40 0 67.5 -10.5t45.5 -28.5t26.5 -42t10.5 -52q4 -29 4.5 -64t0.5 -64v-26q0 -23 -1.5 -46t-3.5 -45q-5 -41 -21.5 -67t-39 -40t-48.5 -19t-51 -5q-35 0 -60.5 9.5t-43 25.5t-27 36.5t-13.5 43.5q-2 13 -3.5 29.5t-2.5 34.5t-1 36.5v34.5q0 24 1 49.5t3 48.5 t5 43t8 32q14 38 50 62t94 24zM193 402q-24 0 -36 -18q-7 -12 -10.5 -26t-5 -32t-1.5 -40.5v-51.5v-8q0 -27 0.5 -52t4.5 -40q5 -17 16 -28.5t32 -11.5q16 0 27.5 9.5t15.5 23.5q1 4 2.5 15.5t2.5 28t1.5 35.5t0.5 38q0 35 -1 68t-5 50q-2 11 -7 18q-11 22 -37 22z" />
<glyph unicode="&#x3c0;" horiz-adv-x="405" d="M250 0v399h-95v-399h-108v495h312v-495h-109z" />
<glyph unicode="&#x3c1;" horiz-adv-x="383" d="M193 402q-12 0 -20.5 -5t-15.5 -13q-11 -13 -13.5 -49.5t-3.5 -100.5v-8q0 -27 0.5 -52t4.5 -40q5 -17 16 -28.5t32 -11.5q16 0 27.5 9.5t15.5 23.5q1 4 2.5 15.5t2.5 28t1.5 35.5t0.5 38q0 44 -1 77t-12 59q-11 22 -37 22zM193 502q60 0 94 -24.5t48 -59.5 q10 -25 12 -73.5t2 -111.5q0 -25 -0.5 -51.5t-2.5 -49.5q-5 -68 -33 -103t-87 -35q-19 0 -41.5 9.5t-38.5 29.5h-4v-225h-108q0 109 -0.5 217.5t-0.5 217.5q0 24 1 49.5t3 48.5t5 43t8 32q15 38 50 62t93 24z" />
<glyph unicode="&#x3c2;" horiz-adv-x="357" d="M34 198q0 15 0.5 29.5t0.5 28.5q1 52 4.5 97t10.5 63q14 38 49 62t93 24q75 0 111.5 -40t36.5 -109l-54 -6t-54 -7q0 32 -12.5 47t-32.5 15t-29.5 -16.5t-13.5 -40.5t-4 -50.5v-46.5v-14q0 -23 2 -42t10.5 -36t26 -32.5t48.5 -31.5q27 -14 43.5 -26t26.5 -24t13.5 -24 t3.5 -26q0 -25 -20.5 -65.5t-54.5 -87.5l-80 45q20 35 28 54.5t8 27.5q0 11 -7.5 19t-26.5 18q-44 22 -69 41t-38 41t-16.5 48.5t-3.5 64.5z" />
<glyph unicode="&#x3c3;" horiz-adv-x="394" d="M385 405h-63l-3 -4q15 -11 21.5 -29t8.5 -37q2 -20 2.5 -41.5t0.5 -41.5v-21q0 -28 -1 -54t-4 -53q-5 -41 -21.5 -67t-39 -40t-48.5 -19t-51 -5q-33 0 -57 8.5t-41 22t-27.5 31.5t-15.5 38q-3 12 -5 30.5t-3 38.5t-1.5 41.5t-0.5 39.5q0 48 3.5 94t13.5 71 q15 41 55.5 63.5t88.5 22.5h188v-89zM196 391q-24 0 -36 -18q-12 -12 -14 -44t-3 -95v-8q0 -27 0.5 -51.5t4.5 -39.5q5 -17 16 -28.5t32 -11.5q17 0 29 11t14 26q3 11 5 44t2 68q0 44 -1 71.5t-12 53.5q-11 22 -37 22z" />
<glyph unicode="&#x3c4;" horiz-adv-x="269" d="M200 0q-34 0 -57 10.5t-37.5 27.5t-20.5 38t-6 42v287h-67v90h250v-90h-78v-252q0 -28 10 -40.5t38 -12.5h12v-100h-44z" />
<glyph unicode="&#x3c5;" horiz-adv-x="382" d="M141 493v-266q0 -30 0.5 -57t5.5 -42q10 -34 46 -34q16 0 27 10t15 24q1 4 2.5 15.5t2 27.5t1 35t0.5 38v249h108v-262q0 -27 -1 -53.5t-4 -52.5q-5 -42 -21.5 -67.5t-39 -40t-48.5 -19.5t-51 -5q-33 0 -57 8.5t-41 22.5t-27.5 32t-15.5 37q-3 12 -5 30t-3 38.5t-1 42 v40.5v249h107z" />
<glyph unicode="&#x3c6;" horiz-adv-x="515" d="M316 500q31 0 56 -8t44 -20.5t31.5 -29t18.5 -34.5q12 -33 13.5 -79.5t1.5 -90.5v-7q0 -28 -0.5 -50.5t-3.5 -47.5q-5 -42 -22.5 -68.5t-41.5 -41.5t-51.5 -21.5t-51.5 -7.5v-186h-104v186q-70 2 -109.5 32t-49.5 69q-3 12 -5 30t-3 38t-1.5 41t-0.5 39q0 24 1 49.5 t3 48.5t5 43t8 32q11 29 33.5 48.5t57.5 27.5l30 -94q-8 -4 -13.5 -9t-9.5 -15q-2 -6 -3.5 -22.5t-2.5 -38t-1.5 -44t-0.5 -39.5q0 -44 1.5 -68t4.5 -35q5 -15 20.5 -23.5t35.5 -9.5v406h110zM309 94q28 2 41.5 14t18.5 27q2 8 4 39.5t2 69.5q0 37 -1.5 69t-5.5 47 q-5 17 -19.5 27.5t-39.5 12.5v-306z" />
<glyph unicode="&#x3c7;" horiz-adv-x="369" d="M244 0l-58 155h-3l-60 -155h-118q29 63 59.5 126t59.5 126l-114 242h121l54 -146h2q14 37 26.5 73.5t26.5 72.5h119l-114 -242q30 -63 59.5 -126t58.5 -126h-119z" />
<glyph unicode="&#x3c8;" horiz-adv-x="518" d="M482 159q0 -42 -14 -73t-37.5 -51t-54.5 -30t-64 -11v-186h-105v186q-78 2 -123.5 44t-45.5 117v339h107v-339q0 -26 15 -43t47 -18v400h104v-400q26 1 45 16.5t19 44.5v339h107v-335v0z" />
<glyph unicode="&#x3c9;" horiz-adv-x="565" d="M384 -6q-25 0 -55.5 12.5t-45.5 41.5h-5q-18 -30 -44 -42.5t-54 -12.5q-33 0 -56.5 8.5t-40 22.5t-27 32t-15.5 37q-3 12 -5 30t-2.5 38.5t-1 42t-0.5 40.5q0 24 1 49t3 48.5t5 43.5t8 32q14 38 48 60.5t89 24.5v-100q-28 -3 -38 -30q-5 -14 -6.5 -50.5t-2.5 -87.5 q0 -35 0.5 -64t5.5 -43q10 -34 41 -34q18 0 30.5 12.5t12.5 33.5v199h104v-199q0 -21 12 -33.5t32 -12.5q18 0 30 9.5t15 24.5q4 11 5 42.5t1 65.5q-1 46 -2 82.5t-6 52.5q-9 29 -37 32l1 100q57 -2 89.5 -24t46.5 -58q10 -28 13 -77.5t3 -101.5q0 -16 -0.5 -34.5 t-1.5 -36.5t-3 -34t-4 -28q-10 -59 -48 -86.5t-95 -27.5z" />
<glyph unicode="&#x3ca;" horiz-adv-x="211" d="M186 -3q-7 -1 -17.5 -1h-15.5q-59 0 -83 27t-24 86v385h105v-362q0 -28 8.5 -36t28.5 -9zM136 568v105h94v-105h-94zM-28 568v105h94v-105h-94z" />
<glyph unicode="&#x3cb;" horiz-adv-x="382" d="M141 493v-266q0 -30 0.5 -57t5.5 -42q10 -34 46 -34q16 0 27 10t15 24q1 4 2.5 15.5t2 27.5t1 35t0.5 38v249h108v-262q0 -27 -1 -53.5t-4 -52.5q-5 -42 -21.5 -67.5t-39 -40t-48.5 -19.5t-51 -5q-33 0 -57 8.5t-41 22.5t-27.5 32t-15.5 37q-3 12 -5 30t-3 38.5t-1 42 v40.5v249h107zM224 568v105h94v-105h-94zM60 568v105h94v-105h-94z" />
<glyph unicode="&#x3cc;" horiz-adv-x="382" d="M194 502q40 0 67.5 -10.5t45.5 -28.5t26.5 -42t10.5 -52q4 -29 4.5 -64t0.5 -64v-26q0 -23 -1.5 -46t-3.5 -45q-5 -41 -21.5 -67t-39 -40t-48.5 -19t-51 -5q-35 0 -60.5 9.5t-43 25.5t-27 36.5t-13.5 43.5q-2 13 -3.5 29.5t-2.5 34.5t-1 36.5v34.5q0 24 1 49.5t3 48.5 t5 43t8 32q14 38 50 62t94 24zM193 402q-24 0 -36 -18q-7 -12 -10.5 -26t-5 -32t-1.5 -40.5v-51.5v-8q0 -27 0.5 -52t4.5 -40q5 -17 16 -28.5t32 -11.5q16 0 27.5 9.5t15.5 23.5q1 4 2.5 15.5t2.5 28t1.5 35.5t0.5 38q0 35 -1 68t-5 50q-2 11 -7 18q-11 22 -37 22zM144 574 l85 177l89 -40l-116 -168z" />
<glyph unicode="&#x3cd;" horiz-adv-x="382" d="M141 493v-266q0 -30 0.5 -57t5.5 -42q10 -34 46 -34q16 0 27 10t15 24q1 4 2.5 15.5t2 27.5t1 35t0.5 38v249h108v-262q0 -27 -1 -53.5t-4 -52.5q-5 -42 -21.5 -67.5t-39 -40t-48.5 -19.5t-51 -5q-33 0 -57 8.5t-41 22.5t-27.5 32t-15.5 37q-3 12 -5 30t-3 38.5t-1 42 v40.5v249h107zM132 574l85 177l89 -40l-116 -168z" />
<glyph unicode="&#x3ce;" horiz-adv-x="565" d="M384 -6q-25 0 -55.5 12.5t-45.5 41.5h-5q-18 -30 -44 -42.5t-54 -12.5q-33 0 -56.5 8.5t-40 22.5t-27 32t-15.5 37q-3 12 -5 30t-2.5 38.5t-1 42t-0.5 40.5q0 24 1 49t3 48.5t5 43.5t8 32q14 38 48 60.5t89 24.5v-100q-28 -3 -38 -30q-5 -14 -6.5 -50.5t-2.5 -87.5 q0 -35 0.5 -64t5.5 -43q10 -34 41 -34q18 0 30.5 12.5t12.5 33.5v199h104v-199q0 -21 12 -33.5t32 -12.5q18 0 30 9.5t15 24.5q4 11 5 42.5t1 65.5q-1 46 -2 82.5t-6 52.5q-9 29 -37 32l1 100q57 -2 89.5 -24t46.5 -58q10 -28 13 -77.5t3 -101.5q0 -16 -0.5 -34.5 t-1.5 -36.5t-3 -34t-4 -28q-10 -59 -48 -86.5t-95 -27.5zM234 574l85 177l89 -40l-116 -168z" />
<glyph unicode="&#x401;" horiz-adv-x="380" d="M52 0v696h309v-102h-201v-189h175v-103h-175v-200h201v-102h-309zM243 740v106h94v-106h-94zM79 740v106h94v-106h-94z" />
<glyph unicode="&#x402;" horiz-adv-x="494" d="M286 368q-13 0 -31 -7.5t-35 -23.5v-337h-108v595h-102v101h364v-101h-154v-162h3q24 18 51.5 26.5t53.5 8.5q36 0 59 -12t37 -31t19.5 -43t5.5 -48v-187q0 -87 -32 -134t-115 -47h-22v90q32 0 46 20.5t14 57.5v170q0 27 -11 45.5t-43 18.5z" />
<glyph unicode="&#x403;" horiz-adv-x="376" d="M160 594v-594h-108v696h301v-102h-193zM115 770l154 121l64 -75l-179 -98z" />
<glyph unicode="&#x404;" horiz-adv-x="402" d="M215 702q42 0 73 -11.5t51 -32t30.5 -49t10.5 -62.5l-105 -21q-1 33 -16.5 53.5t-44.5 20.5q-18 0 -30 -8t-19 -20t-9.5 -26.5t-2.5 -27.5v-111h139v-105h-139v-138q0 -11 2 -23t8.5 -22.5t18 -17t29.5 -6.5q58 0 61 77l108 -17q-4 -75 -45.5 -118t-119.5 -43 q-87 0 -128 43.5t-41 128.5v346q0 39 9 74t29.5 60.5t52.5 40.5t78 15z" />
<glyph unicode="&#x405;" horiz-adv-x="411" d="M379 198q0 -47 -8.5 -84.5t-28.5 -64t-53.5 -41t-82.5 -14.5q-45 0 -77.5 13t-53.5 36t-30.5 54t-9.5 66l107 21q2 -39 15 -63.5t51 -24.5q22 0 35 8.5t19.5 22.5t8 32t1.5 38q0 25 -3 42t-11.5 29t-24 21t-40.5 20q-50 21 -80.5 43t-46.5 46.5t-21 52t-5 60.5 q0 42 10 77t31 60.5t53.5 39.5t77.5 14q49 0 81 -15.5t51 -39.5t27 -53t8 -56l-107 -25q0 38 -13 62t-51 24q-20 0 -31.5 -8t-18.5 -21t-9 -28t-2 -30q0 -18 2 -31.5t11.5 -25.5t28.5 -24t52 -25q46 -18 73.5 -38.5t41.5 -45t18.5 -55t4.5 -69.5z" />
<glyph unicode="&#x406;" horiz-adv-x="217" d="M54 0v696h109v-696h-109z" />
<glyph unicode="&#x407;" horiz-adv-x="217" d="M54 0v696h109v-696h-109zM143 747v105h94v-105h-94zM-21 747v105h94v-105h-94z" />
<glyph unicode="&#x408;" horiz-adv-x="352" d="M294 696v-523q0 -86 -43 -132.5t-126 -46.5q-45 0 -82.5 19.5t-62.5 59.5l80 62q11 -17 29.5 -28.5t34.5 -11.5q33 0 47.5 22.5t14.5 51.5v527h108z" />
<glyph unicode="&#x409;" horiz-adv-x="635" d="M423 102q50 0 68 31.5t18 83.5q0 57 -19.5 83t-68.5 26h-39v-224h41zM274 594h-91v-268q0 -84 -6 -141t-22 -96t-43 -63.5t-70 -43.5l-41 80q26 15 42.5 33t26.5 44t13.5 63.5t3.5 93.5v400h295v-267h46q54 0 89.5 -14.5t57 -42t30.5 -66.5t9 -87q0 -109 -45 -164 t-139 -55h-156v594z" />
<glyph unicode="&#x40a;" horiz-adv-x="641" d="M280 0v315h-121v-315h-107v696h107v-278h121v278h108v-278h46q54 0 89.5 -13.5t57 -39.5t30.5 -64t9 -87q0 -109 -45 -161.5t-140 -52.5h-155zM388 102h40q6 0 14 2q45 4 59 33t14 75q0 57 -19.5 80t-69.5 23h-38v-213z" />
<glyph unicode="&#x40b;" horiz-adv-x="493" d="M340 0v305q0 29 -12 46t-42 17q-14 0 -32.5 -8t-33.5 -23v-337h-108v595h-103v101h362v-101h-151v-162h3q25 18 52 26.5t53 8.5q63 0 92 -36.5t29 -97.5v-334h-109z" />
<glyph unicode="&#x40c;" horiz-adv-x="439" d="M52 0v696h107v-294h22q36 0 59 21t35 75q2 9 8.5 37.5t13 61t12.5 61t8 37.5h101q-11 -53 -22 -104.5t-22 -103.5q-11 -51 -33.5 -82.5t-51.5 -43.5v-2q38 -14 59 -45t32 -82q13 -59 24.5 -116.5t24.5 -115.5h-108l-20 102t-21 102q-11 56 -33.5 78t-58.5 22h-29v-304 h-107zM153 770l154 121l64 -75l-179 -98z" />
<glyph unicode="&#x40e;" horiz-adv-x="389" d="M202 335l83 361h101l-140 -538q-14 -57 -31.5 -90t-37 -50t-41.5 -22t-46 -6h-39v87h25q25 0 40.5 16.5t26.5 51.5q1 1 2 6t2.5 10.5t3 10.5t2.5 7l-147 516h105l86 -360h5zM134 846q1 -11 6.5 -22.5t14 -21.5t19.5 -16.5t25 -6.5q15 0 26.5 6.5t19.5 16.5t12.5 21.5 t4.5 22.5h79q-2 -21 -11 -45.5t-26.5 -45t-43 -34t-61.5 -13.5q-39 0 -66 13.5t-44 34t-25 45t-9 45.5h79z" />
<glyph unicode="&#x40f;" horiz-adv-x="434" d="M383 696v-696h-120v-133h-90v133h-121v696h108v-591h115v591h108z" />
<glyph unicode="&#x410;" horiz-adv-x="422" d="M302 0l-27 145h-128q-7 -36 -13.5 -72.5t-12.5 -72.5h-110q35 175 70 348t70 348h120l141 -696h-110zM208 535q-10 -72 -21 -143.5t-24 -145.5h95l-45 289h-5z" />
<glyph unicode="&#x411;" horiz-adv-x="412" d="M158 102h41q8 0 14 3q44 4 58.5 34.5t14.5 76.5q0 57 -19.5 83.5t-69.5 26.5h-39v-224zM158 428h46q54 0 89.5 -14.5t57 -41.5t30.5 -66t9 -88q0 -109 -45 -163.5t-139 -54.5h-155v696h304v-102h-197v-166z" />
<glyph unicode="&#x412;" horiz-adv-x="430" d="M276 505q0 48 -19 69t-63 21h-34v-180h35q42 0 61.5 23t19.5 67zM282 220q0 49 -18 73t-63 24h-41v-216h43q26 0 41.5 9.5t24 25.5t11 38t2.5 46zM305 364q46 -15 63 -57t17 -96q0 -109 -46.5 -160t-142.5 -51h-144v696h152q92 0 133.5 -48.5t41.5 -140.5 q0 -48 -16.5 -84t-57.5 -54v-5z" />
<glyph unicode="&#x413;" horiz-adv-x="376" d="M160 594v-594h-108v696h301v-102h-193z" />
<glyph unicode="&#x414;" horiz-adv-x="485" d="M99 0v-132h-91v222l41 9q28 30 38 69.5t12 104.5l12 423h311v-598h44v-230h-91v132h-276zM196 274q-2 -60 -8 -103.5t-23 -72.5h150v498h-111z" />
<glyph unicode="&#x415;" horiz-adv-x="380" d="M52 0v696h309v-102h-201v-189h175v-103h-175v-200h201v-102h-309z" />
<glyph unicode="&#x416;" horiz-adv-x="680" d="M286 0v304h-26q-40 0 -60.5 -22.5t-31.5 -77.5l-20 -102t-21 -102h-107l48 232q11 51 32 82t59 45v2q-29 12 -51.5 43.5t-32.5 82.5q-11 52 -22 103.5t-22 104.5h100l43 -197q6 -28 16 -46.5t22 -29.5t25.5 -15.5t26.5 -4.5h22v294h108v-294h18q34 0 58 20t36 76 q2 10 8.5 38t13.5 60.5t13 60.5t8 38h100q-10 -53 -21.5 -104.5t-22.5 -103.5q-11 -51 -33 -82.5t-51 -43.5l-1 -1q38 -14 59.5 -45.5t32.5 -82.5l48 -232h-107l-41 204q-11 56 -34 78t-58 22h-26v-304h-108z" />
<glyph unicode="&#x417;" horiz-adv-x="404" d="M134 181q1 -46 17 -64.5t45 -18.5t44.5 26t15.5 83q0 107 -61 107h-42v92h44q31 0 45.5 28.5t14.5 77.5q0 41 -17 63.5t-47 22.5q-32 0 -46.5 -24t-15.5 -60l-104 23q5 78 50.5 121.5t119.5 43.5q167 0 167 -186q0 -17 -2 -39t-8.5 -44.5t-18 -41.5t-30.5 -29v-3 q18 -9 30 -25.5t19 -37t10 -44t3 -48.5q0 -109 -43.5 -159.5t-128.5 -50.5q-77 0 -122 43t-45 123z" />
<glyph unicode="&#x418;" horiz-adv-x="455" d="M298 436l-146 -436h-104v696h105v-441h4l145 441h105v-696h-106v436h-3z" />
<glyph unicode="&#x419;" horiz-adv-x="455" d="M298 436l-146 -436h-104v696h105v-441h4l145 441h105v-696h-106v436h-3zM168 854q1 -11 6.5 -22.5t14 -21.5t19.5 -16.5t25 -6.5q15 0 26.5 6.5t19.5 16.5t12.5 21.5t4.5 22.5h79q-2 -21 -11 -45.5t-26.5 -45t-43 -34t-61.5 -13.5q-39 0 -66 13.5t-44 34t-25 45t-9 45.5 h79z" />
<glyph unicode="&#x41a;" horiz-adv-x="439" d="M52 0v696h107v-294h22q36 0 59 21t35 75q2 9 8.5 37.5t13 61t12.5 61t8 37.5h101q-11 -53 -22 -104.5t-22 -103.5q-11 -51 -33.5 -82.5t-51.5 -43.5v-2q38 -14 59 -45t32 -82q13 -59 24.5 -116.5t24.5 -115.5h-108l-20 102t-21 102q-11 56 -33.5 78t-58.5 22h-29v-304 h-107z" />
<glyph unicode="&#x41b;" horiz-adv-x="453" d="M399 696v-696h-107v594h-105v-268q0 -84 -6 -141t-22 -96t-43 -63.5t-70 -43.5l-41 80q26 15 42.5 33t26.5 44t13.5 63.5t3.5 93.5v400h308z" />
<glyph unicode="&#x41c;" horiz-adv-x="573" d="M254 152l-50 129l-43 122h-5v-403h-107v696h104l76 -198l55 -151h5l56 155l75 194h104v-696h-108v401h-4l-44 -124l-49 -125h-65z" />
<glyph unicode="&#x41d;" horiz-adv-x="443" d="M284 0v304h-125v-304h-107v696h107v-291h125v291h107v-696h-107z" />
<glyph unicode="&#x41e;" horiz-adv-x="430" d="M275 526q0 29 -12.5 52t-47.5 23q-19 0 -31 -8.5t-18.5 -21t-9 -28t-2.5 -28.5v-350q0 -27 13.5 -48.5t46.5 -21.5t47 22.5t14 54.5v354zM384 178q0 -91 -41 -137.5t-129 -46.5t-128 44.5t-40 128.5v350q0 41 9.5 75t29.5 58.5t52.5 38t77.5 13.5q48 0 80.5 -12.5 t52 -36.5t28 -58t8.5 -77v-340z" />
<glyph unicode="&#x41f;" horiz-adv-x="430" d="M270 0v592h-110v-592h-108v696h326v-696h-108z" />
<glyph unicode="&#x420;" horiz-adv-x="412" d="M206 696q96 0 140.5 -50t44.5 -161q0 -49 -9 -89t-31 -68.5t-57.5 -44.5t-89.5 -16h-44v-267h-108v696h154zM160 594v-224h38q50 0 69.5 28.5t19.5 85.5q0 51 -18.5 80.5t-68.5 29.5h-40z" />
<glyph unicode="&#x421;" horiz-adv-x="406" d="M215 702q43 0 74 -12t51.5 -33.5t30 -51t9.5 -64.5l-105 -27q0 38 -14.5 62t-46.5 24q-19 0 -31 -8t-18.5 -20.5t-9 -27t-2.5 -27.5v-353q0 -10 2 -22t8.5 -22.5t18 -17.5t29.5 -7q60 0 61 86q27 -5 54 -8.5t54 -7.5q-2 -79 -43.5 -125t-122.5 -46q-86 0 -127 43.5 t-41 127.5v347q0 39 8.5 73.5t28.5 60.5t52.5 41t79.5 15z" />
<glyph unicode="&#x422;" horiz-adv-x="340" d="M224 595v-595h-109v595h-112v101h333v-101h-112z" />
<glyph unicode="&#x423;" horiz-adv-x="389" d="M202 335l83 361h101l-140 -538q-14 -57 -31.5 -90t-37 -50t-41.5 -22t-46 -6h-39v87h25q25 0 40.5 16.5t26.5 51.5q1 1 2 6t2.5 10.5t3 10.5t2.5 7l-147 516h105l86 -360h5z" />
<glyph unicode="&#x424;" horiz-adv-x="554" d="M511 234q0 -44 -16 -76t-41.5 -54t-57.5 -34t-65 -15v-55h-107v55h-1q-49 5 -83 21.5t-55.5 42.5t-31 61t-9.5 77v225q0 43 15.5 76t41 56t58 35t65.5 12v35h107l1 -35q33 -2 65 -14t57.5 -34.5t41 -55.5t15.5 -76v-247zM410 490q0 38 -22.5 59t-56.5 24l1 -429 q13 2 27 8t25.5 16t18.5 24t7 32v266zM224 573q-36 -5 -57 -25t-21 -58v-266q0 -19 7 -33.5t18 -24.5t25 -15.5t28 -6.5v429z" />
<glyph unicode="&#x425;" horiz-adv-x="414" d="M286 0l-79 239h-2l-79 -239h-120l141 364q-33 83 -65.5 165.5t-65.5 166.5h121q17 -53 34 -104.5t34 -104.5l4 1l66 208h122l-135 -332q36 -92 72.5 -182.5t72.5 -181.5h-121z" />
<glyph unicode="&#x426;" horiz-adv-x="446" d="M388 696v-595h45v-233h-90v132h-292v696h108v-595h121v595h108z" />
<glyph unicode="&#x427;" horiz-adv-x="429" d="M147 696v-254q0 -44 17 -59t49 -15q12 0 27 3t29 9v316h108v-696h-108v284q-20 -6 -40.5 -8.5t-38.5 -2.5q-35 0 -62.5 8t-47 26.5t-30 48t-10.5 72.5v268h107z" />
<glyph unicode="&#x428;" horiz-adv-x="634" d="M582 696v-696h-530v696h108v-595h103v595h108v-595h104v595h107z" />
<glyph unicode="&#x429;" horiz-adv-x="647" d="M582 101h46v-233h-91v132h-486v696h108v-595h103v595h108v-595h104v595h108v-595z" />
<glyph unicode="&#x42a;" horiz-adv-x="515" d="M13 594v102h249v-267h46q54 0 89.5 -14.5t57 -42t30.5 -66.5t9 -87q0 -109 -45 -164t-139 -55h-156v594h-141zM303 103q50 0 68 31t18 83q0 57 -19.5 83t-68.5 26h-39v-223h41z" />
<glyph unicode="&#x42b;" horiz-adv-x="607" d="M51 0v696h107v-268h46q54 0 89.5 -14.5t57 -41.5t30.5 -66t9 -88q0 -109 -45 -163.5t-139 -54.5h-155zM158 102h41q50 0 68.5 32t18.5 82q0 57 -19.5 83.5t-69.5 26.5h-39v-224zM444 0v696h108v-696h-108z" />
<glyph unicode="&#x42c;" horiz-adv-x="412" d="M51 0v696h107v-268h46q54 0 89.5 -14.5t57 -41.5t30.5 -66t9 -88q0 -109 -45 -163.5t-139 -54.5h-155zM158 102h41q50 0 68.5 32t18.5 82q0 57 -19.5 83.5t-69.5 26.5h-39v-224z" />
<glyph unicode="&#x42d;" horiz-adv-x="399" d="M357 172q0 -84 -39 -131t-127 -47q-78 0 -120.5 43t-46.5 118l107 17q3 -78 61 -78q18 0 29.5 7.5t18 19t8.5 25t2 24.5v132h-139v105h139v116q0 31 -12 54t-48 23q-29 0 -44 -21t-17 -59l-105 18q3 75 46 119.5t123 44.5q49 0 81 -15t50.5 -40.5t25.5 -59.5t7 -73v-342z " />
<glyph unicode="&#x42e;" horiz-adv-x="587" d="M541 178q0 -91 -39 -137.5t-123 -46.5q-83 0 -121.5 44.5t-38.5 128.5v137h-59v-304h-108v696h108v-291h59v111q0 41 9 75t28 58.5t49.5 38t73.5 13.5q46 0 77 -12.5t50 -36.5t27 -58t8 -77v-339zM437 525q0 14 -2.5 27.5t-9.5 24t-18 17t-28 6.5q-18 0 -29 -8.5 t-17.5 -21t-8.5 -28t-2 -28.5v-349q0 -27 12.5 -48.5t44.5 -21.5t45 22.5t13 54.5v353z" />
<glyph unicode="&#x42f;" horiz-adv-x="438" d="M26 0l39 221q7 35 22 63.5t42 44.5q-48 20 -66 60.5t-18 97.5q0 103 49.5 156t135.5 53h159v-696h-108v297h-28q-28 0 -51.5 -22t-33.5 -78l-33 -197h-109zM239 594q-49 0 -68.5 -29.5t-19.5 -77.5q0 -51 24.5 -70.5t62.5 -19.5h43v197h-42z" />
<glyph unicode="&#x430;" horiz-adv-x="385" d="M235 39q-16 -23 -40 -34t-51 -11q-33 0 -55.5 12t-36 32.5t-19 47.5t-5.5 58q0 29 7.5 57t24.5 49.5t45 35t70 13.5h63v54q0 22 -10.5 34.5t-39.5 12.5q-15 0 -30 -10t-20 -36l-98 30q13 55 52.5 86t102.5 31q75 0 113.5 -34t38.5 -114v-353h-109v38zM238 218h-43 q-23 0 -42 -15t-19 -53q0 -26 13.5 -40t36.5 -14q26 0 40 16.5t14 44.5v61z" />
<glyph unicode="&#x431;" horiz-adv-x="380" d="M209 474q55 0 83.5 -25t40.5 -59q5 -13 7.5 -31.5t4 -40t2 -44t0.5 -44.5v-9q0 -28 -0.5 -48t-3.5 -47q-5 -41 -20.5 -67t-38 -40.5t-49.5 -20t-54 -5.5q-32 0 -55.5 8.5t-40.5 22t-27.5 31.5t-15.5 37q-6 25 -7.5 64.5t-1.5 77.5v85q0 80 6 137t20 96.5t36.5 64.5 t56.5 41q21 10 36.5 16t30.5 12t33 13.5t45 19.5l36 -77q-21 -12 -37.5 -19.5t-32 -14t-31 -13.5t-34.5 -17q-32 -17 -46 -50.5t-16 -84.5h1q17 18 38 24.5t34 6.5zM192 375q-21 0 -36 -20q-4 -5 -7 -12.5t-4.5 -19t-2.5 -29.5t-2 -44v-29q0 -30 0.5 -55.5t5.5 -39.5 q9 -33 46 -33q15 0 27.5 11t16.5 27q4 15 5 39.5t1 56.5v23q0 30 -1 52.5t-5 36.5q-5 17 -15.5 26.5t-28.5 9.5z" />
<glyph unicode="&#x432;" horiz-adv-x="393" d="M43 0v494h142q85 0 125.5 -35.5t40.5 -102.5q0 -30 -12.5 -54.5t-38.5 -40.5l1 -1q32 -14 43.5 -43t11.5 -64q0 -79 -43 -116t-131 -37h-139zM252 162q0 26 -14 41t-49 15h-37v-121h37q21 0 33 5t19 14t9 20.5t2 25.5zM245 350q0 24 -12.5 36t-43.5 14h-37v-101h29 q35 0 49.5 13.5t14.5 37.5z" />
<glyph unicode="&#x433;" horiz-adv-x="339" d="M152 398v-398h-109v495h279v-97h-170z" />
<glyph unicode="&#x434;" horiz-adv-x="447" d="M385 97h42v-212h-90v115h-229v-115h-91v205l41 9q10 13 16.5 26.5t11 30t6.5 37.5t3 50l8 252h282v-398zM198 398l-5 -149q-2 -61 -8 -95t-18 -57h110v301h-79z" />
<glyph unicode="&#x435;" horiz-adv-x="376" d="M140 222q0 -28 0.5 -54t4.5 -40q10 -34 44 -34q40 0 45 57l108 -17q-4 -66 -43 -103t-111 -37q-35 0 -60 8.5t-42.5 22.5t-27.5 32t-15 36q-3 12 -5 30t-3 38.5t-1.5 42t-0.5 40.5q0 48 3.5 96t13.5 74q14 40 49 64t93 24q74 0 112 -41t38 -116v-123h-202zM149 371 q-4 -9 -5.5 -28.5t-2.5 -46.5h92v42q0 24 -8.5 43t-35.5 19q-29 0 -40 -29z" />
<glyph unicode="&#x436;" horiz-adv-x="596" d="M244 0v203h-22q-16 0 -27.5 -3t-20.5 -11.5t-15.5 -23.5t-11.5 -39q-6 -32 -13 -63t-13 -63h-106q10 40 19.5 79.5t18.5 79.5q9 36 25 62t47 35v2q-25 8 -42 32.5t-25 59.5q-9 36 -17.5 72t-16.5 72h101l30 -130q6 -24 14 -38.5t17.5 -22t20.5 -9.5t22 -2h15v201h108 v-201h15q18 0 30.5 4.5t21.5 15t15 28t12 42.5l25 112h101q-8 -36 -16.5 -72t-17.5 -72q-8 -35 -25 -59.5t-43 -32.5v-2q31 -10 47.5 -36t25.5 -61q9 -40 19 -79.5t19 -79.5h-106q-6 32 -12.5 63t-13.5 63q-5 25 -12 40t-16 23t-20.5 11t-26.5 3h-22v-203h-108z" />
<glyph unicode="&#x437;" horiz-adv-x="364" d="M276 255q31 -13 41.5 -39.5t10.5 -68.5q0 -78 -43.5 -115t-115.5 -37q-69 0 -107.5 34t-43.5 97l105 16q3 -53 49 -53q20 0 33.5 15t13.5 44q0 32 -11 49.5t-37 17.5h-37v81h39q46 0 46 59q0 23 -12 37t-35 14t-35.5 -15.5t-14.5 -38.5l-99 19q6 60 45.5 94t107.5 34 q75 0 114 -35.5t39 -105.5q0 -29 -10.5 -58.5t-42.5 -42.5v-2z" />
<glyph unicode="&#x438;" horiz-adv-x="420" d="M270 0v286h-2l-122 -286h-105v494h106v-297h2l121 297h108v-494h-108z" />
<glyph unicode="&#x439;" horiz-adv-x="420" d="M270 0v286h-2l-122 -286h-105v494h106v-297h2l121 297h108v-494h-108zM147 687q1 -11 6.5 -22.5t14 -21.5t19.5 -16.5t25 -6.5q15 0 26.5 6.5t19.5 16.5t12.5 21.5t4.5 22.5h79q-2 -21 -11 -45.5t-26.5 -45t-43 -34t-61.5 -13.5q-39 0 -66 13.5t-44 34t-25 45t-9 45.5h79 z" />
<glyph unicode="&#x43a;" horiz-adv-x="394" d="M38 0v493h108v-201h22q11 0 22 2t21 9.5t18 22t13 38.5l30 130h102q-9 -36 -17.5 -72t-16.5 -72q-8 -35 -25.5 -59.5t-43.5 -32.5v-2q33 -8 48.5 -34.5t24.5 -62.5l39 -159h-106l-27 126q-5 25 -11.5 40t-15.5 23t-20.5 11t-26.5 3h-30v-203h-108z" />
<glyph unicode="&#x43b;" horiz-adv-x="402" d="M175 398v-199q0 -52 -9 -88.5t-26.5 -61t-43 -40t-58.5 -25.5l-35 83q21 11 35 22t22.5 25.5t12.5 35t4 51.5v294h285v-495h-108v398h-79z" />
<glyph unicode="&#x43c;" horiz-adv-x="516" d="M362 264l-30 -70l-42 -89h-64l-42 88l-30 66h-3v-259h-109v495h103l68 -145l44 -94h2l44 95l69 144h102v-495h-110v264h-2z" />
<glyph unicode="&#x43d;" horiz-adv-x="399" d="M247 0v209h-95v-209h-109v494h109v-199h95v199h109v-494h-109z" />
<glyph unicode="&#x43e;" horiz-adv-x="382" d="M194 502q40 0 67.5 -10.5t45.5 -28.5t26.5 -42t10.5 -52q4 -29 4.5 -64t0.5 -64v-26q0 -23 -1.5 -46t-3.5 -45q-5 -41 -21.5 -67t-39 -40t-48.5 -19t-51 -5q-35 0 -60.5 9.5t-43 25.5t-27 36.5t-13.5 43.5q-2 13 -3.5 29.5t-2.5 34.5t-1 36.5v34.5q0 24 1 49.5t3 48.5 t5 43t8 32q14 38 50 62t94 24zM193 402q-24 0 -36 -18q-7 -12 -10.5 -26t-5 -32t-1.5 -40.5v-51.5v-8q0 -27 0.5 -52t4.5 -40q5 -17 16 -28.5t32 -11.5q16 0 27.5 9.5t15.5 23.5q1 4 2.5 15.5t2.5 28t1.5 35.5t0.5 38q0 35 -1 68t-5 50q-2 11 -7 18q-11 22 -37 22z" />
<glyph unicode="&#x43f;" horiz-adv-x="405" d="M250 0v399h-95v-399h-108v495h312v-495h-109z" />
<glyph unicode="&#x440;" horiz-adv-x="383" d="M228 501q20 0 39.5 -5.5t35.5 -19.5t27.5 -39t15.5 -64q2 -22 3 -55t1 -67q0 -44 -2.5 -89.5t-9.5 -74.5q-4 -18 -11.5 -34.5t-20.5 -29.5t-33 -21t-48 -8q-21 0 -42.5 7.5t-37.5 26.5h-3v-219h-108v686h106v-37l3 -2q14 25 35.5 35t49.5 10zM189 396q-24 0 -36 -16.5 t-12 -42.5v-157q0 -17 0.5 -31.5t4.5 -22.5q11 -28 43 -28q27 0 38 23q7 16 9.5 50t2.5 82q0 45 -2 76t-9 44q-8 23 -39 23z" />
<glyph unicode="&#x441;" horiz-adv-x="358" d="M187 -6q-34 0 -59 8t-42.5 22t-28 31.5t-15.5 37.5q-3 12 -5 30t-2.5 38.5t-1 42t-0.5 39.5q0 24 1 49.5t3 48.5t5 43t8 32q15 38 49.5 62t92.5 24q75 0 110.5 -41t35.5 -113q-26 -3 -53.5 -6t-53.5 -7q0 35 -11.5 51t-30.5 16q-30 0 -41 -30q-3 -10 -5.5 -40t-2.5 -70 v-36q0 -29 0.5 -56.5t5.5 -41.5q5 -16 15 -25.5t28 -9.5q42 0 42 64q27 -5 54 -8t54 -8q-1 -70 -39.5 -108.5t-112.5 -38.5z" />
<glyph unicode="&#x442;" horiz-adv-x="306" d="M207 398v-398h-109v398h-99v97h308v-97h-100z" />
<glyph unicode="&#x443;" horiz-adv-x="359" d="M181 167l27 144l36 183h111l-143 -570q-14 -55 -44.5 -86t-88.5 -31h-38v95h22q22 0 36 14.5t24 56.5l7 31l-126 490h115l31 -183l27 -144h4z" />
<glyph unicode="&#x444;" horiz-adv-x="515" d="M206 -7q-74 8 -112 37t-52 84q-5 26 -6.5 60t-1.5 69q0 48 3.5 86.5t13.5 68.5q15 45 56.5 70.5t98.5 31.5v191h102v-191q70 -4 108 -34.5t51 -71.5q8 -25 10.5 -65.5t2.5 -83.5v-8q0 -28 -0.5 -49t-3.5 -46q-8 -58 -38 -91q-22 -25 -54.5 -38.5t-73.5 -18.5v-185h-104 v184zM205 88q0 77 0.5 158.5t0.5 158.5q-43 -8 -56 -40q-5 -12 -7 -38t-2 -56v-70q2 -28 3 -48.5t6 -32.5q6 -15 20.5 -22.5t34.5 -9.5zM308 88q48 6 58 42q6 18 7 44t1 61q0 41 -0.5 79.5t-5.5 52.5q-5 16 -19.5 26t-40.5 12v-317z" />
<glyph unicode="&#x445;" horiz-adv-x="369" d="M244 0l-58 155h-3l-60 -155h-118q29 63 59.5 126t59.5 126l-114 242h121l54 -146h2q14 37 26.5 73.5t26.5 72.5h119l-114 -242q30 -63 59.5 -126t58.5 -126h-119z" />
<glyph unicode="&#x446;" horiz-adv-x="412" d="M356 495v-396h44v-214h-91v115h-265v495h109v-396h94v396h109z" />
<glyph unicode="&#x447;" horiz-adv-x="377" d="M230 201q-12 -6 -26 -10.5t-27.5 -7.5t-25 -4.5t-18.5 -1.5q-51 0 -79 28.5t-28 86.5v202h109v-168q0 -50 43 -50q24 0 53 16v202h107v-494h-108v201z" />
<glyph unicode="&#x448;" horiz-adv-x="585" d="M541 495v-495h-496v495h108v-396h85v396h109v-396h87v396h107z" />
<glyph unicode="&#x449;" horiz-adv-x="606" d="M541 495v-396h45v-205h-90v106h-451v495h108v-396h85v396h109v-396h86v396h108z" />
<glyph unicode="&#x44a;" horiz-adv-x="466" d="M136 0v398h-125v97h235v-182h32q49 0 82 -11t53 -31.5t28 -49t8 -62.5q0 -79 -41 -119t-129 -40h-143zM275 97q40 0 53.5 18.5t13.5 42.5q0 26 -15 42t-53 16h-28v-119h29z" />
<glyph unicode="&#x44b;" horiz-adv-x="553" d="M396 0v495h110v-495h-110zM43 0v495h110v-182h32q49 0 82 -11t53 -31.5t28 -49t8 -62.5q0 -159 -170 -159h-143zM182 97q40 0 53.5 18.5t13.5 42.5q0 26 -15 42t-53 16h-28v-119h29z" />
<glyph unicode="&#x44c;" horiz-adv-x="370" d="M182 97q40 0 53 18.5t13 42.5q0 26 -15 42t-53 16h-28v-119h30zM42 0v495h110v-182h33q49 0 82 -11t53 -31.5t28 -49t8 -62.5q0 -159 -170 -159h-144z" />
<glyph unicode="&#x44d;" horiz-adv-x="359" d="M104 294h115q0 46 -6 69q-11 40 -41 40q-19 0 -30.5 -14.5t-12.5 -43.5q-26 3 -53 6.5t-53 7.5q4 67 43.5 105t112.5 38q58 0 88.5 -24t44.5 -62q5 -12 8 -32t4.5 -43t2 -48.5t0.5 -49.5q0 -18 -0.5 -39.5t-1 -42t-2.5 -38.5t-5 -30q-5 -20 -15.5 -37.5t-28 -31.5 t-42.5 -22t-59 -8q-72 0 -111 37t-41 103l108 13q3 -54 42 -54q21 0 31 12.5t14 32.5q3 12 3.5 30.5t0.5 37.5h-116v88z" />
<glyph unicode="&#x44e;" horiz-adv-x="531" d="M348 500q62 0 94.5 -26t43.5 -66q4 -16 6.5 -36.5t3.5 -43t1.5 -45t0.5 -42.5v-8q0 -27 -1 -55t-4 -54q-5 -41 -20.5 -67t-37 -40t-47 -19t-49.5 -5q-32 0 -55 8.5t-39.5 22t-26.5 31.5t-15 38q-5 19 -6.5 52t-1.5 64h-48v-209h-109v494h109v-199h48q1 38 5 69.5t10 49.5 q14 39 48 62.5t90 23.5zM347 401q-16 0 -26.5 -10.5t-15.5 -24.5q-4 -13 -5 -43t-2 -71v-26q0 -42 1.5 -69t9.5 -42q11 -21 38 -21q15 0 26.5 9.5t14.5 23.5q1 4 2.5 15.5t2 27.5t1 35t0.5 38q0 35 -0.5 67.5t-4.5 49.5q-4 16 -13 28.5t-29 12.5z" />
<glyph unicode="&#x44f;" horiz-adv-x="387" d="M21 0l37 152q5 23 16 43t31 32q-40 16 -55 47t-15 68q0 73 42 113t120 40h154v-495h-109v199h-26q-24 0 -39.5 -16t-25.5 -64l-25 -119h-105zM209 401q-32 0 -50 -15.5t-18 -46.5q0 -26 18 -39t48 -13h35v114h-33z" />
<glyph unicode="&#x451;" horiz-adv-x="376" d="M140 222q0 -28 0.5 -54t4.5 -40q10 -34 44 -34q40 0 45 57l108 -17q-4 -66 -43 -103t-111 -37q-35 0 -60 8.5t-42.5 22.5t-27.5 32t-15 36q-3 12 -5 30t-3 38.5t-1.5 42t-0.5 40.5q0 48 3.5 96t13.5 74q14 40 49 64t93 24q74 0 112 -41t38 -116v-123h-202zM149 371 q-4 -9 -5.5 -28.5t-2.5 -46.5h92v42q0 24 -8.5 43t-35.5 19q-29 0 -40 -29zM228 575v105h94v-105h-94zM64 575v105h94v-105h-94z" />
<glyph unicode="&#x452;" horiz-adv-x="401" d="M253 493q38 0 63.5 -18t35.5 -56q3 -13 5 -34.5t3 -47t1.5 -52.5t0.5 -50v-39q0 -40 -2 -79.5t-10 -62.5q-13 -42 -44.5 -64.5t-82.5 -24.5h-21l-3 86q16 1 26 5.5t15 10t6.5 12t1.5 11.5q1 10 2.5 37.5t1.5 59.5q0 49 -0.5 92.5t-3.5 71.5q-2 18 -11.5 25.5t-21.5 7.5 q-31 0 -47 -19t-16 -54v-311h-108v566h-44v69h44v91h108v-91h128v-69h-128v-123q2 0 2.5 -0.5t1.5 -0.5q13 20 40.5 35.5t56.5 15.5z" />
<glyph unicode="&#x453;" horiz-adv-x="339" d="M106 574l85 177l89 -40l-116 -168zM152 398v-398h-109v495h279v-97h-170z" />
<glyph unicode="&#x454;" horiz-adv-x="370" d="M352 130q-3 -63 -44 -99.5t-113 -36.5q-34 0 -59 8.5t-42.5 22t-28 31.5t-15.5 37q-3 12 -5 30t-2.5 38.5t-1 42t-0.5 40.5q0 24 1 49t3 48t5 43t8 32q14 38 49.5 62t93.5 24q72 0 110 -36t40 -102l-108 -11q-2 25 -14 37t-29 12q-32 0 -43 -30q-5 -10 -6 -30t-2 -49h117 v-87h-118q0 -23 1 -44.5t5 -33.5q5 -16 15 -25t29 -9q20 0 31.5 13t13.5 38z" />
<glyph unicode="&#x455;" horiz-adv-x="363" d="M135 151q-1 -27 11.5 -43t35.5 -16q24 0 36 13.5t12 37.5q0 31 -11 43.5t-41 23.5q-33 12 -60 24.5t-45.5 29.5t-28.5 40t-10 56q0 60 38.5 101t113.5 41q78 0 113.5 -39t35.5 -105l-106 -14q1 27 -10.5 43t-33.5 16q-26 0 -35 -15t-9 -30q0 -20 9.5 -32.5t44.5 -24.5 q37 -12 63.5 -25t43.5 -31t25 -42.5t8 -58.5q0 -32 -8 -59t-26.5 -47.5t-47.5 -32t-71 -11.5q-73 0 -112.5 36t-41.5 105z" />
<glyph unicode="&#x456;" horiz-adv-x="204" d="M47 591v105h109v-105h-109zM47 0v494h109v-494h-109z" />
<glyph unicode="&#x457;" horiz-adv-x="204" d="M138 568v105h94v-105h-94zM-26 568v105h94v-105h-94zM47 0v494h109v-494h-109z" />
<glyph unicode="&#x458;" horiz-adv-x="201" d="M47 591v105h109v-105h-109zM156 -52q0 -69 -36.5 -107t-115.5 -38h-20v102h16q29 0 38 16t9 54v520h109v-547z" />
<glyph unicode="&#x459;" horiz-adv-x="574" d="M177 398v-199q0 -52 -9.5 -88.5t-27 -61t-43 -40t-57.5 -25.5l-35 83q21 11 35 22t22.5 25.5t12.5 35t4 51.5v293h273v-181h33q49 0 82 -11.5t53 -31.5t28 -48.5t8 -62.5q0 -159 -170 -159h-144v398h-65zM352 97h30q38 0 52.5 18t14.5 43q0 26 -15.5 42t-53.5 16h-28 v-119z" />
<glyph unicode="&#x45a;" horiz-adv-x="577" d="M384 97q40 0 53.5 18.5t13.5 42.5q0 26 -15 39.5t-53 13.5h-28v-114h29zM355 309h32q49 0 82 -11t53 -30.5t28 -47t8 -61.5q0 -159 -170 -159h-144v216h-89v-216h-110v495h110v-187h89v187h111v-186z" />
<glyph unicode="&#x45b;" horiz-adv-x="400" d="M157 443q15 21 41 35.5t54 14.5q31 0 51 -10t32 -27.5t17 -41.5t5 -51v-363h-109v335q0 53 -46 53q-23 0 -36 -14.5t-13 -41.5v-332h-108v566h-45v69h45v91h108v-91h127v-69h-127v-122z" />
<glyph unicode="&#x45c;" horiz-adv-x="394" d="M38 0v493h108v-201h22q11 0 22 2t21 9.5t18 22t13 38.5l30 130h102q-9 -36 -17.5 -72t-16.5 -72q-8 -35 -25.5 -59.5t-43.5 -32.5v-2q33 -8 48.5 -34.5t24.5 -62.5l39 -159h-106l-27 126q-5 25 -11.5 40t-15.5 23t-20.5 11t-26.5 3h-30v-203h-108zM154 574l85 177l89 -40 l-116 -168z" />
<glyph unicode="&#x45e;" horiz-adv-x="359" d="M181 167l27 144l36 183h111l-143 -570q-14 -55 -44.5 -86t-88.5 -31h-38v95h22q22 0 36 14.5t24 56.5l7 31l-126 490h115l31 -183l27 -144h4zM117 687q1 -11 6.5 -22.5t14 -21.5t19.5 -16.5t25 -6.5q15 0 26.5 6.5t19.5 16.5t12.5 21.5t4.5 22.5h79q-2 -21 -11 -45.5 t-26.5 -45t-43 -34t-61.5 -13.5q-39 0 -66 13.5t-44 34t-25 45t-9 45.5h79z" />
<glyph unicode="&#x45f;" horiz-adv-x="402" d="M357 494v-494h-110v-125h-92v125h-108v494h109v-395h93v395h108z" />
<glyph unicode="&#x490;" horiz-adv-x="376" d="M353 810v-216h-193v-594h-108v696h212v114h89z" />
<glyph unicode="&#x491;" horiz-adv-x="339" d="M151 0h-108v494h191v115h88v-211h-171v-398z" />
<glyph unicode="&#x4d9;" horiz-adv-x="376" d="M236 274q0 28 -1 54t-6 40q-10 34 -43 34q-40 0 -44 -57l-108 17q4 66 43 103.5t112 37.5q34 0 59.5 -8.5t42.5 -22.5t27.5 -32t15.5 -37q3 -12 5 -30t3 -38.5t1.5 -42t0.5 -39.5q0 -24 -1 -49t-3 -48t-5 -42t-8 -32q-15 -40 -49.5 -64t-92.5 -24q-75 0 -113 41t-38 116 v123h202zM227 125q4 9 5.5 28.5t2.5 46.5h-92v-42q0 -24 8.5 -43t35.5 -19q29 0 40 29z" />
<glyph unicode="&#x1e80;" horiz-adv-x="611" d="M495 0h-112l-55 302q-5 29 -10 58.5t-10 58.5h-4l-21 -119l-28 -150l-28 -150h-111l-101 696h118q8 -66 15 -130t14 -130q1 -9 4 -35.5t6 -56t5.5 -56t3.5 -35.5h4q7 39 13 77.5t12 77.5l51 288h92l50 -289q6 -39 12.5 -78.5t13.5 -78.5h4l16 158l28 288h119zM328 748 l-179 99l64 75l154 -121z" />
<glyph unicode="&#x1e81;" horiz-adv-x="566" d="M280 281l-26 -150l-26 -131h-116l-102 494h114l26 -177l24 -159h4l24 160l28 176h106l28 -175l28 -162h4l22 162l25 175h112l-102 -494h-117l-25 128l-27 153h-4zM267 543l-116 168l89 40l84 -177z" />
<glyph unicode="&#x1e82;" horiz-adv-x="611" d="M495 0h-112l-55 302q-5 29 -10 58.5t-10 58.5h-4l-21 -119l-28 -150l-28 -150h-111l-101 696h118q8 -66 15 -130t14 -130q1 -9 4 -35.5t6 -56t5.5 -56t3.5 -35.5h4q7 39 13 77.5t12 77.5l51 288h92l50 -289q6 -39 12.5 -78.5t13.5 -78.5h4l16 158l28 288h119zM258 770 l154 121l64 -75l-179 -98z" />
<glyph unicode="&#x1e83;" horiz-adv-x="566" d="M280 281l-26 -150l-26 -131h-116l-102 494h114l26 -177l24 -159h4l24 160l28 176h106l28 -175l28 -162h4l22 162l25 175h112l-102 -494h-117l-25 128l-27 153h-4zM240 574l85 177l89 -40l-116 -168z" />
<glyph unicode="&#x1e84;" horiz-adv-x="611" d="M495 0h-112l-55 302q-5 29 -10 58.5t-10 58.5h-4l-21 -119l-28 -150l-28 -150h-111l-101 696h118q8 -66 15 -130t14 -130q1 -9 4 -35.5t6 -56t5.5 -56t3.5 -35.5h4q7 39 13 77.5t12 77.5l51 288h92l50 -289q6 -39 12.5 -78.5t13.5 -78.5h4l16 158l28 288h119zM178 740 v106h94v-106h-94zM342 740v106h94v-106h-94z" />
<glyph unicode="&#x1e85;" horiz-adv-x="566" d="M280 281l-26 -150l-26 -131h-116l-102 494h114l26 -177l24 -159h4l24 160l28 176h106l28 -175l28 -162h4l22 162l25 175h112l-102 -494h-117l-25 128l-27 153h-4zM317 569v105h94v-105h-94zM153 569v105h94v-105h-94z" />
<glyph unicode="&#x1ef2;" horiz-adv-x="395" d="M201 425l33 123l39 148h114l-135 -408v-288h-108v288l-136 408h114l43 -151l32 -120h4zM219 718l-179 99l64 75l154 -121z" />
<glyph unicode="&#x1ef3;" horiz-adv-x="359" d="M181 167l27 144l36 183h111l-143 -570q-14 -55 -44.5 -86t-88.5 -31h-38v95h22q22 0 36 14.5t24 56.5l7 31l-126 490h115l31 -183l27 -144h4zM170 543l-116 168l89 40l84 -177z" />
<glyph unicode="&#x2013;" horiz-adv-x="500" d="M20 225v92h460v-92h-460z" />
<glyph unicode="&#x2014;" horiz-adv-x="1000" d="M20 225v92h960v-92h-960z" />
<glyph unicode="&#x2015;" horiz-adv-x="1000" d="M20 225v92h960v-92h-960z" />
<glyph unicode="&#x2018;" horiz-adv-x="262" d="M126 707h60l-29 -131h25v-125h-111v123z" />
<glyph unicode="&#x2019;" horiz-adv-x="238" d="M126 452h-60l28 130h-25v126h112v-123z" />
<glyph unicode="&#x201a;" horiz-adv-x="214" d="M108 -137h-60l29 131h-26v126h112v-123z" />
<glyph unicode="&#x201c;" horiz-adv-x="345" d="M101 707h60l-29 -131h25v-125h-112v123zM244 707h60l-28 -131h25v-125h-112v123z" />
<glyph unicode="&#x201d;" horiz-adv-x="345" d="M250 452h-60l28 130h-25v126h112v-123zM106 452h-60l29 130h-26v126h112v-123z" />
<glyph unicode="&#x201e;" horiz-adv-x="352" d="M250 -136h-60l28 131h-25v125h112v-123zM106 -136h-60l29 131h-26v125h112v-123z" />
<glyph unicode="&#x2020;" horiz-adv-x="376" d="M236 381v-535h-96v535h-128v96h128v199h96v-199h127v-96h-127z" />
<glyph unicode="&#x2021;" horiz-adv-x="376" d="M236 381v-185h128v-96h-128v-254h-96v254h-127v96h127v185h-127v97h127v198h96v-198h128v-97h-128z" />
<glyph unicode="&#x2022;" horiz-adv-x="444" d="M88 270q0 29 11 55t30 45t45 30t55 11t55 -11t45.5 -30t30.5 -45t11 -55t-11 -55t-30.5 -45t-45.5 -30t-55 -11t-55 11t-45 30t-30 45t-11 55z" />
<glyph unicode="&#x2023;" horiz-adv-x="545" d="M509 282l-428 -246v481z" />
<glyph unicode="&#x2026;" horiz-adv-x="703" d="M49 0v121h112v-121h-112zM297 0v121h111v-121h-111zM545 0v121h111v-121h-111z" />
<glyph unicode="&#x2030;" horiz-adv-x="893" d="M523 325q0 9 -6.5 16.5t-18.5 7.5t-18.5 -7.5t-6.5 -16.5v-233q0 -9 6.5 -16.5t19.5 -7.5q11 0 17.5 7.5t6.5 16.5v233zM602 88q0 -44 -30 -67.5t-73 -23.5t-73 23.5t-30 67.5v241q0 44 30.5 68t72.5 24q44 0 73.5 -24t29.5 -68v-241zM154 605q0 9 -6.5 16.5t-18.5 7.5 t-18.5 -7.5t-6.5 -16.5v-233q0 -9 6.5 -16.5t19.5 -7.5q11 0 17.5 7.5t6.5 16.5v233zM233 368q0 -44 -30 -67.5t-73 -23.5t-73 23.5t-30 67.5v241q0 44 30.5 68t72.5 24q44 0 73.5 -24t29.5 -68v-241zM190 -17h-66l314 731h66zM786 325q0 9 -6.5 16.5t-18.5 7.5t-18.5 -7.5 t-6.5 -16.5v-233q0 -9 6.5 -16.5t19.5 -7.5q11 0 17.5 7.5t6.5 16.5v233zM865 88q0 -44 -30 -67.5t-73 -23.5t-73 23.5t-30 67.5v241q0 44 30.5 68t72.5 24q44 0 73.5 -24t29.5 -68v-241z" />
<glyph unicode="&#x2039;" horiz-adv-x="308" d="M159 46l-112 194l112 193h103l-110 -193l110 -194h-103z" />
<glyph unicode="&#x203a;" horiz-adv-x="308" d="M46 46l110 194l-110 193h104l111 -193l-111 -194h-104z" />
<glyph unicode="&#x2044;" horiz-adv-x="160" d="M-37 -17h-66l314 731h66z" />
<glyph unicode="&#x2070;" horiz-adv-x="264" d="M157 695q0 9 -6.5 16.5t-18.5 7.5t-18.5 -7.5t-6.5 -16.5v-233q0 -9 6.5 -16.5t19.5 -7.5q11 0 17.5 7.5t6.5 16.5v233zM236 458q0 -44 -30 -67.5t-73 -23.5t-73 23.5t-30 67.5v241q0 44 30.5 68t72.5 24q44 0 73.5 -24t29.5 -68v-241z" />
<glyph unicode="&#x2074;" horiz-adv-x="264" d="M221 429v-59h-74v59h-132v61l91 296h75l-88 -290h54v99h74v-99h28v-67h-28z" />
<glyph unicode="&#x2075;" horiz-adv-x="264" d="M235 477q0 -22 -5.5 -42.5t-18 -36t-32.5 -25t-48 -9.5q-51 0 -78 28t-27 77l78 13q0 -26 7 -37t21 -11q11 0 17.5 7t6.5 22v94q0 8 -4.5 15t-16.5 7q-22 0 -33 -20h-66v227h196v-68h-122l1 -84q8 5 19.5 8.5t22.5 3.5q41 0 61.5 -21.5t20.5 -56.5v-91z" />
<glyph unicode="&#x2076;" horiz-adv-x="264" d="M132 366q-39 0 -69 21.5t-32 63.5q-1 12 -1 26.5v29.5q0 9 1 14q1 40 12 67l83 197h87q-26 -61 -43.5 -101.5t-28.5 -68.5h1q9 3 23 3q28 0 50 -20t22 -67v-36v-22.5t-0.5 -14t-0.5 -9.5q-2 -38 -29 -60.5t-75 -22.5zM158 533q0 9 -7 15.5t-18 6.5q-14 0 -20 -8.5 t-6 -19.5v-67q0 -9 7 -16.5t18 -7.5q12 0 19 7.5t7 16.5v73z" />
<glyph unicode="&#x2077;" horiz-adv-x="240" d="M117 370h-79l112 347h-57v-43h-72v112h213v-60z" />
<glyph unicode="&#x2078;" horiz-adv-x="264" d="M236 661q0 -23 -6 -42t-25 -32q23 -15 27.5 -36.5t4.5 -50.5v-30q0 -53 -29.5 -78t-74.5 -25q-55 0 -80 29t-25 73v24q0 29 3.5 53t26.5 39q-18 11 -23.5 31.5t-5.5 33.5v45q0 44 28 70t75 26q50 0 77 -26.5t27 -75.5v-28zM157 530q0 11 -5.5 19.5t-19.5 8.5t-19.5 -8.5 t-5.5 -19.5v-72q0 -9 7.5 -15.5t17.5 -6.5q11 0 18 6.5t7 15.5v72zM157 695q0 11 -5.5 18.5t-19.5 7.5q-10 0 -17.5 -6t-7.5 -15v-63q0 -9 7.5 -14.5t17.5 -5.5q11 0 18 5.5t7 14.5v58z" />
<glyph unicode="&#x2079;" horiz-adv-x="264" d="M52 369q25 57 42.5 99.5t28.5 71.5h-1q-9 -3 -23 -3q-27 0 -49.5 20t-22.5 67v50q0 18 2.5 37.5t10.5 33.5q13 22 38 34t54 12q40 0 69.5 -21t31.5 -63q1 -13 1 -28.5v-31.5q0 -48 -13 -80l-83 -198h-86zM106 629q0 -11 6 -20t20 -9q17 0 21 11.5t4 18.5v64q0 10 -7 18 t-18 8q-12 0 -19 -8t-7 -18v-65z" />
<glyph unicode="&#x207a;" horiz-adv-x="264" d="M164 515v-92h-65v92h-93v61h93v92h65v-92h93v-61h-93z" />
<glyph unicode="&#x207b;" horiz-adv-x="238" d="M27 503v66h190v-66h-190z" />
<glyph unicode="&#x207c;" horiz-adv-x="264" d="M6 564v61h251v-61h-251zM6 468v61h251v-61h-251z" />
<glyph unicode="&#x207d;" horiz-adv-x="165" d="M26 554q0 73 26.5 134.5t64.5 112.5l48 -20q-31 -51 -49 -110.5t-18 -114.5q0 -60 18 -119.5t47 -107.5l-44 -28q-39 54 -66 116.5t-27 136.5z" />
<glyph unicode="&#x207e;" horiz-adv-x="165" d="M163 554q0 -74 -27.5 -136.5t-67.5 -116.5l-44 28q29 48 47.5 107.5t18.5 119.5q0 55 -18 114.5t-49 110.5l49 20q38 -50 64.5 -111.5t26.5 -135.5z" />
<glyph unicode="&#x207f;" horiz-adv-x="269" d="M107 583q10 11 26.5 19t33.5 8q44 0 61 -24.5t17 -62.5v-244h-84v223q0 30 -27 30t-27 -32v-221h-84v328h84v-24z" />
<glyph unicode="&#x2080;" horiz-adv-x="264" d="M157 235q0 9 -6.5 16.5t-18.5 7.5t-18.5 -7.5t-6.5 -16.5v-233q0 -9 6.5 -16.5t19.5 -7.5q11 0 17.5 7.5t6.5 16.5v233zM236 -2q0 -44 -30 -67.5t-73 -23.5t-73 23.5t-30 67.5v241q0 44 30.5 68t72.5 24q44 0 73.5 -24t29.5 -68v-241z" />
<glyph unicode="&#x2081;" horiz-adv-x="217" d="M93 -90v330l-61 -45v82l67 49h73v-416h-79z" />
<glyph unicode="&#x2082;" horiz-adv-x="264" d="M28 -90v62l114 197q8 14 11.5 29t3.5 31q0 11 -5 21t-21 10q-15 0 -23 -14t-8 -46l-78 11q1 58 30 89t80 31q55 0 80.5 -27t25.5 -74q0 -24 -7 -47t-22 -49q-6 -11 -18 -32t-25 -44t-25 -44t-18 -32h109v-72h-204z" />
<glyph unicode="&#x2083;" horiz-adv-x="264" d="M238 44q0 -28 -3 -53q-5 -42 -30.5 -63.5t-70.5 -21.5q-52 0 -78.5 28t-26.5 77v5l78 9q2 -22 7 -33t23 -11q12 0 17.5 8.5t5.5 15.5v55q0 33 -35 33h-26v63h28q14 0 23.5 6.5t9.5 23.5v46q0 10 -5.5 18t-18.5 8q-33 0 -33 -51q-20 2 -38.5 5t-38.5 6q2 51 31 81.5 t80 30.5q41 0 63 -15t31 -40q5 -14 6 -34t1 -36q0 -22 -5 -43.5t-30 -35.5q23 -10 29 -30t6 -52z" />
<glyph unicode="&#x2084;" horiz-adv-x="264" d="M221 -31v-59h-74v59h-132v61l91 296h75l-88 -290h54v99h74v-99h28v-67h-28z" />
<glyph unicode="&#x2085;" horiz-adv-x="264" d="M235 17q0 -22 -5.5 -42.5t-18 -36t-32.5 -25t-48 -9.5q-51 0 -78 28t-27 77l78 13q0 -26 7 -37t21 -11q11 0 17.5 7t6.5 22v94q0 8 -4.5 15t-16.5 7q-22 0 -33 -20h-66v227h196v-68h-122l1 -84q8 5 19.5 8.5t22.5 3.5q41 0 61.5 -21.5t20.5 -56.5v-91z" />
<glyph unicode="&#x2086;" horiz-adv-x="264" d="M132 -94q-39 0 -69 21.5t-32 63.5q-1 12 -1 26.5v29.5q0 9 1 14q1 40 12 67l83 197h87q-26 -61 -43.5 -101.5t-28.5 -68.5h1q9 3 23 3q28 0 50 -20t22 -67v-36v-22.5t-0.5 -14t-0.5 -9.5q-2 -38 -29 -60.5t-75 -22.5zM158 73q0 9 -7 15.5t-18 6.5q-14 0 -20 -8.5 t-6 -19.5v-67q0 -9 7 -16.5t18 -7.5q12 0 19 7.5t7 16.5v73z" />
<glyph unicode="&#x2087;" horiz-adv-x="240" d="M117 -90h-79l112 347h-57v-43h-72v112h213v-60z" />
<glyph unicode="&#x2088;" horiz-adv-x="264" d="M236 200q0 -23 -6 -42t-25 -32q23 -15 27.5 -36.5t4.5 -50.5v-30q0 -53 -29.5 -78t-74.5 -25q-55 0 -80 29t-25 73v24q0 29 3.5 53t26.5 39q-18 11 -23.5 31.5t-5.5 33.5v45q0 44 28 70t75 26q50 0 77 -26.5t27 -75.5v-28zM157 69q0 11 -5.5 19.5t-19.5 8.5t-19.5 -8.5 t-5.5 -19.5v-72q0 -9 7.5 -15.5t17.5 -6.5q11 0 18 6.5t7 15.5v72zM157 234q0 11 -5.5 18.5t-19.5 7.5q-10 0 -17.5 -6t-7.5 -15v-63q0 -9 7.5 -14.5t17.5 -5.5q11 0 18 5.5t7 14.5v58z" />
<glyph unicode="&#x2089;" horiz-adv-x="264" d="M52 -91q25 57 42.5 99.5t28.5 71.5h-1q-9 -3 -23 -3q-27 0 -49.5 20t-22.5 67v50q0 18 2.5 37.5t10.5 33.5q13 22 38 34t54 12q40 0 69.5 -21t31.5 -63q1 -13 1 -28.5v-31.5q0 -48 -13 -80l-83 -198h-86zM106 169q0 -11 6 -20t20 -9q17 0 21 11.5t4 18.5v64q0 10 -7 18 t-18 8q-12 0 -19 -8t-7 -18v-65z" />
<glyph unicode="&#x208a;" horiz-adv-x="264" d="M164 54v-92h-65v92h-93v61h93v92h65v-92h93v-61h-93z" />
<glyph unicode="&#x208b;" horiz-adv-x="238" d="M27 43v66h190v-66h-190z" />
<glyph unicode="&#x208c;" horiz-adv-x="264" d="M6 103v62h251v-62h-251zM6 7v62h251v-62h-251z" />
<glyph unicode="&#x208d;" horiz-adv-x="165" d="M26 110q0 73 26.5 134.5t64.5 112.5l48 -20q-31 -51 -49 -110.5t-18 -114.5q0 -60 18 -119.5t47 -107.5l-44 -28q-39 54 -66 116.5t-27 136.5z" />
<glyph unicode="&#x208e;" horiz-adv-x="165" d="M163 110q0 -74 -27.5 -136.5t-67.5 -116.5l-44 28q29 48 47.5 107.5t18.5 119.5q0 55 -18 114.5t-49 110.5l49 20q38 -50 64.5 -111.5t26.5 -135.5z" />
<glyph unicode="&#x20ab;" horiz-adv-x="405" d="M147 630h83v62h95v-62h46v-66h-46v-440h-93v27q-12 -14 -29.5 -22.5t-38.5 -8.5q-45 0 -68.5 23t-30.5 75q-2 17 -3.5 43t-1.5 54q0 38 2.5 75.5t10.5 61.5q4 13 11 25t18 21.5t27 15.5t39 6q16 0 32 -5.5t30 -19.5v69h-83v66zM195 210q14 0 21.5 10t10.5 24.5t3.5 31 t0.5 28.5v55q0 12 -1 24.5t-4.5 22.5t-11 16.5t-19.5 6.5q-19 0 -25 -14q-6 -13 -8 -39t-2 -61q0 -33 1.5 -55t6.5 -33q8 -17 27 -17zM75 73h255v-79h-255v79z" />
<glyph unicode="&#x20ac;" horiz-adv-x="405" d="M19 325h37v50h-37v60h37v77q0 39 9 74t29.5 60.5t52.5 40.5t78 15q85 0 125.5 -44.5t39.5 -114.5l-105 -18q-2 35 -17 55t-44 20q-18 0 -30 -8t-19 -20t-9.5 -26.5t-2.5 -27.5v-83h135v-60h-135v-50h135v-59h-135v-102q0 -11 2 -23t8.5 -22.5t18 -17t29.5 -6.5 q57 0 61 77l108 -15q-3 -75 -45 -119t-120 -44q-87 0 -128 43.5t-41 128.5v100h-37v59z" />
<glyph unicode="&#x2103;" horiz-adv-x="674" d="M483 702q43 0 74 -12t51.5 -33.5t30 -51t9.5 -64.5l-105 -27q0 38 -14.5 62t-46.5 24q-19 0 -31 -8t-18.5 -20.5t-9 -27t-2.5 -27.5v-353q0 -10 2 -22t8.5 -22.5t18 -17.5t29.5 -7q60 0 61 86q27 -5 54 -8.5t54 -7.5q-2 -79 -43.5 -125t-122.5 -46q-86 0 -127 43.5 t-41 127.5v347q0 39 8.5 73.5t28.5 60.5t52.5 41t79.5 15zM197 585q0 23 -14.5 37.5t-36.5 14.5t-36.5 -14.5t-14.5 -37.5q0 -22 14.5 -37t36.5 -15t36.5 15t14.5 37zM262 585q0 -24 -9 -45t-25 -37t-37 -25t-45 -9t-45 9t-37 25t-25 37t-9 45t9 45.5t25 37t37 25t45 9.5 q25 0 46 -9.5t36.5 -25t24.5 -37t9 -45.5z" />
<glyph unicode="&#x2105;" horiz-adv-x="608" d="M463 357q43 0 68 -17.5t35 -43.5q3 -9 5 -23t3 -31t1.5 -35t0.5 -33q0 -23 -0.5 -44.5t-2.5 -38.5q-3 -30 -15 -48.5t-28.5 -29t-35.5 -14.5t-37 -4q-23 0 -40.5 6t-30 16.5t-20.5 23.5t-12 27q-5 17 -6 48t-1 57q0 17 0.5 34.5t2 34t4 30t5.5 22.5q11 28 36.5 45.5 t67.5 17.5zM156 339q-48 0 -71.5 22t-31.5 51q-4 14 -7 44t-3 62q0 36 3.5 69.5t9.5 50.5q11 28 36 45.5t67 17.5q54 0 80.5 -30t27.5 -86q-21 -3 -42 -5.5t-42 -4.5q0 24 -7 35t-18 11q-17 0 -24 -18q-2 -4 -3 -14t-1.5 -22.5t-1 -27t-0.5 -27.5q0 -23 1 -42t3 -30 q2 -8 8 -14.5t17 -6.5q26 0 26 45l84 -12q-1 -54 -29 -83.5t-82 -29.5zM184 -17h-66l314 731h66zM463 277q-21 0 -26 -20q-5 -18 -5 -61q0 -6 -0.5 -12.5t-0.5 -12.5q0 -27 1.5 -45t2.5 -27q6 -24 28 -24q10 0 16.5 7t8.5 16q2 8 3.5 31t1.5 45q0 23 -1 45.5t-3 33.5 q-2 9 -7.5 16.5t-18.5 7.5z" />
<glyph unicode="&#x2109;" horiz-adv-x="651" d="M431 594v-189h175v-103h-175v-302h-108v696h309v-102h-201zM197 585q0 23 -14.5 37.5t-36.5 14.5t-36.5 -14.5t-14.5 -37.5q0 -22 14.5 -37t36.5 -15t36.5 15t14.5 37zM262 585q0 -24 -9 -45t-25 -37t-37 -25t-45 -9t-45 9t-37 25t-25 37t-9 45t9 45.5t25 37t37 25 t45 9.5q25 0 46 -9.5t36.5 -25t24.5 -37t9 -45.5z" />
<glyph unicode="&#x2113;" horiz-adv-x="371" d="M349 150q-9 -31 -21.5 -59.5t-30.5 -51t-41 -36t-53 -13.5q-28 0 -51 12t-39.5 34t-26 52t-9.5 66v36q-8 -7 -17.5 -16t-17.5 -15l-32 53q5 3 14.5 11t19.5 17.5t19 18.5l13 13v239q0 52 9.5 89t25.5 59.5t38 33t48 10.5q42 0 70 -33t28 -101q0 -41 -9 -80t-27 -78 t-45 -79.5t-63 -84.5v-49q0 -68 19 -97t40 -29q45 0 75 103zM151 352q38 59 57 110.5t19 108.5q0 9 -2 19t-5.5 18.5t-10 14.5t-15.5 6q-17 0 -30 -25.5t-13 -83.5v-168z" />
<glyph unicode="&#x2116;" horiz-adv-x="710" d="M160 393v-393h-107v696h97q19 -54 38 -107.5t39 -107.5l63 -177h5v392h106v-696h-95l-142 393h-4zM558 701q45 0 69 -16.5t33 -40.5q3 -8 5 -22t3 -30.5t1.5 -33.5t0.5 -31q0 -22 -0.5 -40.5t-2.5 -33.5q-3 -26 -14 -43.5t-26.5 -27.5t-34 -14t-35.5 -4q-51 0 -76.5 21.5 t-30.5 46.5q-4 17 -5 45.5t-1 52.5q0 32 2.5 64.5t8.5 48.5q11 27 36 42.5t67 15.5zM456 259v73h208v-73h-208zM557 626q-8 0 -15.5 -5.5t-9.5 -13.5q-2 -9 -3.5 -32.5t-1.5 -55.5q0 -24 1 -43t7 -25q7 -12 23 -12q11 0 16.5 6.5t7.5 11.5q3 8 4 22t1 36q0 31 -1 60t-7 40 q-9 11 -22 11z" />
<glyph unicode="&#x2117;" horiz-adv-x="703" d="M347 -8q-75 0 -131.5 26.5t-95 73.5t-58 110.5t-19.5 138.5q0 76 19.5 140t58 111t95.5 73.5t131 26.5q73 0 129.5 -26.5t95.5 -73.5t59 -111t20 -140q0 -75 -20 -138.5t-59 -110.5t-95.5 -73.5t-129.5 -26.5zM347 628q-59 0 -103 -22.5t-73 -61.5t-43 -91.5t-14 -111.5 t15.5 -110.5t45 -90t73 -61t99.5 -22.5q58 0 102 22.5t73 61t43.5 90t14.5 110.5t-15 111.5t-44.5 91.5t-73 61.5t-100.5 22.5zM362 541q60 0 87 -30.5t27 -99.5q0 -30 -5.5 -54.5t-19 -42t-35.5 -27t-55 -9.5h-31v-159h-71v422h103zM330 475v-129h27q28 0 39.5 16t11.5 49 q0 30 -10.5 47t-39.5 17h-28z" />
<glyph unicode="&#x2122;" horiz-adv-x="700" d="M564 516l-16 -44t-17 -44q-5 -14 -12 -29t-13 -29h-49q-7 15 -13.5 30t-12.5 30q-9 22 -17 43.5t-17 42.5h-3v-217h-71v396h69q14 -30 26.5 -60t25.5 -60l39 -86q9 21 18 42.5t19 42.5l51 121h70v-396h-74v217h-3zM200 626v-326h-75v326h-84v70h243v-70h-84z" />
<glyph unicode="&#x2126;" horiz-adv-x="430" d="M275 523q0 15 -2.5 29t-9 25t-18.5 17.5t-31 6.5q-20 0 -31.5 -9t-18.5 -22t-9 -28.5t-2 -28.5v-340q0 -25 10 -39t27 -20v-114h-152v102h48l1 1q-26 20 -33.5 53t-7.5 77v284q0 41 10 75t30.5 58.5t52 38t75.5 13.5q47 0 79 -12.5t52 -36.5t29 -58t9 -77v-289 q0 -12 -0.5 -23t-1.5 -21q-5 -55 -39 -82v-1h50v-102h-153v113q16 7 26 21.5t10 38.5v350v0z" />
<glyph unicode="&#x212b;" horiz-adv-x="422" d="M302 0l-27 145h-128q-7 -36 -13.5 -72.5t-12.5 -72.5h-110q35 175 70 348t70 348h30q-29 9 -47 34t-18 57q0 40 27.5 68t68.5 28t68 -28t27 -68q0 -32 -18 -57t-47 -34h29l141 -696h-110zM208 535q-10 -72 -21 -143.5t-24 -145.5h95l-45 289h-5zM212 825 q-17 0 -28.5 -11.5t-11.5 -27.5q0 -17 11.5 -28t28.5 -11q16 0 27.5 11t11.5 28q0 16 -11.5 27.5t-27.5 11.5z" />
<glyph unicode="&#x212e;" horiz-adv-x="817" d="M207 300v-165q15 -24 37.5 -43t49 -33t56 -21.5t58.5 -7.5q62 0 116 28t92 76h78q-54 -67 -129 -106t-158 -39q-71 0 -133.5 26t-109 70.5t-73.5 104.5t-27 128t27 127.5t73.5 103.5t109 69.5t133.5 25.5q72 0 134 -25.5t107.5 -71.5t72.5 -109t30 -138h-544zM606 501 q-14 23 -35.5 42t-48.5 32.5t-56.5 20.5t-57.5 7q-51 0 -105 -29t-96 -77v-159h399v163z" />
<glyph unicode="&#x2153;" horiz-adv-x="630" d="M588 134q0 -28 -3 -53q-5 -42 -30.5 -63.5t-70.5 -21.5q-52 0 -78.5 28t-26.5 77v5l78 9q2 -22 7 -33t23 -11q12 0 17.5 8.5t5.5 15.5v55q0 33 -35 33h-26v63h28q14 0 23.5 6.5t9.5 23.5v46q0 10 -5.5 18t-18.5 8q-33 0 -33 -51q-20 2 -38.5 5t-38.5 6q2 51 31 81.5 t80 30.5q41 0 63 -15t31 -40q5 -14 6 -34t1 -36q0 -22 -5 -43.5t-30 -35.5q23 -10 29 -30t6 -52zM174 -17h-66l314 731h66zM103 280v330l-61 -45v82l67 49h73v-416h-79z" />
<glyph unicode="&#x2154;" horiz-adv-x="630" d="M27 280v62l114 197q8 14 11.5 29t3.5 31q0 11 -5 21t-21 10q-15 0 -23 -14t-8 -46l-78 11q1 58 30 89t80 31q55 0 80.5 -27t25.5 -74q0 -24 -7 -47t-22 -49q-6 -11 -18 -32t-25 -44t-25 -44t-18 -32h109v-72h-204zM202 -17h-66l314 731h66zM608 134q0 -28 -3 -53 q-5 -42 -30.5 -63.5t-70.5 -21.5q-52 0 -78.5 28t-26.5 77v5l78 9q2 -22 7 -33t23 -11q12 0 17.5 8.5t5.5 15.5v55q0 33 -35 33h-26v63h28q14 0 23.5 6.5t9.5 23.5v46q0 10 -5.5 18t-18.5 8q-33 0 -33 -51q-20 2 -38.5 5t-38.5 6q2 51 31 81.5t80 30.5q41 0 63 -15t31 -40 q5 -14 6 -34t1 -36q0 -22 -5 -43.5t-30 -35.5q23 -10 29 -30t6 -52z" />
<glyph unicode="&#x2155;" horiz-adv-x="630" d="M590 107q0 -22 -5.5 -42.5t-18 -36t-32.5 -25t-48 -9.5q-51 0 -78 28t-27 77l78 13q0 -26 7 -37t21 -11q11 0 17.5 7t6.5 22v94q0 8 -4.5 15t-16.5 7q-22 0 -33 -20h-66v227h196v-68h-122l1 -84q8 5 19.5 8.5t22.5 3.5q41 0 61.5 -21.5t20.5 -56.5v-91zM169 -17h-66 l314 731h66zM100 280v330l-61 -45v82l67 49h73v-416h-79z" />
<glyph unicode="&#x2156;" horiz-adv-x="630" d="M27 280v62l114 197q8 14 11.5 29t3.5 31q0 11 -5 21t-21 10q-15 0 -23 -14t-8 -46l-78 11q1 58 30 89t80 31q55 0 80.5 -27t25.5 -74q0 -24 -7 -47t-22 -49q-6 -11 -18 -32t-25 -44t-25 -44t-18 -32h109v-72h-204zM196 -17h-66l314 731h66zM608 107q0 -22 -5.5 -42.5 t-18 -36t-32.5 -25t-48 -9.5q-51 0 -78 28t-27 77l78 13q0 -26 7 -37t21 -11q11 0 17.5 7t6.5 22v94q0 8 -4.5 15t-16.5 7q-22 0 -33 -20h-66v227h196v-68h-122l1 -84q8 5 19.5 8.5t22.5 3.5q41 0 61.5 -21.5t20.5 -56.5v-91z" />
<glyph unicode="&#x2157;" horiz-adv-x="630" d="M233 414q0 -28 -3 -53q-5 -42 -30.5 -63.5t-70.5 -21.5q-52 0 -78.5 28t-26.5 77v5l78 9q2 -22 7 -33t23 -11q12 0 17.5 8.5t5.5 15.5v55q0 33 -35 33h-26v63h28q14 0 23.5 6.5t9.5 23.5v46q0 10 -5.5 18t-18.5 8q-33 0 -33 -51q-20 2 -38.5 5t-38.5 6q2 51 31 81.5 t80 30.5q41 0 63 -15t31 -40q5 -14 6 -34t1 -36q0 -22 -5 -43.5t-30 -35.5q23 -10 29 -30t6 -52zM191 -17h-66l314 731h66zM608 107q0 -22 -5.5 -42.5t-18 -36t-32.5 -25t-48 -9.5q-51 0 -78 28t-27 77l78 13q0 -26 7 -37t21 -11q11 0 17.5 7t6.5 22v94q0 8 -4.5 15t-16.5 7 q-22 0 -33 -20h-66v227h196v-68h-122l1 -84q8 5 19.5 8.5t22.5 3.5q41 0 61.5 -21.5t20.5 -56.5v-91z" />
<glyph unicode="&#x2158;" horiz-adv-x="630" d="M222 339v-59h-74v59h-132v61l91 296h75l-88 -290h54v99h74v-99h28v-67h-28zM203 -17h-66l314 731h66zM613 107q0 -22 -5.5 -42.5t-18 -36t-32.5 -25t-48 -9.5q-51 0 -78 28t-27 77l78 13q0 -26 7 -37t21 -11q11 0 17.5 7t6.5 22v94q0 8 -4.5 15t-16.5 7q-22 0 -33 -20 h-66v227h196v-68h-122l1 -84q8 5 19.5 8.5t22.5 3.5q41 0 61.5 -21.5t20.5 -56.5v-91z" />
<glyph unicode="&#x2159;" horiz-adv-x="630" d="M470 -4q-39 0 -69 21.5t-32 63.5q-1 12 -1 26.5v29.5q0 9 1 14q1 40 12 67l83 197h87q-26 -61 -43.5 -101.5t-28.5 -68.5h1q9 3 23 3q28 0 50 -20t22 -67v-36v-22.5t-0.5 -14t-0.5 -9.5q-2 -38 -29 -60.5t-75 -22.5zM194 -17h-66l314 731h66zM115 280v330l-61 -45v82 l67 49h73v-416h-79zM496 163q0 9 -7 15.5t-18 6.5q-14 0 -20 -8.5t-6 -19.5v-67q0 -9 7 -16.5t18 -7.5q12 0 19 7.5t7 16.5v73z" />
<glyph unicode="&#x215a;" horiz-adv-x="630" d="M488 -4q-39 0 -69 21.5t-32 63.5q-1 12 -1 26.5v29.5q0 9 1 14q1 40 12 67l83 197h87q-26 -61 -43.5 -101.5t-28.5 -68.5h1q9 3 23 3q28 0 50 -20t22 -67v-36v-22.5t-0.5 -14t-0.5 -9.5q-2 -38 -29 -60.5t-75 -22.5zM246 387q0 -22 -5.5 -42.5t-18 -36t-32.5 -25 t-48 -9.5q-51 0 -78 28t-27 77l78 13q0 -26 7 -37t21 -11q11 0 17.5 7t6.5 22v94q0 8 -4.5 15t-16.5 7q-22 0 -33 -20h-66v227h196v-68h-122l1 -84q8 5 19.5 8.5t22.5 3.5q41 0 61.5 -21.5t20.5 -56.5v-91zM215 -17h-66l314 731h66zM514 163q0 9 -7 15.5t-18 6.5 q-14 0 -20 -8.5t-6 -19.5v-67q0 -9 7 -16.5t18 -7.5q12 0 19 7.5t7 16.5v73z" />
<glyph unicode="&#x215b;" horiz-adv-x="630" d="M589 290q0 -23 -6 -42t-25 -32q23 -15 27.5 -36.5t4.5 -50.5v-30q0 -53 -29.5 -78t-74.5 -25q-55 0 -80 29t-25 73v24q0 29 3.5 53t26.5 39q-18 11 -23.5 31.5t-5.5 33.5v45q0 44 28 70t75 26q50 0 77 -26.5t27 -75.5v-28zM176 -17h-66l314 731h66zM102 280v330l-61 -45 v82l67 49h73v-416h-79zM510 159q0 11 -5.5 19.5t-19.5 8.5t-19.5 -8.5t-5.5 -19.5v-72q0 -9 7.5 -15.5t17.5 -6.5q11 0 18 6.5t7 15.5v72zM510 324q0 11 -5.5 18.5t-19.5 7.5q-10 0 -17.5 -6t-7.5 -15v-63q0 -9 7.5 -14.5t17.5 -5.5q11 0 18 5.5t7 14.5v58z" />
<glyph unicode="&#x215c;" horiz-adv-x="630" d="M238 414q0 -28 -3 -53q-5 -42 -30.5 -63.5t-70.5 -21.5q-52 0 -78.5 28t-26.5 77v5l78 9q2 -22 7 -33t23 -11q12 0 17.5 8.5t5.5 15.5v55q0 33 -35 33h-26v63h28q14 0 23.5 6.5t9.5 23.5v46q0 10 -5.5 18t-18.5 8q-33 0 -33 -51q-20 2 -38.5 5t-38.5 6q2 51 31 81.5 t80 30.5q41 0 63 -15t31 -40q5 -14 6 -34t1 -36q0 -22 -5 -43.5t-30 -35.5q23 -10 29 -30t6 -52zM194 -17h-66l314 731h66zM605 290q0 -23 -6 -42t-25 -32q23 -15 27.5 -36.5t4.5 -50.5v-30q0 -53 -29.5 -78t-74.5 -25q-55 0 -80 29t-25 73v24q0 29 3.5 53t26.5 39 q-18 11 -23.5 31.5t-5.5 33.5v45q0 44 28 70t75 26q50 0 77 -26.5t27 -75.5v-28zM526 159q0 11 -5.5 19.5t-19.5 8.5t-19.5 -8.5t-5.5 -19.5v-72q0 -9 7.5 -15.5t17.5 -6.5q11 0 18 6.5t7 15.5v72zM526 324q0 11 -5.5 18.5t-19.5 7.5q-10 0 -17.5 -6t-7.5 -15v-63 q0 -9 7.5 -14.5t17.5 -5.5q11 0 18 5.5t7 14.5v58z" />
<glyph unicode="&#x215d;" horiz-adv-x="630" d="M234 387q0 -22 -5.5 -42.5t-18 -36t-32.5 -25t-48 -9.5q-51 0 -78 28t-27 77l78 13q0 -26 7 -37t21 -11q11 0 17.5 7t6.5 22v94q0 8 -4.5 15t-16.5 7q-22 0 -33 -20h-66v227h196v-68h-122l1 -84q8 5 19.5 8.5t22.5 3.5q41 0 61.5 -21.5t20.5 -56.5v-91zM196 -17h-66 l314 731h66zM605 290q0 -23 -6 -42t-25 -32q23 -15 27.5 -36.5t4.5 -50.5v-30q0 -53 -29.5 -78t-74.5 -25q-55 0 -80 29t-25 73v24q0 29 3.5 53t26.5 39q-18 11 -23.5 31.5t-5.5 33.5v45q0 44 28 70t75 26q50 0 77 -26.5t27 -75.5v-28zM526 159q0 11 -5.5 19.5t-19.5 8.5 t-19.5 -8.5t-5.5 -19.5v-72q0 -9 7.5 -15.5t17.5 -6.5q11 0 18 6.5t7 15.5v72zM526 324q0 11 -5.5 18.5t-19.5 7.5q-10 0 -17.5 -6t-7.5 -15v-63q0 -9 7.5 -14.5t17.5 -5.5q11 0 18 5.5t7 14.5v58z" />
<glyph unicode="&#x215e;" horiz-adv-x="630" d="M138 280h-79l112 347h-57v-43h-72v112h213v-60zM168 -17h-66l314 731h66zM588 290q0 -23 -6 -42t-25 -32q23 -15 27.5 -36.5t4.5 -50.5v-30q0 -53 -29.5 -78t-74.5 -25q-55 0 -80 29t-25 73v24q0 29 3.5 53t26.5 39q-18 11 -23.5 31.5t-5.5 33.5v45q0 44 28 70t75 26 q50 0 77 -26.5t27 -75.5v-28zM509 159q0 11 -5.5 19.5t-19.5 8.5t-19.5 -8.5t-5.5 -19.5v-72q0 -9 7.5 -15.5t17.5 -6.5q11 0 18 6.5t7 15.5v72zM509 324q0 11 -5.5 18.5t-19.5 7.5q-10 0 -17.5 -6t-7.5 -15v-63q0 -9 7.5 -14.5t17.5 -5.5q11 0 18 5.5t7 14.5v58z" />
<glyph unicode="&#x215f;" horiz-adv-x="376" d="M179 -17h-66l314 731h66zM103 280v330l-61 -45v82l67 49h73v-416h-79z" />
<glyph unicode="&#x2190;" horiz-adv-x="835" d="M774 362v-81l-555 1l133 -131l-58 -58l-228 229l228 230l58 -58l-133 -132h555z" />
<glyph unicode="&#x2191;" horiz-adv-x="501" d="M294 1h-81v544l-130 -130l-58 58l229 228l230 -228l-58 -58l-132 130v-544z" />
<glyph unicode="&#x2192;" horiz-adv-x="835" d="M622 362l-133 132l58 58l228 -230l-228 -229l-58 58l133 131l-555 -1v81h555z" />
<glyph unicode="&#x2193;" horiz-adv-x="501" d="M294 154l132 133l58 -58l-230 -228l-229 228l58 58l131 -133l-1 547h81v-547z" />
<glyph unicode="&#x2196;" horiz-adv-x="840" d="M770 55l-56 -58l-511 510l1 -186h-82l1 322l323 1l1 -81l-187 1z" />
<glyph unicode="&#x2198;" horiz-adv-x="840" d="M122 587l56 57l511 -510l-1 187h82l-1 -323l-323 -1l-1 81h187z" />
<glyph unicode="&#x21a9;" horiz-adv-x="853" d="M182 362h464q49 0 68.5 27.5t19.5 68.5v78q0 39 -21 60.5t-67 21.5h-88v79h92q45 0 76.5 -12.5t51 -34.5t28 -52.5t8.5 -65.5v-74q0 -80 -43 -128.5t-133 -48.5l-456 1l133 -132l-58 -56l-227 228l227 229l58 -57z" />
<glyph unicode="&#x21aa;" horiz-adv-x="845" d="M530 494l58 57l227 -229l-227 -228l-58 56l134 132l-456 -1q-90 0 -133.5 48.5t-43.5 128.5v74q0 35 8.5 65.5t28 52.5t51 34.5t76.5 12.5h93v-79h-88q-47 0 -67.5 -21.5t-20.5 -60.5v-78q0 -41 19.5 -68.5t68.5 -27.5h464z" />
<glyph unicode="&#x21b3;" horiz-adv-x="847" d="M182 362h483l-133 132l57 57l227 -229l-227 -228l-57 56l133 132h-565v410h82v-330z" />
<glyph unicode="&#x21b5;" horiz-adv-x="847" d="M715 692h81v-410h-564l133 -132l-58 -56l-227 228l227 229l58 -57l-133 -132h483v330z" />
<glyph unicode="&#x21de;" horiz-adv-x="497" d="M102 371h106l1 175l-128 -123l-57 59l224 219l228 -219l-57 -59l-130 123l1 -175h105v-78h-105v-65h105v-77h-105v-151h-82v151h-106v77h106v65h-106v78z" />
<glyph unicode="&#x21df;" horiz-adv-x="497" d="M102 407h106v66h-106v76h106v152h82v-152h105v-76h-105v-66h105v-77h-105l-1 -177l130 124l57 -58l-228 -219l-224 219l57 58l128 -124l-1 177h-106v77z" />
<glyph unicode="&#x21e0;" horiz-adv-x="838" d="M333 361v-80h-125l135 -131l-59 -58q-57 58 -113.5 115t-113.5 114q114 114 227 230l59 -58q-34 -32 -67.5 -65.5t-67.5 -66.5h125zM529 361h90v-80h-90v80zM673 361h90v-80h-90v80zM386 361h89v-80h-89v80z" />
<glyph unicode="&#x21e1;" horiz-adv-x="503" d="M293 421h-81l1 123l-132 -133l-57 58l228 228l230 -228l-57 -58l-132 133v-123zM293 368v-89h-81v89h81zM293 225v-90h-81v90h81zM293 81v-90h-81v90h81z" />
<glyph unicode="&#x21e2;" horiz-adv-x="838" d="M613 362l-135 132l58 57l228 -230l-228 -228l-58 57l135 132l-125 -1v81h125zM435 281h-89v81h89v-81zM292 281h-90v81h90v-81zM148 281h-90v81h90v-81z" />
<glyph unicode="&#x21e3;" horiz-adv-x="503" d="M292 143l132 133q14 -14 28.5 -29t29.5 -29l-230 -226q-58 56 -115 112.5t-114 113.5q14 14 28.5 29t29.5 29l131 -133v124h80v-124zM212 319v90h80v-90h-80zM212 607v90h80v-90h-80zM212 463v89h80v-89h-80z" />
<glyph unicode="&#x21e4;" horiz-adv-x="855" d="M71 104v435h85v-435h-85zM822 362v-81l-462 1l133 -131l-58 -58l-228 229l228 230l58 -58l-133 -132h462z" />
<glyph unicode="&#x21e5;" horiz-adv-x="855" d="M738 104v435h85v-435h-85zM534 362l-133 132l58 58l228 -230l-228 -229l-58 58l133 131l-462 -1v81h462z" />
<glyph unicode="&#x21e7;" horiz-adv-x="840" d="M424 607l-227 -235h105v-307h245v307h104zM46 312l378 388l378 -388h-190v-312h-376v312h-190z" />
<glyph unicode="&#x21ea;" horiz-adv-x="840" d="M293 -49v-74h246v74h-246zM228 13h375v-198h-375v198zM416 607l-227 -235h104v-205h246v205h104zM38 312l378 388l378 -388h-190v-211h-376v211h-190z" />
<glyph unicode="&#x2202;" horiz-adv-x="375" d="M179 89q22 0 37 19.5t25 50t14.5 68t6.5 73.5q-24 38 -44.5 49.5t-38.5 11.5q-16 0 -28.5 -12t-21.5 -31.5t-14 -43.5t-5 -49q0 -72 21 -104t48 -32zM178 -10q-33 0 -62 15t-50 44.5t-33 73t-12 100.5q0 54 12 97t33 73t49 46.5t60 16.5q23 0 42.5 -8.5t41.5 -30.5 q-2 48 -9 87t-21 67t-37 43.5t-56 15.5q-9 0 -21.5 -2.5t-32.5 -9.5v93q16 4 31.5 6.5t29.5 2.5q64 0 104.5 -28.5t63.5 -78.5t32 -117t9 -144q0 -90 -13 -158t-36 -113t-55 -68t-70 -23z" />
<glyph unicode="&#x2207;" horiz-adv-x="422" d="M413 696l-142 -696h-120l-140 696h402zM209 172h5l24 150l45 268h-144l46 -266z" />
<glyph unicode="&#x220f;" horiz-adv-x="430" d="M270 -81v676h-110v-676h-108v777h326v-777h-108z" />
<glyph unicode="&#x2211;" horiz-adv-x="330" d="M136 26h184v-105h-301v96l89 295l-92 290v94h292v-102h-176l91 -282z" />
<glyph unicode="&#x2212;" horiz-adv-x="405" d="M390 339v-86h-376v86h376z" />
<glyph unicode="&#x221a;" horiz-adv-x="418" d="M271 -79h-84l-94 392l-59 -22l-20 82l142 54l69 -307l95 674h89z" />
<glyph unicode="&#x221e;" horiz-adv-x="647" d="M185 422q21 0 41 -8t38 -20.5t33.5 -28.5t27.5 -32q28 40 61 64.5t83 24.5q30 0 54.5 -11t42 -31t27 -47.5t9.5 -60.5q0 -30 -10.5 -57.5t-29 -47.5t-44 -32t-55.5 -12q-45 0 -78 26.5t-61 61.5q-30 -37 -62.5 -62.5t-83.5 -25.5q-58 0 -95.5 41t-37.5 108 q0 30 10.5 57.5t29.5 48t44.5 32.5t55.5 12zM185 342q-26 0 -44 -20t-18 -49q0 -31 17 -50.5t43 -19.5q29 0 51.5 19.5t40.5 48.5q-16 26 -38.5 48.5t-51.5 22.5zM466 342q-29 0 -50.5 -20t-44.5 -49q23 -29 43.5 -49.5t49.5 -20.5q26 0 43.5 20t17.5 49q0 30 -17 50t-42 20 z" />
<glyph unicode="&#x2227;" horiz-adv-x="423" d="M394 0h-103l-81 352h-1l-80 -352h-100l136 527h87z" />
<glyph unicode="&#x2228;" horiz-adv-x="423" d="M252 0h-87l-136 527h100l80 -352h1l81 352h103z" />
<glyph unicode="&#x2229;" horiz-adv-x="425" d="M394 -1h-107v305q0 23 -2.5 44.5t-11 38.5t-23.5 27t-40 10t-40.5 -10t-23.5 -26.5t-11 -38t-3 -45.5v-305h-104v307q0 44 7 84.5t27 71t54.5 49t90.5 18.5q57 0 93.5 -18.5t57 -49t28.5 -71t8 -84.5v-307z" />
<glyph unicode="&#x222a;" horiz-adv-x="425" d="M394 222q0 -44 -8 -84.5t-28.5 -71t-57 -49t-93.5 -18.5q-56 0 -90.5 18t-54.5 49t-27 71.5t-7 84.5v307h104v-305q0 -24 3 -46t11 -38.5t23.5 -26t40.5 -9.5t40 10t23.5 27t11 38.5t2.5 44.5v305h107v-307z" />
<glyph unicode="&#x222b;" horiz-adv-x="316" d="M105 83q5 55 5.5 138.5t1.5 194.5q0 19 1 41.5t2.5 46t3 46.5t3.5 43q7 98 47.5 138.5t104.5 40.5q16 0 35 -3.5t38 -11.5l-20 -78q-15 5 -26 6t-19 1q-39 0 -53 -30.5t-18 -107.5q-1 -29 -2 -75.5t-1.5 -99.5t-1.5 -107.5t-2 -97.5q0 -39 -2 -73.5t-6 -64.5 q-11 -97 -50 -137.5t-106 -40.5q-16 0 -34 3t-36 10l18 73q14 -3 23.5 -4t16.5 -1q19 0 32.5 6.5t22.5 23t14 46t8 74.5z" />
<glyph unicode="&#x2248;" horiz-adv-x="405" d="M131 287q22 0 40 -7.5t35.5 -16.5t34 -16.5t35.5 -7.5q17 0 28 10.5t32 37.5l57 -48q-26 -45 -52 -66.5t-65 -21.5q-20 0 -38.5 7.5t-36.5 17t-36 17t-37 7.5q-17 0 -28 -9t-33 -35q-14 11 -27.5 23t-27.5 24q26 44 56 64t63 20zM131 444q22 0 40.5 -7.5t35.5 -16 t33.5 -16t35.5 -7.5q17 0 28 10.5t32 36.5l57 -48q-26 -44 -52 -65.5t-65 -21.5q-20 0 -38.5 7.5t-36.5 17t-36 17t-37 7.5q-17 0 -28.5 -9t-32.5 -36l-55 47q26 45 56 64.5t63 19.5z" />
<glyph unicode="&#x2260;" horiz-adv-x="405" d="M10 77l66 95h-62v87h122l55 79h-177v87h237l60 86h81l-60 -86h58v-87h-119l-55 -79h174v-87h-234l-66 -95h-80z" />
<glyph unicode="&#x2264;" horiz-adv-x="405" d="M19 288v81l367 146v-96l-235 -90q59 -21 117.5 -45t117.5 -48v-98zM20 0v89h366v-89h-366z" />
<glyph unicode="&#x2265;" horiz-adv-x="405" d="M21 138v98q59 23 117.5 47t118.5 46l-236 90v96l367 -146v-81zM22 0v89h365v-89h-365z" />
<glyph unicode="&#x2303;" horiz-adv-x="770" d="M91 413l292 292l294 -292l-59 -60l-235 233l-233 -233z" />
<glyph unicode="&#x2318;" horiz-adv-x="839" d="M275 494v64q0 27 -19 46t-45 19q-28 0 -46.5 -18.5t-18.5 -46.5t18.5 -46t46.5 -18h64zM566 494h64q27 0 46 18.5t19 45.5t-19 46t-46 19q-26 0 -45 -18.5t-19 -46.5v-64zM275 203h-64q-28 0 -46.5 -19t-18.5 -45q0 -28 18.5 -47t46.5 -19q27 0 45.5 19t18.5 47v64z M566 203v-64q0 -28 19 -47t45 -19q27 0 46 19t19 47q0 26 -19 45t-46 19h-64zM485 284v129h-129v-129h129zM566 284h64q37 0 64 -12t45 -32t27 -46t9 -55t-9 -55.5t-27 -46.5t-45 -32t-64 -12q-35 0 -61.5 11.5t-45.5 31.5t-28.5 46.5t-9.5 56.5v64h-129v-64q0 -29 -9 -55 t-27 -46.5t-45.5 -32.5t-63.5 -12q-34 0 -61 11.5t-46 31t-29.5 46.5t-10.5 57q0 29 10 55.5t29 46.5t46 31.5t62 11.5h64v129h-64q-30 0 -56.5 11.5t-46.5 31.5t-32 46.5t-12 55.5q0 30 11 56.5t30.5 46.5t46.5 31.5t59 11.5q36 0 63.5 -11.5t45.5 -31.5t27 -46.5t9 -56.5 v-64h129v64q0 30 10.5 56.5t29.5 46.5t46 31.5t59 11.5q35 0 62 -11.5t45.5 -31.5t28 -46.5t9.5 -56.5q0 -29 -11.5 -55t-31 -46t-46 -32t-56.5 -12h-64v-129z" />
<glyph unicode="&#x2324;" horiz-adv-x="785" d="M682 696v-84h-582v84h582zM97 286l293 308l293 -308l-59 -60l-234 250q-6 -7 -24 -26t-42 -45t-50.5 -54.5t-50.5 -54t-42 -45t-24 -25.5z" />
<glyph unicode="&#x2325;" horiz-adv-x="1188" d="M549 682h586v-85h-586v85zM50 682h288l306 -599h491v-83h-556l-306 597h-223v85z" />
<glyph unicode="&#x2326;" horiz-adv-x="1147" d="M466 289l-147 -149l-55 55l148 148l-148 149l55 55l147 -148l149 148l55 -55l-148 -149l148 -148l-55 -55zM971 347l-262 267h-531v-534h531zM751 0h-653v695h653l337 -348z" />
<glyph unicode="&#x232b;" horiz-adv-x="1166" d="M552 140l-55 55l148 148l-148 149l55 55l149 -148l147 148l55 -55l-148 -149l148 -148l-55 -55l-147 149zM465 80h531v534h-531l-263 -267zM86 347l337 348h653v-695h-653z" />
<glyph unicode="&#x235f;" horiz-adv-x="804" d="M752 346q0 -73 -28 -137.5t-76 -112.5t-112.5 -75.5t-137.5 -27.5t-137 27.5t-112 75.5t-75.5 112.5t-27.5 138.5q0 73 27.5 137.5t75.5 112.5t112.5 75.5t138.5 27.5q73 0 137.5 -28t112.5 -76t75.5 -112.5t27.5 -137.5h-1zM693 346q0 61 -23 115t-63 94t-94 63t-115 23 t-115 -23t-94 -63t-63 -94t-23 -115t23 -114.5t63 -93.5t94 -63t115 -23t115 23t94 63t63 93.5t23 114.5zM521 301l26 -169l-157 76l-141 -76l21 165l-118 117l163 32l75 148l80 -146l164 -34z" />
<glyph unicode="&#x23cf;" horiz-adv-x="854" d="M768 227v-136h-702v136h702zM768 314h-702l351 351z" />
<glyph unicode="&#x25a0;" horiz-adv-x="875" d="M756 40h-633v633h633v-633z" />
<glyph unicode="&#x25a1;" horiz-adv-x="841" d="M153 71h546v551h-546v-551zM82 0v693h687v-693h-687z" />
<glyph unicode="&#x25b2;" horiz-adv-x="820" d="M781 176h-702l351 351z" />
<glyph unicode="&#x25b6;" horiz-adv-x="595" d="M138 701l351 -350l-351 -351v701z" />
<glyph unicode="&#x25bc;" horiz-adv-x="820" d="M430 176l-351 351h702z" />
<glyph unicode="&#x25c0;" horiz-adv-x="595" d="M452 0l-351 351l351 350v-701z" />
<glyph unicode="&#x25ca;" horiz-adv-x="530" d="M296 -19h-75l-174 336q9 18 23 45t30 58.5t34 65t34 65t30 58.5t23 45h76l172 -337zM258 539q-10 -20 -24.5 -49.5t-30 -61t-30 -61t-24.5 -49.5q10 -19 25 -49t31 -61.5t31 -61.5t24 -49q10 20 24.5 49.5t30 60.5t29.5 60.5t24 49.5z" />
<glyph unicode="&#x25cf;" horiz-adv-x="843" d="M744 357q0 -64 -25 -121.5t-68.5 -101t-101 -69t-121.5 -25.5q-65 0 -122.5 25t-101 68.5t-68.5 101t-25 122.5q0 66 26 123.5t69.5 100t101 67.5t120.5 25t120 -25t100.5 -68.5t69.5 -101t26 -121.5z" />
<glyph unicode="&#x25fc;" horiz-adv-x="495" d="M0 495h495v-495h-495v495z" />
<glyph unicode="&#x2602;" horiz-adv-x="780" d="M405 695q55 0 112.5 -27.5t104.5 -73.5t77 -106t30 -124q-16 18 -40 28.5t-50 10.5q-23 0 -45 -9.5t-41 -29.5h-2q-23 39 -75 39q-28 0 -62 -14v-304q0 -42 -25.5 -67.5t-73.5 -25.5q-42 0 -69.5 23.5t-27.5 74.5v13h47v-13q0 -28 13.5 -41t34.5 -13q16 0 26 5t15.5 13 t7.5 18t2 20v296q-14 7 -27 9.5t-25 2.5q-26 0 -46.5 -10t-38.5 -27q-17 20 -40 29.5t-47 9.5q-25 0 -48.5 -9.5t-40.5 -29.5l-1 1q0 64 30.5 123.5t77.5 106t105 74.5t113 28v31h29v-32zM730 363q-1 0 -1 1z" />
<glyph unicode="&#x2605;" horiz-adv-x="814" d="M605 254l39 -258l-239 117l-214 -117l32 251l-181 180l249 48l114 226l123 -223l250 -51z" />
<glyph unicode="&#x2606;" horiz-adv-x="838" d="M608 257l39 -259l-240 117l-218 -119l33 255l-183 182l254 49l113 225l124 -223l254 -51zM727 415l-213 43l-107 193l-98 -196l-212 -40l153 -153l-27 -216l184 99l206 -99l-35 221z" />
<glyph unicode="&#x2610;" horiz-adv-x="841" d="M153 71h546v551h-546v-551zM82 0v693h687v-693h-687z" />
<glyph unicode="&#x2611;" horiz-adv-x="850" d="M692 566q-40 -31 -85 -87.5t-87 -121.5t-78 -129.5t-58 -109.5q-58 -11 -79 -22q-8 30 -21.5 71.5t-30 82t-33.5 72t-32 42.5q21 17 43.5 23t36.5 6q9 0 21.5 -15.5t25.5 -40t24 -56t17 -62.5q29 47 67 99.5t80.5 103t87 93.5t87.5 70zM153 71h546v551h-546v-551zM82 0 v693h687v-693h-687z" />
<glyph unicode="&#x2612;" horiz-adv-x="850" d="M82 0v693h687v-693h-687zM153 71h546v551h-546v-551zM613 592l55 -55l-187 -186l190 -189l-58 -54l-187 189l-188 -192l-53 58l187 186l-187 186l54 57l188 -190z" />
<glyph unicode="&#x2622;" horiz-adv-x="837" d="M418 432q16 0 30.5 -7t25 -18t16.5 -25.5t6 -30.5t-6 -30t-16.5 -24.5t-25 -17t-30.5 -6.5q-31 0 -55.5 22t-24.5 56t23.5 57.5t56.5 23.5zM569 89q-79 -41 -154 -41q-81 0 -148 42l98 170q30 -14 54 -14q20 0 50 14zM364 442q-23 -14 -36 -37.5t-16 -53.5h-197 q0 86 35.5 149t114.5 114zM569 615q72 -40 112 -108t40 -156h-197q-6 62 -55 93zM416 684q-68 0 -128 -26.5t-105 -72t-71 -106t-26 -128.5q0 -70 26.5 -130.5t72 -105.5t106.5 -70.5t129 -25.5q66 0 125.5 26.5t105 71.5t72 103.5t26.5 122.5q0 79 -28.5 142t-75 107 t-106.5 68t-123 24zM418 -17q-77 0 -144 28.5t-117 78t-78.5 117t-28.5 144.5q0 67 26 132t74 117t115.5 84t150.5 32q78 0 146 -28t118 -76.5t78.5 -114t28.5 -141.5q0 -77 -28.5 -145t-78 -118.5t-117 -80t-145.5 -29.5z" />
<glyph unicode="&#x2623;" horiz-adv-x="856" d="M553 462q-13 -27 -37 -43q-44 30 -86 30q-41 0 -89 -30q-14 8 -22 18.5t-15 24.5q32 21 62 32t62 11q64 0 125 -43zM502 120q-7 12 -11.5 25t-6.5 27q88 44 88 124v12t-1 14q11 7 27 8.5t27 1.5q4 -16 4 -37q0 -54 -33.5 -101t-93.5 -74zM351 120q-28 12 -51 30 t-39.5 41.5t-25.5 50t-9 54.5q0 21 4 38h12q22 -2 42 -12v-30q0 -76 88 -120q-2 -14 -7.5 -27.5t-13.5 -24.5zM272 531q0 -68 38 -107.5t111 -48.5v-22q-23 -5 -32.5 -18.5t-9.5 -27.5q0 -5 1 -9.5t3 -9.5l-19 -10q-60 72 -133 72q-29 0 -56.5 -12t-48.5 -32.5t-34 -47.5 t-13 -57q0 -22 6 -56l-11 -5q-8 25 -13.5 50.5t-5.5 50.5q0 29 8 57t26.5 52.5t48 45t73.5 34.5q0 63 11.5 109.5t35 78t59.5 51t86 28.5l5 -15q-136 -39 -136 -151zM583 533q0 109 -118 148l5 16q91 -20 134 -77t43 -155v-16t-1 -17q78 -31 116 -83.5t38 -119.5 q0 -45 -18 -96l-13 4q8 43 8 65q0 30 -12.5 56.5t-33.5 46t-49.5 30.5t-60.5 11q-40 0 -71.5 -19t-55.5 -52l-23 13q3 10 3 20q0 16 -9 27.5t-30 17.5v22q72 9 110 49.5t38 108.5zM428 53q-42 -32 -81 -42.5t-74 -10.5q-26 0 -49 4t-43.5 14t-40 27t-39.5 43l11 8 q68 -60 117 -60q33 0 62 12.5t50.5 33.5t34 49.5t12.5 60.5q0 12 -2.5 30t-15.5 41l22 13q7 -11 17.5 -14.5t20.5 -3.5q18 0 33 17l23 -12q-17 -41 -17 -72t12 -58.5t33 -48.5t48 -33t57 -12q66 0 122 54l12 -8q-19 -26 -38 -42.5t-39.5 -26t-43.5 -13t-50 -3.5 q-38 0 -77.5 10.5t-76.5 42.5z" />
<glyph unicode="&#x262e;" horiz-adv-x="834" d="M410 713q78 0 145.5 -28t117.5 -76.5t78.5 -113.5t28.5 -139q0 -77 -29 -144t-79.5 -116.5t-118.5 -78t-145 -28.5q-73 0 -138.5 29t-115 78.5t-78.5 116t-29 140.5q0 75 28.5 141t78 114.5t115.5 76.5t141 28zM675 204q18 32 28.5 69t10.5 83q0 58 -19 108t-54.5 88.5 t-86 64.5t-113.5 35v-239zM384 413v239q-60 -8 -110 -33t-86 -64.5t-56 -91.5t-20 -112q0 -27 2.5 -47t7.5 -36t12.5 -31.5t18.5 -33.5zM441 338v-289q59 7 107 34t93 75zM384 338l-197 -180q23 -22 45 -40t45 -32.5t49 -24t58 -14.5v291z" />
<glyph unicode="&#x262f;" horiz-adv-x="828" d="M525 174q-21 0 -34.5 15.5t-13.5 33.5q0 23 15.5 37.5t32.5 14.5q22 0 36.5 -16t14.5 -36q0 -22 -15.5 -35.5t-35.5 -13.5zM253 488q0 -20 13 -35t36 -15q22 0 36.5 15t14.5 35q0 18 -14 33.5t-38 15.5q-17 0 -32.5 -13.5t-15.5 -35.5zM50 356q0 82 31.5 148.5t82.5 114 t116 73.5t133 26q82 0 149.5 -29.5t115.5 -79.5t74 -116.5t26 -140.5q0 -82 -29.5 -148.5t-79.5 -114t-115.5 -73t-138.5 -25.5q-81 0 -148.5 30.5t-115.5 81t-74.5 116.5t-26.5 137zM249 649q21 6 42 6q41 0 74.5 -15.5t57 -39t36.5 -51t13 -52.5q0 -51 -19.5 -94.5 t-67.5 -91.5q-21 -21 -29 -51.5t-8 -51.5q0 -74 45.5 -115.5t128.5 -41.5q43 0 85 23.5t75 64.5t53.5 96t20.5 118q0 66 -24.5 128.5t-69.5 110.5t-108 77.5t-141 29.5q-45 0 -87.5 -11.5t-81.5 -34.5z" />
<glyph unicode="&#x2672;" horiz-adv-x="919" d="M668 448l-211 21l60 38l-46 81l-124 -185l-169 98l103 166q11 18 27 28t42 10h243q20 0 27.5 -2.5t14.5 -13.5l53 -87l64 38zM50 421h211l85 -183l-60 35l-31 -28q-16 -15 -16 -29q0 -25 31 -25h192v-211h-185q-32 0 -45 10.5t-23 28.5l-113 208q-7 12 -9.5 25t-2.5 27 q0 26 7 50t25 43zM593 372l172 102l95 -176q9 -18 9 -30q0 -11 -3.5 -20.5t-8.5 -18.5l-108 -194q-9 -16 -15.5 -26.5t-13 -17t-15 -9t-21.5 -2.5h-84v-77l-111 175l110 169v-70h109zM199 504l144 -83l120 181q-19 37 -47.5 61t-71.5 24q-29 0 -48 -28zM311 275l-61 131 h-158l47 -32q-19 -18 -29.5 -42.5t-10.5 -50.5q0 -29 9.5 -46.5t25 -27t34.5 -13t37 -3.5h28q-11 8 -11 24q0 20 19 39l42 38zM448 178h-237q-17 0 -28.5 1t-20 2.5t-16 4t-15.5 5.5l88 -163q9 -16 19.5 -25.5t33.5 -9.5h176v185zM686 582l-59 93q-6 10 -13 13.5t-19 3.5 h-204q31 -7 51.5 -33t38.5 -58l56 -100l-37 -23l159 -15l67 145zM611 368l115 -191q19 2 41 10t41 20.5t31.5 28.5t12.5 34q0 7 -2 13t-4 11l-89 159zM587 206l-81 -128l81 -130v45h96q9 0 20.5 5t20.5 21l103 188q-32 -30 -67.5 -37.5t-88.5 -7.5h-84v44z" />
<glyph unicode="&#x2673;" horiz-adv-x="869" d="M536 0v-59h-16l-74 95l78 98l13 -2v-59h128q36 0 52.5 12t16.5 32q0 19 -16 46l-100 170l67 39l111 -194q23 -39 23 -73q0 -48 -40.5 -76.5t-102.5 -28.5h-140zM393 73v-73h-213q-60 0 -95 28.5t-35 75.5q0 36 24 78l73 131l-46 25l7 13l118 22l42 -112l-8 -15l-47 29 l-64 -116q-13 -24 -13 -43q0 -18 13.5 -30.5t45.5 -12.5h198zM624 400l-121 21l-6 12l49 27l-71 120q-8 14 -19.5 22t-25.5 8t-27 -10t-21 -25l-99 -174l-64 37l106 185q22 38 49.5 54.5t57.5 16.5q31 0 59.5 -18t46.5 -50l73 -129l51 29l6 -14zM452 120h-55v228l-36 -25v57 l42 30h49v-290z" />
<glyph unicode="&#x2674;" horiz-adv-x="869" d="M329 124v46l107 134q14 15 14 33q0 11 -8 20t-23 9q-14 0 -23.5 -11.5t-12.5 -31.5l-52 6q6 42 31 64.5t57 22.5q36 0 60 -20t24 -58q0 -14 -5 -29.5t-16 -29.5l-83 -104h99v-51h-169zM536 0v-59h-16l-74 95l78 98l13 -2v-59h128q36 0 52.5 12t16.5 32q0 19 -16 46 l-100 170l67 39l111 -194q23 -39 23 -73q0 -48 -40.5 -76.5t-102.5 -28.5h-140zM393 73v-73h-213q-60 0 -95 28.5t-35 75.5q0 36 24 78l73 131l-46 25l7 13l118 22l42 -112l-8 -15l-47 29l-64 -116q-13 -24 -13 -43q0 -18 13.5 -30.5t45.5 -12.5h198zM624 400l-121 21l-6 12 l49 27l-71 120q-8 14 -19.5 22t-25.5 8t-27 -10t-21 -25l-99 -174l-64 37l106 185q22 38 49.5 54.5t57.5 16.5q31 0 59.5 -18t46.5 -50l73 -129l51 29l6 -14z" />
<glyph unicode="&#x2675;" horiz-adv-x="869" d="M536 0v-59h-16l-74 95l78 98l13 -2v-59h128q36 0 52.5 12t16.5 32q0 19 -16 46l-100 170l67 39l111 -194q23 -39 23 -73q0 -48 -40.5 -76.5t-102.5 -28.5h-140zM393 73v-73h-213q-60 0 -95 28.5t-35 75.5q0 36 24 78l73 131l-46 25l7 13l118 22l42 -112l-8 -15l-47 29 l-64 -116q-13 -24 -13 -43q0 -18 13.5 -30.5t45.5 -12.5h198zM624 400l-121 21l-6 12l49 27l-71 120q-8 14 -19.5 22t-25.5 8t-27 -10t-21 -25l-99 -174l-64 37l106 185q22 38 49.5 54.5t57.5 16.5q31 0 59.5 -18t46.5 -50l73 -129l51 29l6 -14zM505 214q0 -42 -24.5 -67.5 t-66.5 -25.5q-14 0 -27.5 3.5t-25 12.5t-20 24t-12.5 37l51 7q4 -19 13.5 -27t21.5 -8q18 0 28.5 12.5t10.5 30.5q0 19 -10.5 28.5t-26.5 9.5h-29v48h26q16 0 26.5 9.5t10.5 23.5t-10 24t-24 10q-11 0 -20 -9.5t-14 -26.5l-52 6q7 35 31 57.5t55 22.5q45 0 65.5 -25 t20.5 -58q0 -15 -5 -29t-22 -27q17 -14 23 -30t6 -33z" />
<glyph unicode="&#x2676;" horiz-adv-x="869" d="M536 0v-59h-16l-74 95l78 98l13 -2v-59h128q36 0 52.5 12t16.5 32q0 19 -16 46l-100 170l67 39l111 -194q23 -39 23 -73q0 -48 -40.5 -76.5t-102.5 -28.5h-140zM393 73v-73h-213q-60 0 -95 28.5t-35 75.5q0 36 24 78l73 131l-46 25l7 13l118 22l42 -112l-8 -15l-47 29 l-64 -116q-13 -24 -13 -43q0 -18 13.5 -30.5t45.5 -12.5h198zM624 400l-121 21l-6 12l49 27l-71 120q-8 14 -19.5 22t-25.5 8t-27 -10t-21 -25l-99 -174l-64 37l106 185q22 38 49.5 54.5t57.5 16.5q31 0 59.5 -18t46.5 -50l73 -129l51 29l6 -14zM477 167v-41h-51v41h-117v43 l96 206h56l-93 -200h58v70h51v-70h22v-49h-22z" />
<glyph unicode="&#x2677;" horiz-adv-x="869" d="M536 0v-59h-16l-74 95l78 98l13 -2v-59h128q36 0 52.5 12t16.5 32q0 19 -16 46l-100 170l67 39l111 -194q23 -39 23 -73q0 -48 -40.5 -76.5t-102.5 -28.5h-140zM393 73v-73h-213q-60 0 -95 28.5t-35 75.5q0 36 24 78l73 131l-46 25l7 13l118 22l42 -112l-8 -15l-47 29 l-64 -116q-13 -24 -13 -43q0 -18 13.5 -30.5t45.5 -12.5h198zM624 400l-121 21l-6 12l49 27l-71 120q-8 14 -19.5 22t-25.5 8t-27 -10t-21 -25l-99 -174l-64 37l106 185q22 38 49.5 54.5t57.5 16.5q31 0 59.5 -18t46.5 -50l73 -129l51 29l6 -14zM510 215q0 -41 -22 -69 t-67 -28q-31 0 -54.5 16t-32.5 60l51 10q8 -38 36 -38q13 0 20.5 5.5t11.5 14t5.5 18.5t1.5 19q0 19 -6.5 34.5t-28.5 15.5q-10 0 -18 -7t-15 -18h-47v162h151v-50h-102v-47q10 5 19.5 7t19.5 2q38 0 57.5 -25t19.5 -64v-18z" />
<glyph unicode="&#x2678;" horiz-adv-x="869" d="M536 0v-59h-16l-74 95l78 98l13 -2v-59h128q36 0 52.5 12t16.5 32q0 19 -16 46l-100 170l67 39l111 -194q23 -39 23 -73q0 -48 -40.5 -76.5t-102.5 -28.5h-140zM393 73v-73h-213q-60 0 -95 28.5t-35 75.5q0 36 24 78l73 131l-46 25l7 13l118 22l42 -112l-8 -15l-47 29 l-64 -116q-13 -24 -13 -43q0 -18 13.5 -30.5t45.5 -12.5h198zM624 400l-121 21l-6 12l49 27l-71 120q-8 14 -19.5 22t-25.5 8t-27 -10t-21 -25l-99 -174l-64 37l106 185q22 38 49.5 54.5t57.5 16.5q31 0 59.5 -18t46.5 -50l73 -129l51 29l6 -14zM514 211q0 -24 -7.5 -42 t-20 -29t-28.5 -16.5t-33 -5.5q-38 0 -62 22.5t-24 67.5q0 14 3.5 30t12.5 33q17 33 36.5 69t36.5 70h56l-55 -113h6q35 0 57 -25.5t22 -60.5zM460 209q0 20 -10 30t-24 10t-24.5 -10t-10.5 -30t9.5 -31t25.5 -11q14 0 24 11t10 31z" />
<glyph unicode="&#x2679;" horiz-adv-x="869" d="M536 0v-59h-16l-74 95l78 98l13 -2v-59h128q36 0 52.5 12t16.5 32q0 19 -16 46l-100 170l67 39l111 -194q23 -39 23 -73q0 -48 -40.5 -76.5t-102.5 -28.5h-140zM393 73v-73h-213q-60 0 -95 28.5t-35 75.5q0 36 24 78l73 131l-46 25l7 13l118 22l42 -112l-8 -15l-47 29 l-64 -116q-13 -24 -13 -43q0 -18 13.5 -30.5t45.5 -12.5h198zM624 400l-121 21l-6 12l49 27l-71 120q-8 14 -19.5 22t-25.5 8t-27 -10t-21 -25l-99 -174l-64 37l106 185q22 38 49.5 54.5t57.5 16.5q31 0 59.5 -18t46.5 -50l73 -129l51 29l6 -14zM412 115h-56l95 239h-61v-41 h-52v92h172v-44z" />
<glyph unicode="&#x267a;" horiz-adv-x="869" d="M536 0v-59h-16l-74 95l78 98l13 -2v-59h128q36 0 52.5 12t16.5 32q0 19 -16 46l-100 170l67 39l111 -194q23 -39 23 -73q0 -48 -40.5 -76.5t-102.5 -28.5h-140zM393 73v-73h-213q-60 0 -95 28.5t-35 75.5q0 36 24 78l73 131l-46 25l7 13l118 22l42 -112l-8 -15l-47 29 l-64 -116q-13 -24 -13 -43q0 -18 13.5 -30.5t45.5 -12.5h198zM624 400l-121 21l-6 12l49 27l-71 120q-8 14 -19.5 22t-25.5 8t-27 -10t-21 -25l-99 -174l-64 37l106 185q22 38 49.5 54.5t57.5 16.5q31 0 59.5 -18t46.5 -50l73 -129l51 29l6 -14z" />
<glyph unicode="&#x267b;" horiz-adv-x="889" d="M730 616l-82 -144h-167l52 33l-74 133q-12 21 -27.5 34.5t-29.5 21.5h181q28 0 37.5 -6t15.5 -17l46 -82zM321 695q36 0 63.5 -19t42.5 -39l-121 -220l-147 87l83 146q13 17 33 31t46 14zM738 495l86 -148q15 -25 15 -52q0 -24 -11 -44t-28 -34.5t-39 -22.5t-43 -8h-8 l-123 222zM303 290l-46 27l-72 -131q-17 -27 -25 -47.5t-8 -33.5l-88 152q-14 24 -14 39q0 8 5 23l50 86l-41 20h161zM469 80l86 137v-60h149q16 0 44 7.5t51 22.5l-100 -152q-15 -23 -32 -29t-31 -6h-81v-58zM448 0h-189q-11 0 -25.5 4.5t-27.5 14t-22 25.5t-9 40 q0 18 6.5 35.5t17.5 37.5h249v-157z" />
<glyph unicode="&#x267c;" horiz-adv-x="836" d="M786 352q0 -76 -29 -143t-79 -117t-117 -79t-143 -29t-143 29t-117 79t-79 117t-29 143t29 143t79 117t117 79t143 29t143 -29t117 -79t79 -117t29 -143zM593 538l-34 61q-5 9 -12 13t-27 4h-137q11 -5 22.5 -15t20.5 -26l55 -100l-39 -25h125l62 108zM323 617 q-20 0 -35.5 -9.5t-23.5 -24.5l-62 -109l111 -65l90 165q-12 15 -32.5 29t-47.5 14zM522 403l92 -166h6q16 0 32 6t29 16.5t21 25.5t8 33q0 9 -2 19t-9 20l-64 111zM251 415h-120l30 -14l-38 -64q-5 -8 -5 -19q0 -13 10 -30l69 -111q0 20 23 60l55 97l34 -19zM498 54v43h61 q9 0 22.5 5t24.5 22l75 113q-17 -10 -38.5 -16.5t-32.5 -6.5h-112v46l-64 -102zM418 214h-186q-18 -27 -18 -53q0 -18 6.5 -30.5t16.5 -20t20.5 -10.5t18.5 -3h142v117z" />
<glyph unicode="&#x267d;" horiz-adv-x="836" d="M786 353q0 -76 -29 -143t-79 -117t-117 -79t-143 -29t-143 29t-117 79t-79 117t-29 143t29 143t79 117t117 79t143 29t143 -29t117 -79t79 -117t29 -143zM767 353q0 72 -27.5 135.5t-74.5 111t-111 75t-136 27.5t-135.5 -27.5t-111 -75t-75 -111t-27.5 -135.5t27.5 -136 t75 -111t111 -74.5t135.5 -27.5t136 27.5t111 74.5t74.5 111t27.5 136zM631 558l-62 -108h-125l39 25l-55 100q-9 16 -20.5 26t-22.5 15h137q20 0 27 -4t12 -13l34 -61zM325 617q27 0 47.5 -14t32.5 -29l-90 -165l-111 65l62 109q8 15 23.5 24.5t35.5 9.5zM637 468l64 -111 q7 -10 9 -20t2 -19q0 -18 -8 -33t-21 -25.5t-29 -16.5t-32 -6h-6l-92 166zM311 315l-34 19l-55 -97q-23 -40 -23 -60l-69 111q-10 17 -10 30q0 11 5 19l38 64l-30 14h120zM436 158l64 102v-46h112q11 0 32.5 6.5t38.5 16.5l-75 -113q-11 -17 -24.5 -22t-22.5 -5h-61v-43z M420 97h-142q-8 0 -18.5 3t-20.5 10.5t-16.5 20t-6.5 30.5q0 26 18 53h186v-117z" />
<glyph unicode="&#x2693;" horiz-adv-x="698" d="M381 68q33 3 70 14.5t81 52.5l-40 35l142 41l-21 -152l-38 41q-54 -55 -111 -79t-115 -29q-58 5 -115 29t-110 79l-38 -41l-22 152l142 -41l-40 -35q22 -21 42 -33.5t39 -19.5t36.5 -10t34.5 -4v397h-128v48h128v12q-27 8 -44 32t-17 53q0 38 26.5 64t63.5 26q18 0 34 -7 t28 -19t19 -28.5t7 -35.5q0 -29 -15.5 -50.5t-40.5 -31.5v-15h130v-48h-130v-397h2z" />
<glyph unicode="&#x26a0;" horiz-adv-x="884" d="M437 525q24 0 36 -13.5t12 -32.5l-29 -281q-2 -8 -8.5 -13t-11.5 -5q-6 0 -12.5 5t-7.5 13l-23 281q0 16 12 31t32 15zM437 75q-6 0 -14 2t-14.5 6.5t-11.5 13t-5 21.5q0 4 2 11t7.5 14t14 11.5t21.5 4.5q17 0 29.5 -11.5t12.5 -31.5q0 -19 -12.5 -30t-29.5 -11zM391 669 q11 19 24 27.5t27 8.5q13 0 25.5 -8.5t22.5 -25.5l331 -588q10 -17 10 -37t-12.5 -33t-40.5 -13h-675q-29 0 -41.5 13.5t-12.5 32.5q0 18 11 37zM125 90q-5 -8 -8.5 -14t-3.5 -11t6 -7t23 -2h597q17 0 23 2t6 7t-4 11.5t-9 14.5l-297 526q-9 17 -19 17q-5 0 -10 -5t-9 -12z " />
<glyph unicode="&#x2706;" horiz-adv-x="432" d="M268 501q-26 0 -36 -38t-10 -125q0 -12 2 -36t7 -48.5t14 -43.5t23 -21v-201q-9 0 -24 6t-33 21t-37 41t-34.5 66t-25 95.5t-9.5 130.5q0 113 20.5 183t48 109t54.5 53.5t40 15.5v-208zM281 -12v201h60q8 0 14 -4.5t6 -15.5v-160q0 -8 -4.5 -14.5t-15.5 -6.5h-60z M281 501v208h60q8 0 14 -6t6 -14v-163q0 -25 -20 -25h-60z" />
<glyph unicode="&#x2708;" horiz-adv-x="890" d="M566 246l-208 -351h-96l115 351h-191l-61 -80h-75l38 127l-41 126h75l64 -84h192l-112 359h95l207 -359h247q25 0 38 -14.5t13 -31.5q0 -16 -12.5 -29.5t-37.5 -13.5h-250z" />
<glyph unicode="&#x2709;" horiz-adv-x="1070" d="M353 330l-229 228v-454zM712 337l227 -227v456zM169 64h726l-222 224l-143 -144l-137 136zM162 610l368 -371l366 371h-734zM1005 671v-671h-941v671h941z" />
<glyph unicode="&#x2713;" horiz-adv-x="764" d="M756 656q-35 -27 -75.5 -72.5t-82 -102.5t-82.5 -121.5t-78 -127t-67.5 -120t-50.5 -100.5q-36 -8 -62 -16t-39 -16q-7 29 -17.5 66.5t-23.5 77.5t-28 79t-30 71.5t-29.5 54t-26.5 27.5q23 20 52 28.5t49 8.5q13 0 31 -23.5t35.5 -61t31.5 -83.5t19 -91q37 65 91 142.5 t115.5 152.5t126.5 139.5t126 104.5z" />
<glyph unicode="&#x2716;" horiz-adv-x="742" d="M717 172l-173 -174l-173 175l-173 -175l-173 174l175 172l-175 172l173 174l173 -174l173 174l173 -174l-174 -172z" />
<glyph unicode="&#x271a;" horiz-adv-x="748" d="M264 666h230v-218h218v-230h-213v-218h-231v218h-217v230h213v218z" />
<glyph unicode="&#x272a;" horiz-adv-x="796" d="M752 346q0 -74 -28 -138.5t-76 -112.5t-112.5 -75.5t-138.5 -27.5t-138.5 27.5t-112.5 75.5t-76 112.5t-28 138.5q0 73 28 138t76 113t112.5 76t138.5 28t138.5 -28t112.5 -76t76 -113t28 -138zM484 468l-96 177l-91 -179l-196 -39l141 -140l-24 -199l170 92l189 -92 l-32 204l137 135z" />
<glyph unicode="&#x2794;" horiz-adv-x="736" d="M433 637l290 -290l-289 -289h-171l230 229h-465v122h466l-230 228h169z" />
<glyph unicode="&#xe000;" horiz-adv-x="405" d="M354 141q0 -35 -12 -62.5t-32.5 -46.5t-48 -28.5t-58.5 -9.5q-32 0 -59.5 9.5t-48 28.5t-32.5 46.5t-12 62.5v412q0 35 12 63t32.5 47t48 29t59.5 10q67 0 109 -39t42 -110v-412zM247 557q0 20 -12.5 31.5t-31.5 11.5q-20 0 -33 -11.5t-13 -31.5v-420q0 -20 13 -31.5 t33 -11.5q19 0 31.5 11.5t12.5 31.5v420z" />
<glyph unicode="&#xe001;" horiz-adv-x="351" d="M146 0v575l-95 -76v116l101 81h101v-696h-107z" />
<glyph unicode="&#xe002;" horiz-adv-x="405" d="M202 600q-23 -1 -37 -22t-14 -75l-106 12q0 89 43 138t115 49q83 0 119 -44.5t36 -119.5q1 -46 -9.5 -82t-31.5 -77l-141 -277h175v-102h-300v94q45 85 88.5 169.5t87.5 169.5q14 26 17.5 51.5t3.5 53.5q0 9 -1.5 20t-6.5 20t-14 15.5t-24 6.5z" />
<glyph unicode="&#xe003;" horiz-adv-x="398" d="M289 358q35 -16 46 -46.5t11 -68.5l-1 -80q0 -83 -43.5 -126t-116.5 -43q-85 0 -122 46.5t-32 131.5l107 13q-5 -50 9.5 -70t39.5 -20q18 0 33.5 12.5t15.5 46.5v94q0 35 -16 50t-45 15h-30v92h35q29 0 44 14t15 47v77q0 20 -9 38t-35 18q-25 0 -39.5 -20.5t-14.5 -68.5 l-106 14q2 81 46 129.5t119 48.5q41 0 69 -13t45 -34.5t24.5 -49t7.5 -55.5v-55q0 -20 -1.5 -39.5t-7 -36.5t-17 -31.5t-31.5 -24.5v-5z" />
<glyph unicode="&#xe004;" horiz-adv-x="405" d="M335 104v-104h-105v104h-204v91l148 501h105l-144 -492h95v158h105v-158h44v-100h-44z" />
<glyph unicode="&#xe005;" horiz-adv-x="405" d="M200 -6q-79 0 -115.5 45t-36.5 125l104 17v-14q0 -39 12 -55.5t38 -16.5q18 0 31.5 12t15.5 46v165q0 43 -43 43q-16 0 -30.5 -8.5t-22.5 -28.5h-90v372h290v-99h-192v-168q1 0 1.5 -0.5t2.5 -0.5q13 14 33.5 20.5t39.5 6.5q64 0 91.5 -35.5t27.5 -89.5v-144 q0 -99 -38.5 -145.5t-118.5 -46.5z" />
<glyph unicode="&#xe006;" horiz-adv-x="386" d="M192 396q18 12 44 12q49 0 78.5 -32t29.5 -101v-122q0 -34 -9.5 -63t-28.5 -50.5t-48 -33.5t-68 -12q-69 0 -109.5 39t-40.5 105v89q0 41 4.5 73.5t15.5 61.5l128 334h113l-113 -296zM237 279q0 20 -13 30.5t-32 10.5q-23 0 -34.5 -15t-11.5 -35v-134q0 -20 13 -30.5 t32 -10.5q20 0 33 10.5t13 30.5v143z" />
<glyph unicode="&#xe007;" horiz-adv-x="363" d="M158 0h-106l170 597h-100v-75h-95v174h307v-91z" />
<glyph unicode="&#xe008;" horiz-adv-x="405" d="M353 489q0 -38 -11 -72t-42 -51q0 -1 1 -1q19 -12 29.5 -27t15.5 -33t6.5 -39.5t1.5 -46.5v-60q0 -43 -11.5 -74t-32 -51.5t-48 -30t-59.5 -9.5q-40 0 -69 12t-47.5 34t-27.5 52t-9 65v50q0 24 1.5 47t7 43.5t16.5 37t30 28.5q-17 7 -27.5 20.5t-16.5 29t-8 31t-2 26.5 v80q0 69 41.5 110.5t109.5 41.5q73 0 112 -41.5t39 -120.5v-51zM247 269q0 21 -9.5 38t-35.5 17t-36 -17t-10 -38v-132q0 -19 13.5 -31t32.5 -12q20 0 32.5 12t12.5 31v132zM247 549q0 22 -10.5 37t-34.5 15q-18 0 -32 -11.5t-14 -30.5v-110q0 -19 13.5 -30.5t32.5 -11.5 q20 0 32.5 11.5t12.5 30.5v100z" />
<glyph unicode="&#xe009;" horiz-adv-x="386" d="M192 300q-18 -12 -44 -12q-49 0 -78.5 29.5t-29.5 104.5v121q0 34 9.5 63t28.5 50.5t48 33.5t69 12q74 0 112 -39t38 -105v-89q0 -79 -20 -135l-128 -334h-114l113 296zM147 417q0 -20 13 -31t33 -11q23 0 34 15.5t11 35.5v134q0 20 -12.5 30.5t-32.5 10.5 q-19 0 -32.5 -10.5t-13.5 -30.5v-143z" />
<glyph unicode="&#xe00a;" horiz-adv-x="405" d="M6 290h70l23 125h-56v74h69l38 209h76l-39 -209h79l38 209h75l-39 -209h58v-74h-71l-22 -125h58v-74h-72l-39 -216h-75l39 216h-79l-38 -216h-76l40 216h-57v74zM151 290h79l23 125h-79z" />
<glyph unicode="&#xe00b;" horiz-adv-x="405" d="M374 198q0 -44 -7.5 -80.5t-25.5 -63t-47 -42t-72 -17.5v-83h-37v83q-41 2 -70.5 16t-48 36.5t-27.5 52t-9 63.5l108 21q1 -32 11 -56t36 -30v213q-49 21 -78.5 42.5t-45.5 45.5t-21 51.5t-5 60.5q0 78 36 130t114 60v73h37v-72q44 -2 73.5 -18t47 -40t24.5 -52t7 -54 l-106 -25q0 33 -10 56t-36 28v-185q49 -22 79 -43t46.5 -45.5t21.5 -55t5 -70.5zM268 197q0 40 -9 59.5t-37 36.5v-195q16 3 25 12.5t13.5 23t6 29.5t1.5 34zM142 512q0 -26 6.5 -44.5t36.5 -36.5v165q-27 -8 -35 -33.5t-8 -50.5z" />
<glyph unicode="&#xe00c;" horiz-adv-x="405" d="M16 325h37v50h-37v60h37v77q0 39 9 74t29.5 60.5t52.5 40.5t78 15q85 0 125.5 -44.5t39.5 -114.5l-105 -18q-2 35 -17 55t-44 20q-18 0 -30 -8t-19 -20t-9.5 -26.5t-2.5 -27.5v-83h135v-60h-135v-50h135v-59h-135v-102q0 -11 2 -23t8.5 -22.5t18 -17t29.5 -6.5 q57 0 61 77l108 -15q-3 -75 -45 -119t-120 -44q-87 0 -128 43.5t-41 128.5v100h-37v59z" />
<glyph unicode="&#xe00d;" horiz-adv-x="369" d="M56 429h77l10 77q4 35 13 69.5t27 61.5t45.5 44t69.5 17q20 0 40.5 -2.5t37.5 -11.5l-21 -92q-15 7 -28.5 8.5t-23.5 1.5q-29 0 -41.5 -26t-16.5 -62l-11 -85h76v-92h-87l-25 -222q-6 -49 -15.5 -86.5t-26 -63t-41 -38.5t-59.5 -13q-17 0 -40 4t-46 15q1 5 5 17l8.5 25.5 t8 25t5.5 16.5q14 -7 23.5 -8.5t17.5 -1.5q26 0 38 24.5t18 76.5l26 229h-64v92z" />
<glyph unicode="&#xe00e;" horiz-adv-x="405" d="M206 702q79 0 124 -43.5t45 -120.5l-105 -24q0 38 -15.5 61t-47.5 23q-23 0 -39.5 -16t-16.5 -43q0 -18 4.5 -36t11 -38t13 -43.5t11.5 -52.5h97v-84h-94q0 -60 -11.5 -102.5t-31.5 -84.5h209v-98h-330v91q14 24 23.5 44.5t16 42.5t11 47.5t7.5 59.5h-57v84h51 q-5 25 -11.5 45t-12.5 39.5t-10.5 40t-4.5 45.5q0 37 12 67t33.5 51.5t51.5 33t66 11.5z" />
<glyph unicode="&#xe00f;" horiz-adv-x="405" d="M177 -4q-55 5 -82.5 33.5t-36.5 63.5q-3 12 -5 30t-2.5 38.5t-1 42t-0.5 39.5q0 24 1 49.5t3 48.5t5 43t8 32q13 32 39.5 55t71.5 29v102h53v-101q63 -6 93.5 -46.5t30.5 -106.5q-26 -3 -53.5 -6t-53.5 -7q0 35 -11.5 51t-30.5 16q-30 0 -41 -30q-3 -10 -5.5 -40 t-2.5 -70v-36q0 -29 0.5 -56.5t5.5 -41.5q5 -16 15 -25.5t28 -9.5q42 0 42 64q27 -5 54 -8t54 -8q-1 -63 -33 -100.5t-92 -44.5v-113h-53v113z" />
<glyph unicode="&#xe010;" horiz-adv-x="405" d="M273 343h83v-58h-99q-1 -5 -1.5 -11t-0.5 -11v-29h101v-59h-101v-175h-105v175h-98v59h98v29q0 5 -0.5 11t-1.5 11h-96v58h79l-114 353h111l39 -139q8 -35 16.5 -69t17.5 -68h5q9 35 17 69t17 69t18 69t19 69h110z" />
<glyph unicode="&#xe024;" horiz-adv-x="405" d="M354 141q0 -35 -12 -62.5t-32 -46.5t-48 -28.5t-59 -9.5q-32 0 -59.5 9.5t-48 28.5t-32.5 46.5t-12 62.5v212q0 35 12 63t33 47t48.5 29t58.5 10q32 0 59.5 -10t48 -29t32 -47t11.5 -63v-212zM248 359q0 20 -12.5 30.5t-32.5 10.5q-19 0 -32.5 -10.5t-13.5 -30.5v-224 q0 -20 13.5 -30t32.5 -10q20 0 32.5 10t12.5 30v224z" />
<glyph unicode="&#xe025;" horiz-adv-x="405" d="M49 0v101h102v272l-95 -76v117l101 81h101v-394h102v-101h-311z" />
</font>
</defs>
</svg>
